<svg xmlns="http://www.w3.org/2000/svg" width="609" height="320.726" viewBox="0 0 609 320.726">
  <g id="Grupo_210425" data-name="Grupo 210425" transform="translate(-595 -3122.126)">
    <g id="Grupo_210424" data-name="Grupo 210424">
      <g id="Grupo_210423" data-name="Grupo 210423">
        <g id="Grupo_210422" data-name="Grupo 210422">
          <g id="Grupo_210421" data-name="Grupo 210421">
            <g id="Trazado_221403" data-name="Trazado 221403" transform="translate(647 3216.852)" fill="#fff">
              <path d="M 92 181.5 C 85.9259033203125 181.5 79.85637664794922 180.8882293701172 73.95997619628906 179.6816558837891 C 68.2147216796875 178.5059967041016 62.56349945068359 176.7517547607422 57.16332626342773 174.4676818847656 C 51.86062622070312 172.2248229980469 46.74597549438477 169.4486541748047 41.96144866943359 166.2162933349609 C 37.22172546386719 163.0142059326172 32.76462554931641 159.3367462158203 28.71394920349121 155.2860565185547 C 24.66324996948242 151.2353820800781 20.98579978942871 146.7782745361328 17.78370094299316 142.0385437011719 C 14.55134963989258 137.2540283203125 11.77517509460449 132.1393737792969 9.53232479095459 126.8366775512695 C 7.248250007629395 121.4365005493164 5.49399995803833 115.7852783203125 4.318349838256836 110.0400238037109 C 3.111774921417236 104.1436233520508 2.5 98.0740966796875 2.5 92 C 2.5 85.9259033203125 3.111774921417236 79.85637664794922 4.318349838256836 73.95997619628906 C 5.49399995803833 68.2147216796875 7.248250007629395 62.56349945068359 9.53232479095459 57.16332626342773 C 11.77517509460449 51.86062622070312 14.55134963989258 46.74597549438477 17.78370094299316 41.96144866943359 C 20.98579978942871 37.22172546386719 24.66324996948242 32.76462554931641 28.71394920349121 28.71394920349121 C 32.76462554931641 24.66324996948242 37.22172546386719 20.98579978942871 41.96144866943359 17.78370094299316 C 46.74597549438477 14.55134963989258 51.86062622070312 11.77517509460449 57.16332626342773 9.53232479095459 C 62.56349945068359 7.248250007629395 68.2147216796875 5.49399995803833 73.95997619628906 4.318349838256836 C 79.85637664794922 3.111774921417236 85.9259033203125 2.5 92 2.5 C 98.0740966796875 2.5 104.1436233520508 3.111774921417236 110.0400238037109 4.318349838256836 C 115.7852783203125 5.49399995803833 121.4365005493164 7.248250007629395 126.8366775512695 9.53232479095459 C 132.1393737792969 11.77517509460449 137.2540283203125 14.55134963989258 142.0385437011719 17.78370094299316 C 146.7782745361328 20.98579978942871 151.2353820800781 24.66324996948242 155.2860565185547 28.71394920349121 C 159.3367462158203 32.76462554931641 163.0142059326172 37.22172546386719 166.2162933349609 41.96144866943359 C 169.4486541748047 46.74597549438477 172.2248229980469 51.86062622070312 174.4676818847656 57.16332626342773 C 176.7517547607422 62.56349945068359 178.5059967041016 68.2147216796875 179.6816558837891 73.95997619628906 C 180.8882293701172 79.85637664794922 181.5 85.9259033203125 181.5 92 C 181.5 98.0740966796875 180.8882293701172 104.1436233520508 179.6816558837891 110.0400238037109 C 178.5059967041016 115.7852783203125 176.7517547607422 121.4365005493164 174.4676818847656 126.8366775512695 C 172.2248229980469 132.1393737792969 169.4486541748047 137.2540283203125 166.2162933349609 142.0385437011719 C 163.0142059326172 146.7782745361328 159.3367462158203 151.2353820800781 155.2860565185547 155.2860565185547 C 151.2353820800781 159.3367462158203 146.7782745361328 163.0142059326172 142.0385437011719 166.2162933349609 C 137.2540283203125 169.4486541748047 132.1393737792969 172.2248229980469 126.8366775512695 174.4676818847656 C 121.4365005493164 176.7517547607422 115.7852783203125 178.5059967041016 110.0400238037109 179.6816558837891 C 104.1436233520508 180.8882293701172 98.0740966796875 181.5 92 181.5 Z" stroke="none"/>
              <path d="M 92 5 C 86.09388732910156 5 80.19297027587891 5.5947265625 74.46116638183594 6.767608642578125 C 68.87758636474609 7.910171508789062 63.38541412353516 9.615020751953125 58.13722229003906 11.8348388671875 C 52.98316955566406 14.01480102539062 48.01171875 16.71327209472656 43.36097717285156 19.85527038574219 C 38.75308227539062 22.96827697753906 34.41989135742188 26.54353332519531 30.48171997070312 30.48171997070312 C 26.54353332519531 34.41989135742188 22.96827697753906 38.75308227539062 19.85527038574219 43.36097717285156 C 16.71327209472656 48.01171875 14.01480102539062 52.98316955566406 11.8348388671875 58.13722229003906 C 9.615020751953125 63.38541412353516 7.910171508789062 68.87758636474609 6.767608642578125 74.46116638183594 C 5.5947265625 80.19297027587891 5 86.09388732910156 5 92 C 5 97.90611267089844 5.5947265625 103.8070297241211 6.767608642578125 109.5388336181641 C 7.910171508789062 115.1224136352539 9.615020751953125 120.6145782470703 11.8348388671875 125.8627777099609 C 14.01480102539062 131.0168304443359 16.71327209472656 135.98828125 19.85527038574219 140.6390228271484 C 22.96827697753906 145.2469177246094 26.54353332519531 149.5801086425781 30.48171997070312 153.5182800292969 C 34.41989135742188 157.4564666748047 38.75308227539062 161.0317230224609 43.36097717285156 164.1447143554688 C 48.01171875 167.2867279052734 52.98316955566406 169.9851989746094 58.13722229003906 172.1651611328125 C 63.38541412353516 174.3849792480469 68.87758636474609 176.0898284912109 74.46116638183594 177.2323913574219 C 80.19297027587891 178.4052734375 86.09388732910156 179 92 179 C 97.90611267089844 179 103.8070297241211 178.4052734375 109.5388336181641 177.2323913574219 C 115.1224136352539 176.0898284912109 120.6145782470703 174.3849792480469 125.8627777099609 172.1651611328125 C 131.0168304443359 169.9851989746094 135.98828125 167.2867279052734 140.6390228271484 164.1447143554688 C 145.2469177246094 161.0317230224609 149.5801086425781 157.4564666748047 153.5182800292969 153.5182800292969 C 157.4564666748047 149.5801086425781 161.0317230224609 145.2469177246094 164.1447143554688 140.6390228271484 C 167.2867279052734 135.98828125 169.9851989746094 131.0168304443359 172.1651611328125 125.8627777099609 C 174.3849792480469 120.6145782470703 176.0898284912109 115.1224136352539 177.2323913574219 109.5388336181641 C 178.4052734375 103.8070297241211 179 97.90611267089844 179 92 C 179 86.09388732910156 178.4052734375 80.19297027587891 177.2323913574219 74.46116638183594 C 176.0898284912109 68.87758636474609 174.3849792480469 63.38541412353516 172.1651611328125 58.13722229003906 C 169.9851989746094 52.98316955566406 167.2867279052734 48.01171875 164.1447143554688 43.36097717285156 C 161.0317230224609 38.75308227539062 157.4564666748047 34.41989135742188 153.5182800292969 30.48171997070312 C 149.5801086425781 26.54353332519531 145.2469177246094 22.96827697753906 140.6390228271484 19.85527038574219 C 135.98828125 16.71327209472656 131.0168304443359 14.01480102539062 125.8627777099609 11.8348388671875 C 120.6145782470703 9.615020751953125 115.1224136352539 7.910171508789062 109.5388336181641 6.767608642578125 C 103.8070297241211 5.5947265625 97.90611267089844 5 92 5 M 92 0 C 142.8101959228516 0 184 41.18980407714844 184 92 C 184 142.8101959228516 142.8101959228516 184 92 184 C 41.18980407714844 184 0 142.8101959228516 0 92 C 0 41.18980407714844 41.18980407714844 0 92 0 Z" stroke="none" fill="#afa7a7"/>
            </g>
            <path id="Trazado_221404" data-name="Trazado 221404" d="M45,0A45,45,0,1,1,0,45,45,45,0,0,1,45,0Z" transform="translate(694 3161.852)" fill="#feca2e"/>
            <path id="Trazado_221405" data-name="Trazado 221405" d="M45,0A45,45,0,1,1,0,45,45,45,0,0,1,45,0Z" transform="translate(694 3352.852)" fill="#4dd0e1" opacity="0.9"/>
            <path id="Trazado_221406" data-name="Trazado 221406" d="M45,0A45,45,0,1,1,0,45,45,45,0,0,1,45,0Z" transform="translate(784 3256.852)" fill="#bddcf6"/>
            <path id="Trazado_221407" data-name="Trazado 221407" d="M45,0A45,45,0,1,1,0,45,45,45,0,0,1,45,0Z" transform="translate(595 3257.852)" fill="#0f2771"/>
            <path id="Trazado_221408" data-name="Trazado 221408" d="M-21.117-2.344h-4.109L-26.008,0H-28.5l4.234-11.375h2.172L-17.836,0h-2.492Zm-3.477-1.9h2.844L-23.18-8.5Zm9.375-4.211.07.977a2.951,2.951,0,0,1,2.43-1.133,2.453,2.453,0,0,1,2,.789,3.682,3.682,0,0,1,.672,2.359V0H-12.3V-5.406a1.465,1.465,0,0,0-.312-1.043,1.4,1.4,0,0,0-1.039-.324,1.553,1.553,0,0,0-1.43.813V0h-2.258V-8.453ZM-3.437,0a2.507,2.507,0,0,1-.227-.758A2.732,2.732,0,0,1-5.8.156,3,3,0,0,1-7.855-.562a2.312,2.312,0,0,1-.816-1.812,2.389,2.389,0,0,1,1-2.062A4.915,4.915,0,0,1-4.8-5.164h1.039v-.484a1.393,1.393,0,0,0-.3-.937,1.183,1.183,0,0,0-.949-.352,1.345,1.345,0,0,0-.895.273.929.929,0,0,0-.324.75H-8.484a2.268,2.268,0,0,1,.453-1.359,3,3,0,0,1,1.281-.98,4.669,4.669,0,0,1,1.859-.355,3.689,3.689,0,0,1,2.48.785,2.747,2.747,0,0,1,.918,2.207v3.664a4.041,4.041,0,0,0,.336,1.82V0ZM-5.3-1.57a1.945,1.945,0,0,0,.922-.223,1.462,1.462,0,0,0,.625-.6V-3.844H-4.6q-1.7,0-1.8,1.172l-.008.133a.9.9,0,0,0,.3.7A1.153,1.153,0,0,0-5.3-1.57ZM-4.445-12h2.461L-4.148-9.578H-5.984ZM2.625,0H.359V-12H2.625ZM6.867,0H4.6V-8.453H6.867Zm-2.4-10.641a1.112,1.112,0,0,1,.34-.836,1.277,1.277,0,0,1,.926-.328,1.28,1.28,0,0,1,.922.328A1.105,1.105,0,0,1,7-10.641a1.108,1.108,0,0,1-.348.844,1.283,1.283,0,0,1-.918.328A1.283,1.283,0,0,1,4.816-9.8,1.108,1.108,0,0,1,4.469-10.641Zm8.836,8.3a.727.727,0,0,0-.41-.652,4.659,4.659,0,0,0-1.316-.426Q8.562-4.047,8.563-5.977A2.323,2.323,0,0,1,9.5-7.855a3.766,3.766,0,0,1,2.441-.754,4.053,4.053,0,0,1,2.574.758,2.388,2.388,0,0,1,.965,1.969H13.219a1.092,1.092,0,0,0-.312-.8A1.322,1.322,0,0,0,11.93-7a1.351,1.351,0,0,0-.883.258.814.814,0,0,0-.312.656.7.7,0,0,0,.355.605,3.657,3.657,0,0,0,1.2.4,9.8,9.8,0,0,1,1.422.379A2.336,2.336,0,0,1,15.5-2.43a2.2,2.2,0,0,1-.992,1.871,4.28,4.28,0,0,1-2.562.715,4.47,4.47,0,0,1-1.887-.379A3.166,3.166,0,0,1,8.766-1.262,2.414,2.414,0,0,1,8.3-2.687h2.141a1.179,1.179,0,0,0,.445.922,1.766,1.766,0,0,0,1.109.32,1.635,1.635,0,0,0,.98-.246A.766.766,0,0,0,13.3-2.336ZM19.336,0H17.07V-8.453h2.266Zm-2.4-10.641a1.112,1.112,0,0,1,.34-.836A1.277,1.277,0,0,1,18.2-11.8a1.28,1.28,0,0,1,.922.328,1.105,1.105,0,0,1,.344.836,1.108,1.108,0,0,1-.348.844,1.283,1.283,0,0,1-.918.328,1.283,1.283,0,0,1-.918-.328A1.108,1.108,0,0,1,16.938-10.641Zm8.836,8.3a.727.727,0,0,0-.41-.652,4.659,4.659,0,0,0-1.316-.426q-3.016-.633-3.016-2.562a2.323,2.323,0,0,1,.934-1.879,3.766,3.766,0,0,1,2.441-.754,4.053,4.053,0,0,1,2.574.758,2.388,2.388,0,0,1,.965,1.969H25.688a1.092,1.092,0,0,0-.312-.8A1.322,1.322,0,0,0,24.4-7a1.351,1.351,0,0,0-.883.258.814.814,0,0,0-.312.656.7.7,0,0,0,.355.605,3.657,3.657,0,0,0,1.2.4A9.8,9.8,0,0,1,26.18-4.7,2.336,2.336,0,0,1,27.969-2.43a2.2,2.2,0,0,1-.992,1.871,4.28,4.28,0,0,1-2.562.715,4.47,4.47,0,0,1-1.887-.379,3.166,3.166,0,0,1-1.293-1.039,2.414,2.414,0,0,1-.469-1.426h2.141a1.179,1.179,0,0,0,.445.922,1.766,1.766,0,0,0,1.109.32,1.635,1.635,0,0,0,.98-.246A.766.766,0,0,0,25.773-2.336Z" transform="translate(739 3212.852)" fill="#12263f"/>
            <path id="Trazado_221409" data-name="Trazado 221409" d="M-30.062-4.008V0h-2.344V-11.375h4.438a5.134,5.134,0,0,1,2.254.469,3.454,3.454,0,0,1,1.5,1.332A3.714,3.714,0,0,1-23.7-7.609,3.266,3.266,0,0,1-24.84-4.973a4.767,4.767,0,0,1-3.168.965Zm0-1.9h2.094a2.059,2.059,0,0,0,1.418-.437,1.591,1.591,0,0,0,.488-1.25,1.876,1.876,0,0,0-.492-1.352,1.839,1.839,0,0,0-1.359-.531h-2.148Zm12.578-.43A6.134,6.134,0,0,0-18.3-6.4a1.654,1.654,0,0,0-1.68.867V0h-2.258V-8.453H-20.1l.063,1.008a2.092,2.092,0,0,1,1.883-1.164,2.366,2.366,0,0,1,.7.1Zm.453,2.031a5.013,5.013,0,0,1,.484-2.242A3.546,3.546,0,0,1-15.152-8.07a4.069,4.069,0,0,1,2.113-.539,3.849,3.849,0,0,1,2.793,1.047A4.2,4.2,0,0,1-9.039-4.719l.016.578A4.418,4.418,0,0,1-10.109-1.02,3.775,3.775,0,0,1-13.023.156a3.793,3.793,0,0,1-2.918-1.172A4.5,4.5,0,0,1-17.031-4.2Zm2.258.16A3.16,3.16,0,0,0-14.32-2.3a1.5,1.5,0,0,0,1.3.638,1.5,1.5,0,0,0,1.281-.63,3.457,3.457,0,0,0,.461-2.015,3.128,3.128,0,0,0-.461-1.831,1.5,1.5,0,0,0-1.3-.649,1.474,1.474,0,0,0-1.281.646A3.516,3.516,0,0,0-14.773-4.144Zm9.844-6.387v2.078h1.445V-6.8H-4.93v4.219a1.007,1.007,0,0,0,.18.672.9.9,0,0,0,.688.2A3.6,3.6,0,0,0-3.4-1.758V-.047a4.648,4.648,0,0,1-1.367.2,2.156,2.156,0,0,1-2.422-2.4V-6.8H-8.422V-8.453h1.234v-2.078ZM-2.812-4.3a5.013,5.013,0,0,1,.484-2.242A3.546,3.546,0,0,1-.934-8.07,4.069,4.069,0,0,1,1.18-8.609,3.849,3.849,0,0,1,3.973-7.562,4.2,4.2,0,0,1,5.18-4.719l.016.578A4.418,4.418,0,0,1,4.109-1.02,3.775,3.775,0,0,1,1.2.156,3.793,3.793,0,0,1-1.723-1.016,4.5,4.5,0,0,1-2.812-4.2Zm2.258.16A3.16,3.16,0,0,0-.1-2.3a1.5,1.5,0,0,0,1.3.638,1.5,1.5,0,0,0,1.281-.63,3.457,3.457,0,0,0,.461-2.015A3.128,3.128,0,0,0,2.477-6.14a1.5,1.5,0,0,0-1.3-.649A1.474,1.474,0,0,0-.1-6.144,3.516,3.516,0,0,0-.555-4.144Zm9.844-6.387v2.078h1.445V-6.8H9.289v4.219a1.007,1.007,0,0,0,.18.672.9.9,0,0,0,.688.2,3.6,3.6,0,0,0,.664-.055V-.047a4.648,4.648,0,0,1-1.367.2,2.156,2.156,0,0,1-2.422-2.4V-6.8H5.8V-8.453H7.031v-2.078ZM14.375,0H12.109V-8.453h2.266Zm-2.4-10.641a1.112,1.112,0,0,1,.34-.836,1.277,1.277,0,0,1,.926-.328,1.28,1.28,0,0,1,.922.328,1.105,1.105,0,0,1,.344.836,1.108,1.108,0,0,1-.348.844,1.283,1.283,0,0,1-.918.328,1.283,1.283,0,0,1-.918-.328A1.108,1.108,0,0,1,11.977-10.641ZM23.844-4.148a5.07,5.07,0,0,1-.887,3.129A2.843,2.843,0,0,1,20.563.156a2.633,2.633,0,0,1-2.07-.891V3.25H16.234v-11.7h2.094l.078.828a2.654,2.654,0,0,1,2.141-.984,2.862,2.862,0,0,1,2.43,1.156,5.207,5.207,0,0,1,.867,3.188Zm-2.258-.164a3.327,3.327,0,0,0-.418-1.82,1.361,1.361,0,0,0-1.215-.641,1.478,1.478,0,0,0-1.461.813V-2.5a1.5,1.5,0,0,0,1.477.836Q21.586-1.664,21.586-4.312Zm3.3.008a5.013,5.013,0,0,1,.484-2.242A3.546,3.546,0,0,1,26.77-8.07a4.069,4.069,0,0,1,2.113-.539,3.849,3.849,0,0,1,2.793,1.047,4.2,4.2,0,0,1,1.207,2.844l.016.578A4.418,4.418,0,0,1,31.813-1.02,3.775,3.775,0,0,1,28.9.156,3.793,3.793,0,0,1,25.98-1.016,4.5,4.5,0,0,1,24.891-4.2Zm2.258.16A3.16,3.16,0,0,0,27.6-2.3a1.5,1.5,0,0,0,1.3.638,1.5,1.5,0,0,0,1.281-.63,3.457,3.457,0,0,0,.461-2.015A3.128,3.128,0,0,0,30.18-6.14a1.5,1.5,0,0,0-1.3-.649,1.474,1.474,0,0,0-1.281.646A3.516,3.516,0,0,0,27.148-4.144ZM1.668,24H-.59V15.3l-2.7.836V14.3l4.711-1.687h.242Z" transform="translate(734 3306.852)" fill="#12263f"/>
            <path id="Trazado_221410" data-name="Trazado 221410" d="M-35.895,0V-11.375h3.5a5.315,5.315,0,0,1,2.684.676,4.712,4.712,0,0,1,1.848,1.922A5.928,5.928,0,0,1-27.2-5.945v.523a5.945,5.945,0,0,1-.652,2.82,4.672,4.672,0,0,1-1.84,1.914A5.355,5.355,0,0,1-32.371,0Zm2.344-9.477v7.594h1.133a2.545,2.545,0,0,0,2.1-.9,4.06,4.06,0,0,0,.742-2.57v-.6a4.124,4.124,0,0,0-.719-2.629,2.537,2.537,0,0,0-2.1-.895Zm11.8,9.633A4.15,4.15,0,0,1-24.781-.984a4.054,4.054,0,0,1-1.168-3.039v-.219a5.106,5.106,0,0,1,.492-2.277,3.612,3.612,0,0,1,1.395-1.547A3.914,3.914,0,0,1-22-8.609a3.508,3.508,0,0,1,2.73,1.094,4.444,4.444,0,0,1,1,3.1v.922H-23.66A2.1,2.1,0,0,0-23-2.164a2,2,0,0,0,1.395.5,2.437,2.437,0,0,0,2.039-.945l1.109,1.242A3.389,3.389,0,0,1-19.832-.246,4.511,4.511,0,0,1-21.754.156Zm-.258-6.945a1.411,1.411,0,0,0-1.09.455,2.357,2.357,0,0,0-.535,1.3H-20.5v-.181A1.681,1.681,0,0,0-20.9-6.377,1.456,1.456,0,0,0-22.012-6.789Zm9.594,4.453a.727.727,0,0,0-.41-.652,4.659,4.659,0,0,0-1.316-.426q-3.016-.633-3.016-2.562a2.323,2.323,0,0,1,.934-1.879,3.766,3.766,0,0,1,2.441-.754,4.053,4.053,0,0,1,2.574.758,2.388,2.388,0,0,1,.965,1.969H-12.5a1.092,1.092,0,0,0-.312-.8A1.322,1.322,0,0,0-13.793-7a1.351,1.351,0,0,0-.883.258.814.814,0,0,0-.312.656.7.7,0,0,0,.355.605,3.657,3.657,0,0,0,1.2.4,9.8,9.8,0,0,1,1.422.379A2.336,2.336,0,0,1-10.223-2.43a2.2,2.2,0,0,1-.992,1.871,4.28,4.28,0,0,1-2.562.715,4.47,4.47,0,0,1-1.887-.379,3.166,3.166,0,0,1-1.293-1.039,2.414,2.414,0,0,1-.469-1.426h2.141a1.179,1.179,0,0,0,.445.922,1.766,1.766,0,0,0,1.109.32,1.635,1.635,0,0,0,.98-.246A.766.766,0,0,0-12.418-2.336ZM-3.871,0A2.507,2.507,0,0,1-4.1-.758,2.732,2.732,0,0,1-6.23.156,3,3,0,0,1-8.289-.562a2.312,2.312,0,0,1-.816-1.812,2.389,2.389,0,0,1,1-2.062A4.915,4.915,0,0,1-5.23-5.164h1.039v-.484a1.393,1.393,0,0,0-.3-.937,1.183,1.183,0,0,0-.949-.352,1.345,1.345,0,0,0-.895.273.929.929,0,0,0-.324.75H-8.918a2.268,2.268,0,0,1,.453-1.359,3,3,0,0,1,1.281-.98,4.669,4.669,0,0,1,1.859-.355,3.689,3.689,0,0,1,2.48.785,2.747,2.747,0,0,1,.918,2.207v3.664A4.041,4.041,0,0,0-1.59-.133V0ZM-5.738-1.57a1.945,1.945,0,0,0,.922-.223,1.462,1.462,0,0,0,.625-.6V-3.844h-.844q-1.7,0-1.8,1.172l-.008.133a.9.9,0,0,0,.3.7A1.153,1.153,0,0,0-5.738-1.57Zm10.3-4.766A6.134,6.134,0,0,0,3.746-6.4a1.654,1.654,0,0,0-1.68.867V0H-.191V-8.453H1.941L2-7.445A2.092,2.092,0,0,1,3.887-8.609a2.366,2.366,0,0,1,.7.1Zm5.836,0A6.134,6.134,0,0,0,9.582-6.4a1.654,1.654,0,0,0-1.68.867V0H5.645V-8.453H7.777L7.84-7.445A2.092,2.092,0,0,1,9.723-8.609a2.366,2.366,0,0,1,.7.1ZM10.848-4.3a5.013,5.013,0,0,1,.484-2.242A3.546,3.546,0,0,1,12.727-8.07a4.069,4.069,0,0,1,2.113-.539,3.849,3.849,0,0,1,2.793,1.047A4.2,4.2,0,0,1,18.84-4.719l.016.578A4.418,4.418,0,0,1,17.77-1.02,3.775,3.775,0,0,1,14.855.156a3.793,3.793,0,0,1-2.918-1.172A4.5,4.5,0,0,1,10.848-4.2Zm2.258.16A3.16,3.16,0,0,0,13.559-2.3a1.5,1.5,0,0,0,1.3.638,1.5,1.5,0,0,0,1.281-.63A3.457,3.457,0,0,0,16.6-4.309a3.128,3.128,0,0,0-.461-1.831,1.5,1.5,0,0,0-1.3-.649,1.474,1.474,0,0,0-1.281.646A3.516,3.516,0,0,0,13.105-4.144ZM22.629,0H20.363V-12h2.266Zm4.242,0H24.605V-12h2.266Zm1.508-4.3a5.013,5.013,0,0,1,.484-2.242A3.546,3.546,0,0,1,30.258-8.07a4.069,4.069,0,0,1,2.113-.539,3.849,3.849,0,0,1,2.793,1.047,4.2,4.2,0,0,1,1.207,2.844l.016.578A4.418,4.418,0,0,1,35.3-1.02,3.775,3.775,0,0,1,32.387.156a3.793,3.793,0,0,1-2.918-1.172A4.5,4.5,0,0,1,28.379-4.2Zm2.258.16A3.16,3.16,0,0,0,31.09-2.3a1.5,1.5,0,0,0,1.3.638,1.5,1.5,0,0,0,1.281-.63,3.457,3.457,0,0,0,.461-2.015,3.128,3.128,0,0,0-.461-1.831,1.5,1.5,0,0,0-1.3-.649,1.474,1.474,0,0,0-1.281.646A3.516,3.516,0,0,0,30.637-4.144Z" transform="translate(739 3403.852)" fill="#12263f"/>
            <path id="Trazado_221411" data-name="Trazado 221411" d="M-23.746,0V-11.375h3.5a5.315,5.315,0,0,1,2.684.676,4.712,4.712,0,0,1,1.848,1.922,5.928,5.928,0,0,1,.664,2.832v.523A5.945,5.945,0,0,1-15.7-2.6a4.672,4.672,0,0,1-1.84,1.914A5.355,5.355,0,0,1-20.223,0ZM-21.4-9.477v7.594h1.133a2.545,2.545,0,0,0,2.1-.9,4.06,4.06,0,0,0,.742-2.57v-.6a4.124,4.124,0,0,0-.719-2.629,2.537,2.537,0,0,0-2.1-.895ZM-11.113,0h-2.266V-8.453h2.266Zm-2.4-10.641a1.112,1.112,0,0,1,.34-.836,1.277,1.277,0,0,1,.926-.328,1.28,1.28,0,0,1,.922.328,1.105,1.105,0,0,1,.344.836,1.108,1.108,0,0,1-.348.844,1.283,1.283,0,0,1-.918.328,1.283,1.283,0,0,1-.918-.328A1.108,1.108,0,0,1-13.512-10.641Zm8.836,8.3a.727.727,0,0,0-.41-.652A4.659,4.659,0,0,0-6.4-3.414q-3.016-.633-3.016-2.562a2.323,2.323,0,0,1,.934-1.879,3.766,3.766,0,0,1,2.441-.754,4.053,4.053,0,0,1,2.574.758A2.388,2.388,0,0,1-2.5-5.883H-4.762a1.092,1.092,0,0,0-.312-.8A1.322,1.322,0,0,0-6.051-7a1.351,1.351,0,0,0-.883.258.814.814,0,0,0-.312.656.7.7,0,0,0,.355.605,3.657,3.657,0,0,0,1.2.4A9.8,9.8,0,0,1-4.27-4.7,2.336,2.336,0,0,1-2.48-2.43,2.2,2.2,0,0,1-3.473-.559,4.28,4.28,0,0,1-6.035.156,4.47,4.47,0,0,1-7.922-.223,3.166,3.166,0,0,1-9.215-1.262a2.414,2.414,0,0,1-.469-1.426h2.141a1.179,1.179,0,0,0,.445.922,1.766,1.766,0,0,0,1.109.32,1.635,1.635,0,0,0,.98-.246A.766.766,0,0,0-4.676-2.336ZM2.863.156A4.15,4.15,0,0,1-.164-.984,4.054,4.054,0,0,1-1.332-4.023v-.219A5.106,5.106,0,0,1-.84-6.52,3.612,3.612,0,0,1,.555-8.066a3.914,3.914,0,0,1,2.059-.543,3.508,3.508,0,0,1,2.73,1.094,4.444,4.444,0,0,1,1,3.1v.922H.957a2.1,2.1,0,0,0,.66,1.328,2,2,0,0,0,1.395.5,2.437,2.437,0,0,0,2.039-.945L6.16-1.367A3.389,3.389,0,0,1,4.785-.246,4.511,4.511,0,0,1,2.863.156ZM2.605-6.789a1.411,1.411,0,0,0-1.09.455,2.357,2.357,0,0,0-.535,1.3H4.121v-.181a1.681,1.681,0,0,0-.406-1.165A1.456,1.456,0,0,0,2.605-6.789ZM9.7-8.453l.07.977A2.951,2.951,0,0,1,12.2-8.609a2.453,2.453,0,0,1,2,.789,3.682,3.682,0,0,1,.672,2.359V0H12.613V-5.406A1.465,1.465,0,0,0,12.3-6.449a1.4,1.4,0,0,0-1.039-.324,1.553,1.553,0,0,0-1.43.813V0H7.574V-8.453ZM14.184-11.9a2.187,2.187,0,0,1-.516,1.48,1.6,1.6,0,0,1-1.258.6,1.908,1.908,0,0,1-.527-.066,3.539,3.539,0,0,1-.637-.285,3.435,3.435,0,0,0-.586-.27,1.432,1.432,0,0,0-.391-.051.627.627,0,0,0-.465.2.759.759,0,0,0-.191.555L8.3-9.82A2.22,2.22,0,0,1,8.813-11.3a1.578,1.578,0,0,1,1.254-.609,1.614,1.614,0,0,1,.441.059,4.861,4.861,0,0,1,.676.285,4.392,4.392,0,0,0,.648.273,1.48,1.48,0,0,0,.375.047.659.659,0,0,0,.473-.191.728.728,0,0,0,.2-.551ZM16.23-4.3a5.013,5.013,0,0,1,.484-2.242A3.546,3.546,0,0,1,18.109-8.07a4.069,4.069,0,0,1,2.113-.539,3.849,3.849,0,0,1,2.793,1.047,4.2,4.2,0,0,1,1.207,2.844l.016.578A4.418,4.418,0,0,1,23.152-1.02,3.775,3.775,0,0,1,20.238.156,3.793,3.793,0,0,1,17.32-1.016,4.5,4.5,0,0,1,16.23-4.2Zm2.258.16A3.16,3.16,0,0,0,18.941-2.3a1.5,1.5,0,0,0,1.3.638,1.5,1.5,0,0,0,1.281-.63,3.457,3.457,0,0,0,.461-2.015A3.128,3.128,0,0,0,21.52-6.14a1.5,1.5,0,0,0-1.3-.649,1.474,1.474,0,0,0-1.281.646A3.516,3.516,0,0,0,18.488-4.144Z" transform="translate(829 3307.852)" fill="#12263f"/>
            <path id="Trazado_221412" data-name="Trazado 221412" d="M-26.426-4.008V0H-28.77V-11.375h4.438a5.134,5.134,0,0,1,2.254.469,3.454,3.454,0,0,1,1.5,1.332,3.714,3.714,0,0,1,.523,1.965A3.266,3.266,0,0,1-21.2-4.973a4.767,4.767,0,0,1-3.168.965Zm0-1.9h2.094a2.059,2.059,0,0,0,1.418-.437,1.591,1.591,0,0,0,.488-1.25,1.876,1.876,0,0,0-.492-1.352,1.839,1.839,0,0,0-1.359-.531h-2.148Zm12.578-.43A6.134,6.134,0,0,0-14.66-6.4a1.654,1.654,0,0,0-1.68.867V0H-18.6V-8.453h2.133l.063,1.008A2.092,2.092,0,0,1-14.52-8.609a2.366,2.366,0,0,1,.7.1ZM-7.7-.859A2.831,2.831,0,0,1-10.012.156a2.67,2.67,0,0,1-2.074-.781,3.335,3.335,0,0,1-.73-2.289V-8.453h2.258v5.467q0,1.322,1.2,1.322a1.63,1.63,0,0,0,1.578-.8V-8.453h2.266V0H-7.637ZM.082.156A4.15,4.15,0,0,1-2.945-.984,4.054,4.054,0,0,1-4.113-4.023v-.219A5.106,5.106,0,0,1-3.621-6.52,3.612,3.612,0,0,1-2.227-8.066,3.914,3.914,0,0,1-.168-8.609a3.508,3.508,0,0,1,2.73,1.094,4.444,4.444,0,0,1,1,3.1v.922H-1.824a2.1,2.1,0,0,0,.66,1.328,2,2,0,0,0,1.395.5A2.437,2.437,0,0,0,2.27-2.609L3.379-1.367A3.389,3.389,0,0,1,2-.246,4.511,4.511,0,0,1,.082.156ZM-.176-6.789a1.411,1.411,0,0,0-1.09.455,2.357,2.357,0,0,0-.535,1.3H1.34v-.181A1.681,1.681,0,0,0,.934-6.377,1.456,1.456,0,0,0-.176-6.789ZM12.457-4.148A5.119,5.119,0,0,1,11.59-.98,2.872,2.872,0,0,1,9.168.156,2.639,2.639,0,0,1,6.973-.9l-.1.9H4.84V-12H7.1v4.3a2.571,2.571,0,0,1,2.055-.914,2.9,2.9,0,0,1,2.426,1.137,5.126,5.126,0,0,1,.879,3.2ZM10.2-4.312a3.363,3.363,0,0,0-.406-1.871,1.374,1.374,0,0,0-1.211-.59A1.489,1.489,0,0,0,7.1-5.891v3.336a1.509,1.509,0,0,0,1.5.891,1.394,1.394,0,0,0,1.438-1.078A5.562,5.562,0,0,0,10.2-4.312ZM18.746,0a2.507,2.507,0,0,1-.227-.758,2.732,2.732,0,0,1-2.133.914,3,3,0,0,1-2.059-.719,2.312,2.312,0,0,1-.816-1.812,2.389,2.389,0,0,1,1-2.062,4.915,4.915,0,0,1,2.879-.727h1.039v-.484a1.393,1.393,0,0,0-.3-.937,1.183,1.183,0,0,0-.949-.352,1.345,1.345,0,0,0-.895.273.929.929,0,0,0-.324.75H13.7a2.268,2.268,0,0,1,.453-1.359,3,3,0,0,1,1.281-.98,4.669,4.669,0,0,1,1.859-.355,3.689,3.689,0,0,1,2.48.785,2.747,2.747,0,0,1,.918,2.207v3.664a4.041,4.041,0,0,0,.336,1.82V0ZM16.879-1.57a1.945,1.945,0,0,0,.922-.223,1.462,1.462,0,0,0,.625-.6V-3.844h-.844q-1.7,0-1.8,1.172l-.008.133a.9.9,0,0,0,.3.7A1.153,1.153,0,0,0,16.879-1.57ZM27-2.336a.727.727,0,0,0-.41-.652,4.659,4.659,0,0,0-1.316-.426q-3.016-.633-3.016-2.562A2.323,2.323,0,0,1,23.2-7.855a3.766,3.766,0,0,1,2.441-.754,4.053,4.053,0,0,1,2.574.758,2.388,2.388,0,0,1,.965,1.969H26.918a1.092,1.092,0,0,0-.312-.8A1.322,1.322,0,0,0,25.629-7a1.351,1.351,0,0,0-.883.258.814.814,0,0,0-.312.656.7.7,0,0,0,.355.605,3.657,3.657,0,0,0,1.2.4A9.8,9.8,0,0,1,27.41-4.7,2.336,2.336,0,0,1,29.2-2.43a2.2,2.2,0,0,1-.992,1.871,4.28,4.28,0,0,1-2.562.715,4.47,4.47,0,0,1-1.887-.379,3.166,3.166,0,0,1-1.293-1.039A2.414,2.414,0,0,1,22-2.687h2.141a1.179,1.179,0,0,0,.445.922,1.766,1.766,0,0,0,1.109.32,1.635,1.635,0,0,0,.98-.246A.766.766,0,0,0,27-2.336Z" transform="translate(640 3308.852)" fill="#fff"/>
            <g id="Trazado_221413" data-name="Trazado 221413" transform="translate(977 3216.852)" fill="#fff">
              <path d="M 92 181.5 C 85.9259033203125 181.5 79.85637664794922 180.8882293701172 73.95997619628906 179.6816558837891 C 68.2147216796875 178.5059967041016 62.56349945068359 176.7517547607422 57.16332626342773 174.4676818847656 C 51.86062622070312 172.2248229980469 46.74597549438477 169.4486541748047 41.96144866943359 166.2162933349609 C 37.22172546386719 163.0142059326172 32.76462554931641 159.3367462158203 28.71394920349121 155.2860565185547 C 24.66324996948242 151.2353820800781 20.98579978942871 146.7782745361328 17.78370094299316 142.0385437011719 C 14.55134963989258 137.2540283203125 11.77517509460449 132.1393737792969 9.53232479095459 126.8366775512695 C 7.248250007629395 121.4365005493164 5.49399995803833 115.7852783203125 4.318349838256836 110.0400238037109 C 3.111774921417236 104.1436233520508 2.5 98.0740966796875 2.5 92 C 2.5 85.9259033203125 3.111774921417236 79.85637664794922 4.318349838256836 73.95997619628906 C 5.49399995803833 68.2147216796875 7.248250007629395 62.56349945068359 9.53232479095459 57.16332626342773 C 11.77517509460449 51.86062622070312 14.55134963989258 46.74597549438477 17.78370094299316 41.96144866943359 C 20.98579978942871 37.22172546386719 24.66324996948242 32.76462554931641 28.71394920349121 28.71394920349121 C 32.76462554931641 24.66324996948242 37.22172546386719 20.98579978942871 41.96144866943359 17.78370094299316 C 46.74597549438477 14.55134963989258 51.86062622070312 11.77517509460449 57.16332626342773 9.53232479095459 C 62.56349945068359 7.248250007629395 68.2147216796875 5.49399995803833 73.95997619628906 4.318349838256836 C 79.85637664794922 3.111774921417236 85.9259033203125 2.5 92 2.5 C 98.0740966796875 2.5 104.1436233520508 3.111774921417236 110.0400238037109 4.318349838256836 C 115.7852783203125 5.49399995803833 121.4365005493164 7.248250007629395 126.8366775512695 9.53232479095459 C 132.1393737792969 11.77517509460449 137.2540283203125 14.55134963989258 142.0385437011719 17.78370094299316 C 146.7782745361328 20.98579978942871 151.2353820800781 24.66324996948242 155.2860565185547 28.71394920349121 C 159.3367462158203 32.76462554931641 163.0142059326172 37.22172546386719 166.2162933349609 41.96144866943359 C 169.4486541748047 46.74597549438477 172.2248229980469 51.86062622070312 174.4676818847656 57.16332626342773 C 176.7517547607422 62.56349945068359 178.5059967041016 68.2147216796875 179.6816558837891 73.95997619628906 C 180.8882293701172 79.85637664794922 181.5 85.9259033203125 181.5 92 C 181.5 98.0740966796875 180.8882293701172 104.1436233520508 179.6816558837891 110.0400238037109 C 178.5059967041016 115.7852783203125 176.7517547607422 121.4365005493164 174.4676818847656 126.8366775512695 C 172.2248229980469 132.1393737792969 169.4486541748047 137.2540283203125 166.2162933349609 142.0385437011719 C 163.0142059326172 146.7782745361328 159.3367462158203 151.2353820800781 155.2860565185547 155.2860565185547 C 151.2353820800781 159.3367462158203 146.7782745361328 163.0142059326172 142.0385437011719 166.2162933349609 C 137.2540283203125 169.4486541748047 132.1393737792969 172.2248229980469 126.8366775512695 174.4676818847656 C 121.4365005493164 176.7517547607422 115.7852783203125 178.5059967041016 110.0400238037109 179.6816558837891 C 104.1436233520508 180.8882293701172 98.0740966796875 181.5 92 181.5 Z" stroke="none"/>
              <path d="M 92 5 C 86.09388732910156 5 80.19297027587891 5.5947265625 74.46116638183594 6.767608642578125 C 68.87758636474609 7.910171508789062 63.38541412353516 9.615020751953125 58.13722229003906 11.8348388671875 C 52.98316955566406 14.01480102539062 48.01171875 16.71327209472656 43.36097717285156 19.85527038574219 C 38.75308227539062 22.96827697753906 34.41989135742188 26.54353332519531 30.48171997070312 30.48171997070312 C 26.54353332519531 34.41989135742188 22.96827697753906 38.75308227539062 19.85527038574219 43.36097717285156 C 16.71327209472656 48.01171875 14.01480102539062 52.98316955566406 11.8348388671875 58.13722229003906 C 9.615020751953125 63.38541412353516 7.910171508789062 68.87758636474609 6.767608642578125 74.46116638183594 C 5.5947265625 80.19297027587891 5 86.09388732910156 5 92 C 5 97.90611267089844 5.5947265625 103.8070297241211 6.767608642578125 109.5388336181641 C 7.910171508789062 115.1224136352539 9.615020751953125 120.6145782470703 11.8348388671875 125.8627777099609 C 14.01480102539062 131.0168304443359 16.71327209472656 135.98828125 19.85527038574219 140.6390228271484 C 22.96827697753906 145.2469177246094 26.54353332519531 149.5801086425781 30.48171997070312 153.5182800292969 C 34.41989135742188 157.4564666748047 38.75308227539062 161.0317230224609 43.36097717285156 164.1447143554688 C 48.01171875 167.2867279052734 52.98316955566406 169.9851989746094 58.13722229003906 172.1651611328125 C 63.38541412353516 174.3849792480469 68.87758636474609 176.0898284912109 74.46116638183594 177.2323913574219 C 80.19297027587891 178.4052734375 86.09388732910156 179 92 179 C 97.90611267089844 179 103.8070297241211 178.4052734375 109.5388336181641 177.2323913574219 C 115.1224136352539 176.0898284912109 120.6145782470703 174.3849792480469 125.8627777099609 172.1651611328125 C 131.0168304443359 169.9851989746094 135.98828125 167.2867279052734 140.6390228271484 164.1447143554688 C 145.2469177246094 161.0317230224609 149.5801086425781 157.4564666748047 153.5182800292969 153.5182800292969 C 157.4564666748047 149.5801086425781 161.0317230224609 145.2469177246094 164.1447143554688 140.6390228271484 C 167.2867279052734 135.98828125 169.9851989746094 131.0168304443359 172.1651611328125 125.8627777099609 C 174.3849792480469 120.6145782470703 176.0898284912109 115.1224136352539 177.2323913574219 109.5388336181641 C 178.4052734375 103.8070297241211 179 97.90611267089844 179 92 C 179 86.09388732910156 178.4052734375 80.19297027587891 177.2323913574219 74.46116638183594 C 176.0898284912109 68.87758636474609 174.3849792480469 63.38541412353516 172.1651611328125 58.13722229003906 C 169.9851989746094 52.98316955566406 167.2867279052734 48.01171875 164.1447143554688 43.36097717285156 C 161.0317230224609 38.75308227539062 157.4564666748047 34.41989135742188 153.5182800292969 30.48171997070312 C 149.5801086425781 26.54353332519531 145.2469177246094 22.96827697753906 140.6390228271484 19.85527038574219 C 135.98828125 16.71327209472656 131.0168304443359 14.01480102539062 125.8627777099609 11.8348388671875 C 120.6145782470703 9.615020751953125 115.1224136352539 7.910171508789062 109.5388336181641 6.767608642578125 C 103.8070297241211 5.5947265625 97.90611267089844 5 92 5 M 92 0 C 142.8101959228516 0 184 41.18980407714844 184 92 C 184 142.8101959228516 142.8101959228516 184 92 184 C 41.18980407714844 184 0 142.8101959228516 0 92 C 0 41.18980407714844 41.18980407714844 0 92 0 Z" stroke="none" fill="#afa7a7"/>
            </g>
            <path id="Trazado_221414" data-name="Trazado 221414" d="M45,0A45,45,0,1,1,0,45,45,45,0,0,1,45,0Z" transform="translate(1024 3161.852)" fill="#feca2e"/>
            <path id="Trazado_221415" data-name="Trazado 221415" d="M45,0A45,45,0,1,1,0,45,45,45,0,0,1,45,0Z" transform="translate(1024 3352.852)" fill="#4dd0e1" opacity="0.9"/>
            <path id="Trazado_221416" data-name="Trazado 221416" d="M45,0A45,45,0,1,1,0,45,45,45,0,0,1,45,0Z" transform="translate(1114 3256.852)" fill="#bddcf6"/>
            <path id="Trazado_221417" data-name="Trazado 221417" d="M45,0A45,45,0,1,1,0,45,45,45,0,0,1,45,0Z" transform="translate(925 3257.852)" fill="#0f2771"/>
            <path id="Trazado_221418" data-name="Trazado 221418" d="M-21.117-2.344h-4.109L-26.008,0H-28.5l4.234-11.375h2.172L-17.836,0h-2.492Zm-3.477-1.9h2.844L-23.18-8.5Zm9.375-4.211.07.977a2.951,2.951,0,0,1,2.43-1.133,2.453,2.453,0,0,1,2,.789,3.682,3.682,0,0,1,.672,2.359V0H-12.3V-5.406a1.465,1.465,0,0,0-.312-1.043,1.4,1.4,0,0,0-1.039-.324,1.553,1.553,0,0,0-1.43.813V0h-2.258V-8.453ZM-3.437,0a2.507,2.507,0,0,1-.227-.758A2.732,2.732,0,0,1-5.8.156,3,3,0,0,1-7.855-.562a2.312,2.312,0,0,1-.816-1.812,2.389,2.389,0,0,1,1-2.062A4.915,4.915,0,0,1-4.8-5.164h1.039v-.484a1.393,1.393,0,0,0-.3-.937,1.183,1.183,0,0,0-.949-.352,1.345,1.345,0,0,0-.895.273.929.929,0,0,0-.324.75H-8.484a2.268,2.268,0,0,1,.453-1.359,3,3,0,0,1,1.281-.98,4.669,4.669,0,0,1,1.859-.355,3.689,3.689,0,0,1,2.48.785,2.747,2.747,0,0,1,.918,2.207v3.664a4.041,4.041,0,0,0,.336,1.82V0ZM-5.3-1.57a1.945,1.945,0,0,0,.922-.223,1.462,1.462,0,0,0,.625-.6V-3.844H-4.6q-1.7,0-1.8,1.172l-.008.133a.9.9,0,0,0,.3.7A1.153,1.153,0,0,0-5.3-1.57ZM-4.445-12h2.461L-4.148-9.578H-5.984ZM2.625,0H.359V-12H2.625ZM6.867,0H4.6V-8.453H6.867Zm-2.4-10.641a1.112,1.112,0,0,1,.34-.836,1.277,1.277,0,0,1,.926-.328,1.28,1.28,0,0,1,.922.328A1.105,1.105,0,0,1,7-10.641a1.108,1.108,0,0,1-.348.844,1.283,1.283,0,0,1-.918.328A1.283,1.283,0,0,1,4.816-9.8,1.108,1.108,0,0,1,4.469-10.641Zm8.836,8.3a.727.727,0,0,0-.41-.652,4.659,4.659,0,0,0-1.316-.426Q8.562-4.047,8.563-5.977A2.323,2.323,0,0,1,9.5-7.855a3.766,3.766,0,0,1,2.441-.754,4.053,4.053,0,0,1,2.574.758,2.388,2.388,0,0,1,.965,1.969H13.219a1.092,1.092,0,0,0-.312-.8A1.322,1.322,0,0,0,11.93-7a1.351,1.351,0,0,0-.883.258.814.814,0,0,0-.312.656.7.7,0,0,0,.355.605,3.657,3.657,0,0,0,1.2.4,9.8,9.8,0,0,1,1.422.379A2.336,2.336,0,0,1,15.5-2.43a2.2,2.2,0,0,1-.992,1.871,4.28,4.28,0,0,1-2.562.715,4.47,4.47,0,0,1-1.887-.379A3.166,3.166,0,0,1,8.766-1.262,2.414,2.414,0,0,1,8.3-2.687h2.141a1.179,1.179,0,0,0,.445.922,1.766,1.766,0,0,0,1.109.32,1.635,1.635,0,0,0,.98-.246A.766.766,0,0,0,13.3-2.336ZM19.336,0H17.07V-8.453h2.266Zm-2.4-10.641a1.112,1.112,0,0,1,.34-.836A1.277,1.277,0,0,1,18.2-11.8a1.28,1.28,0,0,1,.922.328,1.105,1.105,0,0,1,.344.836,1.108,1.108,0,0,1-.348.844,1.283,1.283,0,0,1-.918.328,1.283,1.283,0,0,1-.918-.328A1.108,1.108,0,0,1,16.938-10.641Zm8.836,8.3a.727.727,0,0,0-.41-.652,4.659,4.659,0,0,0-1.316-.426q-3.016-.633-3.016-2.562a2.323,2.323,0,0,1,.934-1.879,3.766,3.766,0,0,1,2.441-.754,4.053,4.053,0,0,1,2.574.758,2.388,2.388,0,0,1,.965,1.969H25.688a1.092,1.092,0,0,0-.312-.8A1.322,1.322,0,0,0,24.4-7a1.351,1.351,0,0,0-.883.258.814.814,0,0,0-.312.656.7.7,0,0,0,.355.605,3.657,3.657,0,0,0,1.2.4A9.8,9.8,0,0,1,26.18-4.7,2.336,2.336,0,0,1,27.969-2.43a2.2,2.2,0,0,1-.992,1.871,4.28,4.28,0,0,1-2.562.715,4.47,4.47,0,0,1-1.887-.379,3.166,3.166,0,0,1-1.293-1.039,2.414,2.414,0,0,1-.469-1.426h2.141a1.179,1.179,0,0,0,.445.922,1.766,1.766,0,0,0,1.109.32,1.635,1.635,0,0,0,.98-.246A.766.766,0,0,0,25.773-2.336Z" transform="translate(1069 3212.852)" fill="#12263f"/>
            <path id="Trazado_221419" data-name="Trazado 221419" d="M-30.062-4.008V0h-2.344V-11.375h4.438a5.134,5.134,0,0,1,2.254.469,3.454,3.454,0,0,1,1.5,1.332A3.714,3.714,0,0,1-23.7-7.609,3.266,3.266,0,0,1-24.84-4.973a4.767,4.767,0,0,1-3.168.965Zm0-1.9h2.094a2.059,2.059,0,0,0,1.418-.437,1.591,1.591,0,0,0,.488-1.25,1.876,1.876,0,0,0-.492-1.352,1.839,1.839,0,0,0-1.359-.531h-2.148Zm12.578-.43A6.134,6.134,0,0,0-18.3-6.4a1.654,1.654,0,0,0-1.68.867V0h-2.258V-8.453H-20.1l.063,1.008a2.092,2.092,0,0,1,1.883-1.164,2.366,2.366,0,0,1,.7.1Zm.453,2.031a5.013,5.013,0,0,1,.484-2.242A3.546,3.546,0,0,1-15.152-8.07a4.069,4.069,0,0,1,2.113-.539,3.849,3.849,0,0,1,2.793,1.047A4.2,4.2,0,0,1-9.039-4.719l.016.578A4.418,4.418,0,0,1-10.109-1.02,3.775,3.775,0,0,1-13.023.156a3.793,3.793,0,0,1-2.918-1.172A4.5,4.5,0,0,1-17.031-4.2Zm2.258.16A3.16,3.16,0,0,0-14.32-2.3a1.5,1.5,0,0,0,1.3.638,1.5,1.5,0,0,0,1.281-.63,3.457,3.457,0,0,0,.461-2.015,3.128,3.128,0,0,0-.461-1.831,1.5,1.5,0,0,0-1.3-.649,1.474,1.474,0,0,0-1.281.646A3.516,3.516,0,0,0-14.773-4.144Zm9.844-6.387v2.078h1.445V-6.8H-4.93v4.219a1.007,1.007,0,0,0,.18.672.9.9,0,0,0,.688.2A3.6,3.6,0,0,0-3.4-1.758V-.047a4.648,4.648,0,0,1-1.367.2,2.156,2.156,0,0,1-2.422-2.4V-6.8H-8.422V-8.453h1.234v-2.078ZM-2.812-4.3a5.013,5.013,0,0,1,.484-2.242A3.546,3.546,0,0,1-.934-8.07,4.069,4.069,0,0,1,1.18-8.609,3.849,3.849,0,0,1,3.973-7.562,4.2,4.2,0,0,1,5.18-4.719l.016.578A4.418,4.418,0,0,1,4.109-1.02,3.775,3.775,0,0,1,1.2.156,3.793,3.793,0,0,1-1.723-1.016,4.5,4.5,0,0,1-2.812-4.2Zm2.258.16A3.16,3.16,0,0,0-.1-2.3a1.5,1.5,0,0,0,1.3.638,1.5,1.5,0,0,0,1.281-.63,3.457,3.457,0,0,0,.461-2.015A3.128,3.128,0,0,0,2.477-6.14a1.5,1.5,0,0,0-1.3-.649A1.474,1.474,0,0,0-.1-6.144,3.516,3.516,0,0,0-.555-4.144Zm9.844-6.387v2.078h1.445V-6.8H9.289v4.219a1.007,1.007,0,0,0,.18.672.9.9,0,0,0,.688.2,3.6,3.6,0,0,0,.664-.055V-.047a4.648,4.648,0,0,1-1.367.2,2.156,2.156,0,0,1-2.422-2.4V-6.8H5.8V-8.453H7.031v-2.078ZM14.375,0H12.109V-8.453h2.266Zm-2.4-10.641a1.112,1.112,0,0,1,.34-.836,1.277,1.277,0,0,1,.926-.328,1.28,1.28,0,0,1,.922.328,1.105,1.105,0,0,1,.344.836,1.108,1.108,0,0,1-.348.844,1.283,1.283,0,0,1-.918.328,1.283,1.283,0,0,1-.918-.328A1.108,1.108,0,0,1,11.977-10.641ZM23.844-4.148a5.07,5.07,0,0,1-.887,3.129A2.843,2.843,0,0,1,20.563.156a2.633,2.633,0,0,1-2.07-.891V3.25H16.234v-11.7h2.094l.078.828a2.654,2.654,0,0,1,2.141-.984,2.862,2.862,0,0,1,2.43,1.156,5.207,5.207,0,0,1,.867,3.188Zm-2.258-.164a3.327,3.327,0,0,0-.418-1.82,1.361,1.361,0,0,0-1.215-.641,1.478,1.478,0,0,0-1.461.813V-2.5a1.5,1.5,0,0,0,1.477.836Q21.586-1.664,21.586-4.312Zm3.3.008a5.013,5.013,0,0,1,.484-2.242A3.546,3.546,0,0,1,26.77-8.07a4.069,4.069,0,0,1,2.113-.539,3.849,3.849,0,0,1,2.793,1.047,4.2,4.2,0,0,1,1.207,2.844l.016.578A4.418,4.418,0,0,1,31.813-1.02,3.775,3.775,0,0,1,28.9.156,3.793,3.793,0,0,1,25.98-1.016,4.5,4.5,0,0,1,24.891-4.2Zm2.258.16A3.16,3.16,0,0,0,27.6-2.3a1.5,1.5,0,0,0,1.3.638,1.5,1.5,0,0,0,1.281-.63,3.457,3.457,0,0,0,.461-2.015A3.128,3.128,0,0,0,30.18-6.14a1.5,1.5,0,0,0-1.3-.649,1.474,1.474,0,0,0-1.281.646A3.516,3.516,0,0,0,27.148-4.144ZM3.98,24h-7.8V22.453l3.68-3.922A9.078,9.078,0,0,0,.984,17.086a2.322,2.322,0,0,0,.363-1.172,1.738,1.738,0,0,0-.383-1.191,1.382,1.382,0,0,0-1.094-.434,1.49,1.49,0,0,0-1.207.527A2.089,2.089,0,0,0-1.777,16.2H-4.043a3.729,3.729,0,0,1,.5-1.9,3.5,3.5,0,0,1,1.4-1.348A4.262,4.262,0,0,1-.09,12.469a4.036,4.036,0,0,1,2.73.844A2.985,2.985,0,0,1,3.613,15.7a3.825,3.825,0,0,1-.437,1.719,9.551,9.551,0,0,1-1.5,2.039L-.91,22.18H3.98Z" transform="translate(1064 3306.852)" fill="#12263f"/>
            <path id="Trazado_221420" data-name="Trazado 221420" d="M-35.895,0V-11.375h3.5a5.315,5.315,0,0,1,2.684.676,4.712,4.712,0,0,1,1.848,1.922A5.928,5.928,0,0,1-27.2-5.945v.523a5.945,5.945,0,0,1-.652,2.82,4.672,4.672,0,0,1-1.84,1.914A5.355,5.355,0,0,1-32.371,0Zm2.344-9.477v7.594h1.133a2.545,2.545,0,0,0,2.1-.9,4.06,4.06,0,0,0,.742-2.57v-.6a4.124,4.124,0,0,0-.719-2.629,2.537,2.537,0,0,0-2.1-.895Zm11.8,9.633A4.15,4.15,0,0,1-24.781-.984a4.054,4.054,0,0,1-1.168-3.039v-.219a5.106,5.106,0,0,1,.492-2.277,3.612,3.612,0,0,1,1.395-1.547A3.914,3.914,0,0,1-22-8.609a3.508,3.508,0,0,1,2.73,1.094,4.444,4.444,0,0,1,1,3.1v.922H-23.66A2.1,2.1,0,0,0-23-2.164a2,2,0,0,0,1.395.5,2.437,2.437,0,0,0,2.039-.945l1.109,1.242A3.389,3.389,0,0,1-19.832-.246,4.511,4.511,0,0,1-21.754.156Zm-.258-6.945a1.411,1.411,0,0,0-1.09.455,2.357,2.357,0,0,0-.535,1.3H-20.5v-.181A1.681,1.681,0,0,0-20.9-6.377,1.456,1.456,0,0,0-22.012-6.789Zm9.594,4.453a.727.727,0,0,0-.41-.652,4.659,4.659,0,0,0-1.316-.426q-3.016-.633-3.016-2.562a2.323,2.323,0,0,1,.934-1.879,3.766,3.766,0,0,1,2.441-.754,4.053,4.053,0,0,1,2.574.758,2.388,2.388,0,0,1,.965,1.969H-12.5a1.092,1.092,0,0,0-.312-.8A1.322,1.322,0,0,0-13.793-7a1.351,1.351,0,0,0-.883.258.814.814,0,0,0-.312.656.7.7,0,0,0,.355.605,3.657,3.657,0,0,0,1.2.4,9.8,9.8,0,0,1,1.422.379A2.336,2.336,0,0,1-10.223-2.43a2.2,2.2,0,0,1-.992,1.871,4.28,4.28,0,0,1-2.562.715,4.47,4.47,0,0,1-1.887-.379,3.166,3.166,0,0,1-1.293-1.039,2.414,2.414,0,0,1-.469-1.426h2.141a1.179,1.179,0,0,0,.445.922,1.766,1.766,0,0,0,1.109.32,1.635,1.635,0,0,0,.98-.246A.766.766,0,0,0-12.418-2.336ZM-3.871,0A2.507,2.507,0,0,1-4.1-.758,2.732,2.732,0,0,1-6.23.156,3,3,0,0,1-8.289-.562a2.312,2.312,0,0,1-.816-1.812,2.389,2.389,0,0,1,1-2.062A4.915,4.915,0,0,1-5.23-5.164h1.039v-.484a1.393,1.393,0,0,0-.3-.937,1.183,1.183,0,0,0-.949-.352,1.345,1.345,0,0,0-.895.273.929.929,0,0,0-.324.75H-8.918a2.268,2.268,0,0,1,.453-1.359,3,3,0,0,1,1.281-.98,4.669,4.669,0,0,1,1.859-.355,3.689,3.689,0,0,1,2.48.785,2.747,2.747,0,0,1,.918,2.207v3.664A4.041,4.041,0,0,0-1.59-.133V0ZM-5.738-1.57a1.945,1.945,0,0,0,.922-.223,1.462,1.462,0,0,0,.625-.6V-3.844h-.844q-1.7,0-1.8,1.172l-.008.133a.9.9,0,0,0,.3.7A1.153,1.153,0,0,0-5.738-1.57Zm10.3-4.766A6.134,6.134,0,0,0,3.746-6.4a1.654,1.654,0,0,0-1.68.867V0H-.191V-8.453H1.941L2-7.445A2.092,2.092,0,0,1,3.887-8.609a2.366,2.366,0,0,1,.7.1Zm5.836,0A6.134,6.134,0,0,0,9.582-6.4a1.654,1.654,0,0,0-1.68.867V0H5.645V-8.453H7.777L7.84-7.445A2.092,2.092,0,0,1,9.723-8.609a2.366,2.366,0,0,1,.7.1ZM10.848-4.3a5.013,5.013,0,0,1,.484-2.242A3.546,3.546,0,0,1,12.727-8.07a4.069,4.069,0,0,1,2.113-.539,3.849,3.849,0,0,1,2.793,1.047A4.2,4.2,0,0,1,18.84-4.719l.016.578A4.418,4.418,0,0,1,17.77-1.02,3.775,3.775,0,0,1,14.855.156a3.793,3.793,0,0,1-2.918-1.172A4.5,4.5,0,0,1,10.848-4.2Zm2.258.16A3.16,3.16,0,0,0,13.559-2.3a1.5,1.5,0,0,0,1.3.638,1.5,1.5,0,0,0,1.281-.63A3.457,3.457,0,0,0,16.6-4.309a3.128,3.128,0,0,0-.461-1.831,1.5,1.5,0,0,0-1.3-.649,1.474,1.474,0,0,0-1.281.646A3.516,3.516,0,0,0,13.105-4.144ZM22.629,0H20.363V-12h2.266Zm4.242,0H24.605V-12h2.266Zm1.508-4.3a5.013,5.013,0,0,1,.484-2.242A3.546,3.546,0,0,1,30.258-8.07a4.069,4.069,0,0,1,2.113-.539,3.849,3.849,0,0,1,2.793,1.047,4.2,4.2,0,0,1,1.207,2.844l.016.578A4.418,4.418,0,0,1,35.3-1.02,3.775,3.775,0,0,1,32.387.156a3.793,3.793,0,0,1-2.918-1.172A4.5,4.5,0,0,1,28.379-4.2Zm2.258.16A3.16,3.16,0,0,0,31.09-2.3a1.5,1.5,0,0,0,1.3.638,1.5,1.5,0,0,0,1.281-.63,3.457,3.457,0,0,0,.461-2.015,3.128,3.128,0,0,0-.461-1.831,1.5,1.5,0,0,0-1.3-.649,1.474,1.474,0,0,0-1.281.646A3.516,3.516,0,0,0,30.637-4.144Z" transform="translate(1069 3403.852)" fill="#12263f"/>
            <path id="Trazado_221421" data-name="Trazado 221421" d="M-23.746,0V-11.375h3.5a5.315,5.315,0,0,1,2.684.676,4.712,4.712,0,0,1,1.848,1.922,5.928,5.928,0,0,1,.664,2.832v.523A5.945,5.945,0,0,1-15.7-2.6a4.672,4.672,0,0,1-1.84,1.914A5.355,5.355,0,0,1-20.223,0ZM-21.4-9.477v7.594h1.133a2.545,2.545,0,0,0,2.1-.9,4.06,4.06,0,0,0,.742-2.57v-.6a4.124,4.124,0,0,0-.719-2.629,2.537,2.537,0,0,0-2.1-.895ZM-11.113,0h-2.266V-8.453h2.266Zm-2.4-10.641a1.112,1.112,0,0,1,.34-.836,1.277,1.277,0,0,1,.926-.328,1.28,1.28,0,0,1,.922.328,1.105,1.105,0,0,1,.344.836,1.108,1.108,0,0,1-.348.844,1.283,1.283,0,0,1-.918.328,1.283,1.283,0,0,1-.918-.328A1.108,1.108,0,0,1-13.512-10.641Zm8.836,8.3a.727.727,0,0,0-.41-.652A4.659,4.659,0,0,0-6.4-3.414q-3.016-.633-3.016-2.562a2.323,2.323,0,0,1,.934-1.879,3.766,3.766,0,0,1,2.441-.754,4.053,4.053,0,0,1,2.574.758A2.388,2.388,0,0,1-2.5-5.883H-4.762a1.092,1.092,0,0,0-.312-.8A1.322,1.322,0,0,0-6.051-7a1.351,1.351,0,0,0-.883.258.814.814,0,0,0-.312.656.7.7,0,0,0,.355.605,3.657,3.657,0,0,0,1.2.4A9.8,9.8,0,0,1-4.27-4.7,2.336,2.336,0,0,1-2.48-2.43,2.2,2.2,0,0,1-3.473-.559,4.28,4.28,0,0,1-6.035.156,4.47,4.47,0,0,1-7.922-.223,3.166,3.166,0,0,1-9.215-1.262a2.414,2.414,0,0,1-.469-1.426h2.141a1.179,1.179,0,0,0,.445.922,1.766,1.766,0,0,0,1.109.32,1.635,1.635,0,0,0,.98-.246A.766.766,0,0,0-4.676-2.336ZM2.863.156A4.15,4.15,0,0,1-.164-.984,4.054,4.054,0,0,1-1.332-4.023v-.219A5.106,5.106,0,0,1-.84-6.52,3.612,3.612,0,0,1,.555-8.066a3.914,3.914,0,0,1,2.059-.543,3.508,3.508,0,0,1,2.73,1.094,4.444,4.444,0,0,1,1,3.1v.922H.957a2.1,2.1,0,0,0,.66,1.328,2,2,0,0,0,1.395.5,2.437,2.437,0,0,0,2.039-.945L6.16-1.367A3.389,3.389,0,0,1,4.785-.246,4.511,4.511,0,0,1,2.863.156ZM2.605-6.789a1.411,1.411,0,0,0-1.09.455,2.357,2.357,0,0,0-.535,1.3H4.121v-.181a1.681,1.681,0,0,0-.406-1.165A1.456,1.456,0,0,0,2.605-6.789ZM9.7-8.453l.07.977A2.951,2.951,0,0,1,12.2-8.609a2.453,2.453,0,0,1,2,.789,3.682,3.682,0,0,1,.672,2.359V0H12.613V-5.406A1.465,1.465,0,0,0,12.3-6.449a1.4,1.4,0,0,0-1.039-.324,1.553,1.553,0,0,0-1.43.813V0H7.574V-8.453ZM14.184-11.9a2.187,2.187,0,0,1-.516,1.48,1.6,1.6,0,0,1-1.258.6,1.908,1.908,0,0,1-.527-.066,3.539,3.539,0,0,1-.637-.285,3.435,3.435,0,0,0-.586-.27,1.432,1.432,0,0,0-.391-.051.627.627,0,0,0-.465.2.759.759,0,0,0-.191.555L8.3-9.82A2.22,2.22,0,0,1,8.813-11.3a1.578,1.578,0,0,1,1.254-.609,1.614,1.614,0,0,1,.441.059,4.861,4.861,0,0,1,.676.285,4.392,4.392,0,0,0,.648.273,1.48,1.48,0,0,0,.375.047.659.659,0,0,0,.473-.191.728.728,0,0,0,.2-.551ZM16.23-4.3a5.013,5.013,0,0,1,.484-2.242A3.546,3.546,0,0,1,18.109-8.07a4.069,4.069,0,0,1,2.113-.539,3.849,3.849,0,0,1,2.793,1.047,4.2,4.2,0,0,1,1.207,2.844l.016.578A4.418,4.418,0,0,1,23.152-1.02,3.775,3.775,0,0,1,20.238.156,3.793,3.793,0,0,1,17.32-1.016,4.5,4.5,0,0,1,16.23-4.2Zm2.258.16A3.16,3.16,0,0,0,18.941-2.3a1.5,1.5,0,0,0,1.3.638,1.5,1.5,0,0,0,1.281-.63,3.457,3.457,0,0,0,.461-2.015A3.128,3.128,0,0,0,21.52-6.14a1.5,1.5,0,0,0-1.3-.649,1.474,1.474,0,0,0-1.281.646A3.516,3.516,0,0,0,18.488-4.144Z" transform="translate(1159 3307.852)" fill="#12263f"/>
            <path id="Trazado_221422" data-name="Trazado 221422" d="M-26.426-4.008V0H-28.77V-11.375h4.438a5.134,5.134,0,0,1,2.254.469,3.454,3.454,0,0,1,1.5,1.332,3.714,3.714,0,0,1,.523,1.965A3.266,3.266,0,0,1-21.2-4.973a4.767,4.767,0,0,1-3.168.965Zm0-1.9h2.094a2.059,2.059,0,0,0,1.418-.437,1.591,1.591,0,0,0,.488-1.25,1.876,1.876,0,0,0-.492-1.352,1.839,1.839,0,0,0-1.359-.531h-2.148Zm12.578-.43A6.134,6.134,0,0,0-14.66-6.4a1.654,1.654,0,0,0-1.68.867V0H-18.6V-8.453h2.133l.063,1.008A2.092,2.092,0,0,1-14.52-8.609a2.366,2.366,0,0,1,.7.1ZM-7.7-.859A2.831,2.831,0,0,1-10.012.156a2.67,2.67,0,0,1-2.074-.781,3.335,3.335,0,0,1-.73-2.289V-8.453h2.258v5.467q0,1.322,1.2,1.322a1.63,1.63,0,0,0,1.578-.8V-8.453h2.266V0H-7.637ZM.082.156A4.15,4.15,0,0,1-2.945-.984,4.054,4.054,0,0,1-4.113-4.023v-.219A5.106,5.106,0,0,1-3.621-6.52,3.612,3.612,0,0,1-2.227-8.066,3.914,3.914,0,0,1-.168-8.609a3.508,3.508,0,0,1,2.73,1.094,4.444,4.444,0,0,1,1,3.1v.922H-1.824a2.1,2.1,0,0,0,.66,1.328,2,2,0,0,0,1.395.5A2.437,2.437,0,0,0,2.27-2.609L3.379-1.367A3.389,3.389,0,0,1,2-.246,4.511,4.511,0,0,1,.082.156ZM-.176-6.789a1.411,1.411,0,0,0-1.09.455,2.357,2.357,0,0,0-.535,1.3H1.34v-.181A1.681,1.681,0,0,0,.934-6.377,1.456,1.456,0,0,0-.176-6.789ZM12.457-4.148A5.119,5.119,0,0,1,11.59-.98,2.872,2.872,0,0,1,9.168.156,2.639,2.639,0,0,1,6.973-.9l-.1.9H4.84V-12H7.1v4.3a2.571,2.571,0,0,1,2.055-.914,2.9,2.9,0,0,1,2.426,1.137,5.126,5.126,0,0,1,.879,3.2ZM10.2-4.312a3.363,3.363,0,0,0-.406-1.871,1.374,1.374,0,0,0-1.211-.59A1.489,1.489,0,0,0,7.1-5.891v3.336a1.509,1.509,0,0,0,1.5.891,1.394,1.394,0,0,0,1.438-1.078A5.562,5.562,0,0,0,10.2-4.312ZM18.746,0a2.507,2.507,0,0,1-.227-.758,2.732,2.732,0,0,1-2.133.914,3,3,0,0,1-2.059-.719,2.312,2.312,0,0,1-.816-1.812,2.389,2.389,0,0,1,1-2.062,4.915,4.915,0,0,1,2.879-.727h1.039v-.484a1.393,1.393,0,0,0-.3-.937,1.183,1.183,0,0,0-.949-.352,1.345,1.345,0,0,0-.895.273.929.929,0,0,0-.324.75H13.7a2.268,2.268,0,0,1,.453-1.359,3,3,0,0,1,1.281-.98,4.669,4.669,0,0,1,1.859-.355,3.689,3.689,0,0,1,2.48.785,2.747,2.747,0,0,1,.918,2.207v3.664a4.041,4.041,0,0,0,.336,1.82V0ZM16.879-1.57a1.945,1.945,0,0,0,.922-.223,1.462,1.462,0,0,0,.625-.6V-3.844h-.844q-1.7,0-1.8,1.172l-.008.133a.9.9,0,0,0,.3.7A1.153,1.153,0,0,0,16.879-1.57ZM27-2.336a.727.727,0,0,0-.41-.652,4.659,4.659,0,0,0-1.316-.426q-3.016-.633-3.016-2.562A2.323,2.323,0,0,1,23.2-7.855a3.766,3.766,0,0,1,2.441-.754,4.053,4.053,0,0,1,2.574.758,2.388,2.388,0,0,1,.965,1.969H26.918a1.092,1.092,0,0,0-.312-.8A1.322,1.322,0,0,0,25.629-7a1.351,1.351,0,0,0-.883.258.814.814,0,0,0-.312.656.7.7,0,0,0,.355.605,3.657,3.657,0,0,0,1.2.4A9.8,9.8,0,0,1,27.41-4.7,2.336,2.336,0,0,1,29.2-2.43a2.2,2.2,0,0,1-.992,1.871,4.28,4.28,0,0,1-2.562.715,4.47,4.47,0,0,1-1.887-.379,3.166,3.166,0,0,1-1.293-1.039A2.414,2.414,0,0,1,22-2.687h2.141a1.179,1.179,0,0,0,.445.922,1.766,1.766,0,0,0,1.109.32,1.635,1.635,0,0,0,.98-.246A.766.766,0,0,0,27-2.336Z" transform="translate(970 3308.852)" fill="#fff"/>
            <path id="Trazado_221423" data-name="Trazado 221423" d="M-48.383,0h-2.344V-11.375h2.344Zm4.1-8.453.07.977a2.951,2.951,0,0,1,2.43-1.133,2.453,2.453,0,0,1,2,.789,3.682,3.682,0,0,1,.672,2.359V0h-2.258V-5.406a1.465,1.465,0,0,0-.312-1.043,1.4,1.4,0,0,0-1.039-.324,1.553,1.553,0,0,0-1.43.813V0h-2.258V-8.453Zm10.4,6.789a1.481,1.481,0,0,0,1.016-.344,1.2,1.2,0,0,0,.406-.914h2.117a2.9,2.9,0,0,1-.469,1.574A3.093,3.093,0,0,1-32.074-.238a3.949,3.949,0,0,1-1.77.395A3.67,3.67,0,0,1-36.7-1,4.56,4.56,0,0,1-37.75-4.18v-.148a4.508,4.508,0,0,1,1.039-3.117,3.627,3.627,0,0,1,2.852-1.164,3.555,3.555,0,0,1,2.543.9,3.2,3.2,0,0,1,.973,2.4h-2.117a1.551,1.551,0,0,0-.406-1.072A1.354,1.354,0,0,0-33.9-6.789a1.36,1.36,0,0,0-1.191.575,3.333,3.333,0,0,0-.4,1.866v.235a3.375,3.375,0,0,0,.4,1.878A1.377,1.377,0,0,0-33.883-1.664ZM-24.3-6.336a6.134,6.134,0,0,0-.812-.062,1.654,1.654,0,0,0-1.68.867V0h-2.258V-8.453h2.133l.063,1.008a2.092,2.092,0,0,1,1.883-1.164,2.366,2.366,0,0,1,.7.1ZM-19.328.156A4.15,4.15,0,0,1-22.355-.984a4.054,4.054,0,0,1-1.168-3.039v-.219a5.106,5.106,0,0,1,.492-2.277,3.612,3.612,0,0,1,1.395-1.547,3.914,3.914,0,0,1,2.059-.543,3.508,3.508,0,0,1,2.73,1.094,4.444,4.444,0,0,1,1,3.1v.922h-5.383a2.1,2.1,0,0,0,.66,1.328,2,2,0,0,0,1.395.5,2.437,2.437,0,0,0,2.039-.945l1.109,1.242A3.389,3.389,0,0,1-17.406-.246,4.511,4.511,0,0,1-19.328.156Zm-.258-6.945a1.411,1.411,0,0,0-1.09.455,2.357,2.357,0,0,0-.535,1.3h3.141v-.181a1.681,1.681,0,0,0-.406-1.165A1.456,1.456,0,0,0-19.586-6.789Zm7.133-1.664.07.945a2.971,2.971,0,0,1,2.43-1.1A2.255,2.255,0,0,1-7.711-7.32,2.9,2.9,0,0,1-5.172-8.609a2.521,2.521,0,0,1,2.047.8A3.681,3.681,0,0,1-2.453-5.4V0H-4.719V-5.391A1.61,1.61,0,0,0-5-6.441a1.246,1.246,0,0,0-.992-.332A1.409,1.409,0,0,0-7.4-5.8L-7.391,0H-9.648V-5.383a1.59,1.59,0,0,0-.289-1.062,1.259,1.259,0,0,0-.984-.328,1.463,1.463,0,0,0-1.391.8V0H-14.57V-8.453ZM3.172.156A4.15,4.15,0,0,1,.145-.984,4.054,4.054,0,0,1-1.023-4.023v-.219A5.106,5.106,0,0,1-.531-6.52,3.612,3.612,0,0,1,.863-8.066a3.914,3.914,0,0,1,2.059-.543,3.508,3.508,0,0,1,2.73,1.094,4.444,4.444,0,0,1,1,3.1v.922H1.266a2.1,2.1,0,0,0,.66,1.328,2,2,0,0,0,1.395.5,2.437,2.437,0,0,0,2.039-.945L6.469-1.367A3.389,3.389,0,0,1,5.094-.246,4.511,4.511,0,0,1,3.172.156ZM2.914-6.789a1.411,1.411,0,0,0-1.09.455,2.357,2.357,0,0,0-.535,1.3H4.43v-.181a1.681,1.681,0,0,0-.406-1.165A1.456,1.456,0,0,0,2.914-6.789Zm7.094-1.664.07.977a2.951,2.951,0,0,1,2.43-1.133,2.453,2.453,0,0,1,2,.789,3.682,3.682,0,0,1,.672,2.359V0H12.922V-5.406a1.465,1.465,0,0,0-.312-1.043,1.4,1.4,0,0,0-1.039-.324,1.553,1.553,0,0,0-1.43.813V0H7.883V-8.453Zm9.586-2.078v2.078h1.445V-6.8H19.594v4.219a1.007,1.007,0,0,0,.18.672.9.9,0,0,0,.688.2,3.6,3.6,0,0,0,.664-.055V-.047a4.648,4.648,0,0,1-1.367.2,2.156,2.156,0,0,1-2.422-2.4V-6.8H16.1V-8.453h1.234v-2.078ZM21.711-4.3A5.013,5.013,0,0,1,22.2-6.547,3.546,3.546,0,0,1,23.59-8.07,4.069,4.069,0,0,1,25.7-8.609,3.849,3.849,0,0,1,28.5-7.562,4.2,4.2,0,0,1,29.7-4.719l.016.578A4.418,4.418,0,0,1,28.633-1.02,3.775,3.775,0,0,1,25.719.156,3.793,3.793,0,0,1,22.8-1.016,4.5,4.5,0,0,1,21.711-4.2Zm2.258.16A3.16,3.16,0,0,0,24.422-2.3a1.5,1.5,0,0,0,1.3.638A1.5,1.5,0,0,0,27-2.294a3.457,3.457,0,0,0,.461-2.015A3.128,3.128,0,0,0,27-6.14a1.5,1.5,0,0,0-1.3-.649,1.474,1.474,0,0,0-1.281.646A3.516,3.516,0,0,0,23.969-4.144Zm10.773-.145a5.094,5.094,0,0,1,.887-3.148,2.877,2.877,0,0,1,2.426-1.172,2.589,2.589,0,0,1,2.039.922V-12h2.266V0H40.32l-.109-.9A2.657,2.657,0,0,1,38.039.156,2.869,2.869,0,0,1,35.645-1.02,5.258,5.258,0,0,1,34.742-4.289ZM37-4.121A3.337,3.337,0,0,0,37.414-2.3a1.349,1.349,0,0,0,1.2.634,1.511,1.511,0,0,0,1.477-.884V-5.889a1.489,1.489,0,0,0-1.461-.884Q37-6.773,37-4.121ZM48,.156A4.15,4.15,0,0,1,44.973-.984,4.054,4.054,0,0,1,43.8-4.023v-.219A5.106,5.106,0,0,1,44.3-6.52a3.612,3.612,0,0,1,1.395-1.547,3.914,3.914,0,0,1,2.059-.543,3.508,3.508,0,0,1,2.73,1.094,4.444,4.444,0,0,1,1,3.1v.922H46.094a2.1,2.1,0,0,0,.66,1.328,2,2,0,0,0,1.395.5,2.437,2.437,0,0,0,2.039-.945L51.3-1.367A3.389,3.389,0,0,1,49.922-.246,4.511,4.511,0,0,1,48,.156Zm-.258-6.945a1.411,1.411,0,0,0-1.09.455,2.357,2.357,0,0,0-.535,1.3h3.141v-.181a1.681,1.681,0,0,0-.406-1.165A1.456,1.456,0,0,0,47.742-6.789ZM-23.594,19.852a5.07,5.07,0,0,1-.887,3.129,2.843,2.843,0,0,1-2.395,1.176,2.633,2.633,0,0,1-2.07-.891V27.25H-31.2v-11.7h2.094l.078.828a2.654,2.654,0,0,1,2.141-.984,2.862,2.862,0,0,1,2.43,1.156,5.207,5.207,0,0,1,.867,3.188Zm-2.258-.164a3.327,3.327,0,0,0-.418-1.82,1.361,1.361,0,0,0-1.215-.641,1.478,1.478,0,0,0-1.461.813V21.5a1.5,1.5,0,0,0,1.477.836Q-25.852,22.336-25.852,19.688Zm8.406-2.023a6.134,6.134,0,0,0-.812-.062,1.654,1.654,0,0,0-1.68.867V24H-22.2V15.547h2.133L-20,16.555a2.092,2.092,0,0,1,1.883-1.164,2.366,2.366,0,0,1,.7.1Zm.453,2.031a5.013,5.013,0,0,1,.484-2.242,3.546,3.546,0,0,1,1.395-1.523A4.069,4.069,0,0,1-13,15.391a3.849,3.849,0,0,1,2.793,1.047A4.2,4.2,0,0,1-9,19.281l.016.578A4.418,4.418,0,0,1-10.07,22.98a3.775,3.775,0,0,1-2.914,1.176A3.793,3.793,0,0,1-15.9,22.984a4.5,4.5,0,0,1-1.09-3.187Zm2.258.16a3.16,3.16,0,0,0,.453,1.843,1.5,1.5,0,0,0,1.3.638,1.5,1.5,0,0,0,1.281-.63,3.457,3.457,0,0,0,.461-2.015A3.128,3.128,0,0,0-11.7,17.86a1.5,1.5,0,0,0-1.3-.649,1.474,1.474,0,0,0-1.281.646A3.516,3.516,0,0,0-14.734,19.856Zm6.789-.145a5.094,5.094,0,0,1,.887-3.148,2.877,2.877,0,0,1,2.426-1.172,2.589,2.589,0,0,1,2.039.922V12H-.328V24H-2.367l-.109-.9a2.657,2.657,0,0,1-2.172,1.055A2.869,2.869,0,0,1-7.043,22.98,5.258,5.258,0,0,1-7.945,19.711Zm2.258.168A3.337,3.337,0,0,0-5.273,21.7a1.349,1.349,0,0,0,1.2.634,1.511,1.511,0,0,0,1.477-.884V18.111a1.489,1.489,0,0,0-1.461-.884Q-5.688,17.227-5.687,19.879ZM6.484,23.141a2.831,2.831,0,0,1-2.312,1.016A2.67,2.67,0,0,1,2.1,23.375a3.335,3.335,0,0,1-.73-2.289V15.547H3.625v5.467q0,1.322,1.2,1.322a1.63,1.63,0,0,0,1.578-.8V15.547H8.672V24H6.547Zm7.406-.8a1.481,1.481,0,0,0,1.016-.344,1.2,1.2,0,0,0,.406-.914H17.43a2.9,2.9,0,0,1-.469,1.574A3.093,3.093,0,0,1,15.7,23.762a3.949,3.949,0,0,1-1.77.395A3.67,3.67,0,0,1,11.07,23a4.56,4.56,0,0,1-1.047-3.184v-.148a4.508,4.508,0,0,1,1.039-3.117,3.627,3.627,0,0,1,2.852-1.164,3.555,3.555,0,0,1,2.543.9,3.2,3.2,0,0,1,.973,2.4H15.313a1.551,1.551,0,0,0-.406-1.072,1.51,1.51,0,0,0-2.223.163,3.333,3.333,0,0,0-.4,1.866v.235a3.375,3.375,0,0,0,.4,1.878A1.377,1.377,0,0,0,13.891,22.336Zm7.531-8.867v2.078h1.445V17.2H21.422v4.219a1.007,1.007,0,0,0,.18.672.9.9,0,0,0,.688.2,3.6,3.6,0,0,0,.664-.055v1.711a4.648,4.648,0,0,1-1.367.2,2.156,2.156,0,0,1-2.422-2.4V17.2H17.93V15.547h1.234V13.469ZM23.539,19.7a5.013,5.013,0,0,1,.484-2.242,3.546,3.546,0,0,1,1.395-1.523,4.069,4.069,0,0,1,2.113-.539,3.849,3.849,0,0,1,2.793,1.047,4.2,4.2,0,0,1,1.207,2.844l.016.578a4.418,4.418,0,0,1-1.086,3.121,3.775,3.775,0,0,1-2.914,1.176,3.793,3.793,0,0,1-2.918-1.172,4.5,4.5,0,0,1-1.09-3.187Zm2.258.16A3.16,3.16,0,0,0,26.25,21.7a1.628,1.628,0,0,0,2.578.008,3.457,3.457,0,0,0,.461-2.015,3.128,3.128,0,0,0-.461-1.831,1.5,1.5,0,0,0-1.3-.649,1.474,1.474,0,0,0-1.281.646A3.516,3.516,0,0,0,25.8,19.856Z" transform="translate(646.104 3164.954) rotate(-41)" fill="#12263f"/>
            <path id="Trazado_221424" data-name="Trazado 221424" d="M0,0H105V4H0Z" transform="translate(624.834 3225.844) rotate(-41)" fill="#6a6a6a"/>
            <path id="Trazado_221425" data-name="Trazado 221425" d="M6,0l6,7H0Z" transform="translate(706.737 3149.346) rotate(49)" fill="#636363"/>
            <path id="Trazado_221426" data-name="Trazado 221426" d="M-48.383,0h-2.344V-11.375h2.344Zm4.1-8.453.07.977a2.951,2.951,0,0,1,2.43-1.133,2.453,2.453,0,0,1,2,.789,3.682,3.682,0,0,1,.672,2.359V0h-2.258V-5.406a1.465,1.465,0,0,0-.312-1.043,1.4,1.4,0,0,0-1.039-.324,1.553,1.553,0,0,0-1.43.813V0h-2.258V-8.453Zm10.4,6.789a1.481,1.481,0,0,0,1.016-.344,1.2,1.2,0,0,0,.406-.914h2.117a2.9,2.9,0,0,1-.469,1.574A3.093,3.093,0,0,1-32.074-.238a3.949,3.949,0,0,1-1.77.395A3.67,3.67,0,0,1-36.7-1,4.56,4.56,0,0,1-37.75-4.18v-.148a4.508,4.508,0,0,1,1.039-3.117,3.627,3.627,0,0,1,2.852-1.164,3.555,3.555,0,0,1,2.543.9,3.2,3.2,0,0,1,.973,2.4h-2.117a1.551,1.551,0,0,0-.406-1.072A1.354,1.354,0,0,0-33.9-6.789a1.36,1.36,0,0,0-1.191.575,3.333,3.333,0,0,0-.4,1.866v.235a3.375,3.375,0,0,0,.4,1.878A1.377,1.377,0,0,0-33.883-1.664ZM-24.3-6.336a6.134,6.134,0,0,0-.812-.062,1.654,1.654,0,0,0-1.68.867V0h-2.258V-8.453h2.133l.063,1.008a2.092,2.092,0,0,1,1.883-1.164,2.366,2.366,0,0,1,.7.1ZM-19.328.156A4.15,4.15,0,0,1-22.355-.984a4.054,4.054,0,0,1-1.168-3.039v-.219a5.106,5.106,0,0,1,.492-2.277,3.612,3.612,0,0,1,1.395-1.547,3.914,3.914,0,0,1,2.059-.543,3.508,3.508,0,0,1,2.73,1.094,4.444,4.444,0,0,1,1,3.1v.922h-5.383a2.1,2.1,0,0,0,.66,1.328,2,2,0,0,0,1.395.5,2.437,2.437,0,0,0,2.039-.945l1.109,1.242A3.389,3.389,0,0,1-17.406-.246,4.511,4.511,0,0,1-19.328.156Zm-.258-6.945a1.411,1.411,0,0,0-1.09.455,2.357,2.357,0,0,0-.535,1.3h3.141v-.181a1.681,1.681,0,0,0-.406-1.165A1.456,1.456,0,0,0-19.586-6.789Zm7.133-1.664.07.945a2.971,2.971,0,0,1,2.43-1.1A2.255,2.255,0,0,1-7.711-7.32,2.9,2.9,0,0,1-5.172-8.609a2.521,2.521,0,0,1,2.047.8A3.681,3.681,0,0,1-2.453-5.4V0H-4.719V-5.391A1.61,1.61,0,0,0-5-6.441a1.246,1.246,0,0,0-.992-.332A1.409,1.409,0,0,0-7.4-5.8L-7.391,0H-9.648V-5.383a1.59,1.59,0,0,0-.289-1.062,1.259,1.259,0,0,0-.984-.328,1.463,1.463,0,0,0-1.391.8V0H-14.57V-8.453ZM3.172.156A4.15,4.15,0,0,1,.145-.984,4.054,4.054,0,0,1-1.023-4.023v-.219A5.106,5.106,0,0,1-.531-6.52,3.612,3.612,0,0,1,.863-8.066a3.914,3.914,0,0,1,2.059-.543,3.508,3.508,0,0,1,2.73,1.094,4.444,4.444,0,0,1,1,3.1v.922H1.266a2.1,2.1,0,0,0,.66,1.328,2,2,0,0,0,1.395.5,2.437,2.437,0,0,0,2.039-.945L6.469-1.367A3.389,3.389,0,0,1,5.094-.246,4.511,4.511,0,0,1,3.172.156ZM2.914-6.789a1.411,1.411,0,0,0-1.09.455,2.357,2.357,0,0,0-.535,1.3H4.43v-.181a1.681,1.681,0,0,0-.406-1.165A1.456,1.456,0,0,0,2.914-6.789Zm7.094-1.664.07.977a2.951,2.951,0,0,1,2.43-1.133,2.453,2.453,0,0,1,2,.789,3.682,3.682,0,0,1,.672,2.359V0H12.922V-5.406a1.465,1.465,0,0,0-.312-1.043,1.4,1.4,0,0,0-1.039-.324,1.553,1.553,0,0,0-1.43.813V0H7.883V-8.453Zm9.586-2.078v2.078h1.445V-6.8H19.594v4.219a1.007,1.007,0,0,0,.18.672.9.9,0,0,0,.688.2,3.6,3.6,0,0,0,.664-.055V-.047a4.648,4.648,0,0,1-1.367.2,2.156,2.156,0,0,1-2.422-2.4V-6.8H16.1V-8.453h1.234v-2.078ZM21.711-4.3A5.013,5.013,0,0,1,22.2-6.547,3.546,3.546,0,0,1,23.59-8.07,4.069,4.069,0,0,1,25.7-8.609,3.849,3.849,0,0,1,28.5-7.562,4.2,4.2,0,0,1,29.7-4.719l.016.578A4.418,4.418,0,0,1,28.633-1.02,3.775,3.775,0,0,1,25.719.156,3.793,3.793,0,0,1,22.8-1.016,4.5,4.5,0,0,1,21.711-4.2Zm2.258.16A3.16,3.16,0,0,0,24.422-2.3a1.5,1.5,0,0,0,1.3.638A1.5,1.5,0,0,0,27-2.294a3.457,3.457,0,0,0,.461-2.015A3.128,3.128,0,0,0,27-6.14a1.5,1.5,0,0,0-1.3-.649,1.474,1.474,0,0,0-1.281.646A3.516,3.516,0,0,0,23.969-4.144Zm10.773-.145a5.094,5.094,0,0,1,.887-3.148,2.877,2.877,0,0,1,2.426-1.172,2.589,2.589,0,0,1,2.039.922V-12h2.266V0H40.32l-.109-.9A2.657,2.657,0,0,1,38.039.156,2.869,2.869,0,0,1,35.645-1.02,5.258,5.258,0,0,1,34.742-4.289ZM37-4.121A3.337,3.337,0,0,0,37.414-2.3a1.349,1.349,0,0,0,1.2.634,1.511,1.511,0,0,0,1.477-.884V-5.889a1.489,1.489,0,0,0-1.461-.884Q37-6.773,37-4.121ZM48,.156A4.15,4.15,0,0,1,44.973-.984,4.054,4.054,0,0,1,43.8-4.023v-.219A5.106,5.106,0,0,1,44.3-6.52a3.612,3.612,0,0,1,1.395-1.547,3.914,3.914,0,0,1,2.059-.543,3.508,3.508,0,0,1,2.73,1.094,4.444,4.444,0,0,1,1,3.1v.922H46.094a2.1,2.1,0,0,0,.66,1.328,2,2,0,0,0,1.395.5,2.437,2.437,0,0,0,2.039-.945L51.3-1.367A3.389,3.389,0,0,1,49.922-.246,4.511,4.511,0,0,1,48,.156Zm-.258-6.945a1.411,1.411,0,0,0-1.09.455,2.357,2.357,0,0,0-.535,1.3h3.141v-.181a1.681,1.681,0,0,0-.406-1.165A1.456,1.456,0,0,0,47.742-6.789ZM-23.594,19.852a5.07,5.07,0,0,1-.887,3.129,2.843,2.843,0,0,1-2.395,1.176,2.633,2.633,0,0,1-2.07-.891V27.25H-31.2v-11.7h2.094l.078.828a2.654,2.654,0,0,1,2.141-.984,2.862,2.862,0,0,1,2.43,1.156,5.207,5.207,0,0,1,.867,3.188Zm-2.258-.164a3.327,3.327,0,0,0-.418-1.82,1.361,1.361,0,0,0-1.215-.641,1.478,1.478,0,0,0-1.461.813V21.5a1.5,1.5,0,0,0,1.477.836Q-25.852,22.336-25.852,19.688Zm8.406-2.023a6.134,6.134,0,0,0-.812-.062,1.654,1.654,0,0,0-1.68.867V24H-22.2V15.547h2.133L-20,16.555a2.092,2.092,0,0,1,1.883-1.164,2.366,2.366,0,0,1,.7.1Zm.453,2.031a5.013,5.013,0,0,1,.484-2.242,3.546,3.546,0,0,1,1.395-1.523A4.069,4.069,0,0,1-13,15.391a3.849,3.849,0,0,1,2.793,1.047A4.2,4.2,0,0,1-9,19.281l.016.578A4.418,4.418,0,0,1-10.07,22.98a3.775,3.775,0,0,1-2.914,1.176A3.793,3.793,0,0,1-15.9,22.984a4.5,4.5,0,0,1-1.09-3.187Zm2.258.16a3.16,3.16,0,0,0,.453,1.843,1.5,1.5,0,0,0,1.3.638,1.5,1.5,0,0,0,1.281-.63,3.457,3.457,0,0,0,.461-2.015A3.128,3.128,0,0,0-11.7,17.86a1.5,1.5,0,0,0-1.3-.649,1.474,1.474,0,0,0-1.281.646A3.516,3.516,0,0,0-14.734,19.856Zm6.789-.145a5.094,5.094,0,0,1,.887-3.148,2.877,2.877,0,0,1,2.426-1.172,2.589,2.589,0,0,1,2.039.922V12H-.328V24H-2.367l-.109-.9a2.657,2.657,0,0,1-2.172,1.055A2.869,2.869,0,0,1-7.043,22.98,5.258,5.258,0,0,1-7.945,19.711Zm2.258.168A3.337,3.337,0,0,0-5.273,21.7a1.349,1.349,0,0,0,1.2.634,1.511,1.511,0,0,0,1.477-.884V18.111a1.489,1.489,0,0,0-1.461-.884Q-5.688,17.227-5.687,19.879ZM6.484,23.141a2.831,2.831,0,0,1-2.312,1.016A2.67,2.67,0,0,1,2.1,23.375a3.335,3.335,0,0,1-.73-2.289V15.547H3.625v5.467q0,1.322,1.2,1.322a1.63,1.63,0,0,0,1.578-.8V15.547H8.672V24H6.547Zm7.406-.8a1.481,1.481,0,0,0,1.016-.344,1.2,1.2,0,0,0,.406-.914H17.43a2.9,2.9,0,0,1-.469,1.574A3.093,3.093,0,0,1,15.7,23.762a3.949,3.949,0,0,1-1.77.395A3.67,3.67,0,0,1,11.07,23a4.56,4.56,0,0,1-1.047-3.184v-.148a4.508,4.508,0,0,1,1.039-3.117,3.627,3.627,0,0,1,2.852-1.164,3.555,3.555,0,0,1,2.543.9,3.2,3.2,0,0,1,.973,2.4H15.313a1.551,1.551,0,0,0-.406-1.072,1.51,1.51,0,0,0-2.223.163,3.333,3.333,0,0,0-.4,1.866v.235a3.375,3.375,0,0,0,.4,1.878A1.377,1.377,0,0,0,13.891,22.336Zm7.531-8.867v2.078h1.445V17.2H21.422v4.219a1.007,1.007,0,0,0,.18.672.9.9,0,0,0,.688.2,3.6,3.6,0,0,0,.664-.055v1.711a4.648,4.648,0,0,1-1.367.2,2.156,2.156,0,0,1-2.422-2.4V17.2H17.93V15.547h1.234V13.469ZM23.539,19.7a5.013,5.013,0,0,1,.484-2.242,3.546,3.546,0,0,1,1.395-1.523,4.069,4.069,0,0,1,2.113-.539,3.849,3.849,0,0,1,2.793,1.047,4.2,4.2,0,0,1,1.207,2.844l.016.578a4.418,4.418,0,0,1-1.086,3.121,3.775,3.775,0,0,1-2.914,1.176,3.793,3.793,0,0,1-2.918-1.172,4.5,4.5,0,0,1-1.09-3.187Zm2.258.16A3.16,3.16,0,0,0,26.25,21.7a1.628,1.628,0,0,0,2.578.008,3.457,3.457,0,0,0,.461-2.015,3.128,3.128,0,0,0-.461-1.831,1.5,1.5,0,0,0-1.3-.649,1.474,1.474,0,0,0-1.281.646A3.516,3.516,0,0,0,25.8,19.856Z" transform="translate(976.104 3164.954) rotate(-41)" fill="#12263f"/>
            <path id="Trazado_221427" data-name="Trazado 221427" d="M0,0H105V4H0Z" transform="translate(954.834 3225.844) rotate(-41)" fill="#6a6a6a"/>
            <path id="Trazado_221428" data-name="Trazado 221428" d="M6,0l6,7H0Z" transform="translate(1036.737 3149.346) rotate(49)" fill="#636363"/>
            <path id="Trazado_221429" data-name="Trazado 221429" d="M-70.18-4.93h-4.5v3.047H-69.4V0h-7.625V-11.375h7.609v1.9H-74.68v2.711h4.5Zm4.969,2.172,1.57-5.7h2.359L-64.133,0h-2.156l-2.852-8.453h2.359ZM-55.508,0a2.507,2.507,0,0,1-.227-.758,2.732,2.732,0,0,1-2.133.914,3,3,0,0,1-2.059-.719,2.312,2.312,0,0,1-.816-1.812,2.389,2.389,0,0,1,1-2.062,4.915,4.915,0,0,1,2.879-.727h1.039v-.484a1.393,1.393,0,0,0-.3-.937,1.183,1.183,0,0,0-.949-.352,1.345,1.345,0,0,0-.895.273.929.929,0,0,0-.324.75h-2.258A2.268,2.268,0,0,1-60.1-7.273a3,3,0,0,1,1.281-.98,4.669,4.669,0,0,1,1.859-.355,3.689,3.689,0,0,1,2.48.785,2.747,2.747,0,0,1,.918,2.207v3.664a4.041,4.041,0,0,0,.336,1.82V0Zm-1.867-1.57a1.945,1.945,0,0,0,.922-.223,1.462,1.462,0,0,0,.625-.6V-3.844h-.844q-1.7,0-1.8,1.172l-.008.133a.9.9,0,0,0,.3.7A1.153,1.153,0,0,0-57.375-1.57ZM-49.445,0h-2.266V-12h2.266Zm6.922-.859A2.831,2.831,0,0,1-44.836.156,2.67,2.67,0,0,1-46.91-.625a3.335,3.335,0,0,1-.73-2.289V-8.453h2.258v5.467q0,1.322,1.2,1.322a1.63,1.63,0,0,0,1.578-.8V-8.453h2.266V0h-2.125ZM-33.734,0a2.507,2.507,0,0,1-.227-.758,2.732,2.732,0,0,1-2.133.914,3,3,0,0,1-2.059-.719,2.312,2.312,0,0,1-.816-1.812,2.389,2.389,0,0,1,1-2.062,4.915,4.915,0,0,1,2.879-.727h1.039v-.484a1.393,1.393,0,0,0-.3-.937,1.183,1.183,0,0,0-.949-.352,1.345,1.345,0,0,0-.895.273.929.929,0,0,0-.324.75h-2.258a2.268,2.268,0,0,1,.453-1.359,3,3,0,0,1,1.281-.98,4.669,4.669,0,0,1,1.859-.355,3.689,3.689,0,0,1,2.48.785,2.747,2.747,0,0,1,.918,2.207v3.664a4.041,4.041,0,0,0,.336,1.82V0ZM-35.6-1.57a1.945,1.945,0,0,0,.922-.223,1.462,1.462,0,0,0,.625-.6V-3.844H-34.9q-1.7,0-1.8,1.172l-.008.133a.9.9,0,0,0,.3.7A1.153,1.153,0,0,0-35.6-1.57Zm9.063-.094a1.481,1.481,0,0,0,1.016-.344,1.2,1.2,0,0,0,.406-.914H-23a2.9,2.9,0,0,1-.469,1.574A3.093,3.093,0,0,1-24.73-.238,3.949,3.949,0,0,1-26.5.156,3.67,3.67,0,0,1-29.359-1,4.56,4.56,0,0,1-30.406-4.18v-.148a4.508,4.508,0,0,1,1.039-3.117,3.627,3.627,0,0,1,2.852-1.164,3.555,3.555,0,0,1,2.543.9A3.2,3.2,0,0,1-23-5.3h-2.117a1.551,1.551,0,0,0-.406-1.072,1.354,1.354,0,0,0-1.031-.412,1.36,1.36,0,0,0-1.191.575,3.333,3.333,0,0,0-.4,1.866v.235a3.375,3.375,0,0,0,.4,1.878A1.377,1.377,0,0,0-26.539-1.664ZM-19.328,0h-2.266V-8.453h2.266Zm-2.4-10.641a1.112,1.112,0,0,1,.34-.836,1.277,1.277,0,0,1,.926-.328,1.28,1.28,0,0,1,.922.328,1.105,1.105,0,0,1,.344.836,1.108,1.108,0,0,1-.348.844,1.283,1.283,0,0,1-.918.328,1.283,1.283,0,0,1-.918-.328A1.108,1.108,0,0,1-21.727-10.641ZM-17.82-4.3a5.013,5.013,0,0,1,.484-2.242A3.546,3.546,0,0,1-15.941-8.07a4.069,4.069,0,0,1,2.113-.539,3.849,3.849,0,0,1,2.793,1.047A4.2,4.2,0,0,1-9.828-4.719l.016.578A4.418,4.418,0,0,1-10.9-1.02,3.775,3.775,0,0,1-13.812.156,3.793,3.793,0,0,1-16.73-1.016,4.5,4.5,0,0,1-17.82-4.2Zm2.258.16A3.16,3.16,0,0,0-15.109-2.3a1.5,1.5,0,0,0,1.3.638,1.5,1.5,0,0,0,1.281-.63,3.457,3.457,0,0,0,.461-2.015,3.128,3.128,0,0,0-.461-1.831,1.5,1.5,0,0,0-1.3-.649,1.474,1.474,0,0,0-1.281.646A3.516,3.516,0,0,0-15.562-4.144ZM-13.383-12h2.461l-2.164,2.422h-1.836Zm7.039,3.547.07.977a2.951,2.951,0,0,1,2.43-1.133,2.453,2.453,0,0,1,2,.789,3.682,3.682,0,0,1,.672,2.359V0H-3.43V-5.406a1.465,1.465,0,0,0-.312-1.043,1.4,1.4,0,0,0-1.039-.324,1.553,1.553,0,0,0-1.43.813V0H-8.469V-8.453ZM4.172-4.289a5.094,5.094,0,0,1,.887-3.148A2.877,2.877,0,0,1,7.484-8.609a2.589,2.589,0,0,1,2.039.922V-12h2.266V0H9.75L9.641-.9A2.657,2.657,0,0,1,7.469.156,2.869,2.869,0,0,1,5.074-1.02,5.258,5.258,0,0,1,4.172-4.289Zm2.258.168A3.337,3.337,0,0,0,6.844-2.3a1.349,1.349,0,0,0,1.2.634,1.511,1.511,0,0,0,1.477-.884V-5.889a1.489,1.489,0,0,0-1.461-.884Q6.43-6.773,6.43-4.121Zm11,4.277A4.15,4.15,0,0,1,14.4-.984a4.054,4.054,0,0,1-1.168-3.039v-.219a5.106,5.106,0,0,1,.492-2.277,3.612,3.612,0,0,1,1.395-1.547,3.914,3.914,0,0,1,2.059-.543,3.508,3.508,0,0,1,2.73,1.094,4.444,4.444,0,0,1,1,3.1v.922H15.523a2.1,2.1,0,0,0,.66,1.328,2,2,0,0,0,1.395.5,2.437,2.437,0,0,0,2.039-.945l1.109,1.242A3.389,3.389,0,0,1,19.352-.246,4.511,4.511,0,0,1,17.43.156Zm-.258-6.945a1.411,1.411,0,0,0-1.09.455,2.357,2.357,0,0,0-.535,1.3h3.141v-.181a1.681,1.681,0,0,0-.406-1.165A1.456,1.456,0,0,0,17.172-6.789ZM24.57,0H22.3V-12H24.57ZM33.93-1.664a1.481,1.481,0,0,0,1.016-.344,1.2,1.2,0,0,0,.406-.914h2.117A2.9,2.9,0,0,1,37-1.348,3.093,3.093,0,0,1,35.738-.238a3.949,3.949,0,0,1-1.77.395A3.67,3.67,0,0,1,31.109-1,4.56,4.56,0,0,1,30.063-4.18v-.148A4.508,4.508,0,0,1,31.1-7.445a3.627,3.627,0,0,1,2.852-1.164,3.555,3.555,0,0,1,2.543.9,3.2,3.2,0,0,1,.973,2.4H35.352a1.551,1.551,0,0,0-.406-1.072,1.354,1.354,0,0,0-1.031-.412,1.36,1.36,0,0,0-1.191.575,3.333,3.333,0,0,0-.4,1.866v.235a3.375,3.375,0,0,0,.4,1.878A1.377,1.377,0,0,0,33.93-1.664ZM41.141,0H38.875V-12h2.266Zm4.242,0H43.117V-8.453h2.266Zm-2.4-10.641a1.112,1.112,0,0,1,.34-.836,1.277,1.277,0,0,1,.926-.328,1.28,1.28,0,0,1,.922.328,1.105,1.105,0,0,1,.344.836,1.108,1.108,0,0,1-.348.844,1.283,1.283,0,0,1-.918.328,1.283,1.283,0,0,1-.918-.328A1.108,1.108,0,0,1,42.984-10.641ZM51.133.156A4.15,4.15,0,0,1,48.105-.984a4.054,4.054,0,0,1-1.168-3.039v-.219A5.106,5.106,0,0,1,47.43-6.52a3.612,3.612,0,0,1,1.395-1.547,3.914,3.914,0,0,1,2.059-.543,3.508,3.508,0,0,1,2.73,1.094,4.444,4.444,0,0,1,1,3.1v.922H49.227a2.1,2.1,0,0,0,.66,1.328,2,2,0,0,0,1.395.5,2.437,2.437,0,0,0,2.039-.945L54.43-1.367A3.389,3.389,0,0,1,53.055-.246,4.511,4.511,0,0,1,51.133.156Zm-.258-6.945a1.411,1.411,0,0,0-1.09.455,2.357,2.357,0,0,0-.535,1.3h3.141v-.181a1.681,1.681,0,0,0-.406-1.165A1.456,1.456,0,0,0,50.875-6.789Zm7.094-1.664.07.977a2.951,2.951,0,0,1,2.43-1.133,2.453,2.453,0,0,1,2,.789,3.682,3.682,0,0,1,.672,2.359V0H60.883V-5.406a1.465,1.465,0,0,0-.312-1.043,1.4,1.4,0,0,0-1.039-.324,1.553,1.553,0,0,0-1.43.813V0H55.844V-8.453Zm9.586-2.078v2.078H69V-6.8H67.555v4.219a1.007,1.007,0,0,0,.18.672.9.9,0,0,0,.688.2,3.6,3.6,0,0,0,.664-.055V-.047a4.648,4.648,0,0,1-1.367.2,2.156,2.156,0,0,1-2.422-2.4V-6.8H64.063V-8.453H65.3v-2.078ZM74.148.156A4.15,4.15,0,0,1,71.121-.984a4.054,4.054,0,0,1-1.168-3.039v-.219a5.106,5.106,0,0,1,.492-2.277A3.612,3.612,0,0,1,71.84-8.066,3.914,3.914,0,0,1,73.9-8.609a3.508,3.508,0,0,1,2.73,1.094,4.444,4.444,0,0,1,1,3.1v.922H72.242a2.1,2.1,0,0,0,.66,1.328,2,2,0,0,0,1.395.5,2.437,2.437,0,0,0,2.039-.945l1.109,1.242A3.389,3.389,0,0,1,76.07-.246,4.511,4.511,0,0,1,74.148.156Zm-.258-6.945a1.411,1.411,0,0,0-1.09.455,2.357,2.357,0,0,0-.535,1.3h3.141v-.181A1.681,1.681,0,0,0,75-6.377,1.456,1.456,0,0,0,73.891-6.789Z" transform="translate(904 3373.15)" fill="#12263f"/>
            <path id="Trazado_221430" data-name="Trazado 221430" d="M0,0H166.3V4H0Z" transform="translate(820.695 3381.15)" fill="#6a6a6a"/>
            <path id="Trazado_221431" data-name="Trazado 221431" d="M6,0l6,7H0Z" transform="translate(994 3377.15) rotate(90)" fill="#636363"/>
          </g>
        </g>
      </g>
    </g>
  </g>
</svg>
