<svg xmlns="http://www.w3.org/2000/svg" xmlns:xlink="http://www.w3.org/1999/xlink" width="97.898" height="110.277" viewBox="0 0 97.898 110.277">
  <defs>
    <linearGradient id="linear-gradient" x1="50.357" y1="-1.134" x2="50.357" y2="-2.138" gradientUnits="objectBoundingBox">
      <stop offset="0" stop-color="#e1f8f8"/>
      <stop offset="1" stop-color="#babfff"/>
    </linearGradient>
    <linearGradient id="linear-gradient-2" x1="0.463" y1="0.5" x2="-0.537" y2="0.5" gradientUnits="objectBoundingBox">
      <stop offset="0" stop-color="#ff957c"/>
      <stop offset="0.984" stop-color="#ffae78"/>
    </linearGradient>
    <linearGradient id="linear-gradient-3" x1="-0.581" y1="1" x2="-0.581" gradientUnits="objectBoundingBox">
      <stop offset="0.022" stop-color="#ff8359"/>
      <stop offset="1" stop-color="#ff8b7c"/>
    </linearGradient>
    <linearGradient id="linear-gradient-4" x1="0.03" y1="0.5" x2="-0.97" y2="0.5" xlink:href="#linear-gradient-2"/>
    <linearGradient id="linear-gradient-5" x1="-0.231" y1="1" x2="-0.231" y2="0" xlink:href="#linear-gradient-3"/>
    <linearGradient id="linear-gradient-6" x1="-0.257" y1="1" x2="-0.257" y2="0" xlink:href="#linear-gradient-3"/>
  </defs>
  <g id="Grupo_210405" data-name="Grupo 210405" transform="translate(11085 11837.118)">
    <g id="Grupo_210404" data-name="Grupo 210404">
      <g id="Grupo_210403" data-name="Grupo 210403">
        <g id="Grupo_210362" data-name="Grupo 210362" transform="translate(-12244.333 -12190)">
          <g id="Grupo_179456" data-name="Grupo 179456" transform="translate(451.66 305.951)">
            <path id="Trazado_210740" data-name="Trazado 210740" d="M796.27,63.245s-1.766-12.12-7.8-15.732c-6.089-3.641-15.285,10.925-13.024,12.613s4.841-6.817,10.165-8.182C792.12,50.274,787.547,66.613,796.27,63.245Z" transform="translate(-17.505)" fill="#0f2771"/>
            <path id="Trazado_210741" data-name="Trazado 210741" d="M707.714,106.668l-.018.355c0,.037,0,.062,0,.1l-.01.085c-.6,24.018,18.9,44.394,43.745,47.23.951.108,1.893.2,2.84.25,23.91,1.448,46.1-13.973,50.516-36.939,4.239-22.014-9.075-43.631-31.327-51.551-.01-.013-.01-.013-.021-.015A52.45,52.45,0,0,0,761.81,63.5c-1.538-.175-3.061-.288-4.581-.326a50.324,50.324,0,0,0-27.866,7.3,5.347,5.347,0,0,1-1.51,3.214,3.943,3.943,0,0,1-3.413.251A46.823,46.823,0,0,0,720.3,77.7l-.038.033a43.27,43.27,0,0,0-12.548,28.935Z" transform="translate(0 -4.211)" fill="#0f2771"/>
            <path id="Trazado_210742" data-name="Trazado 210742" d="M707.721,104.07c-.019.749-.037,1.5-.021,2.239,0,.037,0,.062,0,.1l-.01.085a45.853,45.853,0,0,0,40.326,44.783c.4.045.786.09,1.174.121a45.2,45.2,0,0,0,46.7-31.095l.374-1.213v-.013a46.474,46.474,0,0,0,1.128-4.772,45.8,45.8,0,0,0-23.928-48.822c-.01-.013-.01-.013-.021-.015a44.766,44.766,0,0,0-6.243-2.646,43.5,43.5,0,0,0-9.408-2.12,44.447,44.447,0,0,0-28.163,6.07s0,.259-.012.689c-.011.2-.024.416-.053.659a11.688,11.688,0,0,1-.2,1.64,5.347,5.347,0,0,1-1.51,3.214,3.943,3.943,0,0,1-3.413.251,8.067,8.067,0,0,1-.842-.281,5.263,5.263,0,0,1-.567-.238,8.412,8.412,0,0,1-.8-.374,45.523,45.523,0,0,0-11.122,16.044c-.248.6-.483,1.189-.688,1.806-.057.1-.081.212-.127.318-.134.391-.27.794-.384,1.2-.133.378-.2.6-.2.6A45.545,45.545,0,0,0,707.721,104.07Z" transform="translate(-0.005 -3.498)" fill="#bddcf6"/>
            <path id="Trazado_210743" data-name="Trazado 210743" d="M727.511,111.612A30.776,30.776,0,0,0,754.564,144a30.208,30.208,0,0,0,33.291-25.5,30.786,30.786,0,0,0-11.58-29.123,30.254,30.254,0,0,0-48.764,22.236Z" transform="translate(-5.136 -9.368)" fill="#0f2771"/>
            <path id="Trazado_210744" data-name="Trazado 210744" d="M736.585,114.426a28.958,28.958,0,0,0,25.5,30.82l.159.019a30.321,30.321,0,0,0,27.96-25.636,30.786,30.786,0,0,0-11.58-29.123,28.663,28.663,0,0,0-9.819-2.955A29.007,29.007,0,0,0,736.585,114.426Z" transform="translate(-7.488 -10.497)" fill="url(#linear-gradient)"/>
            <path id="Trazado_210745" data-name="Trazado 210745" d="M808.842,86.517S785.669,46.574,743.86,64.075c0,0,35.627-17.944,59.434,22.685C803.294,86.759,809.856,90.758,808.842,86.517Z" transform="translate(-9.396 -3.3)" fill="#bddcf6"/>
            <g id="Grupo_179450" data-name="Grupo 179450" transform="translate(727.586 102.834)">
              <path id="Trazado_210746" data-name="Trazado 210746" d="M734.584,123.824c.234-3.423,10.432.3,9.869,2.532C743.894,128.57,734.147,130.192,734.584,123.824Z" transform="translate(-734.57 -122.439)" fill="#feca2e"/>
              <path id="Trazado_210747" data-name="Trazado 210747" d="M744.555,127.571c-.418-1.089-3.2,1.136-6.173,1.108s-3.4-1.56-3.4-1.56-.309,2.695,1.826,3.8S744.18,128.332,744.555,127.571Z" transform="translate(-734.672 -123.654)" fill="#b82774" opacity="0.5" style="mix-blend-mode: multiply;isolation: isolate"/>
              <path id="Trazado_210748" data-name="Trazado 210748" d="M743.59,125.3c.9,1.078-2.874.938-4.213-.48S741.624,122.958,743.59,125.3Z" transform="translate(-735.742 -122.753)" fill="#fff" style="mix-blend-mode: soft-light;isolation: isolate"/>
            </g>
            <g id="Grupo_179451" data-name="Grupo 179451" transform="translate(756.813 75.029)">
              <path id="Trazado_210749" data-name="Trazado 210749" d="M777.278,84.963c5.5,1.133-.8,10.454-1.625,10.423S771.732,83.821,777.278,84.963Z" transform="translate(-774.046 -84.884)" fill="#ff9000"/>
              <path id="Trazado_210750" data-name="Trazado 210750" d="M774.241,90.888s.973,3.993,1.87,3.6,3.575-5.934,3-8.374c-.576-2.458,1.562.047.812,3.549-.742,3.465-3.449,6.28-4.312,6.569S774.241,90.888,774.241,90.888Z" transform="translate(-774.097 -84.947)" fill="#b82774" opacity="0.5" style="mix-blend-mode: multiply;isolation: isolate"/>
              <path id="Trazado_210751" data-name="Trazado 210751" d="M776.111,85.568c2.15,0-.5,3.327-1.238,3.712S773.764,85.567,776.111,85.568Z" transform="translate(-774.115 -85.061)" fill="#fff" style="mix-blend-mode: soft-light;isolation: isolate"/>
            </g>
            <g id="Grupo_179452" data-name="Grupo 179452" transform="translate(774.22 110.571)">
              <path id="Trazado_210752" data-name="Trazado 210752" d="M805.785,132.942s-7.558-.366-8.188.842,6.516,4.619,6.516,4.619S805.515,134.427,805.785,132.942Z" transform="translate(-797.558 -132.889)" fill="#feca2e"/>
              <path id="Trazado_210753" data-name="Trazado 210753" d="M797.611,134.1s.577,1.938,6.7,4.176l-1.2,2.664S797.8,138.015,797.611,134.1Z" transform="translate(-797.572 -133.203)" fill="#b82774" opacity="0.5" style="mix-blend-mode: multiply;isolation: isolate"/>
              <path id="Trazado_210754" data-name="Trazado 210754" d="M804.408,133.149c1.954,1.356-3.966,1.638-4.384.84S803.65,132.623,804.408,133.149Z" transform="translate(-798.191 -132.904)" fill="#fff" style="mix-blend-mode: soft-light;isolation: isolate"/>
            </g>
            <g id="Grupo_179453" data-name="Grupo 179453" transform="translate(749.252 126.209)">
              <path id="Trazado_210755" data-name="Trazado 210755" d="M766.081,162.539c4.745.543,1.51-8.194.626-8.519S761.1,161.969,766.081,162.539Z" transform="translate(-763.834 -154.011)" fill="#feca2e"/>
              <path id="Trazado_210756" data-name="Trazado 210756" d="M767.33,154.881s1.729,5.081.588,6.838-3.619.11-3.619.11.513,1.31,4.151.925S767.33,154.881,767.33,154.881Z" transform="translate(-763.955 -154.237)" fill="#b82774" opacity="0.5" style="mix-blend-mode: multiply;isolation: isolate"/>
              <path id="Trazado_210757" data-name="Trazado 210757" d="M766.252,154.8c1.072-.3.249,2.753-.824,2.851S766.252,154.8,766.252,154.8Z" transform="translate(-764.162 -154.212)" fill="#fff" style="mix-blend-mode: soft-light;isolation: isolate"/>
            </g>
            <g id="Grupo_179455" data-name="Grupo 179455" transform="translate(738.681 79.359)">
              <path id="Trazado_210758" data-name="Trazado 210758" d="M760.518,129.536l1.384,3a7.358,7.358,0,0,0,4.192,1.65c4.1-.278,5.585-4.713,5.585-4.713s-.831,9.216-6.462,10.2c-2.89.5-4.579-2.152-5.549-4.868a19.394,19.394,0,0,1-7.509-3.711C749.158,128.327,760.518,129.536,760.518,129.536Z" transform="translate(-750.101 -100.739)" fill="#2779b8" opacity="0.5" style="mix-blend-mode: multiply;isolation: isolate"/>
              <path id="Trazado_210759" data-name="Trazado 210759" d="M760.4,123.424s-9.351.034-10.754,2.151,13.108,6.119,13.108,6.119A11.773,11.773,0,0,1,760.4,123.424Z" transform="translate(-749.556 -99.22)" fill="#0f2771"/>
              <path id="Trazado_210760" data-name="Trazado 210760" d="M762.792,123.424s-3.879,1.121-4.034,3.4c-.154,2.262,5.95,4.728,5.95,4.728A11.031,11.031,0,0,1,762.792,123.424Z" transform="translate(-751.944 -99.22)" fill="#9865d3" opacity="0.8" style="mix-blend-mode: multiply;isolation: isolate"/>
              <path id="Trazado_210761" data-name="Trazado 210761" d="M756.557,124.243c1.143.158-.327,2.906-2.128,3.164s-4.461-.86-4.193-1.673S755.021,124.032,756.557,124.243Z" transform="translate(-749.728 -99.425)" fill="#fff" opacity="0.5" style="mix-blend-mode: soft-light;isolation: isolate"/>
              <path id="Trazado_210762" data-name="Trazado 210762" d="M775.9,123c1.264-.529,8.044-13.138,2-26.347-3.366-7.361-3.591,6.346-4.9,12.3C771.717,114.786,775.9,123,775.9,123Z" transform="translate(-755.58 -91.718)" fill="#2766b8" opacity="0.5" style="mix-blend-mode: multiply;isolation: isolate"/>
              <g id="Grupo_179454" data-name="Grupo 179454" transform="translate(11.639 0)">
                <path id="Trazado_210763" data-name="Trazado 210763" d="M776.476,116.057l1.819,1.65s4.039-24.407-2.06-26.906Z" transform="translate(-768.122 -90.75)" fill="#40005e"/>
                <path id="Trazado_210764" data-name="Trazado 210764" d="M773.63,116.039s3-17.525.514-24.3c-1.588-4.333-5.136,6.252-7.2,14.712a79.823,79.823,0,0,0-1.665,9.311A6.445,6.445,0,0,1,773.63,116.039Z" transform="translate(-765.277 -90.732)" fill="#0f2771"/>
                <path id="Trazado_210765" data-name="Trazado 210765" d="M778.075,121.485s1.561-9.741,1.553-14.085c-.008-4.4-.743-6.363-1.027-6.525s-1.208,12.621-1.6,15.043l-.474,2.924Z" transform="translate(-768.197 -93.365)" fill="#b8659f" opacity="0.8" style="mix-blend-mode: multiply;isolation: isolate"/>
                <path id="Trazado_210766" data-name="Trazado 210766" d="M775.479,95.672a19.807,19.807,0,0,1-4.727,13.888c-3.81,4.211-1.578-6.081.088-12.046C772.537,91.438,774.963,89.724,775.479,95.672Z" transform="translate(-766.154 -91.058)" fill="#fff" opacity="0.5" style="mix-blend-mode: soft-light;isolation: isolate"/>
              </g>
              <path id="Trazado_210767" data-name="Trazado 210767" d="M763.187,125.225a5.752,5.752,0,1,0,6.381-5.473A5.947,5.947,0,0,0,763.187,125.225Z" transform="translate(-753.086 -98.257)" fill="#b7901c"/>
              <path id="Trazado_210768" data-name="Trazado 210768" d="M763.185,125.2c-.341,3.335,1.613,6.268,4.362,6.582s5.292-2.106,5.685-5.435c.4-3.365-1.547-6.378-4.349-6.7S763.53,121.829,763.185,125.2Z" transform="translate(-753.085 -98.233)" fill="#feca2e"/>
              <path id="Trazado_210769" data-name="Trazado 210769" d="M772.6,123.742c.176,1.7-7.127,2.953-8.476,3.147s.035-5.4,3.183-6.26S772.6,123.742,772.6,123.742Z" transform="translate(-753.205 -98.463)" fill="#ab5455" opacity="0.2" style="mix-blend-mode: multiply;isolation: isolate"/>
            </g>
            <path id="Trazado_210770" data-name="Trazado 210770" d="M788.912,118.468c-.215,1.5-12.072-15.081-27.156-18.239-15.15-3.172-23.082,9.256-28.858,9.238s7-31.443,31.62-25.928C788.946,89.009,790.25,109.141,788.912,118.468Z" transform="translate(-6.193 -9.336)" fill="#0f2771" opacity="0.5" style="mix-blend-mode: multiply;isolation: isolate"/>
            <path id="Trazado_210771" data-name="Trazado 210771" d="M761.309,84.905a30.756,30.756,0,0,0-28.159,16.1s10.194,7.338,17.937,3.892C758.935,101.411,761.309,84.905,761.309,84.905Z" transform="translate(-6.615 -9.85)" fill="#fff"/>
            <path id="Trazado_210772" data-name="Trazado 210772" d="M792.411,147.416c-4.364-3.517-19.181,7.7-19.643,11.033C772.311,161.751,789.433,156.55,792.411,147.416Z" transform="translate(-16.899 -25.915)" fill="#fff"/>
            <path id="Trazado_210773" data-name="Trazado 210773" d="M709.315,101.667s6.518,7.307,10.181-4.158c3.811-11.891,22.678-35.388,51.572-15.159,27.514,19.26,4.023,46.945,7.046,47.364,2.879.4,15.18-1.025,18.2-9.1l.374-1.213v-.013c4.991-21.054-5.4-48.8-39.032-56.617-.577-.14-1.167-.281-1.77-.4l-.066-.007c-10.677-2.2-19.158.523-25.779,5.407-.011.2-.024.416-.053.659a11.678,11.678,0,0,1-.2,1.64,5.347,5.347,0,0,1-1.51,3.214,3.943,3.943,0,0,1-3.413.251,8.062,8.062,0,0,1-.842-.281c-1.18,1.305-2.277,2.659-3.3,4.044l-.038.033A76.765,76.765,0,0,0,709.315,101.667Z" transform="translate(-0.426 -3.806)" fill="#b6d3ff" style="mix-blend-mode: soft-light;isolation: isolate"/>
            <path id="Trazado_210774" data-name="Trazado 210774" d="M800.076,175.448c.334-1.131-3.612-2.491-4.458-2.507s-10.068,6.948-21.714,8.642C762.375,183.261,783.284,186.307,800.076,175.448Z" transform="translate(-16.335 -32.718)" fill="#923b66" opacity="0.5" style="mix-blend-mode: multiply;isolation: isolate"/>
            <path id="Trazado_210775" data-name="Trazado 210775" d="M824.605,154.236c1.414-1.308,7.068-11.292,7.1-14.618.03-3.362-4.745-5.243-5.24-5.049s-4.115,11.938-8.869,18.644C812.95,159.767,824.605,154.236,824.605,154.236Z" transform="translate(-28.257 -22.751)" fill="#b6d3ff" style="mix-blend-mode: soft-light;isolation: isolate"/>
            <path id="Trazado_210776" data-name="Trazado 210776" d="M836.418,116.494c.315,4.435-6.321,1.366-6.833.507s-1.307-10.058-2.485-13.449c-1.19-3.423,4.277-1.057,4.277-1.057S835.708,106.493,836.418,116.494Z" transform="translate(-30.964 -14.22)" fill="#923b66" opacity="0.5" style="mix-blend-mode: multiply;isolation: isolate"/>
            <path id="Trazado_210777" data-name="Trazado 210777" d="M707.721,114.627c-.03.782-.035,1.564-.028,2.334l0,.084c-.6,24.021,18.889,44.4,43.739,47.24.952.108,1.895.195,2.842.241l.9-1.116s-2.376-.44-5.981-1.452c-7.55-2.131-21.8-7.054-29.891-15.668-9.522-10.137-11.853-25.49-10.525-37.819a36.271,36.271,0,0,1,1.53-7.409A45.457,45.457,0,0,0,707.721,114.627Z" transform="translate(-0.001 -14.055)" fill="#923b66" opacity="0.8" style="mix-blend-mode: multiply;isolation: isolate"/>
            <path id="Trazado_210778" data-name="Trazado 210778" d="M713.838,131.024c1.8-6.172,10.43,5.569,19.748,17.073,9.016,11.131,36.745,19.625,22.257,21.348C746.634,170.54,706.846,155.013,713.838,131.024Z" transform="translate(-1.388 -21.392)" fill="#0f2771" opacity="0.4" style="mix-blend-mode: multiply;isolation: isolate"/>
            <path id="Trazado_210779" data-name="Trazado 210779" d="M778.369,155s-8.915,9.146-21.575,8.219c-12.639-.925-21.429-14.659-21.429-14.659s9.358,10.971,21.253,12.462C767.95,162.441,778.369,155,778.369,155Z" transform="translate(-7.19 -26.387)" fill="#0f2771"/>
            <path id="Trazado_210780" data-name="Trazado 210780" d="M757.277,164.6c2.152-.137-3.582-2.471-5.5-3.02S750,165.37,757.277,164.6Z" transform="translate(-11.18 -29.755)" fill="#fff"/>
            <path id="Trazado_210781" data-name="Trazado 210781" d="M816.045,81.488c1.117,4.458-7.007-5.265-13.953-10.285C795.061,66.12,814.036,73.471,816.045,81.488Z" transform="translate(-24.112 -5.867)" fill="#fff"/>
            <path id="Trazado_210783" data-name="Trazado 210783" d="M737.32,66.771s0,.259-.012.689c-.011.2.039-.931.012-.689,1.2-.676,2.573-.492,3.9-1.055,7.374-3.136,15.086-3.6,21.863-3.663a80.141,80.141,0,0,1,11.8.768,43.5,43.5,0,0,0-9.408-2.12A44.447,44.447,0,0,0,737.32,66.771Z" transform="translate(-7.694 -3.498)" fill="#0f2771" opacity="0.8" style="mix-blend-mode: multiply;isolation: isolate"/>
            <path id="Trazado_210784" data-name="Trazado 210784" d="M803.661,114.452c1.233-4.788-2.81-10.463-5.274-11.8S803.661,114.452,803.661,114.452Z" transform="translate(-23.427 -14.444)" fill="#fff"/>
            <path id="Trazado_210785" data-name="Trazado 210785" d="M789.226,52.318c1.6-.213-1.157-3.6-3.37-3.295s-4.558,4.435-4.022,5.774S786.32,51.569,789.226,52.318Z" transform="translate(-19.235 -0.538)" fill="#6e3b66" opacity="0.5" style="mix-blend-mode: multiply;isolation: isolate"/>
            <path id="Trazado_210786" data-name="Trazado 210786" d="M797.041,55.56c-.414,2.171-5.5-4.8-7.352-6.27S795.268,46.732,797.041,55.56Z" transform="translate(-21.218 -0.354)" fill="#fff" style="mix-blend-mode: soft-light;isolation: isolate"/>
            <path id="Trazado_210787" data-name="Trazado 210787" d="M757.062,79.418c7.9,1.969-11.786,1.133-21.957,12.835-9.792,11.265-9.441,6.906-9.441,6.906S733.053,77.963,757.062,79.418Z" transform="translate(-4.671 -8.416)" fill="#0f2771" opacity="0.5" style="mix-blend-mode: multiply;isolation: isolate"/>
            <path id="Trazado_210791" data-name="Trazado 210791" d="M734.732,69s-5.175,4.773-7.393,5.56c0,0,2.525,2.029,5.176,1.747S734.732,69,734.732,69Z" transform="translate(-5.106 -5.731)" fill="#bddcf6"/>
            <path id="Trazado_210792" data-name="Trazado 210792" d="M736.145,69.935s-2.51,1.528-3.165,3.554.914,2.2,2.125,1.681S736.145,69.935,736.145,69.935Z" transform="translate(-6.531 -5.973)" fill="#0f2771" opacity="0.5" style="mix-blend-mode: multiply;isolation: isolate"/>
          </g>
          <g id="Grupo_179502" data-name="Grupo 179502" transform="matrix(0.839, 0.545, -0.545, 0.839, 1228.419, 421.07)">
            <path id="Trazado_210680" data-name="Trazado 210680" d="M-21.734,213.5s-12.474-1.75-19.29.038c0,0-1.446,5.3,0,8.5,0,0-4.337.414-5.267,1.446s-.62,5.535,0,7.208,4.338,2.5,4.338,2.5a7.991,7.991,0,0,0-.414,8.055s6.713,3.439,13.529,3.408a9.82,9.82,0,0,0,.723-9.4s3.408-2.937,2.892-9.214c0,0,2.744-.7,3.489-1.423S-19.587,217.557-21.734,213.5Z" transform="translate(46.877 -212.73)" fill="url(#linear-gradient-2)"/>
            <path id="Trazado_210681" data-name="Trazado 210681" d="M-21.7,245.872l-1.019-1.721-6.776-2.072s-4.363.309-5.258,2.248Z" transform="translate(35.862 -212.73)" fill="url(#linear-gradient-3)"/>
            <path id="Trazado_210682" data-name="Trazado 210682" d="M-20.963,245.872c.909.277.021,5.677-1.271,7.569,0,0-7.512.478-12.514-2,0,0-1.22-4.744.732-7.109A43.769,43.769,0,0,1-20.963,245.872Z" transform="translate(35.125 -212.73)" fill="url(#linear-gradient-4)"/>
            <path id="Trazado_210683" data-name="Trazado 210683" d="M-26.445,224.618s-7.195-.579-19.29-2.582a80.261,80.261,0,0,0,15.8,4.005S-26.938,225.676-26.445,224.618Z" transform="translate(51.589 -212.73)" fill="url(#linear-gradient-5)"/>
            <path id="Trazado_210684" data-name="Trazado 210684" d="M-21.7,234.091a78.2,78.2,0,0,1-18.637-2.656,20.4,20.4,0,0,0,3.816,1.755l13.838,2.065Z" transform="translate(41.446 -212.73)" fill="url(#linear-gradient-6)"/>
          </g>
        </g>
      </g>
    </g>
  </g>
</svg>
