<svg xmlns="http://www.w3.org/2000/svg" xmlns:xlink="http://www.w3.org/1999/xlink" width="373.916" height="380.168" viewBox="0 0 373.916 380.168">
  <defs>
    <linearGradient id="linear-gradient" x1="0.5" y1="1" x2="0.5" gradientUnits="objectBoundingBox">
      <stop offset="0" stop-color="#d0c7f8"/>
      <stop offset="1" stop-color="#fff"/>
    </linearGradient>
    <clipPath id="clip-path">
      <ellipse id="Elipse_5568" data-name="Elipse 5568" cx="178.742" cy="178.742" rx="178.742" ry="178.742" fill="none"/>
    </clipPath>
    <linearGradient id="linear-gradient-3" x1="0.797" y1="0.5" x2="-0.203" y2="0.5" gradientUnits="objectBoundingBox">
      <stop offset="0.006" stop-color="#832e31"/>
      <stop offset="0.989" stop-color="#680e38"/>
    </linearGradient>
    <linearGradient id="linear-gradient-4" x1="0.827" y1="0.5" x2="-0.173" y2="0.5" gradientUnits="objectBoundingBox">
      <stop offset="0.011" stop-color="#680e38"/>
      <stop offset="0.994" stop-color="#832e31"/>
    </linearGradient>
    <linearGradient id="linear-gradient-5" x1="0.292" y1="1" x2="0.292" gradientUnits="objectBoundingBox">
      <stop offset="0.011" stop-color="#63517c"/>
      <stop offset="1" stop-color="#8e72b3"/>
    </linearGradient>
    <linearGradient id="linear-gradient-6" x1="0.296" y1="1" x2="0.296" y2="0" xlink:href="#linear-gradient-5"/>
    <linearGradient id="linear-gradient-7" x1="0.204" y1="1" x2="0.204" gradientUnits="objectBoundingBox">
      <stop offset="0" stop-color="#863690"/>
      <stop offset="1" stop-color="#8e3d90"/>
    </linearGradient>
    <linearGradient id="linear-gradient-8" x1="0.179" y1="1" x2="0.179" y2="0" xlink:href="#linear-gradient-7"/>
    <linearGradient id="linear-gradient-9" x1="0.797" y1="0.5" x2="-0.203" y2="0.5" gradientUnits="objectBoundingBox">
      <stop offset="0.022" stop-color="#ff8359"/>
      <stop offset="1" stop-color="#ff8b7c"/>
    </linearGradient>
    <linearGradient id="linear-gradient-10" x1="0.825" y1="0.5" x2="-0.175" y2="0.5" xlink:href="#linear-gradient-9"/>
    <linearGradient id="linear-gradient-11" x1="0.668" y1="0.5" x2="-0.332" y2="0.5" gradientUnits="objectBoundingBox">
      <stop offset="0.011" stop-color="#be6888"/>
      <stop offset="1" stop-color="#8ea6ba"/>
    </linearGradient>
    <linearGradient id="linear-gradient-12" x1="0.673" y1="0.5" x2="-0.327" y2="0.5" xlink:href="#linear-gradient-11"/>
    <linearGradient id="linear-gradient-13" x1="0.132" y1="1" x2="0.132" gradientUnits="objectBoundingBox">
      <stop offset="0" stop-color="#ff8359"/>
      <stop offset="0.022" stop-color="#fbd4c7"/>
      <stop offset="1" stop-color="#ff8b7c"/>
    </linearGradient>
    <linearGradient id="linear-gradient-14" x1="0.112" y1="1" x2="0.112" gradientUnits="objectBoundingBox">
      <stop offset="0" stop-color="#fff9fc"/>
      <stop offset="0.016" stop-color="#f0c2d6"/>
      <stop offset="0.994" stop-color="#f1d1f5"/>
      <stop offset="1" stop-color="#bd89c4"/>
    </linearGradient>
    <linearGradient id="linear-gradient-15" x1="0.299" y1="1" x2="0.299" gradientUnits="objectBoundingBox">
      <stop offset="0" stop-color="#fce2d1"/>
      <stop offset="0.016" stop-color="#f3c4a5"/>
      <stop offset="1" stop-color="#f3bfb4"/>
    </linearGradient>
    <linearGradient id="linear-gradient-16" x1="0.261" y1="1" x2="0.261" gradientUnits="objectBoundingBox">
      <stop offset="0" stop-color="#ffeadb"/>
      <stop offset="0.994" stop-color="#f2e2ff"/>
      <stop offset="1" stop-color="#b060f4"/>
    </linearGradient>
    <linearGradient id="linear-gradient-17" x1="0.293" y1="1" x2="0.293" gradientUnits="objectBoundingBox">
      <stop offset="0" stop-color="#338b96"/>
      <stop offset="0.866" stop-color="#4dd0e1"/>
      <stop offset="1" stop-color="#57ecff"/>
    </linearGradient>
    <linearGradient id="linear-gradient-18" x1="-0.087" y1="1" x2="-0.087" gradientUnits="objectBoundingBox">
      <stop offset="0.011" stop-color="#be6888"/>
      <stop offset="1" stop-color="#8e81f4"/>
    </linearGradient>
    <linearGradient id="linear-gradient-19" x1="0.112" y1="1" x2="0.112" y2="0" xlink:href="#linear-gradient-18"/>
    <linearGradient id="linear-gradient-20" x1="0.097" y1="1" x2="0.097" y2="0" xlink:href="#linear-gradient-18"/>
    <linearGradient id="linear-gradient-21" x1="0.323" y1="1" x2="0.323" y2="0" xlink:href="#linear-gradient-18"/>
    <linearGradient id="linear-gradient-22" x1="-1.113" y1="1" x2="-1.113" gradientUnits="objectBoundingBox">
      <stop offset="0" stop-color="#335e91"/>
      <stop offset="1" stop-color="#4dd0e1"/>
    </linearGradient>
    <linearGradient id="linear-gradient-23" x1="-0.221" y1="1" x2="-0.221" gradientUnits="objectBoundingBox">
      <stop offset="0" stop-color="#325d8f"/>
      <stop offset="1" stop-color="#4dd0e1"/>
    </linearGradient>
    <clipPath id="clip-path-2">
      <path id="Trazado_210648" data-name="Trazado 210648" d="M77.286-1.916a13.413,13.413,0,0,0,7.122.694,11.637,11.637,0,0,0,6.709-3.9c.165-.2.247-.314.247-.314a1.466,1.466,0,0,0-.132-.215,14.292,14.292,0,0,0-2.148-3.007A12.3,12.3,0,0,0,86.9-10.591a12.624,12.624,0,0,0-3.206-1.6,12.86,12.86,0,0,0-6.1-.529C74.51-7.881,77.286-1.916,77.286-1.916Z" transform="translate(-76.14 12.874)" fill="url(#linear-gradient)"/>
    </clipPath>
    <linearGradient id="linear-gradient-25" x1="-0.685" y1="1" x2="-0.685" gradientUnits="objectBoundingBox">
      <stop offset="0.006" stop-color="#c2862e"/>
      <stop offset="0.983" stop-color="#74422f"/>
    </linearGradient>
    <clipPath id="clip-path-3">
      <path id="Trazado_210651" data-name="Trazado 210651" d="M107.164.364A7.84,7.84,0,0,0,110.6-.214a6.037,6.037,0,0,0,2.247-1.636,6.736,6.736,0,0,0,1.338-2.594,6.223,6.223,0,0,0-.066-3.437,11.494,11.494,0,0,0-4.659-6.147C107.577-15.053,103.991-7.617,107.164.364Z" transform="translate(-105.902 14.123)" fill="none"/>
    </clipPath>
    <linearGradient id="linear-gradient-26" x1="-1.16" y1="1" x2="-1.16" y2="0" xlink:href="#linear-gradient"/>
    <linearGradient id="linear-gradient-27" x1="-0.94" y1="1" x2="-0.94" y2="0" xlink:href="#linear-gradient-25"/>
    <linearGradient id="linear-gradient-28" x1="-0.228" y1="1" x2="-0.228" gradientUnits="objectBoundingBox">
      <stop offset="0.027" stop-color="#ff6a68"/>
      <stop offset="1" stop-color="#ff7c5e"/>
    </linearGradient>
    <linearGradient id="linear-gradient-29" x1="-0.075" y1="1" x2="-0.075" gradientUnits="objectBoundingBox">
      <stop offset="0" stop-color="#ff8359"/>
      <stop offset="0.022" stop-color="#f9d0c2"/>
      <stop offset="1" stop-color="#ff8b7c"/>
    </linearGradient>
    <linearGradient id="linear-gradient-30" x1="-0.105" y1="1" x2="-0.105" gradientUnits="objectBoundingBox">
      <stop offset="0" stop-color="#296f78"/>
      <stop offset="1" stop-color="#4dd0e1"/>
    </linearGradient>
    <linearGradient id="linear-gradient-31" x1="-0.43" y1="1" x2="-0.43" gradientUnits="objectBoundingBox">
      <stop offset="0" stop-color="#2b757e"/>
      <stop offset="1" stop-color="#4dd0e1"/>
    </linearGradient>
    <linearGradient id="linear-gradient-32" x1="-0.445" y1="1" x2="-0.445" gradientUnits="objectBoundingBox">
      <stop offset="0" stop-color="#6f2e45"/>
      <stop offset="0.006" stop-color="#325e91"/>
      <stop offset="1" stop-color="#6deeff"/>
    </linearGradient>
    <linearGradient id="linear-gradient-33" x1="-0.444" y1="1" x2="-0.444" gradientUnits="objectBoundingBox">
      <stop offset="0" stop-color="#325d90"/>
      <stop offset="1" stop-color="#67eeff"/>
    </linearGradient>
    <linearGradient id="linear-gradient-34" x1="-0.031" y1="1" x2="-0.031" y2="0" xlink:href="#linear-gradient-18"/>
    <linearGradient id="linear-gradient-35" x1="-0.403" y1="1" x2="-0.403" y2="0" xlink:href="#linear-gradient-18"/>
    <linearGradient id="linear-gradient-36" x1="0.011" y1="1" x2="0.011" gradientUnits="objectBoundingBox">
      <stop offset="0" stop-color="#8e81f4"/>
      <stop offset="0.989" stop-color="#be6888"/>
    </linearGradient>
    <linearGradient id="linear-gradient-37" x1="0.025" y1="1" x2="0.025" y2="0" xlink:href="#linear-gradient-36"/>
    <linearGradient id="linear-gradient-38" x1="0.124" y1="1" x2="0.124" y2="0" xlink:href="#linear-gradient-5"/>
    <linearGradient id="linear-gradient-39" x1="0.184" y1="1" x2="0.184" y2="0" xlink:href="#linear-gradient-5"/>
  </defs>
  <g id="Grupo_210397" data-name="Grupo 210397" transform="translate(-931.516 -149.248)">
    <g id="Grupo_210396" data-name="Grupo 210396">
      <g id="Grupo_210395" data-name="Grupo 210395">
        <g id="Grupo_210394" data-name="Grupo 210394">
          <g id="Grupo_210366" data-name="Grupo 210366">
            <g id="Grupo_179478" data-name="Grupo 179478">
              <g id="Grupo_179473" data-name="Grupo 179473">
                <path id="Elipse_4711-2" data-name="Elipse 4711-2" d="M482.353-58.64A178.742,178.742,0,1,1,303.611,120.1h0A178.742,178.742,0,0,1,482.353-58.64Z" transform="translate(628.005 209.211)" fill="#0f2771"/>
                <g id="Grupo_78300" data-name="Grupo 78300" transform="translate(628.005 209.211)">
                  <path id="Trazado_113504" data-name="Trazado 113504" d="M656.038,174.764a162.122,162.122,0,0,1-150.08,123.748,10.816,10.816,0,0,0-10.273,9.938v.008a10.828,10.828,0,0,0,9.865,11.709,11.221,11.221,0,0,0,1.335.031c81.6-3.56,151.3-61.331,170.26-140.4a10.821,10.821,0,0,0-8.1-12.986h0a10.716,10.716,0,0,0-1.594-.246h0A10.807,10.807,0,0,0,656.038,174.764Z" fill="#4dd0e1"/>
                </g>
                <g id="Grupo_179435" data-name="Grupo 179435" transform="translate(903.611 150.57)">
                  <g id="Grupo_137219" data-name="Grupo 137219" transform="translate(27.905 0)">
                    <g id="Grupo_152001" data-name="Grupo 152001">
                      <g id="Grupo_179443" data-name="Grupo 179443">
                        <g id="Grupo_179442" data-name="Grupo 179442" clip-path="url(#clip-path)">
                          <g id="Grupo_179441" data-name="Grupo 179441" transform="translate(54.318 -1.323)">
                            <g id="Grupo_179440" data-name="Grupo 179440">
                              <path id="Trazado_210610" data-name="Trazado 210610" d="M9.559,506.228v.016l2.207,4.121,6.328-4.121c4.953.818,15.156,6.606,22.857,11.02,7.717,4.415,10.463,8.551,10.463,8.551l.082-.2.066-.213c.882-2.681,5.886-17.674,5.673-19.44-.229-1.929-4.153-4.692-4.153-4.692l.033-.016c.556-.393,9.613-6.671,9.875-9.058.262-2.485-2.763-11.576-2.763-11.576s11.854-51.224,11.02-57.552c-.818-6.327-7.439-34.956-7.439-34.956.131-.7.261-1.422.409-2.174,4.12-22.023,10.938-48.755,16.938-70.648.163-.637.343-1.259.507-1.88,2.06-7.472,4-14.323,5.689-20.176,3.5-12.148,5.9-19.979,5.9-19.979q.172,14.42.9,27.091c.605,11.118,1.488,21.239,2.534,30.362,4.137,36.428,10.873,56.914,13.26,61.508.8,1.521,1.717,3.058,2.681,4.546h.017l.049.1a104.36,104.36,0,0,0,6.671,9.057l.065.082c6.344,34.973,3.875,75.177,2.485,76.845-1.373,1.651-8.812,6.033-8.812,6.033s-.017.147-.033.392a1.905,1.905,0,0,0-.017.327,3.5,3.5,0,0,0-.016.425,4.243,4.243,0,0,0-.016.458c0,.213,0,.409.016.605,0,.213.033.425.049.654.017.163.049.36.066.54a16.369,16.369,0,0,0,2.4,5.8.955.955,0,0,0,.115.163.789.789,0,0,0,.163.245c0,.017.017.033.033.05l-5.788,2.436s-.033.278-.065.784c-.507,7.554,2.632,23.119,2.795,24.018,0,.017.017.017.017.033l.033-.016c.539-.425,9.564-7.21,16.774-8.649,7.44-1.488,21.484,0,21.484,0a104.986,104.986,0,0,0,1.9-12.7c.212-2.093.294-3.466.294-3.466l-.54-7.489s10.448-69.045,8.8-76.533c-1.651-7.472-12.933-26.634-12.933-26.634s0-39.4-1.373-76.305c-.033-.719-.05-1.423-.1-2.126-1.717-36.64-12.573-83.923-12.573-83.923l-2.192-5.38-15.712-7.439-59.448,4.4s-9.679,28.367-18.77,68.833c-.032.164-.065.327-.114.491-1.226,5.493-2.322,11.151-3.335,16.824q-.836,4.611-1.554,9.205c-.081.507-.163,1.013-.229,1.5-.147.948-.278,1.9-.425,2.8-.474,3.172-.882,5.984-1.16,8.06-.1.605-.164,1.128-.229,1.6-3.646,26.993-4.889,49.7-4.513,51.649a20.838,20.838,0,0,0,.638,2.158s.016.065.049.2c1.52,4.349,4.823,12.034,5.068,12.622,0,.017.017.017.017.033.294,14.339-9.908,81.8-9.908,81.8s-4.676.278-4.4,2.764c.261,2.468,2.485,5.771,2.485,5.771l-4.137.556s-.065.114-.18.327c-.147.294-.392.785-.686,1.39-.033.065-.082.147-.131.229C12.747,494.734,9.673,505.836,9.559,506.228Z" transform="translate(31.477 59.963)" fill="#12263f" fill-rule="evenodd"/>
                              <path id="Trazado_210611" data-name="Trazado 210611" d="M-8.445,542.739c3.173,1.239,13.087,2.891,13.087,2.891A28.6,28.6,0,0,0,9.6,551.414a204.226,204.226,0,0,0,51.488,0,32.092,32.092,0,0,0-.909-5.949,15.4,15.4,0,0,0-2.66-6.031S46.629,535.3,41.54,531.023a45.825,45.825,0,0,1-6.808-7.782c-2.446-3.355-4.214-6.279-4.214-6.279-29.048-8.411-35.212,8.03-35.212,8.03-1.867,4.032-2.842,9.551-3.321,13.351C-8.345,540.938-8.445,542.739-8.445,542.739Z" transform="translate(150.135 59.963)" fill="url(#linear-gradient-3)"/>
                              <path id="Trazado_210612" data-name="Trazado 210612" d="M121.381,543.284s33.741,2.181,38.83,2.181h.066c4.016-.016,13-2.264,13-2.264,4.544-.826,27.693.248,27.693.248.48-2.346.843-4.808,1.091-7.171.711-6.527.711-12.227.711-12.227-11.171-12.162-31.825-17.813-31.825-17.813l-6.329,4.131c-1.008,1.074-2.032,2.082-3.057,3.024-17.912,16.837-36.881,17.713-36.881,17.713a17.1,17.1,0,0,0-2.776,7.089A30.531,30.531,0,0,0,121.381,543.284Z" transform="translate(-121.381 59.963)" fill="url(#linear-gradient-4)"/>
                              <path id="Trazado_210613" data-name="Trazado 210613" d="M57.012,387.829s-13.053,10.443-28.833,8.939h-.017l.066.1,6.676,9.055.066.083c6.345,34.964,3.866,75.183,2.478,76.835,0,0,9.088,8.642,16.26,10.658,6.675,1.867,13.6.264,14.491.05a40.578,40.578,0,0,1-16.424,4.164c-10.2.545-23.134-8.824-23.134-8.824s-.016.132-.033.38a1.949,1.949,0,0,0-.017.331,3.559,3.559,0,0,0-.016.429,4.325,4.325,0,0,0-.016.463c0,.2,0,.4.016.6,0,.214.033.429.05.66.016.166.049.348.066.529a11.734,11.734,0,0,0,2.4,5.817,1.018,1.018,0,0,0,.116.165,1,1,0,0,0,.164.231c0,.017.017.033.034.05,0,0,9.633,3.3,19.266,5.5,6.792,1.553,14.128.909,17.879.413.215-2.1.3-3.47.3-3.47L68.3,493.5s10.46-69.053,8.807-76.538c-1.652-7.468-12.938-26.636-12.938-26.636s0-39.409-1.371-76.307c-.033-.71-.951-10.818-1-11.529L9.554,297.883c.612,11.121,1.622,23.7,2.663,32.823,7.667,3.3,28.007,12.443,35.972,19.465C58.1,358.912,57.012,387.829,57.012,387.829Z" transform="translate(115.941 59.963)" opacity="0.7" fill="url(#linear-gradient-5)" style="mix-blend-mode: multiply;isolation: isolate"/>
                              <path id="Trazado_210614" data-name="Trazado 210614" d="M83.949,480.085c.261,2.468,2.485,5.771,2.485,5.771s21.189,13.505,32.225,15.418l.033-.016c.556-.393,9.613-6.671,9.875-9.058.262-2.485-2.763-11.576-2.763-11.576s11.854-51.224,11.02-57.552c-.818-6.327-7.439-34.956-7.439-34.956.131-.7.261-1.422.409-2.174,4.12-22.023,10.938-48.755,16.938-70.648.163-.637.343-1.259.507-1.88,2.06-7.472,4-14.323,5.689-20.176l-49-4.365c-1.226,5.493-2.322,11.151-3.335,16.824q-.836,4.611-1.554,9.205c-.081.507-.163,1.013-.229,1.5-.147.948-.278,1.9-.425,2.8-.474,3.172-.882,5.984-1.16,8.06-.1.605-.164,1.128-.229,1.6,0,0,20.584,12.246,27.991,28.219,0,0,2.468,19.6,0,25.588-2.485,5.984-25.719,4.2-31.866,0,0,0,.016.065.049.2.311,1.259,2.076,8.126,5.068,12.622,0,.017.017.017.017.033.294,14.339-9.908,81.8-9.908,81.8s20.927,3.859,30.852,3.3C119.2,480.624,94.412,482.553,83.949,480.085Z" transform="translate(-34.1 59.963)" opacity="0.7" fill="url(#linear-gradient-6)" style="mix-blend-mode: multiply;isolation: isolate"/>
                              <path id="Trazado_210615" data-name="Trazado 210615" d="M114.062,506.221v.017l2.214,4.131,6.329-4.131c4.957.826,15.152,6.609,22.852,11.021,7.717,4.412,10.476,8.56,10.476,8.56l.066-.2,5.75-19.647S126.19,487.5,121.233,486.409c0,0-.066.116-.181.331-.149.3-.4.776-.694,1.388-.034.066-.083.148-.116.231C118.276,492.308,114.062,501.347,114.062,506.221Z" transform="translate(-73.034 59.963)" fill-rule="evenodd" fill="url(#linear-gradient-7)"/>
                              <path id="Trazado_210616" data-name="Trazado 210616" d="M20.687,525.785c0,.017.016.017.016.034l.033-.017c.545-.43,9.568-7.221,16.772-8.658,7.436-1.488,21.481,0,21.481,0s4.081-5.949,1.9-12.691c0,0-28.6-.2-42.929-3.47,0,0-.033.281-.066.777C17.613,504.982,16.886,517.457,20.687,525.785Z" transform="translate(123.597 59.963)" fill-rule="evenodd" fill="url(#linear-gradient-8)"/>
                              <path id="Trazado_210617" data-name="Trazado 210617" d="M-8.445,542.739c3.173,1.239,13.087,2.891,13.087,2.891A28.6,28.6,0,0,0,9.6,551.414a204.226,204.226,0,0,0,51.488,0,32.092,32.092,0,0,0-.909-5.949s-18.969,6.213-50.893,2.082c0,0-5.469-5.5-9.881-6.874-3.486-1.09-6.362-2.016-7.419-2.33C-8.345,540.938-8.445,542.739-8.445,542.739Z" transform="translate(150.135 59.964)" fill="url(#linear-gradient-9)"/>
                              <path id="Trazado_210618" data-name="Trazado 210618" d="M122.092,543.284s33.741,2.181,38.83,2.181c3.983,0,13.071-2.264,13.071-2.264,4.544-.826,27.693.248,27.693.248.48-2.346.843-4.808,1.091-7.171-3.586.149-23.844,1.091-33.874,3.833-11,3.041-39.425,1.934-46.283-1.916A30.531,30.531,0,0,0,122.092,543.284Z" transform="translate(-122.092 59.964)" fill="url(#linear-gradient-10)"/>
                              <path id="Trazado_210619" data-name="Trazado 210619" d="M121.381,545.465c4.016-.016,13-2.264,13-2.264,4.544-.826,27.693.248,27.693.248.48-2.346.843-4.808,1.091-7.171.711-6.527.711-12.227.711-12.227-11.171-12.162-31.825-17.813-31.825-17.813l-6.329,4.131c-1.008,1.074-2.032,2.082-3.057,3.024,0,0,7.733.842,15.582,12.459,0,0-12.161,7.633-15.582,15.416A17.356,17.356,0,0,0,121.381,545.465Z" transform="translate(-82.485 59.963)" opacity="0.5" fill="url(#linear-gradient-11)" style="mix-blend-mode: multiply;isolation: isolate"/>
                              <path id="Trazado_210620" data-name="Trazado 210620" d="M17.91,542.739C21.083,543.978,31,545.63,31,545.63a28.6,28.6,0,0,0,4.957,5.784c-2.2-9.634,3.454-21.762,3.454-21.762,10.03-12.806,21.679-6.411,21.679-6.411-2.446-3.355-4.214-6.279-4.214-6.279-29.048-8.411-35.212,8.03-35.212,8.03-1.867,4.032-2.842,9.551-3.321,13.351C18.01,540.938,17.91,542.739,17.91,542.739Z" transform="translate(123.78 59.963)" opacity="0.5" fill="url(#linear-gradient-12)" style="mix-blend-mode: multiply;isolation: isolate"/>
                              <path id="Trazado_210621" data-name="Trazado 210621" d="M120.428,155.39s14.243,7.237,19.2,18.589c2.529,5.8,3.123,12.359,3.107,17.383a55.324,55.324,0,0,1-.628,8.229s7.436-.215,9.914-3.52a36.373,36.373,0,0,0,.2-5.552,18.122,18.122,0,0,0-.809-4.974s9.914-21.7,14.871-28.09a63.236,63.236,0,0,1,12.525-11.534l4.2-16.738,10.113-40.3-11.253-13.93L176.328,68.1a50.1,50.1,0,0,0-6.379,5.436,64.189,64.189,0,0,0-12.343,16.788s-7.436,20.655-9.716,29.545c-1.14,4.494-5.238,10.443-9.005,15.218-2.826,3.586-5.453,6.494-6.527,7.65l-.2.215-.149.165-.149.166s-6.064-1.388-9.65,0A20.024,20.024,0,0,0,120.428,155.39Z" transform="translate(-110.514 59.963)" fill="#e8e8e8"/>
                              <path id="Trazado_210622" data-name="Trazado 210622" d="M128.49,155.39s14.243,7.237,19.2,18.589c2.529,5.8,3.123,12.359,3.107,17.383l9.484-.843a18.122,18.122,0,0,0-.809-4.974s9.914-21.7,14.871-28.09a63.236,63.236,0,0,1,12.525-11.534l4.2-16.738-1.239-16.838s7.336-22.968.1-37.393A19.25,19.25,0,0,0,184.39,68.1a50.1,50.1,0,0,0-6.379,5.436s7.767,20.44,6.379,36.418c-1.372,15.979-6.379,25.133-6.379,25.133s-19.217,2.28-31.064,0h-.017l-6.51,7.65-.2.215-.149.165-.149.166s11.7,7.435,16.375,20.919c0,0-15.416-18.722-26.025-20.919A20.024,20.024,0,0,0,128.49,155.39Z" transform="translate(-118.576 59.963)" fill="#e8e8e8" fill-rule="evenodd" opacity="0.5" style="mix-blend-mode: multiply;isolation: isolate"/>
                              <path id="Trazado_210623" data-name="Trazado 210623" d="M-3.362,70.019l3.023-1.932s6.619,12.95,6.619,21.2c0,4.418-1.9,16.26-3.667,26.3-1.538,8.693-2.952,16.027-2.952,16.027,4.132,34.327,22.9,71.7,22.9,71.7v13.773s1.9,3.864,19.515,5.51c17.638,1.663,55.649,0,55.649,0s-4.418-9.642-3.309-13.559c.966-3.506,8.586-28.746,14.543-45.185.7-1.932,1.359-3.72,1.985-5.348,6.047-15.6,28.639-74.288,28.639-74.288s1.091-6.476-.286-8.211c-1.378-1.717-7.442-1.288-26.993-6.243C92.767,64.8,82.017,55.082,82.017,55.082c-1.592-1.306-5.778-8.228-5.778-8.228l-38.3,4.865S30.41,63.168,25.366,64.706c-5.08,1.556-26.76-1.02-26.76-1.02C-3.451,64.92-3.362,70.019-3.362,70.019Z" transform="translate(66.148 59.963)" fill="#e8e8e8"/>
                              <path id="Trazado_210624" data-name="Trazado 210624" d="M107.6-47.232s-3.416,13.071.1,22.129,7.849-13.042,7.849-13.042Z" transform="translate(-18.887 59.963)" fill="#335e91"/>
                              <path id="Trazado_210625" data-name="Trazado 210625" d="M96.75,27.537s-1.652,7.7,1.928,19.3c0,0-10.394,14.705-24.612,15.774,0,0-8.711-.548-13.668-10.894l8.537-20.393Z" transform="translate(43.701 59.963)" fill="url(#linear-gradient-13)"/>
                              <path id="Trazado_210626" data-name="Trazado 210626" d="M98.3,32.836s-9.444,18.7-17.5,24.375-12.759,1.377-12.759,1.377a19.859,19.859,0,0,1-5.715-6.867L75.994,29.534l22.684-2.005Z" transform="translate(41.773 59.963)" fill-rule="evenodd" opacity="0.23" fill="url(#linear-gradient-14)" style="mix-blend-mode: multiply;isolation: isolate"/>
                              <path id="Trazado_210627" data-name="Trazado 210627" d="M-3.361,139.411l5.386,28.421,13-4c.695-1.916,1.355-3.718,1.983-5.337,6.048-15.6,28.636-74.291,28.636-74.291s1.107-6.477-.281-8.212c0,0-20.721,6.164-28.817,27.909-8.08,21.745-6.428,46.365-6.428,46.365S4.851,120.343,6.8,107.653Z" transform="translate(160.072 59.963)" fill="#afafaf" fill-rule="evenodd" opacity="0.5" style="mix-blend-mode: multiply;isolation: isolate"/>
                              <path id="Trazado_210628" data-name="Trazado 210628" d="M131.519,64.65S106.332,87.468,86.36,98.089a7.564,7.564,0,0,0-2.37,5.327s24.852-6.086,36.264-14.147c0,0-10.883,9.518-35.616,20.444,0,0,1.991,32.749,5.3,42.93l-2.505,2.742-16.6-35.434S60.134,103.088,55.515,89.272c0,0-10.268,24.961-9.575,35.342S51.822,145.3,51.822,145.3l-12.9-17.793L50.254,77.728l8.9-13.012,2-1.01L80.3,62.615h5.123l2.284-.3,34.869-2.4Z" transform="translate(32.341 59.963)" fill="#e8e8e8" fill-rule="evenodd" opacity="0.5" style="mix-blend-mode: multiply;isolation: isolate"/>
                              <path id="Trazado_210629" data-name="Trazado 210629" d="M76.139,153.655s3.5,10.046,8.51,16.193l.016.016a18.879,18.879,0,0,0,1.884,2.049l1.372-.908,18.87-12.509s-6-40.02-5.371-71.4c0,0,6.279-1.6,9.931-5.4v-.017a9.538,9.538,0,0,0,1.719-2.346s.611-5.486-.645-8.427a3.207,3.207,0,0,0-1.107-1.5S96.662,67.533,90.68,68.1A10.405,10.405,0,0,0,88.4,75.25a39.071,39.071,0,0,0,3.3,6.774h.017a29.776,29.776,0,0,0,2.958,4.065l-.248.661c-.083.231-.2.512-.314.859-.182.446-.38.992-.6,1.62l-.182.5L92.812,91.2l-.215.6c-1.983,5.585-5.123,14.789-8.2,25.4a278.95,278.95,0,0,0-7.865,33.873v.017C76.387,151.953,76.255,152.8,76.139,153.655Z" transform="translate(13.419 59.963)" fill="#0f2771" fill-rule="evenodd"/>
                              <path id="Trazado_210630" data-name="Trazado 210630" d="M49.854,15.64a10.662,10.662,0,0,0,0,1.073c.2,10.84,12.038,32.4,14.328,33.343,2.325.948,12.522,2.343,19,0,3.7-1.342,9.463-5.581,14.7-10.643a60.155,60.155,0,0,0,9.8-11.878c.376-.644.752-1.324,1.109-2.075l.054-.054v-.018a90.46,90.46,0,0,0,4.221-9.731c6.047-16.367,10.769-40.3,3.149-49.191C101.514-50.688,75.469-52.96,64.164-47.4a13.038,13.038,0,0,0-3.327,2.236,7.619,7.619,0,0,0-1.771,2.54,31.631,31.631,0,0,0-1.377,4.776l-.018.054a1.554,1.554,0,0,1-.036.286,80.17,80.17,0,0,0-1.323,9.355c-.287,2.9-.484,5.9-.627,8.837C55.22-9.833,55.292-1.157,55.077.2c-.3,1.9-2.719,6.69-4.168,10.93l-.018.054A18.052,18.052,0,0,0,49.854,15.64Z" transform="translate(32.771 59.963)" fill="url(#linear-gradient-15)"/>
                              <path id="Trazado_210632" data-name="Trazado 210632" d="M56.03.2l.859,1.718s6.709-.71,7.948-4.924,0-16.441,0-16.441c2.38-2.132,8.361,0,8.361,0-.1,6.1,2.181,18.441,2.181,18.441s5.354,4.792,11.815,3.552A35.687,35.687,0,0,0,98.436-1.734c6.1.066,8.383,7.114,5.094,23.307-3.271,16.21-19.409,28.478-19.409,28.478,6.46-2.347,19.233-13.533,24.5-22.522a79.606,79.606,0,0,0,5.387-11.864l.083-10.393.826-20.8-.826-19.547-9.915-8.543L80.816-48.5,65.1-47.39l-2.429.166-.893,2.065-3.139,7.32-.016.05-.017.049-.033.232-1.322,9.352s-.347,5.783-.628,8.84c0,.083-.016.166-.016.248C56.344-16.094,56.03.2,56.03.2Z" transform="translate(31.826 59.963)" fill-rule="evenodd" opacity="0.6" fill="url(#linear-gradient-16)" style="mix-blend-mode: multiply;isolation: isolate"/>
                              <path id="Trazado_210633" data-name="Trazado 210633" d="M50.982-31.87l-.144-4.419s1.932,4.83,4.687,7.3c0,0,1.377-9.087,3.721-12.4,0,0,1.073,0,2.916-.071,1.913-.054,4.668-.2,7.96-.465,5.312-.448,16.349-.626,24.023,2.808a16.818,16.818,0,0,1,4.49,2.826s3.434,8.121-2.9,16.672c0,0,2.755,2.2,4.257,10.178,1.521,8,.018,19.14.018,19.14s3.613-5.51,7.316-6.4c0,0,4.794-10.733,6.028-19.963s2.129-17.834-2.79-20.3c-4.919-2.487-18.961-9.749-24.059-13.13-5.1-3.4-11.7-8.354-13.774-9.051-2.057-.68-19.336-3.292-26.384,7.709C46.349-51.44,44.381-40.975,50.982-31.87Z" transform="translate(42.376 59.963)" fill="url(#linear-gradient-17)"/>
                              <path id="Trazado_210634" data-name="Trazado 210634" d="M-38.592,144.649c9.369,5.8,11.566,31.4,12.392,39.112.182,1.685.513,3.652.909,5.684,1.438,7.188,3.784,15.235,3.784,15.235,10.46,11.3,40.483,23.282,40.483,23.282.546-12.79,7.175-12.806,7.175-12.806s-1.672-28.784-5.39-34.436a26.2,26.2,0,0,0-9.633-8.394.292.292,0,0,0,.016-.115,53.19,53.19,0,0,0,0-9.832.215.215,0,0,0-.016-.1c-2.76-1.652-7.3-1.652-7.3-1.652a21.79,21.79,0,0,1-1.735-3.966l-.016-.033a74.206,74.206,0,0,1-2.38-9.27s-1.933-37-4-45.341-7.287-22.687-7.287-22.687S-30.4,80.587-35.916,104c-.991,4.2-1.7,8.179-2.214,11.913v.05C-40.492,133.05-38.592,144.649-38.592,144.649Z" transform="translate(215.941 59.963)" fill="#e8e8e8"/>
                              <path id="Trazado_210635" data-name="Trazado 210635" d="M-16.265,144.649c9.369,5.8,11.566,31.4,12.392,39.112.182,1.685.513,3.652.909,5.684l1.306,3.668L20.07,210.794c-.562-.942-18.457-31.048-20.456-45.49a38.121,38.121,0,0,1,26.537-4.676l-1.735-3.966-.016-.033s-12.839,1.058-22.754-2.974c-9.633-3.933-17.862-30.85-17.449-37.691C-18.165,133.05-16.265,144.649-16.265,144.649Z" transform="translate(193.614 59.963)" fill="#e8e8e8" opacity="0.5" style="mix-blend-mode: multiply;isolation: isolate"/>
                              <path id="Trazado_210636" data-name="Trazado 210636" d="M76.946,75.25a39.071,39.071,0,0,0,3.3,6.774h.017s1.4-9.005,5.618-11.318a33.075,33.075,0,0,1,14.012,0c.38.082.744.148,1.074.2a3.207,3.207,0,0,0-1.107-1.5S85.208,67.533,79.226,68.1A10.405,10.405,0,0,0,76.946,75.25Z" transform="translate(24.873 59.963)" opacity="0.5" fill="url(#linear-gradient-18)" style="mix-blend-mode: multiply;isolation: isolate"/>
                              <path id="Trazado_210637" data-name="Trazado 210637" d="M78.007,155.472,80.386,167.3l7.3,2.545.016.016,3.256,1.141,18.87-12.509s-6-40.02-5.371-71.4c0,0,6.279-1.6,9.931-5.4v-.017s-9.782,4.511-16.672,4.412l-.248.661-.314.859-.6,1.62-.182.5L95.853,91.2l-.215.6,6.857,8.658s2.132,38.3-1.454,52.2c0,0-10.823,7.32-21.464-1.57v-.017H79.56Z" transform="translate(10.378 59.963)" opacity="0.5" fill="url(#linear-gradient-19)" style="mix-blend-mode: multiply;isolation: isolate"/>
                              <path id="Trazado_210638" data-name="Trazado 210638" d="M26.882,171.765c3.09,11.3,7.2,23.034,12.641,32.336,0,0-2.214,18.722-10.443,31.941.777-.628,13.252-11.021,23.381-29.71,0,0,20.935,21.2,47.919,35.245,0,0,5.568-22.141,9.65-25.05a27.922,27.922,0,0,1,9.336,11.4c-.265-.793-4.792-13.9-4.4-18.9.132-1.62,1.719-7.238,3.817-14.161,4.478-14.739,11.3-35.394,11.6-36.336-.314.265-4.247,3.668-7.419,1.818-3.3-1.934-5.784-34.138-1.933-59.072,3.849-24.918,10.74-31.528,10.74-31.528L136.963,71s-.644-3.8-2.908-5.453l-.1.05a11.082,11.082,0,0,1-6.444.694,9.7,9.7,0,0,1-4.693-2.594s-8.824,30.354-16.557,56.577c0,0-26.785,31.924-48.844,45.622-1.124.694-2.214,1.338-3.305,1.933a.59.59,0,0,1-.049-.066c-1.14-1.239-19.383-21.481-23.91-39.1C25.478,110.5,44.827,64.707,44.827,64.707a25.826,25.826,0,0,0-3.189-.76c-2.115-.363-4.676-.479-5.717.76,0,0-14.971,49.307-16.788,66.905A290.619,290.619,0,0,0,26.882,171.765Z" transform="translate(46.681 59.963)" fill="#feca2e" fill-rule="evenodd"/>
                              <path id="Trazado_210639" data-name="Trazado 210639" d="M101.983,131.612a290.619,290.619,0,0,0,7.749,40.153l27.231-3.933a.592.592,0,0,1-.049-.066c-1.14-1.239-19.383-21.481-23.91-39.1-4.676-18.176,14.673-63.964,14.673-63.964a25.826,25.826,0,0,0-3.189-.76C123.5,67.665,111.6,112.263,110.707,121c-.909,9.137,4.495,24.29,4.495,24.29A44.466,44.466,0,0,1,101.983,131.612Z" transform="translate(-36.169 59.963)" opacity="0.09" fill="url(#linear-gradient-20)" style="mix-blend-mode: multiply;isolation: isolate"/>
                              <path id="Trazado_210640" data-name="Trazado 210640" d="M19.133,165.9l25.612,25.463,35.757,3.5c4.478-14.739,11.3-35.394,11.6-36.336-.314.265-4.247,3.668-7.419,1.818-3.305-1.934-5.784-34.138-1.933-59.072C86.6,76.357,93.49,69.747,93.49,69.747L98.678,71s-.644-3.8-2.908-5.453l-.1.05c-1.107.842-11.3,9.005-16.772,35.542a230.713,230.713,0,0,0-4.131,54.248S39.788,167.3,19.133,165.9Z" transform="translate(84.966 59.963)" opacity="0.16" fill="url(#linear-gradient-21)" style="mix-blend-mode: multiply;isolation: isolate"/>
                              <path id="Trazado_210641" data-name="Trazado 210641" d="M47.851,62.609l2.281-.3L59.8,89.2c14.161-9.088,25.215-29.28,25.215-29.28L74.388,44.02h-2.71l.793,2.825C65.581,56.016,47.851,62.609,47.851,62.609Z" transform="translate(69.913 59.963)" fill="#bfb6b6"/>
                              <path id="Trazado_210642" data-name="Trazado 210642" d="M86.021,63.7s.546,16.788,5.222,23.4c0,0,9.022-20.621,11.434-23.4l6.593-1.24-4.2-1.537s-6.114-4.643-8.46-9.2l-2.958,3.338Z" transform="translate(7.486 59.963)" fill="#bfb6b6"/>
                              <path id="Trazado_210643" data-name="Trazado 210643" d="M114.857-14.8S113.067-24.857,111-26.647s-3.73-1.516-3.73-1.516-2.109,5.4-.635,9.1a5.7,5.7,0,0,1,3.849.4C112.654-17.7,114.857-14.8,114.857-14.8Z" transform="translate(-18.194 59.963)" fill="url(#linear-gradient-22)"/>
                              <path id="Trazado_210644" data-name="Trazado 210644" d="M74.589-26.755a16.17,16.17,0,0,0,2.341,8.783,36.889,36.889,0,0,1,17.212,4.2,15.055,15.055,0,0,0-3.236-5.99C86.184-24.771,74.589-26.755,74.589-26.755Z" transform="translate(34.054 59.963)" fill="url(#linear-gradient-23)"/>
                              <g id="Grupo_179436" data-name="Grupo 179436" transform="translate(111.413 47.089)">
                                <path id="Trazado_210645" data-name="Trazado 210645" d="M77.286-1.916a13.413,13.413,0,0,0,7.122.694,11.637,11.637,0,0,0,6.709-3.9c.165-.2.247-.314.247-.314a1.466,1.466,0,0,0-.132-.215,14.292,14.292,0,0,0-2.148-3.007A12.3,12.3,0,0,0,86.9-10.591a12.624,12.624,0,0,0-3.206-1.6,12.86,12.86,0,0,0-6.1-.529C74.51-7.881,77.286-1.916,77.286-1.916Z" transform="translate(-76.14 12.874)" fill="url(#linear-gradient)"/>
                                <g id="Grupo_179435-2" data-name="Grupo 179435" transform="translate(0)" clip-path="url(#clip-path-2)">
                                  <path id="Trazado_210646" data-name="Trazado 210646" d="M76.621-6.732a6.122,6.122,0,0,0,5.951,6.28,6.122,6.122,0,0,0,5.95-6.28,6.122,6.122,0,0,0-5.95-6.28A6.122,6.122,0,0,0,76.621-6.732Z" transform="translate(-73.779 12.874)" fill="url(#linear-gradient-25)"/>
                                  <path id="Trazado_210647" data-name="Trazado 210647" d="M78.366-6.732a4.326,4.326,0,0,0,4.205,4.438,4.326,4.326,0,0,0,4.205-4.438,4.326,4.326,0,0,0-4.205-4.438A4.326,4.326,0,0,0,78.366-6.732Z" transform="translate(-73.778 12.874)" fill="#522f2e"/>
                                </g>
                              </g>
                              <g id="Grupo_179438" data-name="Grupo 179438" transform="translate(88.379 45.84)">
                                <g id="Grupo_179437" data-name="Grupo 179437" clip-path="url(#clip-path-3)">
                                  <path id="Trazado_210649" data-name="Trazado 210649" d="M107.164.364A7.84,7.84,0,0,0,110.6-.214a6.037,6.037,0,0,0,2.247-1.636,6.736,6.736,0,0,0,1.338-2.594,6.223,6.223,0,0,0-.066-3.437,11.494,11.494,0,0,0-4.659-6.147C107.577-15.053,103.991-7.617,107.164.364Z" transform="translate(-105.902 14.123)" fill="url(#linear-gradient-26)"/>
                                  <path id="Trazado_210650" data-name="Trazado 210650" d="M104.01-5.759c0,3.178,2.192,5.754,4.9,5.754s4.9-2.576,4.9-5.754-2.192-5.754-4.9-5.754S104.01-8.937,104.01-5.759Z" transform="translate(-103.414 14.123)" fill="url(#linear-gradient-27)"/>
                                  <ellipse id="Elipse_5567" data-name="Elipse 5567" cx="3.46" cy="4.067" rx="3.46" ry="4.067" transform="translate(2.031 4.297)" fill="#522f2e"/>
                                </g>
                              </g>
                              <path id="Trazado_210653" data-name="Trazado 210653" d="M114.06-5.441s-1.381-8.676-8.157-8.331l.431,2.75.6-1.448S112.163-11.672,114.06-5.441Z" transform="translate(-17.186 59.963)" fill="#77485e"/>
                              <path id="Trazado_210654" data-name="Trazado 210654" d="M84.932-7.507a1,1,0,0,0,1,1,1,1,0,0,0,1-1,1,1,0,0,0-1-1A1,1,0,0,0,84.932-7.507Z" transform="translate(30.916 59.963)" fill="#fff"/>
                              <path id="Trazado_210655" data-name="Trazado 210655" d="M110.226-7.507a1,1,0,0,0,1,1,1,1,0,0,0,1-1,1,1,0,0,0-1-1A1,1,0,0,0,110.226-7.507Z" transform="translate(-19.671 59.963)" fill="#fff"/>
                              <path id="Trazado_210657" data-name="Trazado 210657" d="M114.06,10.807a16.006,16.006,0,0,0-12.779-8.262s-6.289,2.755-6.6,7.161Z" transform="translate(-5.96 59.963)" fill="#f58e6f" opacity="0.25"/>
                              <path id="Trazado_210658" data-name="Trazado 210658" d="M92.017-5.441s-2.634-4.653-6.882-6.466a17.886,17.886,0,0,0-9-.97l1.254,1.9.554-1.245A16.118,16.118,0,0,1,92.017-5.441Z" transform="translate(34.625 59.963)" fill="#77485e"/>
                              <path id="Trazado_210659" data-name="Trazado 210659" d="M114.06,10.807a16.393,16.393,0,0,1-4,1.962s-4.337.413-6.093,2.685c0,0-6.844-.636-9.289-5.748,0,0,2.723-.758,9.691,0C110.129,10.332,114.06,10.807,114.06,10.807Z" transform="translate(-5.96 59.963)" opacity="0.25" fill="url(#linear-gradient-28)"/>
                              <path id="Trazado_210660" data-name="Trazado 210660" d="M104.369,12.769l-5.691,1.837S103.481,10.239,104.369,12.769Z" transform="translate(-0.27 59.963)" fill="#c44a4c"/>
                              <path id="Trazado_210661" data-name="Trazado 210661" d="M115.55,2.545s-5.36,2.858-6.6,7.161c0,0,1.763,3.57,5.1,4.594,0,0-4.979-1.722-6.593-4.931C107.456,9.369,108.608,5.643,115.55,2.545Z" transform="translate(-20.229 59.963)" fill="#c44a4c"/>
                              <path id="Trazado_210662" data-name="Trazado 210662" d="M112.174,17.83a19.12,19.12,0,0,1-8.331,3.718c-5.267,1.032-12.672.619-14.133,0A19.2,19.2,0,0,1,86.88,20s4.88,7.535,9.527,7.534c5.044,0,13.992-6.712,15.929-8.881Z" transform="translate(3.561 59.963)" fill="#cc5952" fill-rule="evenodd"/>
                              <path id="Trazado_210663" data-name="Trazado 210663" d="M109.274,22.116s-9.367,1.859-15.76,0a15.424,15.424,0,0,0,5.277,4.337S105.145,26.453,109.274,22.116Z" transform="translate(-0.011 59.963)" fill="#ffebed"/>
                              <path id="Trazado_210664" data-name="Trazado 210664" d="M84.595,14.838s1.308.22,3.2,2.424a10.741,10.741,0,0,1,2.337,4.311s-2.681-3.511-4.54-4.337A5.245,5.245,0,0,1,84.595,14.838Z" transform="translate(28.05 59.963)" fill="#ff8b68" fill-rule="evenodd"/>
                              <path id="Trazado_210665" data-name="Trazado 210665" d="M41.948,9.706s5.84-11,17.867-8.8c0,0,3.759,3.825,3.608,11.917,0,0-2.706,10.3-11.275,14.637s-13.23-5.222-13.23-5.222S40.288,11.982,41.948,9.706Z" transform="translate(100.432 59.963)" fill="url(#linear-gradient-29)"/>
                              <path id="Trazado_210666" data-name="Trazado 210666" d="M40.677,17.83s3.856-8.461,18.681-8.461c0,0,2.795,3.458-.78,10.01,0,0,1.745-5.079-1.033-6.967C57.545,12.412,47.115,10.807,40.677,17.83Z" transform="translate(101.702 59.963)" fill="#dd6668" fill-rule="evenodd" opacity="0.44"/>
                              <path id="Trazado_210667" data-name="Trazado 210667" d="M60.246,12.412a7.417,7.417,0,0,1-2.275,6.967c-3.305,3.1-7.3.5-9.226-1.549,0,0,4.307,2.511,7.264.376s1.032-5.794,1.032-5.794Z" transform="translate(93.634 59.963)" fill="#dd6668" fill-rule="evenodd" opacity="0.44"/>
                              <path id="Trazado_210668" data-name="Trazado 210668" d="M100.784-52.552s-6.6-1.5-10.57.018c-4.875,1.863-9.571,8.059-12.7,15.009,0,0-.641-10.98,3.167-16.661,4.835-7.216,9.914-4.957,9.914-4.957S99.651-53.336,100.784-52.552Z" transform="translate(24.522 59.963)" fill="url(#linear-gradient-30)"/>
                              <path id="Trazado_210669" data-name="Trazado 210669" d="M109.311-59.905s-14.129,5.03-10.732,30.917c0,0-9.983-19.69,0-29.372C98.579-58.36,104.425-60.321,109.311-59.905Z" transform="translate(-0.676 59.963)" fill="url(#linear-gradient-31)"/>
                              <path id="Trazado_210670" data-name="Trazado 210670" d="M47.317-26.755s3.289,5.8,14.462,8.67a57.782,57.782,0,0,1-1.322,7.163S50.5-19.7,46.854-25.1Z" transform="translate(94.144 59.963)" fill="url(#linear-gradient-32)"/>
                              <path id="Trazado_210671" data-name="Trazado 210671" d="M64.667-5.593s-9.956-8.213-14.948-14.031a16.977,16.977,0,0,1,4.269,10.19A26.509,26.509,0,0,0,62.363.777S64.3-4.447,64.667-5.593Z" transform="translate(88.391 59.963)" fill="url(#linear-gradient-33)"/>
                              <path id="Trazado_210672" data-name="Trazado 210672" d="M166.986,113.874s-12.894,7.908-24.52,10.047c0,0,9.855-.166,13.573-2.008S166.986,113.874,166.986,113.874Z" transform="translate(-106.675 59.963)" fill="#e8e8e8" opacity="0.5" style="mix-blend-mode: multiply;isolation: isolate"/>
                              <path id="Trazado_210673" data-name="Trazado 210673" d="M1.221,162.275s-16.661.649-25.749,5.557c0,0,15.146.5,25.749,4.494A53.333,53.333,0,0,0,1.221,162.275Z" transform="translate(225.842 59.963)" fill="#afafaf" opacity="0.5" style="mix-blend-mode: multiply;isolation: isolate"/>
                              <path id="Trazado_210674" data-name="Trazado 210674" d="M-7.192,107.333S-3.551,120,1.82,129.778c4.691,8.542,19.533,18.727,19.533,18.727S4.813,142.449.029,134.46C-5.688,124.911-7.192,107.333-7.192,107.333Z" transform="translate(188.616 59.963)" fill="#e8e8e8" opacity="0.5" style="mix-blend-mode: multiply;isolation: isolate"/>
                              <path id="Trazado_210675" data-name="Trazado 210675" d="M58.448,62.609l2.281-.3S80.722,55.62,83.068,51.34c2.33-4.28,1.917-7.32,1.917-7.32h-2.71l.793,2.825C76.178,56.016,58.448,62.609,58.448,62.609Z" transform="translate(59.316 59.963)" opacity="0.5" fill="url(#linear-gradient-34)" style="mix-blend-mode: multiply;isolation: isolate"/>
                              <path id="Trazado_210676" data-name="Trazado 210676" d="M86.021,55.058c1.8,4.593,9.022,8.642,9.022,8.642l6.593-1.24-4.2-1.537s-6.114-4.643-8.46-9.2Z" transform="translate(15.12 59.963)" opacity="0.5" fill="url(#linear-gradient-35)" style="mix-blend-mode: multiply;isolation: isolate"/>
                              <path id="Trazado_210677" data-name="Trazado 210677" d="M35.613,538.343s-9.417,1.312-15.973,0C19.64,538.343,28.453,535.744,35.613,538.343Z" transform="translate(147.524 59.964)" fill="#ffa69c"/>
                              <path id="Trazado_210678" data-name="Trazado 210678" d="M184.6,532.99s-8.675-.583-12.943.793A30.7,30.7,0,0,0,184.6,532.99Z" transform="translate(-153.482 59.964)" fill="#ffa69c"/>
                              <path id="Trazado_210679" data-name="Trazado 210679" d="M163.881,532.867a6.078,6.078,0,0,1,5.711-.736A7.867,7.867,0,0,1,163.881,532.867Z" transform="translate(-130.696 59.964)" fill="#ffa69c"/>
                              <path id="Trazado_210685" data-name="Trazado 210685" d="M125.243,70.019l3.023-1.932s6.619,12.95,6.619,21.2c0,4.418-1.9,16.26-3.667,26.3l2.218,4.364s8.336-27.01,6.207-36.652-12.432-19.605-12.432-19.605C125.154,64.92,125.243,70.019,125.243,70.019Z" transform="translate(-62.456 59.963)" fill="#afafaf" fill-rule="evenodd" opacity="0.5" style="mix-blend-mode: multiply;isolation: isolate"/>
                              <path id="Trazado_210686" data-name="Trazado 210686" d="M58.674,387.829s-6.8,13.441-22.042,18.176a71.715,71.715,0,0,1-6.808-9.237S44.249,399.658,58.674,387.829Z" transform="translate(114.279 59.963)" fill-rule="evenodd" fill="url(#linear-gradient-36)" style="mix-blend-mode: multiply;isolation: isolate"/>
                              <path id="Trazado_210687" data-name="Trazado 210687" d="M143.755,384.737s-12.882,10.786-24.554,10.792c0,0-2.482-6.04-5.139-12.856C114.062,382.673,121.845,387.056,143.755,384.737Z" transform="translate(-55.04 59.963)" fill-rule="evenodd" fill="url(#linear-gradient-37)" style="mix-blend-mode: multiply;isolation: isolate"/>
                              <path id="Trazado_210688" data-name="Trazado 210688" d="M58.285,494.575s-9.04,6.988-17.93,6.706a65.156,65.156,0,0,1-16.884-3.024,12.834,12.834,0,0,1-2.562-9.369s10.167,8.235,20.551,8.9C52.5,498.5,58.285,494.575,58.285,494.575Z" transform="translate(123.673 59.963)" fill-rule="evenodd" opacity="0.7" fill="url(#linear-gradient-38)" style="mix-blend-mode: multiply;isolation: isolate"/>
                              <path id="Trazado_210689" data-name="Trazado 210689" d="M152.925,492.193s-33.8-3.739-44.614-12.112a24.318,24.318,0,0,0,2.478,5.783s19.712,13.351,32.221,15.417C143.01,501.281,152.342,495.126,152.925,492.193Z" transform="translate(-58.459 59.963)" fill-rule="evenodd" opacity="0.7" fill="url(#linear-gradient-39)" style="mix-blend-mode: multiply;isolation: isolate"/>
                              <path id="Trazado_210690" data-name="Trazado 210690" d="M117.791,506.238a35.851,35.851,0,0,1,13.1-1.22c7.3.676,30.856,15.583,30.856,15.583s-1.98,7.38-3.747,8.609l.157-5.159s-22.785-16.507-32.537-17.349L120,510.369Z" transform="translate(-76.763 59.963)" fill="#741d72" fill-rule="evenodd"/>
                              <path id="Trazado_210691" data-name="Trazado 210691" d="M66.256-41.566l.448.108c1.913-.054,4.668-.2,7.96-.465,5.312-.448,16.349-.626,24.023,2.808-1.521-1-3.166-2.164-4.472-3.22-3.309-2.754-8.157-8.836-14.74-8.514C72.875-50.51,66.256-41.566,66.256-41.566Z" transform="translate(37.834 59.963)" fill="#741d72" fill-rule="evenodd" opacity="0.6" style="mix-blend-mode: multiply;isolation: isolate"/>
                            </g>
                          </g>
                        </g>
                      </g>
                    </g>
                  </g>
                </g>
              </g>
            </g>
            <g id="Grupo_179441-2" data-name="Grupo 179441" transform="translate(985.834 149.248)">
              <g id="Grupo_179440-2" data-name="Grupo 179440">
                <path id="Trazado_210624-2" data-name="Trazado 210624" d="M107.6-47.232s-3.416,13.071.1,22.129,7.849-13.042,7.849-13.042Z" transform="translate(-18.887 59.963)" fill="#335e91"/>
                <path id="Trazado_210625-2" data-name="Trazado 210625" d="M96.75,27.537s-1.652,7.7,1.928,19.3c0,0-10.394,14.705-24.612,15.774,0,0-8.711-.548-13.668-10.894l8.537-20.393Z" transform="translate(43.701 59.963)" fill="url(#linear-gradient-13)"/>
                <path id="Trazado_210626-2" data-name="Trazado 210626" d="M98.3,32.836s-9.444,18.7-17.5,24.375-12.759,1.377-12.759,1.377a19.859,19.859,0,0,1-5.715-6.867L75.994,29.534l22.684-2.005Z" transform="translate(41.773 59.963)" fill-rule="evenodd" opacity="0.23" fill="url(#linear-gradient-14)" style="mix-blend-mode: multiply;isolation: isolate"/>
                <path id="Trazado_210630-2" data-name="Trazado 210630" d="M49.854,15.64a10.662,10.662,0,0,0,0,1.073c.2,10.84,12.038,32.4,14.328,33.343,2.325.948,12.522,2.343,19,0,3.7-1.342,9.463-5.581,14.7-10.643a60.155,60.155,0,0,0,9.8-11.878c.376-.644.752-1.324,1.109-2.075l.054-.054v-.018a90.46,90.46,0,0,0,4.221-9.731c6.047-16.367,10.769-40.3,3.149-49.191C101.514-50.688,75.469-52.96,64.164-47.4a13.038,13.038,0,0,0-3.327,2.236,7.619,7.619,0,0,0-1.771,2.54,31.631,31.631,0,0,0-1.377,4.776l-.018.054a1.554,1.554,0,0,1-.036.286,80.17,80.17,0,0,0-1.323,9.355c-.287,2.9-.484,5.9-.627,8.837C55.22-9.833,55.292-1.157,55.077.2c-.3,1.9-2.719,6.69-4.168,10.93l-.018.054A18.052,18.052,0,0,0,49.854,15.64Z" transform="translate(32.771 59.963)" fill="url(#linear-gradient-15)"/>
                <path id="Trazado_210632-2" data-name="Trazado 210632" d="M56.03.2l.859,1.718s6.709-.71,7.948-4.924,0-16.441,0-16.441c2.38-2.132,8.361,0,8.361,0-.1,6.1,2.181,18.441,2.181,18.441s5.354,4.792,11.815,3.552A35.687,35.687,0,0,0,98.436-1.734c6.1.066,8.383,7.114,5.094,23.307-3.271,16.21-19.409,28.478-19.409,28.478,6.46-2.347,19.233-13.533,24.5-22.522a79.606,79.606,0,0,0,5.387-11.864l.083-10.393.826-20.8-.826-19.547-9.915-8.543L80.816-48.5,65.1-47.39l-2.429.166-.893,2.065-3.139,7.32-.016.05-.017.049-.033.232-1.322,9.352s-.347,5.783-.628,8.84c0,.083-.016.166-.016.248C56.344-16.094,56.03.2,56.03.2Z" transform="translate(31.826 59.963)" fill-rule="evenodd" opacity="0.6" fill="url(#linear-gradient-16)" style="mix-blend-mode: multiply;isolation: isolate"/>
                <path id="Trazado_210633-2" data-name="Trazado 210633" d="M50.982-31.87l-.144-4.419s1.932,4.83,4.687,7.3c0,0,1.377-9.087,3.721-12.4,0,0,1.073,0,2.916-.071,1.913-.054,4.668-.2,7.96-.465,5.312-.448,16.349-.626,24.023,2.808a16.818,16.818,0,0,1,4.49,2.826s3.434,8.121-2.9,16.672c0,0,2.755,2.2,4.257,10.178,1.521,8,.018,19.14.018,19.14s3.613-5.51,7.316-6.4c0,0,4.794-10.733,6.028-19.963s2.129-17.834-2.79-20.3c-4.919-2.487-18.961-9.749-24.059-13.13-5.1-3.4-11.7-8.354-13.774-9.051-2.057-.68-19.336-3.292-26.384,7.709C46.349-51.44,44.381-40.975,50.982-31.87Z" transform="translate(42.376 59.963)" fill="url(#linear-gradient-17)"/>
                <path id="Trazado_210641-2" data-name="Trazado 210641" d="M47.851,62.609l2.281-.3L59.8,89.2c14.161-9.088,25.215-29.28,25.215-29.28L74.388,44.02h-2.71l.793,2.825C65.581,56.016,47.851,62.609,47.851,62.609Z" transform="translate(69.913 59.963)" fill="#bfb6b6"/>
                <path id="Trazado_210642-2" data-name="Trazado 210642" d="M86.021,63.7s.546,16.788,5.222,23.4c0,0,9.022-20.621,11.434-23.4l6.593-1.24-4.2-1.537s-6.114-4.643-8.46-9.2l-2.958,3.338Z" transform="translate(7.486 59.963)" fill="#bfb6b6"/>
                <path id="Trazado_210643-2" data-name="Trazado 210643" d="M114.857-14.8S113.067-24.857,111-26.647s-3.73-1.516-3.73-1.516-2.109,5.4-.635,9.1a5.7,5.7,0,0,1,3.849.4C112.654-17.7,114.857-14.8,114.857-14.8Z" transform="translate(-18.194 59.963)" fill="url(#linear-gradient-22)"/>
                <path id="Trazado_210644-2" data-name="Trazado 210644" d="M74.589-26.755a16.17,16.17,0,0,0,2.341,8.783,36.889,36.889,0,0,1,17.212,4.2,15.055,15.055,0,0,0-3.236-5.99C86.184-24.771,74.589-26.755,74.589-26.755Z" transform="translate(34.054 59.963)" fill="url(#linear-gradient-23)"/>
                <g id="Grupo_179436-2" data-name="Grupo 179436" transform="translate(111.413 47.089)">
                  <path id="Trazado_210645-2" data-name="Trazado 210645" d="M77.286-1.916a13.413,13.413,0,0,0,7.122.694,11.637,11.637,0,0,0,6.709-3.9c.165-.2.247-.314.247-.314a1.466,1.466,0,0,0-.132-.215,14.292,14.292,0,0,0-2.148-3.007A12.3,12.3,0,0,0,86.9-10.591a12.624,12.624,0,0,0-3.206-1.6,12.86,12.86,0,0,0-6.1-.529C74.51-7.881,77.286-1.916,77.286-1.916Z" transform="translate(-76.14 12.874)" fill="url(#linear-gradient)"/>
                  <g id="Grupo_179435-3" data-name="Grupo 179435" transform="translate(0)" clip-path="url(#clip-path-2)">
                    <path id="Trazado_210646-2" data-name="Trazado 210646" d="M76.621-6.732a6.122,6.122,0,0,0,5.951,6.28,6.122,6.122,0,0,0,5.95-6.28,6.122,6.122,0,0,0-5.95-6.28A6.122,6.122,0,0,0,76.621-6.732Z" transform="translate(-73.779 12.874)" fill="url(#linear-gradient-25)"/>
                    <path id="Trazado_210647-2" data-name="Trazado 210647" d="M78.366-6.732a4.326,4.326,0,0,0,4.205,4.438,4.326,4.326,0,0,0,4.205-4.438,4.326,4.326,0,0,0-4.205-4.438A4.326,4.326,0,0,0,78.366-6.732Z" transform="translate(-73.778 12.874)" fill="#522f2e"/>
                  </g>
                </g>
                <g id="Grupo_179438-2" data-name="Grupo 179438" transform="translate(88.379 45.84)">
                  <g id="Grupo_179437-2" data-name="Grupo 179437" clip-path="url(#clip-path-3)">
                    <path id="Trazado_210649-2" data-name="Trazado 210649" d="M107.164.364A7.84,7.84,0,0,0,110.6-.214a6.037,6.037,0,0,0,2.247-1.636,6.736,6.736,0,0,0,1.338-2.594,6.223,6.223,0,0,0-.066-3.437,11.494,11.494,0,0,0-4.659-6.147C107.577-15.053,103.991-7.617,107.164.364Z" transform="translate(-105.902 14.123)" fill="url(#linear-gradient-26)"/>
                    <path id="Trazado_210650-2" data-name="Trazado 210650" d="M104.01-5.759c0,3.178,2.192,5.754,4.9,5.754s4.9-2.576,4.9-5.754-2.192-5.754-4.9-5.754S104.01-8.937,104.01-5.759Z" transform="translate(-103.414 14.123)" fill="url(#linear-gradient-27)"/>
                    <ellipse id="Elipse_5567-2" data-name="Elipse 5567" cx="3.46" cy="4.067" rx="3.46" ry="4.067" transform="translate(2.031 4.297)" fill="#522f2e"/>
                  </g>
                </g>
                <path id="Trazado_210653-2" data-name="Trazado 210653" d="M114.06-5.441s-1.381-8.676-8.157-8.331l.431,2.75.6-1.448S112.163-11.672,114.06-5.441Z" transform="translate(-17.186 59.963)" fill="#77485e"/>
                <path id="Trazado_210654-2" data-name="Trazado 210654" d="M84.932-7.507a1,1,0,0,0,1,1,1,1,0,0,0,1-1,1,1,0,0,0-1-1A1,1,0,0,0,84.932-7.507Z" transform="translate(30.916 59.963)" fill="#fff"/>
                <path id="Trazado_210655-2" data-name="Trazado 210655" d="M110.226-7.507a1,1,0,0,0,1,1,1,1,0,0,0,1-1,1,1,0,0,0-1-1A1,1,0,0,0,110.226-7.507Z" transform="translate(-19.671 59.963)" fill="#fff"/>
                <path id="Trazado_210657-2" data-name="Trazado 210657" d="M114.06,10.807a16.006,16.006,0,0,0-12.779-8.262s-6.289,2.755-6.6,7.161Z" transform="translate(-5.96 59.963)" fill="#f58e6f" opacity="0.25"/>
                <path id="Trazado_210658-2" data-name="Trazado 210658" d="M92.017-5.441s-2.634-4.653-6.882-6.466a17.886,17.886,0,0,0-9-.97l1.254,1.9.554-1.245A16.118,16.118,0,0,1,92.017-5.441Z" transform="translate(34.625 59.963)" fill="#77485e"/>
                <path id="Trazado_210659-2" data-name="Trazado 210659" d="M114.06,10.807a16.393,16.393,0,0,1-4,1.962s-4.337.413-6.093,2.685c0,0-6.844-.636-9.289-5.748,0,0,2.723-.758,9.691,0C110.129,10.332,114.06,10.807,114.06,10.807Z" transform="translate(-5.96 59.963)" opacity="0.25" fill="url(#linear-gradient-28)"/>
                <path id="Trazado_210660-2" data-name="Trazado 210660" d="M104.369,12.769l-5.691,1.837S103.481,10.239,104.369,12.769Z" transform="translate(-0.27 59.963)" fill="#c44a4c"/>
                <path id="Trazado_210661-2" data-name="Trazado 210661" d="M115.55,2.545s-5.36,2.858-6.6,7.161c0,0,1.763,3.57,5.1,4.594,0,0-4.979-1.722-6.593-4.931C107.456,9.369,108.608,5.643,115.55,2.545Z" transform="translate(-20.229 59.963)" fill="#c44a4c"/>
                <path id="Trazado_210662-2" data-name="Trazado 210662" d="M112.174,17.83a19.12,19.12,0,0,1-8.331,3.718c-5.267,1.032-12.672.619-14.133,0A19.2,19.2,0,0,1,86.88,20s4.88,7.535,9.527,7.534c5.044,0,13.992-6.712,15.929-8.881Z" transform="translate(3.561 59.963)" fill="#cc5952" fill-rule="evenodd"/>
                <path id="Trazado_210663-2" data-name="Trazado 210663" d="M109.274,22.116s-9.367,1.859-15.76,0a15.424,15.424,0,0,0,5.277,4.337S105.145,26.453,109.274,22.116Z" transform="translate(-0.011 59.963)" fill="#ffebed"/>
                <path id="Trazado_210664-2" data-name="Trazado 210664" d="M84.595,14.838s1.308.22,3.2,2.424a10.741,10.741,0,0,1,2.337,4.311s-2.681-3.511-4.54-4.337A5.245,5.245,0,0,1,84.595,14.838Z" transform="translate(28.05 59.963)" fill="#ff8b68" fill-rule="evenodd"/>
                <path id="Trazado_210665-2" data-name="Trazado 210665" d="M41.948,9.706s5.84-11,17.867-8.8c0,0,3.759,3.825,3.608,11.917,0,0-2.706,10.3-11.275,14.637s-13.23-5.222-13.23-5.222S40.288,11.982,41.948,9.706Z" transform="translate(100.432 59.963)" fill="url(#linear-gradient-29)"/>
                <path id="Trazado_210666-2" data-name="Trazado 210666" d="M40.677,17.83s3.856-8.461,18.681-8.461c0,0,2.795,3.458-.78,10.01,0,0,1.745-5.079-1.033-6.967C57.545,12.412,47.115,10.807,40.677,17.83Z" transform="translate(101.702 59.963)" fill="#dd6668" fill-rule="evenodd" opacity="0.44"/>
                <path id="Trazado_210667-2" data-name="Trazado 210667" d="M60.246,12.412a7.417,7.417,0,0,1-2.275,6.967c-3.305,3.1-7.3.5-9.226-1.549,0,0,4.307,2.511,7.264.376s1.032-5.794,1.032-5.794Z" transform="translate(93.634 59.963)" fill="#dd6668" fill-rule="evenodd" opacity="0.44"/>
                <path id="Trazado_210668-2" data-name="Trazado 210668" d="M100.784-52.552s-6.6-1.5-10.57.018c-4.875,1.863-9.571,8.059-12.7,15.009,0,0-.641-10.98,3.167-16.661,4.835-7.216,9.914-4.957,9.914-4.957S99.651-53.336,100.784-52.552Z" transform="translate(24.522 59.963)" fill="url(#linear-gradient-30)"/>
                <path id="Trazado_210669-2" data-name="Trazado 210669" d="M109.311-59.905s-14.129,5.03-10.732,30.917c0,0-9.983-19.69,0-29.372C98.579-58.36,104.425-60.321,109.311-59.905Z" transform="translate(-0.676 59.963)" fill="url(#linear-gradient-31)"/>
                <path id="Trazado_210670-2" data-name="Trazado 210670" d="M47.317-26.755s3.289,5.8,14.462,8.67a57.782,57.782,0,0,1-1.322,7.163S50.5-19.7,46.854-25.1Z" transform="translate(94.144 59.963)" fill="url(#linear-gradient-32)"/>
                <path id="Trazado_210671-2" data-name="Trazado 210671" d="M64.667-5.593s-9.956-8.213-14.948-14.031a16.977,16.977,0,0,1,4.269,10.19A26.509,26.509,0,0,0,62.363.777S64.3-4.447,64.667-5.593Z" transform="translate(88.391 59.963)" fill="url(#linear-gradient-33)"/>
                <path id="Trazado_210675-2" data-name="Trazado 210675" d="M58.448,62.609l2.281-.3S80.722,55.62,83.068,51.34c2.33-4.28,1.917-7.32,1.917-7.32h-2.71l.793,2.825C76.178,56.016,58.448,62.609,58.448,62.609Z" transform="translate(59.316 59.963)" opacity="0.5" fill="url(#linear-gradient-34)" style="mix-blend-mode: multiply;isolation: isolate"/>
                <path id="Trazado_210676-2" data-name="Trazado 210676" d="M86.021,55.058c1.8,4.593,9.022,8.642,9.022,8.642l6.593-1.24-4.2-1.537s-6.114-4.643-8.46-9.2Z" transform="translate(15.12 59.963)" opacity="0.5" fill="url(#linear-gradient-35)" style="mix-blend-mode: multiply;isolation: isolate"/>
                <path id="Trazado_210691-2" data-name="Trazado 210691" d="M66.256-41.566l.448.108c1.913-.054,4.668-.2,7.96-.465,5.312-.448,16.349-.626,24.023,2.808-1.521-1-3.166-2.164-4.472-3.22-3.309-2.754-8.157-8.836-14.74-8.514C72.875-50.51,66.256-41.566,66.256-41.566Z" transform="translate(37.834 59.963)" fill="#741d72" fill-rule="evenodd" opacity="0.6" style="mix-blend-mode: multiply;isolation: isolate"/>
              </g>
            </g>
          </g>
        </g>
      </g>
    </g>
  </g>
</svg>
