<svg xmlns="http://www.w3.org/2000/svg" width="130" height="130" viewBox="0 0 130 130">
  <g id="Grupo_210464" data-name="Grupo 210464" transform="translate(-418 -2549)">
    <g id="Grupo_210463" data-name="Grupo 210463">
      <g id="Grupo_210462" data-name="Grupo 210462">
        <g id="Grupo_210370" data-name="Grupo 210370" transform="translate(0 -4)">
          <circle id="Elipse_16197" data-name="Elipse 16197" cx="65" cy="65" r="65" transform="translate(418 2553)" fill="#feca2e"/>
          <g id="Grupo_210352" data-name="Grupo 210352" transform="translate(452 2575)">
            <path id="Trazado_221363" data-name="Trazado 221363" d="M562.106,109.86H519.017a1.472,1.472,0,1,1,0-2.944,5.393,5.393,0,0,0,5.387-5.387v-6.86a1.472,1.472,0,0,1,1.473-1.473h43.857a1.472,1.472,0,0,1,1.473,1.473v6.092A9.11,9.11,0,0,1,562.106,109.86Zm-36.736-2.944h36.736a6.163,6.163,0,0,0,6.158-6.155V96.14H527.351v5.389A8.3,8.3,0,0,1,525.369,106.916Z" transform="translate(-510.684 -23.518)" fill="#12263f"/>
            <path id="Trazado_221364" data-name="Trazado 221364" d="M523.055,140.84a8.341,8.341,0,0,1-8.333-8.331V73.019a1.472,1.472,0,0,1,1.473-1.473h17.51a1.473,1.473,0,0,1,0,2.946H517.668v58.017a5.387,5.387,0,0,0,10.774,0v-6.86a1.472,1.472,0,0,1,1.473-1.473h30.508v-7.519a1.472,1.472,0,1,1,2.944,0v8.992a1.472,1.472,0,0,1-1.473,1.471H531.389v5.389A8.341,8.341,0,0,1,523.055,140.84Z" transform="translate(-514.722 -54.498)" fill="#12263f"/>
            <path id="Trazado_221365" data-name="Trazado 221365" d="M545.753,119.576H530.97A1.472,1.472,0,0,1,529.5,118.1V96.6h-3.9a1.472,1.472,0,0,1-1.473-1.473V78.93a8.4,8.4,0,0,1,8.394-8.394h11.69A8.4,8.4,0,0,1,552.6,78.93V95.123a1.472,1.472,0,0,1-1.473,1.473h-3.9V118.1A1.472,1.472,0,0,1,545.753,119.576Zm-13.31-2.946H544.28V95.123a1.472,1.472,0,0,1,1.473-1.473h3.9V78.93a5.453,5.453,0,0,0-5.448-5.448h-11.69a5.453,5.453,0,0,0-5.448,5.448V93.649h3.9a1.474,1.474,0,0,1,1.473,1.473Z" transform="translate(-501.271 -55.943)" fill="#12263f"/>
            <path id="Trazado_221366" data-name="Trazado 221366" d="M530.846,103.831a1.474,1.474,0,0,1-1.473-1.473V83.012a1.473,1.473,0,0,1,2.946,0v19.346A1.472,1.472,0,0,1,530.846,103.831Z" transform="translate(-493.757 -40.198)" fill="#12263f"/>
            <path id="Trazado_221367" data-name="Trazado 221367" d="M527.806,91.49a1.472,1.472,0,0,1-1.473-1.473V75.579a1.473,1.473,0,1,1,2.946,0V90.017A1.474,1.474,0,0,1,527.806,91.49Z" transform="translate(-498.107 -50.834)" fill="#12263f"/>
            <path id="Trazado_221368" data-name="Trazado 221368" d="M533.887,91.49a1.472,1.472,0,0,1-1.473-1.473V75.579a1.472,1.472,0,1,1,2.944,0V90.017A1.472,1.472,0,0,1,533.887,91.49Z" transform="translate(-489.406 -50.834)" fill="#12263f"/>
            <path id="Trazado_221369" data-name="Trazado 221369" d="M533.748,78.6c-1.425,0-3.486-.654-5.064-3.637a11.18,11.18,0,0,1-1.235-5.212v-1.6a1.455,1.455,0,0,1,.216-.763,8.266,8.266,0,0,1,6.243-2.856c3.16,0,6.505,1.933,6.505,3.761v1.459a11.186,11.186,0,0,1-1.235,5.212c-1.631,3.082-3.792,3.683-5.29,3.634C533.845,78.6,533.8,78.6,533.748,78.6ZM530.4,68.743v1.009a8.2,8.2,0,0,0,.894,3.834c.739,1.4,1.631,2.154,2.6,2.069,1.028.085,1.945-.666,2.686-2.069a8.224,8.224,0,0,0,.892-3.834V68.69a5.933,5.933,0,0,0-3.559-1.213A6.05,6.05,0,0,0,530.4,68.743Z" transform="translate(-496.51 -64.533)" fill="#12263f"/>
            <path id="Trazado_221370" data-name="Trazado 221370" d="M571.1,92.443H519.454a1.473,1.473,0,0,1,0-2.946H571.1a1.473,1.473,0,0,1,0,2.946Z" transform="translate(-510.056 -28.811)" fill="#12263f"/>
            <path id="Trazado_221371" data-name="Trazado 221371" d="M537.753,81.356a1.474,1.474,0,0,1-.914-2.628l5.448-4.305a1.473,1.473,0,0,1,1.826,2.312l-5.445,4.3A1.472,1.472,0,0,1,537.753,81.356Z" transform="translate(-483.873 -50.835)" fill="#12263f"/>
            <path id="Trazado_221372" data-name="Trazado 221372" d="M527.144,81.356a1.466,1.466,0,0,1-.912-.318l-5.448-4.3a1.474,1.474,0,0,1,1.828-2.312l5.445,4.305a1.473,1.473,0,0,1-.914,2.628Z" transform="translate(-506.846 -50.835)" fill="#12263f"/>
            <path id="Trazado_221373" data-name="Trazado 221373" d="M532.087,88.967H519.454a1.472,1.472,0,0,1,0-2.944h12.634a1.472,1.472,0,1,1,0,2.944Z" transform="translate(-510.056 -33.782)" fill="#12263f"/>
            <path id="Trazado_221374" data-name="Trazado 221374" d="M532.087,85.669H519.454a1.473,1.473,0,0,1,0-2.946h12.634a1.473,1.473,0,0,1,0,2.946Z" transform="translate(-510.056 -38.504)" fill="#12263f"/>
          </g>
          <circle id="Elipse_16198" data-name="Elipse 16198" cx="18" cy="18" r="18" transform="translate(418 2553)" fill="#0f2771"/>
          <path id="Trazado_221380" data-name="Trazado 221380" d="M2.848,0H-1.113V-12.609L-5-11.473v-3l7.488-2.59h.363Z" transform="translate(436 2580)" fill="#fff"/>
        </g>
      </g>
    </g>
  </g>
</svg>
