<svg xmlns="http://www.w3.org/2000/svg" xmlns:xlink="http://www.w3.org/1999/xlink" width="167.391" height="161.347" viewBox="0 0 167.391 161.347">
  <defs>
    <linearGradient id="linear-gradient" x1="-62.911" y1="6.377" x2="-64.211" y2="6.377" gradientUnits="objectBoundingBox">
      <stop offset="0.017" stop-color="#008dfe"/>
      <stop offset="1"/>
    </linearGradient>
    <linearGradient id="linear-gradient-2" x1="-1.059" y1="1" x2="-1.059" gradientUnits="objectBoundingBox">
      <stop offset="0.022" stop-color="#ff8359"/>
      <stop offset="1" stop-color="#ff8b7c"/>
    </linearGradient>
    <linearGradient id="linear-gradient-3" x1="0.467" y1="0.5" x2="-0.533" y2="0.5" gradientUnits="objectBoundingBox">
      <stop offset="0.016" stop-color="#ffae78"/>
      <stop offset="1" stop-color="#ff957c"/>
    </linearGradient>
    <linearGradient id="linear-gradient-4" x1="-0.007" y1="0.5" x2="-1.007" y2="0.5" xlink:href="#linear-gradient-3"/>
    <linearGradient id="linear-gradient-5" x1="-0.514" y1="1" x2="-0.514" y2="0" xlink:href="#linear-gradient-2"/>
    <linearGradient id="linear-gradient-6" x1="-0.172" y1="1" x2="-0.172" y2="0" xlink:href="#linear-gradient-2"/>
  </defs>
  <g id="Grupo_210402" data-name="Grupo 210402" transform="translate(12317.722 12015.136)">
    <g id="Grupo_210401" data-name="Grupo 210401">
      <g id="Grupo_210400" data-name="Grupo 210400">
        <g id="Grupo_210399" data-name="Grupo 210399">
          <g id="Grupo_210398" data-name="Grupo 210398">
            <g id="Grupo_210365" data-name="Grupo 210365" transform="translate(-13221.333 -12300)">
              <g id="Grupo_210363" data-name="Grupo 210363" transform="translate(903.611 284.864)">
                <g id="Grupo_179447" data-name="Grupo 179447">
                  <g id="Grupo_179444" data-name="Grupo 179444" transform="translate(89.155 102.173)">
                    <path id="Trazado_210694" data-name="Trazado 210694" d="M190.679,179.244s4.432,8.9,4.794,11.473c.358,2.549-15.27,18.5-28.2,27.477S131.1,237.121,129.417,237s-11.555-8.141-11.555-8.141Z" transform="translate(-117.496 -177.826)" fill="#4dd0e1"/>
                    <path id="Trazado_210695" data-name="Trazado 210695" d="M194.024,178.048c-9.457-3.6-71.039,37.729-71.616,49.709C121.85,239.336,209.444,183.924,194.024,178.048Z" transform="translate(-122.405 -177.826)" fill="#bddcf6"/>
                    <path id="Trazado_210696" data-name="Trazado 210696" d="M186.873,203.852s-22.694,16.557-38.147,21.929c-15.711,5.462-22.067,3.744-25.268,3.412-3.225-.335,11.936-20.342,11.936-20.342l5.753-5.921s-15.345,20.833-8.8,23.087c14.3,4.922,60.354-28.09,60.354-28.09Z" transform="translate(-119.868 -177.826)" fill="#4dd0e1" opacity="0.3" style="mix-blend-mode: multiply;isolation: isolate"/>
                    <path id="Trazado_210697" data-name="Trazado 210697" d="M139.8,187.684s-13.427,14.109-19.093,11.166c-5.788-3.006,11.794-21,11.794-21l-1.215.147s-21.065,25.363-10.907,23.166c10.009-2.165,19.89-9.057,19.89-9.057S142.238,191.827,139.8,187.684Z" transform="translate(-62.784 -177.826)" fill="#4dd0e1" opacity="0.3" style="mix-blend-mode: multiply;isolation: isolate"/>
                    <path id="Trazado_210698" data-name="Trazado 210698" d="M184.968,211.634s-12.55,8.985-23.169,13.567a58.933,58.933,0,0,1-21.515,4.483S158.511,229.723,184.968,211.634Z" transform="translate(-129.407 -177.826)" fill="#4dd0e1"/>
                    <path id="Trazado_210699" data-name="Trazado 210699" d="M140.971,195.221s-7.22,4.294-12.4,5.88c-5.209,1.6-5.126-.855-5.126-.855s.676,1.78,4.8.635C132.354,199.742,140.971,195.221,140.971,195.221Z" transform="translate(-68.575 -177.826)" fill="#4dd0e1"/>
                    <path id="Trazado_210700" data-name="Trazado 210700" d="M163.4,202.83c3.106-1.9,4.66.659,13.138-2.083,8.4-2.717-10.359,9.512-25.3,17.063-15.071,7.617-20.956,8.128-22.527,7.4s15.729-9.812,22.295-14.373S163.4,202.83,163.4,202.83Z" transform="translate(-111.387 -177.826)" fill="#4dd0e1" opacity="0.3" style="mix-blend-mode: multiply;isolation: isolate"/>
                    <path id="Trazado_210701" data-name="Trazado 210701" d="M188.971,224.109c1.347-1.86-22.631,6.541-29.173,6.316-6.638-.228-.667,4.876,2.965,4.983C166.366,235.514,188.971,224.109,188.971,224.109Z" transform="translate(-149.99 -177.826)" fill="#4dd0e1" opacity="0.3" style="mix-blend-mode: multiply;isolation: isolate"/>
                    <path id="Trazado_210702" data-name="Trazado 210702" d="M181.979,201.122c2.5-1.8.458-2.381-2.3-2.146-2.773.236-32.205,20.826-37.544,24.733S157.792,218.493,181.979,201.122Z" transform="translate(-128.564 -177.826)" fill="#fff" opacity="0.5" style="mix-blend-mode: soft-light;isolation: isolate"/>
                    <path id="Trazado_210703" data-name="Trazado 210703" d="M135.349,178.989c1.827-1.36,3.672,2.742.836,6.4-2.821,3.641-9.946,9.918-11.926,10.457S125.418,186.378,135.349,178.989Z" transform="translate(-65.498 -177.826)" fill="#fff" opacity="0.5" style="mix-blend-mode: soft-light;isolation: isolate"/>
                    <path id="Trazado_210704" data-name="Trazado 210704" d="M193.344,229.6c-.49-1.147-3.456-2.554-3.568-2.24s-1.668,1.856-.5,2.351S193.344,229.6,193.344,229.6Z" transform="translate(-186.344 -177.826)" fill="#4dd0e1"/>
                  </g>
                  <path id="Trazado_210705" data-name="Trazado 210705" d="M166.419,172.82c-8.815-1.278-32.971-17.427-32.971-17.427l44.059-23.254,36.431-32.615s10.047,25.942,8.919,34.122c-1.111,8.041-8.042,17.977-6.114,26.784,1.869,8.557,16.113,4.449,25.528,8.927a36.188,36.188,0,0,1,8.5,6.055,75.866,75.866,0,0,1,9.159,10.352s-4.7,7.315-22.73,19.831c-16.957,11.77-26.954,14.655-26.954,14.655a76.244,76.244,0,0,1-7.1-9.233l0-.017a35.041,35.041,0,0,1-5.024-11c-2.04-9.6,6.211-21.1-2.16-25.147C187.352,170.685,175.084,174.076,166.419,172.82Zm37.763,16.25c-.689,10.363,8.027,22.117,11.418,23.621,3.346,1.479,18.494-8.958,18.494-8.958s15.068-10.536,14.441-13.9c-.629-3.421-10.456-14.4-21.446-16.66-11.314-2.332-15.811-4.136-19.319-10.567-3.594-6.592,2.168-11.8,5.684-20.341,3.563-8.677-4.418-30.134-9.114-31.894L176.923,133.7l-31.908,17.851c.535,4.648,20.689,17.656,30.717,16.9,9.876-.753,16.9-4.419,22.77.59C204.246,173.915,204.882,178.4,204.182,189.07Z" transform="translate(-108.374 -75.653)" fill="#4dd0e1"/>
                  <path id="Trazado_210706" data-name="Trazado 210706" d="M156.511,161.974c6.393,3.777,13.939,6.856,19.026,6.472,9.081-.694,15.744-3.842,21.326-.452a10.358,10.358,0,0,1,1.444,1.042c5.744,4.879,6.38,9.363,5.68,20.034-.689,10.363,8.027,22.117,11.418,23.621,3.346,1.479,18.494-8.958,18.494-8.958s15.068-10.536,14.441-13.9c-.629-3.421-10.456-14.4-21.446-16.66-10.182-2.094-14.844-3.769-18.233-8.765-.371-.557-.734-1.151-1.086-1.8-3.594-6.592,2.168-11.8,5.684-20.341a17.082,17.082,0,0,0,.84-7.461c-.015-.072-.019-.1-.019-.1-.7-9.82-6.331-22.978-9.935-24.331L176.728,133.7,144.82,151.546C145.083,153.836,150.22,158.242,156.511,161.974Z" transform="translate(-108.179 -75.653)" fill="#4dd0e1" opacity="0.5"/>
                  <g id="Grupo_179445" data-name="Grupo 179445" transform="translate(48.294 56.09)">
                    <path id="Trazado_210707" data-name="Trazado 210707" d="M177.647,161.933l.038.041c6.393,3.777,13.939,6.856,19.026,6.472,9.081-.694,15.744-3.842,21.326-.452,4.3,1.427,17.6,14.163,18.566,13.134.968-1.048-5.137-10.732-6.768-16.723-.371-.557-.734-1.151-1.086-1.8-3.594-6.592,2.168-11.8,5.684-20.341a17.082,17.082,0,0,0,.84-7.461c-.015-.072-.019-.1-.019-.1Z" transform="translate(-177.647 -131.743)" fill="#0f2771"/>
                    <path id="Trazado_210708" data-name="Trazado 210708" d="M236.149,132.537c-5-6.322-56.69,27.122-57.109,29.033s16.3,5.367,38.792-8.806C240.237,138.645,236.149,132.537,236.149,132.537Z" transform="translate(-178.768 -131.743)" fill="#0f2771"/>
                    <path id="Trazado_210709" data-name="Trazado 210709" d="M149.663,212.691c4.01,2.669,31.509-16.25,32.935-22.861.159-.717-.871-4.816-4.212-5.809a.08.08,0,0,1-.031-.019c-8.446-2.435-25.267-1.713-26.955-.8-1.9,1.035-7.623,16.307-6.409,24.187.01.033,0,.065.013.1C145.31,209.352,148.877,212.167,149.663,212.691Z" transform="translate(-90.731 -131.743)" fill="#0f2771"/>
                  </g>
                  <path id="Trazado_210710" data-name="Trazado 210710" d="M185.719,137.875c-1.054,3.1-12.208,13.705-13.918,19.761-1.687,5.977,4.482,11.656,9.573,12.087,5.035.426,1.315-2.324-1.464-8.112C177.071,155.7,185.719,137.875,185.719,137.875Z" transform="translate(-72.236 -75.653)" fill="#912790" opacity="0.3" style="mix-blend-mode: multiply;isolation: isolate"/>
                  <path id="Trazado_210711" data-name="Trazado 210711" d="M191.31,172.82c3.884.289,19.123-8.586,27.618-5.534,8.293,2.979,8.621,8.782,7.636,11.029s-3.576-4.677-11.761-5.71C206.466,171.553,198.206,173.853,191.31,172.82Z" transform="translate(-133.265 -75.653)" fill="#912790" opacity="0.3" style="mix-blend-mode: multiply;isolation: isolate"/>
                  <path id="Trazado_210712" data-name="Trazado 210712" d="M235.952,171.016c1.64-2.377-7.934-4.278-11.759-6.692-3.877-2.446-1.656,1.389,2.94,5.46C231.642,173.778,235.68,171.411,235.952,171.016Z" transform="translate(-173.342 -75.653)" fill="#fff"/>
                  <path id="Trazado_210713" data-name="Trazado 210713" d="M174.5,116.171c2.764,1.013,7.043,14.322,5.319,18.691-1.708,4.332-4.388-.23-5.009-2.191S170.779,114.808,174.5,116.171Z" transform="translate(-67.998 -75.653)" fill="#fff" style="mix-blend-mode: soft-light;isolation: isolate"/>
                  <path id="Trazado_210714" data-name="Trazado 210714" d="M170,169.626c2.871,2-4.793,1.432-9.234-.283C156.261,167.6,166.067,166.889,170,169.626Z" transform="translate(-45.228 -75.653)" fill="#fff"/>
                  <path id="Trazado_210715" data-name="Trazado 210715" d="M192.211,190.588c.9-.473,3.933,6.027,1.194,8.552S187.949,192.814,192.211,190.588Z" transform="translate(-99.521 -75.653)" fill="#fff"/>
                  <path id="Trazado_210716" data-name="Trazado 210716" d="M231.1,137.25s-3.329,16.2-10.735,22.533c-7.382,6.314-23.432,8.609-28.554,7.949-5.18-.666-11.8-3.516-11.8-3.516s12.262.365,27.842-7.843C223.33,148.223,231.1,137.25,231.1,137.25Z" transform="translate(-126.118 -75.653)" fill="#e09590" opacity="0.5" style="mix-blend-mode: multiply;isolation: isolate"/>
                  <path id="Trazado_210717" data-name="Trazado 210717" d="M149.5,212.691c4.01,2.669,31.509-16.25,32.935-22.861.159-.717-.871-4.816-4.212-5.809.384.369,4.945,5.1-6.78,14.519-12.179,9.777-21.6,7.1-26.034,8.555a1.979,1.979,0,0,0-.581.3c.01.033,0,.065.013.1C145.142,209.352,148.709,212.167,149.5,212.691Z" transform="translate(-42.269 -75.653)" fill="#e09590" opacity="0.5" style="mix-blend-mode: multiply;isolation: isolate"/>
                  <path id="Trazado_210718" data-name="Trazado 210718" d="M172.5,183.2c1.758-1.83,8.339,9.243,8.565,13.6.222,4.3-10.6,7.859-12.839,7.244S169.11,186.734,172.5,183.2Z" transform="translate(-63.541 -75.653)" fill="#fff" opacity="0.5" style="mix-blend-mode: soft-light;isolation: isolate"/>
                  <path id="Trazado_210719" data-name="Trazado 210719" d="M194.743,119.436c5.124-1,10.144,19.122,2.963,30.018-7.069,10.724-15.713-7.326-15.742-14.592C181.934,127.455,194.743,119.436,194.743,119.436Z" transform="translate(-98.246 -75.653)" fill="url(#linear-gradient)" style="mix-blend-mode: screen;isolation: isolate"/>
                  <path id="Trazado_210720" data-name="Trazado 210720" d="M223.326,148.774c6.062-1.883,18.476,3.841,19.007,7.449.525,3.57-17.41,7.295-24.03,1.923C211.507,152.632,219.862,149.85,223.326,148.774Z" transform="translate(-173.061 -75.653)" fill="#fff"/>
                  <path id="Trazado_210721" data-name="Trazado 210721" d="M259.926,101.725c-.187-.5-21.5,28.413-36.343,37.615-14.884,9.227-42.934,17.392-42.934,17.392l-2.042-1.339s30.122-13.681,46.575-24.337C241.6,120.422,259.1,99.524,259.1,99.524Z" transform="translate(-153.533 -75.653)" fill="#9a376d" opacity="0.5" style="mix-blend-mode: multiply;isolation: isolate"/>
                  <path id="Trazado_210722" data-name="Trazado 210722" d="M222.571,164.035c3.13-4.526-13.388-3.742-21.783-.491-8.452,3.275,3.5,4.116,7.891,3.934C213.035,167.3,222.571,164.035,222.571,164.035Z" transform="translate(-135.798 -75.653)" fill="#e09590" opacity="0.5" style="mix-blend-mode: multiply;isolation: isolate"/>
                  <path id="Trazado_210723" data-name="Trazado 210723" d="M140.544,220.25s10-2.885,26.954-14.655c18.032-12.516,22.73-19.831,22.73-19.831a75.864,75.864,0,0,0-9.159-10.352h-.018s6.691,8.672,6.093,12.532c-.576,3.822-28.55,23.055-37.764,27.782-9.264,4.766-15.928-4.725-15.928-4.725l0,.017A76.244,76.244,0,0,0,140.544,220.25Z" transform="translate(-38.676 -75.653)" fill="#9a376d" opacity="0.5" style="mix-blend-mode: multiply;isolation: isolate"/>
                  <path id="Trazado_210724" data-name="Trazado 210724" d="M179.524,183.546c4.351-2.219,7.889,5.707,5.552,9.9s-7.856-3.468-8.159-4.992S178.119,184.262,179.524,183.546Z" transform="translate(-77.697 -75.653)" fill="#fff"/>
                  <g id="Grupo_179446" data-name="Grupo 179446" transform="translate(0)">
                    <path id="Trazado_210725" data-name="Trazado 210725" d="M277.291,77.88s6.512,13.108,7.1,16.832c.584,3.687-20.621,25.849-38.308,38.125s-49.845,25.586-52.238,25.356-16.939-12.009-16.939-12.009Z" transform="translate(-176.315 -75.653)" fill="#bddcf6"/>
                    <path id="Trazado_210726" data-name="Trazado 210726" d="M282.373,76.059c-13.456-5.756-98.736,51.336-98.738,68.535C183.634,161.1,304.125,85.363,282.373,76.059Z" transform="translate(-183.635 -75.653)" fill="#4dd0e1"/>
                    <path id="Trazado_210727" data-name="Trazado 210727" d="M254.3,78.235s-56.779,33.321-68.492,50.062c-11.472,16.4,35.142-8.41,58.312-25.562,23.233-17.2,25.09-24.855,25.09-24.855s-25.736,24.946-52.712,39.6c-27.25,14.8,42.734-40.914,42.734-40.914Z" transform="translate(-168.237 -75.653)" fill="#4dd0e1" opacity="0.3" style="mix-blend-mode: multiply;isolation: isolate"/>
                    <path id="Trazado_210728" data-name="Trazado 210728" d="M281.739,121.366s-30.137,19.117-46.777,23.378c-16.952,4.34-26.525.783-29.682-1.617-3.194-2.427-.8-9.038-.8-9.038s-4.494,9.072,1.211,12.511c5.6,3.377,36.147.2,49.516-5.7C268.466,135.046,281.739,121.366,281.739,121.366Z" transform="translate(-199.542 -75.653)" fill="#0f2771" opacity="0.21" style="mix-blend-mode: multiply;isolation: isolate"/>
                    <path id="Trazado_210729" data-name="Trazado 210729" d="M276.795,142.554s-10.8,4.608-20.766,6.223c-10.1,1.637-22.314-1.438-22.314-1.438S244.439,150.951,276.795,142.554Z" transform="translate(-225.51 -75.653)" fill="#4dd0e1"/>
                    <path id="Trazado_210730" data-name="Trazado 210730" d="M249.407,101.978c8.075-4.551,11.941-.954,13.139,2.419,1.185,3.337-14.92,16.2-29.723,24.114-14.893,7.958-40.731,17.386-45.73,15.65-5.064-1.758,18.629-14,31.718-22.015C231.865,114.154,249.407,101.978,249.407,101.978Z" transform="translate(-164.002 -75.653)" fill="#0f2771" opacity="0.21" style="mix-blend-mode: multiply;isolation: isolate"/>
                    <path id="Trazado_210731" data-name="Trazado 210731" d="M273.468,101.456c1.642-2.8-28.19,18.382-40.511,23.6-12.425,5.263-27.912,12.381-29.171,14.954s-.621,3.237.632,3.658S251.885,122.187,273.468,101.456Z" transform="translate(-191.637 -75.653)" fill="#fff" opacity="0.5" style="mix-blend-mode: soft-light;isolation: isolate"/>
                    <path id="Trazado_210733" data-name="Trazado 210733" d="M177.692,99.9c3.908-3.23,7-6.985,10.843-10.287a28.561,28.561,0,0,1,1.721,5.1c.266,1.682-4.01,7.214-10.412,13.9C179.005,108.048,175.323,104.149,177.692,99.9Z" transform="translate(-82.177 -75.653)" fill="#0f2771" opacity="0.21" style="mix-blend-mode: multiply;isolation: isolate"/>
                    <path id="Trazado_210734" data-name="Trazado 210734" d="M236.9,155.015c4.9-4.528,9.624-7.458,14.293-12.2,2.313-2.345,18.178-1.683,18.1,1.174-15.535,8-31.509,14.359-33.168,14.2a5.792,5.792,0,0,1-1.82-.811C235.166,156.594,236.037,155.81,236.9,155.015Z" transform="translate(-218.586 -75.653)" fill="#0f2771" opacity="0.21" style="mix-blend-mode: multiply;isolation: isolate"/>
                  </g>
                </g>
              </g>
              <g id="Grupo_210364" data-name="Grupo 210364" transform="translate(988.844 381.086)">
                <path id="Trazado_210735" data-name="Trazado 210735" d="M193.784,201.205s-3.292,1.861-4.028,4.544l8.743,1.259.3-4.728Z" transform="translate(-188.79 -171.875)" fill="url(#linear-gradient-2)"/>
                <path id="Trazado_210736" data-name="Trazado 210736" d="M191.381,178.588s-11.636-5.887-16.868-6.713c0,0-2.5,4.957-1,9.914l4.182,1.962s-.671,5.061.465,7.23a23.289,23.289,0,0,0-.413,10.224s4.809,2.684,15.859,1.858c0,0,3.04-1.858,2.006-6.877,0,0,2.525.19,3.248-.429s.987-5.293-.149-6.635-8.055-3.2-8.055-3.2S193.137,181.459,191.381,178.588Z" transform="translate(-172.755 -171.875)" fill="url(#linear-gradient-3)"/>
                <path id="Trazado_210737" data-name="Trazado 210737" d="M199.27,208.537c1.075.6.266,4.647-1.077,5.68,0,0-7.294,1.446-12.148-.516a14.078,14.078,0,0,1,.685-7.952S194.253,205.749,199.27,208.537Z" transform="translate(-185.764 -171.875)" fill="url(#linear-gradient-4)"/>
                <path id="Trazado_210738" data-name="Trazado 210738" d="M194.825,183.557s-7.959,1.376-13.912.194l12.961,2.169A11.507,11.507,0,0,0,194.825,183.557Z" transform="translate(-175.971 -171.875)" fill="url(#linear-gradient-5)"/>
                <path id="Trazado_210739" data-name="Trazado 210739" d="M194.64,195.757s-14.114-.628-20.98-3.6c0,0,4.958,3.926,17.8,4.425C191.465,196.584,193.914,196.4,194.64,195.757Z" transform="translate(-168.533 -171.875)" fill="url(#linear-gradient-6)"/>
              </g>
            </g>
          </g>
        </g>
      </g>
    </g>
  </g>
</svg>
