<svg xmlns="http://www.w3.org/2000/svg" xmlns:xlink="http://www.w3.org/1999/xlink" width="101.5" height="100.353" viewBox="0 0 101.5 100.353">
  <defs>
    <linearGradient id="linear-gradient" x1="3.069" y1="-10.963" x2="3.069" y2="-11.826" gradientUnits="objectBoundingBox">
      <stop offset="0" stop-color="#e1f2f8"/>
      <stop offset="1" stop-color="#fff"/>
    </linearGradient>
    <linearGradient id="linear-gradient-2" x1="3.892" y1="-24.255" x2="3.892" y2="-24.74" gradientUnits="objectBoundingBox">
      <stop offset="0" stop-color="#e1f5f8"/>
      <stop offset="1" stop-color="#fff"/>
    </linearGradient>
  </defs>
  <g id="Grupo_210361" data-name="Grupo 210361" transform="translate(-884.188 -403.792)">
    <path id="Trazado_210799" data-name="Trazado 210799" d="M884.927,474.44l-.739,8.7,29.755,56.217s6.923,9.989,15.836,6.274l50.154-19.393s8.445-5.689,4.874-20.636C981.34,491.09,884.927,474.44,884.927,474.44Z" transform="translate(0 -42.313)" fill="#4dd0e1"/>
    <path id="Trazado_210800" data-name="Trazado 210800" d="M979.18,477.708a13.482,13.482,0,0,1-1.865.951l-45.089,18.795a14.2,14.2,0,0,1-18.25-6.941l-.569-1.171-27.371-56.917,67.491-28.133,30.683,54.29A14.182,14.182,0,0,1,979.18,477.708Z" transform="translate(-1.107 -0.299)" fill="#bddcf6"/>
    <path id="Trazado_210801" data-name="Trazado 210801" d="M914.528,493.175s18.811,45.384,21.668,48.837,7.138,4.852,29.569-5.11,26.471-11.511,27.607-14.008a14.89,14.89,0,0,0,1.05-10.38C993.322,507.666,914.528,493.175,914.528,493.175Z" transform="translate(-18.171 -53.533)" fill="#274a91" opacity="0.5" style="mix-blend-mode: multiply;isolation: isolate"/>
    <path id="Trazado_210802" data-name="Trazado 210802" d="M912.249,471.3l.914,8.775L935.1,523.056s4.895,6.539,12.853,4.182l39.37-16.11s7.886-6.719,5.172-14.675C989.727,488.332,912.249,471.3,912.249,471.3Z" transform="translate(-16.806 -40.43)" fill="#0f2771"/>
    <path id="Trazado_210803" data-name="Trazado 210803" d="M912.249,437.644l54.067-22.537,24.954,44.338a10.635,10.635,0,0,1-5.082,15.127l-36.529,12.151a11.6,11.6,0,0,1-14.286-5.056Z" transform="translate(-16.806 -6.777)" fill="url(#linear-gradient)"/>
    <g id="Grupo_179498" data-name="Grupo 179498" transform="translate(915.69 430.763)">
      <g id="Grupo_179480" data-name="Grupo 179480" transform="translate(1.157 0.423)">
        <path id="Trazado_210804" data-name="Trazado 210804" d="M971.15,518.328a1.917,1.917,0,0,1-.159-.419q-.144-.533.672-1.787a10.853,10.853,0,0,1,2.63-2.606,4.96,4.96,0,0,1,2.967,1.595.173.173,0,0,1-.043.2,2.944,2.944,0,0,0-.21.294,1.305,1.305,0,0,0-.162.309,4.088,4.088,0,0,0,2.525-.234,4.254,4.254,0,0,0,2.293-2.184,3.067,3.067,0,0,0-.1-2.975,4.022,4.022,0,0,0-2.86-1.824,3.282,3.282,0,0,1-.719.411,2.694,2.694,0,0,1-.983.225,4.664,4.664,0,0,1-2.079-2.056,4.072,4.072,0,0,1-.618-1.926,1.449,1.449,0,0,1,.892-.74,8.5,8.5,0,0,1,.852-.282c.375-.108.573-.165.595-.174a2.181,2.181,0,0,0,.3-2.484,2.758,2.758,0,0,0-1.885-1.259,4.2,4.2,0,0,0-2.635.217,3.84,3.84,0,0,0-1.556,1.174l.57.586c.028.188-.129.437-.471.742a3.5,3.5,0,0,1-.931.632q-.8.335-2.29-.644a7.8,7.8,0,0,1-2.126-1.893,2.663,2.663,0,0,1,.449-1.344,2.74,2.74,0,0,1,1.209-1.123l.4.144a9.55,9.55,0,0,1,2.672-1.655,9.844,9.844,0,0,1,5.552-.67,5.831,5.831,0,0,1,4.247,3.047,6.643,6.643,0,0,1,.188,6.138q3.917.748,5.381,3.328a6.041,6.041,0,0,1,0,5.811,8.766,8.766,0,0,1-4.726,4.538,8.157,8.157,0,0,1-6.642-.1,2.882,2.882,0,0,1-.711.705A4.086,4.086,0,0,1,971.15,518.328Z" transform="translate(-965.617 -486.674)"/>
        <path id="Trazado_210805" data-name="Trazado 210805" d="M1017.4,491.451a13.365,13.365,0,0,1-1.613-4.965,15.512,15.512,0,0,1,.229-5.319,11.774,11.774,0,0,1,2.339-4.821,11.05,11.05,0,0,1,4.5-3.371,8.915,8.915,0,0,1,7.5-.106,12.547,12.547,0,0,1,5.552,5.392,17.412,17.412,0,0,1,1.574,3.72,13.781,13.781,0,0,1,.552,4.013,12.431,12.431,0,0,1-.649,3.922,9.324,9.324,0,0,1-2.194,3.472,11.684,11.684,0,0,1-3.967,2.618,10.857,10.857,0,0,1-7.959.424A10.579,10.579,0,0,1,1017.4,491.451Zm4.64-2.452a6.394,6.394,0,0,0,3.232,2.962,5.181,5.181,0,0,0,4.019-.067,5.679,5.679,0,0,0,3.094-3.1,9.341,9.341,0,0,0,.768-4.608,10.264,10.264,0,0,0-1.257-4.25,6.063,6.063,0,0,0-2.966-2.739,5.092,5.092,0,0,0-4.035.146,6.148,6.148,0,0,0-3.281,3.051,8.349,8.349,0,0,0-.846,4.4A10.079,10.079,0,0,0,1022.035,489Z" transform="translate(-995.585 -472.094)"/>
      </g>
      <g id="Grupo_179496" data-name="Grupo 179496">
        <g id="Grupo_179483" data-name="Grupo 179483" transform="translate(0 1.778)">
          <g id="Grupo_179481" data-name="Grupo 179481" transform="translate(0 9.763)">
            <path id="Trazado_210806" data-name="Trazado 210806" d="M978.69,523.634a8.558,8.558,0,0,1-6.682.021,2,2,0,0,1-.671.586l-.143.059-.148-.046a4.505,4.505,0,0,1-2.725-1.915l0,0a2.254,2.254,0,0,1-.2-.513c-.134-.493.1-1.169.726-2.134a11.3,11.3,0,0,1,2.733-2.713l.112-.085h.14a5.322,5.322,0,0,1,3.325,1.788.6.6,0,0,1-.074.707v0a3.683,3.683,0,0,0,1.664-.3,3.814,3.814,0,0,0,2.072-1.973,2.64,2.64,0,0,0-.084-2.584,3.538,3.538,0,0,0-2.4-1.577,3.426,3.426,0,0,1-1.784.6l-.185-.038a5.088,5.088,0,0,1-2.273-2.232,4.5,4.5,0,0,1-.673-2.133l.025-.143a1.813,1.813,0,0,1,1.128-.992,8.542,8.542,0,0,1,.9-.3l.447-.128a1.723,1.723,0,0,0,.194-1.912,2.341,2.341,0,0,0-1.613-1.056,3.749,3.749,0,0,0-2.374.2,3.442,3.442,0,0,0-1.141.767l.391.4.021.136c.069.458-.315.86-.61,1.121a3.882,3.882,0,0,1-1.049.707c-.681.284-1.56.06-2.688-.682a8.264,8.264,0,0,1-2.24-2l-.075-.107,0-.13a3.073,3.073,0,0,1,.509-1.567,3.161,3.161,0,0,1,1.394-1.291l.16-.074.33.118a10.1,10.1,0,0,1,2.6-1.563,10.31,10.31,0,0,1,5.788-.7,6.268,6.268,0,0,1,4.544,3.256,6.949,6.949,0,0,1,.4,6.035,7.51,7.51,0,0,1,5.172,3.431,6.469,6.469,0,0,1,.018,6.2A9.219,9.219,0,0,1,978.69,523.634Zm-6.929-1.008.294.127a7.783,7.783,0,0,0,6.309.1,8.392,8.392,0,0,0,4.5-4.326,5.6,5.6,0,0,0,.015-5.422c-.907-1.6-2.621-2.649-5.09-3.12l-.516-.1.2-.484a6.191,6.191,0,0,0-.165-5.764,5.386,5.386,0,0,0-3.949-2.838,9.473,9.473,0,0,0-5.316.644,9.2,9.2,0,0,0-2.554,1.581l-.189.167-.461-.166a2.337,2.337,0,0,0-.872.876,2.53,2.53,0,0,0-.383,1,7.8,7.8,0,0,0,1.928,1.669c1.075.706,1.622.72,1.893.607a3.128,3.128,0,0,0,.813-.558,1.759,1.759,0,0,0,.281-.3l-.663-.68.233-.293a4.574,4.574,0,0,1,4.621-1.541,3.187,3.187,0,0,1,2.157,1.464,2.581,2.581,0,0,1-.321,2.94l-.07.1-.112.047c-.023.009-.237.074-.641.189a8.293,8.293,0,0,0-.807.266,1.316,1.316,0,0,0-.627.432,3.823,3.823,0,0,0,.56,1.632,4.348,4.348,0,0,0,1.795,1.837,2.764,2.764,0,0,0,1.361-.545l.154-.117.189.04a4.443,4.443,0,0,1,3.142,2.031,3.487,3.487,0,0,1,.115,3.366,4.694,4.694,0,0,1-2.514,2.4,4.529,4.529,0,0,1-2.782.257l-.461-.1.152-.446a1.675,1.675,0,0,1,.214-.411c.042-.067.085-.129.126-.186a4.165,4.165,0,0,0-1.053-.748,3.751,3.751,0,0,0-1.3-.488,10.27,10.27,0,0,0-2.407,2.407c-.678,1.04-.633,1.384-.618,1.443a1.53,1.53,0,0,0,.119.325,3.561,3.561,0,0,0,2.039,1.454,5.466,5.466,0,0,0,.457-.505Zm2.669-3.782Z" transform="translate(-962.732 -499.815)" fill="#0f2771"/>
          </g>
          <g id="Grupo_179482" data-name="Grupo 179482" transform="translate(20.07)">
            <path id="Trazado_210807" data-name="Trazado 210807" d="M1028.925,500.2a11.314,11.314,0,0,1-8.263.433,11.04,11.04,0,0,1-6.094-5.171h0a13.839,13.839,0,0,1-1.665-5.121,16.01,16.01,0,0,1,.237-5.464,12.217,12.217,0,0,1,2.421-4.993,11.522,11.522,0,0,1,4.671-3.5,9.359,9.359,0,0,1,7.843-.1,13.022,13.022,0,0,1,5.74,5.567,17.848,17.848,0,0,1,1.612,3.811,14.2,14.2,0,0,1,.57,4.137,12.813,12.813,0,0,1-.672,4.054,9.777,9.777,0,0,1-2.289,3.631A12.15,12.15,0,0,1,1028.925,500.2Zm-13.619-5.157a10.212,10.212,0,0,0,5.636,4.786,10.48,10.48,0,0,0,7.655-.414,11.31,11.31,0,0,0,3.825-2.521,8.944,8.944,0,0,0,2.1-3.313,12.07,12.07,0,0,0,.627-3.791,13.476,13.476,0,0,0-.535-3.889,17.1,17.1,0,0,0-1.536-3.63,12.184,12.184,0,0,0-5.364-5.216,8.548,8.548,0,0,0-7.153.112,10.692,10.692,0,0,0-4.332,3.243,11.407,11.407,0,0,0-2.257,4.648,15.165,15.165,0,0,0-.223,5.174,12.978,12.978,0,0,0,1.56,4.809Zm11.685,1.045a5.621,5.621,0,0,1-4.338.071,6.836,6.836,0,0,1-3.446-3.149h0a10.533,10.533,0,0,1-1.327-4.379,8.808,8.808,0,0,1,.889-4.624,6.583,6.583,0,0,1,3.5-3.257,5.526,5.526,0,0,1,4.36-.146,6.492,6.492,0,0,1,3.173,2.922,10.741,10.741,0,0,1,1.312,4.423,9.8,9.8,0,0,1-.8,4.815A6.116,6.116,0,0,1,1026.992,496.088Zm-4.4-14.554a5.691,5.691,0,0,0-3.063,2.845,7.988,7.988,0,0,0-.8,4.183,9.718,9.718,0,0,0,1.219,4.028h0a6.008,6.008,0,0,0,3.017,2.777,4.73,4.73,0,0,0,3.7-.064,5.223,5.223,0,0,0,2.868-2.881,8.96,8.96,0,0,0,.734-4.4,9.883,9.883,0,0,0-1.2-4.076,5.678,5.678,0,0,0-2.758-2.556A4.653,4.653,0,0,0,1022.6,481.534Z" transform="translate(-1012.772 -475.473)" fill="#0f2771"/>
          </g>
        </g>
        <g id="Grupo_179486" data-name="Grupo 179486" transform="translate(0.183 1.333)">
          <g id="Grupo_179484" data-name="Grupo 179484" transform="translate(0 9.763)">
            <path id="Trazado_210808" data-name="Trazado 210808" d="M979.147,522.524a8.558,8.558,0,0,1-6.682.021,1.993,1.993,0,0,1-.672.586l-.142.059-.148-.046a4.507,4.507,0,0,1-2.725-1.915v0a2.265,2.265,0,0,1-.2-.513c-.133-.493.1-1.168.726-2.134a11.3,11.3,0,0,1,2.733-2.713l.112-.085h.14a5.318,5.318,0,0,1,3.325,1.789.6.6,0,0,1-.074.707v0a3.681,3.681,0,0,0,1.664-.3,3.815,3.815,0,0,0,2.072-1.973,2.639,2.639,0,0,0-.085-2.584,3.537,3.537,0,0,0-2.4-1.578,3.451,3.451,0,0,1-1.784.6l-.185-.038a5.093,5.093,0,0,1-2.273-2.233,4.5,4.5,0,0,1-.673-2.133l.025-.143a1.814,1.814,0,0,1,1.128-.992,8.547,8.547,0,0,1,.9-.3l.446-.129a1.722,1.722,0,0,0,.194-1.912,2.341,2.341,0,0,0-1.613-1.056,3.752,3.752,0,0,0-2.374.2,3.452,3.452,0,0,0-1.141.767l.391.4.021.136c.069.459-.315.86-.61,1.121a3.874,3.874,0,0,1-1.049.707c-.681.284-1.56.06-2.688-.682a8.262,8.262,0,0,1-2.24-2l-.075-.107,0-.13a3.078,3.078,0,0,1,.509-1.567,3.157,3.157,0,0,1,1.394-1.291l.16-.074.33.118a10.1,10.1,0,0,1,2.6-1.563,10.308,10.308,0,0,1,5.788-.7,6.269,6.269,0,0,1,4.544,3.256,6.949,6.949,0,0,1,.4,6.035,7.51,7.51,0,0,1,5.172,3.431,6.469,6.469,0,0,1,.018,6.2A9.22,9.22,0,0,1,979.147,522.524Zm-6.929-1.008.294.128a7.782,7.782,0,0,0,6.309.1,8.393,8.393,0,0,0,4.5-4.325,5.6,5.6,0,0,0,.015-5.422c-.908-1.6-2.621-2.649-5.091-3.12l-.516-.1.2-.484a6.19,6.19,0,0,0-.165-5.764,5.384,5.384,0,0,0-3.949-2.838,9.471,9.471,0,0,0-5.317.644,9.206,9.206,0,0,0-2.554,1.581l-.189.167-.461-.166a2.333,2.333,0,0,0-.872.876,2.541,2.541,0,0,0-.383,1,7.811,7.811,0,0,0,1.928,1.67c1.075.705,1.622.72,1.893.606a3.113,3.113,0,0,0,.813-.558,1.755,1.755,0,0,0,.281-.3l-.663-.68.232-.293a4.577,4.577,0,0,1,4.621-1.541,3.187,3.187,0,0,1,2.157,1.464,2.58,2.58,0,0,1-.322,2.94l-.07.1-.112.046c-.023.01-.237.074-.64.19a8.324,8.324,0,0,0-.807.266,1.318,1.318,0,0,0-.627.432,3.823,3.823,0,0,0,.56,1.632,4.351,4.351,0,0,0,1.794,1.837,2.745,2.745,0,0,0,1.361-.546l.155-.117.189.04a4.442,4.442,0,0,1,3.142,2.031,3.488,3.488,0,0,1,.115,3.366,4.693,4.693,0,0,1-2.514,2.4,4.526,4.526,0,0,1-2.782.257l-.461-.1.152-.446a1.69,1.69,0,0,1,.213-.411c.042-.066.085-.129.126-.186a4.141,4.141,0,0,0-1.053-.748,3.749,3.749,0,0,0-1.3-.488,10.278,10.278,0,0,0-2.407,2.406c-.678,1.04-.633,1.385-.618,1.443a1.516,1.516,0,0,0,.119.324,3.561,3.561,0,0,0,2.04,1.454,5.591,5.591,0,0,0,.457-.505Zm2.668-3.782Z" transform="translate(-963.188 -498.705)" fill="#0f2771"/>
          </g>
          <g id="Grupo_179485" data-name="Grupo 179485" transform="translate(20.071)">
            <path id="Trazado_210809" data-name="Trazado 210809" d="M1029.382,499.091a11.313,11.313,0,0,1-8.263.433,11.04,11.04,0,0,1-6.094-5.17h0a13.842,13.842,0,0,1-1.665-5.121,16.01,16.01,0,0,1,.237-5.464,12.235,12.235,0,0,1,2.421-4.993,11.518,11.518,0,0,1,4.671-3.5,9.361,9.361,0,0,1,7.843-.1,13.023,13.023,0,0,1,5.74,5.567,17.86,17.86,0,0,1,1.611,3.811,14.212,14.212,0,0,1,.57,4.137,12.837,12.837,0,0,1-.672,4.054,9.782,9.782,0,0,1-2.289,3.631A12.157,12.157,0,0,1,1029.382,499.091Zm-13.618-5.157a10.21,10.21,0,0,0,5.636,4.786,10.479,10.479,0,0,0,7.656-.414,11.311,11.311,0,0,0,3.825-2.521,8.951,8.951,0,0,0,2.1-3.313,12.072,12.072,0,0,0,.627-3.791,13.492,13.492,0,0,0-.535-3.889,17.1,17.1,0,0,0-1.536-3.629,12.187,12.187,0,0,0-5.364-5.216,8.548,8.548,0,0,0-7.153.113,10.687,10.687,0,0,0-4.332,3.243,11.4,11.4,0,0,0-2.257,4.648,15.164,15.164,0,0,0-.223,5.174,12.969,12.969,0,0,0,1.56,4.809Zm11.685,1.045a5.619,5.619,0,0,1-4.338.071,6.835,6.835,0,0,1-3.446-3.148h0a10.536,10.536,0,0,1-1.327-4.379,8.81,8.81,0,0,1,.889-4.625,6.583,6.583,0,0,1,3.5-3.257,5.532,5.532,0,0,1,4.362-.147,6.5,6.5,0,0,1,3.172,2.923,10.741,10.741,0,0,1,1.311,4.424,9.8,9.8,0,0,1-.8,4.815A6.117,6.117,0,0,1,1027.448,494.979Zm-4.4-14.554a5.69,5.69,0,0,0-3.063,2.845,7.98,7.98,0,0,0-.8,4.183,9.711,9.711,0,0,0,1.219,4.029h0a6.008,6.008,0,0,0,3.018,2.777,4.73,4.73,0,0,0,3.7-.064,5.223,5.223,0,0,0,2.868-2.881,8.964,8.964,0,0,0,.734-4.4,9.883,9.883,0,0,0-1.2-4.076,5.676,5.676,0,0,0-2.758-2.556A4.65,4.65,0,0,0,1023.053,480.425Z" transform="translate(-1013.229 -474.364)" fill="#0f2771"/>
          </g>
        </g>
        <g id="Grupo_179489" data-name="Grupo 179489" transform="translate(0.367 0.89)">
          <g id="Grupo_179487" data-name="Grupo 179487" transform="translate(0 9.763)">
            <path id="Trazado_210810" data-name="Trazado 210810" d="M979.6,521.419a8.558,8.558,0,0,1-6.682.021,2,2,0,0,1-.671.586l-.142.059-.149-.046a4.506,4.506,0,0,1-2.725-1.915v0a2.244,2.244,0,0,1-.2-.513c-.134-.493.1-1.168.726-2.134a11.305,11.305,0,0,1,2.733-2.713l.112-.085h.14a5.318,5.318,0,0,1,3.325,1.789.6.6,0,0,1-.074.707v0a3.681,3.681,0,0,0,1.664-.3,3.815,3.815,0,0,0,2.072-1.973,2.639,2.639,0,0,0-.084-2.584,3.537,3.537,0,0,0-2.4-1.578,3.451,3.451,0,0,1-1.784.6l-.185-.038a5.094,5.094,0,0,1-2.273-2.233,4.5,4.5,0,0,1-.673-2.133l.024-.143a1.814,1.814,0,0,1,1.128-.992,8.552,8.552,0,0,1,.9-.3l.446-.128a1.724,1.724,0,0,0,.194-1.912,2.342,2.342,0,0,0-1.613-1.056,3.753,3.753,0,0,0-2.374.2,3.442,3.442,0,0,0-1.141.767l.391.4.021.135c.069.459-.315.86-.61,1.121a3.862,3.862,0,0,1-1.049.707c-.681.284-1.559.06-2.688-.682a8.251,8.251,0,0,1-2.24-2l-.075-.107,0-.13a3.075,3.075,0,0,1,.509-1.567,3.154,3.154,0,0,1,1.393-1.291l.16-.074.33.118a10.111,10.111,0,0,1,2.6-1.563,10.306,10.306,0,0,1,5.788-.7A6.267,6.267,0,0,1,978.967,501a6.948,6.948,0,0,1,.4,6.035,7.509,7.509,0,0,1,5.172,3.431,6.469,6.469,0,0,1,.018,6.2A9.219,9.219,0,0,1,979.6,521.419Zm-6.929-1.008.294.128a7.78,7.78,0,0,0,6.308.1,8.392,8.392,0,0,0,4.5-4.325,5.6,5.6,0,0,0,.015-5.423c-.907-1.6-2.62-2.649-5.09-3.12l-.516-.1.2-.484a6.191,6.191,0,0,0-.165-5.764,5.385,5.385,0,0,0-3.949-2.838,9.469,9.469,0,0,0-5.316.644,9.191,9.191,0,0,0-2.554,1.581l-.189.167-.461-.166a2.33,2.33,0,0,0-.872.876,2.526,2.526,0,0,0-.384,1,7.813,7.813,0,0,0,1.928,1.669c1.075.705,1.622.72,1.893.606a3.117,3.117,0,0,0,.813-.558,1.723,1.723,0,0,0,.281-.3l-.663-.68.232-.293a4.574,4.574,0,0,1,4.62-1.541,3.186,3.186,0,0,1,2.157,1.464,2.579,2.579,0,0,1-.322,2.94l-.07.1-.112.047c-.023.01-.237.074-.641.19a8.334,8.334,0,0,0-.807.266,1.32,1.32,0,0,0-.627.432,3.822,3.822,0,0,0,.56,1.632,4.343,4.343,0,0,0,1.794,1.837,2.763,2.763,0,0,0,1.361-.545l.154-.117.189.04a4.442,4.442,0,0,1,3.142,2.031,3.488,3.488,0,0,1,.115,3.366,4.692,4.692,0,0,1-2.514,2.4,4.526,4.526,0,0,1-2.782.257l-.461-.1.152-.447a1.686,1.686,0,0,1,.214-.411c.042-.066.085-.129.126-.186a4.153,4.153,0,0,0-1.053-.748,3.737,3.737,0,0,0-1.3-.488,10.261,10.261,0,0,0-2.408,2.406c-.678,1.04-.633,1.385-.618,1.443a1.519,1.519,0,0,0,.119.324,3.56,3.56,0,0,0,2.04,1.454,5.466,5.466,0,0,0,.456-.5Zm2.669-3.782Z" transform="translate(-963.646 -497.599)" fill="#0f2771"/>
          </g>
          <g id="Grupo_179488" data-name="Grupo 179488" transform="translate(20.071)">
            <path id="Trazado_210811" data-name="Trazado 210811" d="M1029.841,497.985a11.314,11.314,0,0,1-8.263.433,11.042,11.042,0,0,1-6.095-5.17h0a13.836,13.836,0,0,1-1.665-5.121,16.012,16.012,0,0,1,.237-5.464,12.225,12.225,0,0,1,2.421-4.993,11.518,11.518,0,0,1,4.671-3.5,9.362,9.362,0,0,1,7.843-.1,13.019,13.019,0,0,1,5.739,5.567,17.841,17.841,0,0,1,1.612,3.81,14.2,14.2,0,0,1,.569,4.137,12.826,12.826,0,0,1-.672,4.054,9.779,9.779,0,0,1-2.289,3.631A12.15,12.15,0,0,1,1029.841,497.985Zm-13.618-5.157a10.209,10.209,0,0,0,5.636,4.786,10.479,10.479,0,0,0,7.655-.414,11.309,11.309,0,0,0,3.825-2.521,8.941,8.941,0,0,0,2.1-3.313,12.073,12.073,0,0,0,.627-3.79,13.5,13.5,0,0,0-.535-3.889,17.1,17.1,0,0,0-1.536-3.63,12.189,12.189,0,0,0-5.364-5.216,8.548,8.548,0,0,0-7.153.113,10.691,10.691,0,0,0-4.332,3.243,11.408,11.408,0,0,0-2.257,4.648,15.176,15.176,0,0,0-.223,5.174,12.955,12.955,0,0,0,1.56,4.809Zm11.685,1.045a5.619,5.619,0,0,1-4.338.071,6.835,6.835,0,0,1-3.446-3.148h0a10.538,10.538,0,0,1-1.327-4.379,8.818,8.818,0,0,1,.889-4.625,6.587,6.587,0,0,1,3.5-3.257,5.526,5.526,0,0,1,4.36-.146,6.493,6.493,0,0,1,3.173,2.922,10.736,10.736,0,0,1,1.312,4.423,9.8,9.8,0,0,1-.8,4.815A6.114,6.114,0,0,1,1027.907,493.873Zm-4.4-14.554a5.687,5.687,0,0,0-3.063,2.845,7.98,7.98,0,0,0-.805,4.183,9.717,9.717,0,0,0,1.219,4.028h0a6.008,6.008,0,0,0,3.017,2.777,4.731,4.731,0,0,0,3.7-.064,5.225,5.225,0,0,0,2.868-2.881,8.954,8.954,0,0,0,.734-4.4,9.885,9.885,0,0,0-1.2-4.077,5.677,5.677,0,0,0-2.758-2.556A4.65,4.65,0,0,0,1023.511,479.319Z" transform="translate(-1013.688 -473.257)" fill="#0f2771"/>
          </g>
        </g>
        <g id="Grupo_179492" data-name="Grupo 179492" transform="translate(0.549 0.445)">
          <g id="Grupo_179490" data-name="Grupo 179490" transform="translate(0 9.763)">
            <path id="Trazado_210812" data-name="Trazado 210812" d="M980.058,520.31a8.559,8.559,0,0,1-6.682.021,2,2,0,0,1-.671.586l-.143.059-.148-.046a4.505,4.505,0,0,1-2.724-1.915l0,0a2.266,2.266,0,0,1-.2-.513c-.134-.493.1-1.168.726-2.134a11.307,11.307,0,0,1,2.733-2.713l.112-.085h.14a5.319,5.319,0,0,1,3.325,1.789.6.6,0,0,1-.074.707v0a3.682,3.682,0,0,0,1.664-.3,3.814,3.814,0,0,0,2.072-1.973,2.64,2.64,0,0,0-.084-2.584,3.539,3.539,0,0,0-2.4-1.577,3.439,3.439,0,0,1-1.784.6l-.185-.038a5.094,5.094,0,0,1-2.273-2.233,4.5,4.5,0,0,1-.674-2.133l.025-.143a1.815,1.815,0,0,1,1.128-.992,8.668,8.668,0,0,1,.9-.3l.447-.128a1.723,1.723,0,0,0,.194-1.912,2.341,2.341,0,0,0-1.613-1.056,3.75,3.75,0,0,0-2.374.2,3.445,3.445,0,0,0-1.141.767l.391.4.02.136c.069.459-.314.86-.61,1.121a3.856,3.856,0,0,1-1.049.707c-.681.284-1.56.06-2.688-.682a8.262,8.262,0,0,1-2.24-2l-.075-.107,0-.13a3.07,3.07,0,0,1,.509-1.567A3.157,3.157,0,0,1,966,498.852l.16-.074.33.118a10.112,10.112,0,0,1,2.6-1.563,10.309,10.309,0,0,1,5.787-.7,6.27,6.27,0,0,1,4.545,3.256,6.95,6.95,0,0,1,.4,6.035,7.509,7.509,0,0,1,5.172,3.431,6.469,6.469,0,0,1,.018,6.2A9.219,9.219,0,0,1,980.058,520.31Zm-6.929-1.008.294.127a7.781,7.781,0,0,0,6.309.1,8.391,8.391,0,0,0,4.5-4.325,5.6,5.6,0,0,0,.015-5.423c-.907-1.6-2.62-2.649-5.091-3.12l-.515-.1.2-.484a6.191,6.191,0,0,0-.165-5.764,5.387,5.387,0,0,0-3.949-2.838,9.475,9.475,0,0,0-5.317.644,9.205,9.205,0,0,0-2.554,1.581l-.189.167-.461-.166a2.334,2.334,0,0,0-.872.876,2.529,2.529,0,0,0-.383,1,7.812,7.812,0,0,0,1.928,1.67c1.074.705,1.622.72,1.893.606a3.116,3.116,0,0,0,.813-.558,1.743,1.743,0,0,0,.281-.3l-.663-.68.232-.293a4.569,4.569,0,0,1,4.62-1.541,3.185,3.185,0,0,1,2.157,1.464,2.58,2.58,0,0,1-.321,2.94l-.07.1-.112.046c-.023.01-.238.074-.641.19a8.33,8.33,0,0,0-.807.266,1.32,1.32,0,0,0-.627.432,3.823,3.823,0,0,0,.559,1.632,4.346,4.346,0,0,0,1.795,1.837,2.764,2.764,0,0,0,1.361-.545l.154-.117.189.04a4.44,4.44,0,0,1,3.142,2.031,3.488,3.488,0,0,1,.115,3.366,4.694,4.694,0,0,1-2.514,2.4,4.526,4.526,0,0,1-2.782.257l-.461-.1.152-.446a1.692,1.692,0,0,1,.214-.411c.042-.066.085-.128.126-.185a4.159,4.159,0,0,0-1.053-.748,3.755,3.755,0,0,0-1.3-.488,10.269,10.269,0,0,0-2.407,2.406c-.678,1.04-.633,1.385-.618,1.443a1.533,1.533,0,0,0,.119.324,3.561,3.561,0,0,0,2.039,1.454,5.449,5.449,0,0,0,.457-.5Zm2.669-3.782Z" transform="translate(-964.1 -496.491)" fill="#0f2771"/>
          </g>
          <g id="Grupo_179491" data-name="Grupo 179491" transform="translate(20.07)">
            <path id="Trazado_210813" data-name="Trazado 210813" d="M1030.293,496.876a11.315,11.315,0,0,1-8.263.433,11.041,11.041,0,0,1-6.095-5.171h0a13.84,13.84,0,0,1-1.665-5.121,16.02,16.02,0,0,1,.237-5.464,12.225,12.225,0,0,1,2.421-4.993,11.521,11.521,0,0,1,4.671-3.5,9.359,9.359,0,0,1,7.843-.1,13.019,13.019,0,0,1,5.74,5.567,17.853,17.853,0,0,1,1.612,3.811,14.2,14.2,0,0,1,.569,4.137,12.824,12.824,0,0,1-.672,4.054,9.779,9.779,0,0,1-2.289,3.631A12.159,12.159,0,0,1,1030.293,496.876Zm-13.619-5.157a10.211,10.211,0,0,0,5.636,4.786,10.478,10.478,0,0,0,7.655-.414,11.31,11.31,0,0,0,3.826-2.521,8.943,8.943,0,0,0,2.1-3.313,12.068,12.068,0,0,0,.627-3.79,13.481,13.481,0,0,0-.535-3.889,17.089,17.089,0,0,0-1.536-3.629,12.181,12.181,0,0,0-5.364-5.216,8.547,8.547,0,0,0-7.153.113,10.692,10.692,0,0,0-4.332,3.243,11.408,11.408,0,0,0-2.257,4.648,15.174,15.174,0,0,0-.223,5.174,12.979,12.979,0,0,0,1.56,4.809Zm11.685,1.045a5.619,5.619,0,0,1-4.338.071,6.833,6.833,0,0,1-3.446-3.149h0a10.533,10.533,0,0,1-1.327-4.379,8.81,8.81,0,0,1,.889-4.624,6.583,6.583,0,0,1,3.5-3.257,5.526,5.526,0,0,1,4.36-.146,6.492,6.492,0,0,1,3.173,2.922,10.739,10.739,0,0,1,1.312,4.423,9.8,9.8,0,0,1-.8,4.815A6.117,6.117,0,0,1,1028.36,492.765Zm-4.4-14.554a5.691,5.691,0,0,0-3.063,2.845,7.982,7.982,0,0,0-.8,4.183,9.713,9.713,0,0,0,1.219,4.028h0a6.006,6.006,0,0,0,3.017,2.777,4.732,4.732,0,0,0,3.7-.064,5.225,5.225,0,0,0,2.868-2.881,8.958,8.958,0,0,0,.734-4.4,9.887,9.887,0,0,0-1.2-4.076,5.678,5.678,0,0,0-2.758-2.556A4.652,4.652,0,0,0,1023.964,478.21Z" transform="translate(-1014.14 -472.149)" fill="#0f2771"/>
          </g>
        </g>
        <g id="Grupo_179495" data-name="Grupo 179495" transform="translate(0.732)">
          <g id="Grupo_179493" data-name="Grupo 179493" transform="translate(0 9.763)">
            <path id="Trazado_210814" data-name="Trazado 210814" d="M980.515,519.2a8.558,8.558,0,0,1-6.682.021,2,2,0,0,1-.671.586l-.143.06-.148-.046a4.509,4.509,0,0,1-2.725-1.915v0a2.244,2.244,0,0,1-.2-.513c-.134-.493.1-1.168.726-2.134a11.315,11.315,0,0,1,2.733-2.713l.112-.085h.14a5.319,5.319,0,0,1,3.325,1.789.6.6,0,0,1-.074.707v0a3.676,3.676,0,0,0,1.664-.3,3.815,3.815,0,0,0,2.072-1.973,2.639,2.639,0,0,0-.085-2.584,3.537,3.537,0,0,0-2.4-1.578,3.454,3.454,0,0,1-1.784.6l-.185-.038a5.093,5.093,0,0,1-2.272-2.233,4.5,4.5,0,0,1-.673-2.133l.025-.143a1.814,1.814,0,0,1,1.128-.992,8.626,8.626,0,0,1,.9-.3l.446-.128a1.723,1.723,0,0,0,.195-1.912,2.343,2.343,0,0,0-1.613-1.056,3.752,3.752,0,0,0-2.374.2,3.448,3.448,0,0,0-1.141.767l.391.4.02.135c.069.459-.314.859-.61,1.121a3.872,3.872,0,0,1-1.049.707c-.681.284-1.56.06-2.688-.682a8.265,8.265,0,0,1-2.24-2l-.075-.107,0-.13a3.078,3.078,0,0,1,.509-1.567,3.159,3.159,0,0,1,1.394-1.291l.16-.074.33.118a10.109,10.109,0,0,1,2.6-1.563,10.309,10.309,0,0,1,5.788-.7,6.269,6.269,0,0,1,4.544,3.255,6.949,6.949,0,0,1,.4,6.035,7.509,7.509,0,0,1,5.172,3.431,6.469,6.469,0,0,1,.018,6.2A9.217,9.217,0,0,1,980.515,519.2Zm-6.929-1.007.294.128a7.781,7.781,0,0,0,6.309.1,8.392,8.392,0,0,0,4.5-4.325,5.6,5.6,0,0,0,.015-5.422c-.907-1.6-2.621-2.649-5.091-3.12l-.515-.1.2-.484a6.192,6.192,0,0,0-.165-5.765,5.386,5.386,0,0,0-3.949-2.838,9.468,9.468,0,0,0-5.317.644,9.2,9.2,0,0,0-2.554,1.58l-.189.167-.461-.166a2.332,2.332,0,0,0-.872.876,2.533,2.533,0,0,0-.383,1,7.8,7.8,0,0,0,1.928,1.67c1.075.705,1.622.72,1.893.606a3.126,3.126,0,0,0,.813-.558,1.773,1.773,0,0,0,.281-.3l-.663-.68.232-.293a4.57,4.57,0,0,1,4.621-1.541,3.186,3.186,0,0,1,2.157,1.464,2.58,2.58,0,0,1-.322,2.94l-.07.1-.112.047c-.023.01-.237.074-.641.19a8.335,8.335,0,0,0-.807.266,1.32,1.32,0,0,0-.627.432,3.822,3.822,0,0,0,.56,1.632,4.347,4.347,0,0,0,1.794,1.837,2.743,2.743,0,0,0,1.361-.545l.155-.117.189.04a4.442,4.442,0,0,1,3.142,2.031,3.488,3.488,0,0,1,.115,3.366,4.694,4.694,0,0,1-2.514,2.4,4.526,4.526,0,0,1-2.782.257l-.461-.1.152-.446a1.691,1.691,0,0,1,.213-.411c.042-.066.085-.129.126-.186a4.152,4.152,0,0,0-1.053-.748,3.758,3.758,0,0,0-1.3-.488,10.284,10.284,0,0,0-2.407,2.406c-.678,1.04-.633,1.385-.618,1.443a1.5,1.5,0,0,0,.119.325,3.563,3.563,0,0,0,2.039,1.454,5.584,5.584,0,0,0,.457-.505Zm2.668-3.782Z" transform="translate(-964.556 -495.382)" fill="#0f2771"/>
          </g>
          <g id="Grupo_179494" data-name="Grupo 179494" transform="translate(20.071)">
            <path id="Trazado_210815" data-name="Trazado 210815" d="M1030.75,495.767a11.315,11.315,0,0,1-8.263.433,11.043,11.043,0,0,1-6.094-5.171h0a13.843,13.843,0,0,1-1.665-5.121,16.011,16.011,0,0,1,.237-5.464,12.231,12.231,0,0,1,2.421-4.993,11.52,11.52,0,0,1,4.671-3.5,9.362,9.362,0,0,1,7.843-.1,13.022,13.022,0,0,1,5.74,5.567,17.842,17.842,0,0,1,1.611,3.811,14.2,14.2,0,0,1,.57,4.137,12.837,12.837,0,0,1-.672,4.054,9.788,9.788,0,0,1-2.289,3.631A12.157,12.157,0,0,1,1030.75,495.767Zm-13.618-5.157a10.211,10.211,0,0,0,5.636,4.786,10.481,10.481,0,0,0,7.656-.414,11.317,11.317,0,0,0,3.825-2.521,8.947,8.947,0,0,0,2.1-3.312,12.067,12.067,0,0,0,.627-3.791,13.475,13.475,0,0,0-.535-3.889,17.1,17.1,0,0,0-1.536-3.629,12.189,12.189,0,0,0-5.364-5.216,8.548,8.548,0,0,0-7.153.113,10.687,10.687,0,0,0-4.332,3.243,11.406,11.406,0,0,0-2.257,4.648,15.164,15.164,0,0,0-.223,5.174,12.969,12.969,0,0,0,1.56,4.809Zm11.685,1.045a5.619,5.619,0,0,1-4.338.071,6.833,6.833,0,0,1-3.446-3.148h0a10.528,10.528,0,0,1-1.327-4.379,8.808,8.808,0,0,1,.889-4.624,6.584,6.584,0,0,1,3.5-3.258,5.532,5.532,0,0,1,4.362-.147,6.5,6.5,0,0,1,3.172,2.923,10.735,10.735,0,0,1,1.311,4.424,9.8,9.8,0,0,1-.8,4.815A6.116,6.116,0,0,1,1028.817,491.655Zm-4.4-14.554a5.688,5.688,0,0,0-3.063,2.845,7.981,7.981,0,0,0-.8,4.183,9.7,9.7,0,0,0,1.219,4.028h0a6.009,6.009,0,0,0,3.017,2.777,4.732,4.732,0,0,0,3.7-.064,5.223,5.223,0,0,0,2.868-2.881,8.959,8.959,0,0,0,.734-4.4,9.885,9.885,0,0,0-1.2-4.077,5.678,5.678,0,0,0-2.758-2.556A4.65,4.65,0,0,0,1024.421,477.1Z" transform="translate(-1014.597 -471.039)" fill="#0f2771"/>
          </g>
        </g>
      </g>
      <g id="Grupo_179497" data-name="Grupo 179497" transform="translate(1.157 0.423)">
        <path id="Trazado_210816" data-name="Trazado 210816" d="M971.15,518.328a1.917,1.917,0,0,1-.159-.419q-.144-.533.672-1.787a10.853,10.853,0,0,1,2.63-2.606,4.96,4.96,0,0,1,2.967,1.595.173.173,0,0,1-.043.2,2.944,2.944,0,0,0-.21.294,1.305,1.305,0,0,0-.162.309,4.088,4.088,0,0,0,2.525-.234,4.254,4.254,0,0,0,2.293-2.184,3.067,3.067,0,0,0-.1-2.975,4.022,4.022,0,0,0-2.86-1.824,3.282,3.282,0,0,1-.719.411,2.694,2.694,0,0,1-.983.225,4.664,4.664,0,0,1-2.079-2.056,4.072,4.072,0,0,1-.618-1.926,1.449,1.449,0,0,1,.892-.74,8.5,8.5,0,0,1,.852-.282c.375-.108.573-.165.595-.174a2.181,2.181,0,0,0,.3-2.484,2.758,2.758,0,0,0-1.885-1.259,4.2,4.2,0,0,0-2.635.217,3.84,3.84,0,0,0-1.556,1.174l.57.586c.028.188-.129.437-.471.742a3.5,3.5,0,0,1-.931.632q-.8.335-2.29-.644a7.8,7.8,0,0,1-2.126-1.893,2.663,2.663,0,0,1,.449-1.344,2.74,2.74,0,0,1,1.209-1.123l.4.144a9.55,9.55,0,0,1,2.672-1.655,9.844,9.844,0,0,1,5.552-.67,5.831,5.831,0,0,1,4.247,3.047,6.643,6.643,0,0,1,.188,6.138q3.917.748,5.381,3.328a6.041,6.041,0,0,1,0,5.811,8.766,8.766,0,0,1-4.726,4.538,8.157,8.157,0,0,1-6.642-.1,2.882,2.882,0,0,1-.711.705A4.086,4.086,0,0,1,971.15,518.328Z" transform="translate(-965.617 -486.674)" fill="#feca2e"/>
        <path id="Trazado_210817" data-name="Trazado 210817" d="M1017.4,491.451a13.365,13.365,0,0,1-1.613-4.965,15.512,15.512,0,0,1,.229-5.319,11.774,11.774,0,0,1,2.339-4.821,11.05,11.05,0,0,1,4.5-3.371,8.915,8.915,0,0,1,7.5-.106,12.547,12.547,0,0,1,5.552,5.392,17.412,17.412,0,0,1,1.574,3.72,13.781,13.781,0,0,1,.552,4.013,12.431,12.431,0,0,1-.649,3.922,9.324,9.324,0,0,1-2.194,3.472,11.684,11.684,0,0,1-3.967,2.618,10.857,10.857,0,0,1-7.959.424A10.579,10.579,0,0,1,1017.4,491.451Zm4.64-2.452a6.394,6.394,0,0,0,3.232,2.962,5.181,5.181,0,0,0,4.019-.067,5.679,5.679,0,0,0,3.094-3.1,9.341,9.341,0,0,0,.768-4.608,10.264,10.264,0,0,0-1.257-4.25,6.063,6.063,0,0,0-2.966-2.739,5.092,5.092,0,0,0-4.035.146,6.148,6.148,0,0,0-3.281,3.051,8.349,8.349,0,0,0-.846,4.4A10.079,10.079,0,0,0,1022.035,489Z" transform="translate(-995.585 -472.094)" fill="#feca2e"/>
      </g>
    </g>
    <path id="Trazado_210818" data-name="Trazado 210818" d="M921.9,442.376c-.584,3.515,8.863,9.8,29.129,11.872s22.847-27.5,21.22-32.859S922.423,439.259,921.9,442.376Z" transform="translate(-22.574 -10.06)" fill="#63d4d4" opacity="0.2" style="mix-blend-mode: multiply;isolation: isolate"/>
    <path id="Trazado_210819" data-name="Trazado 210819" d="M914.937,437.195l8.91,19.322s11.811-1.854,12.81-2.27,2.17-4.787,3.551-5.165,4.576,1,4.828.7a9.611,9.611,0,0,1,4.1-2.873c2.816-1.174,12.233-3.162,14.41-5.232s5.872-6.8,8.9-7.628,5.284-1.519,5.284-1.519l-9.808-17.427Z" transform="translate(-18.416 -6.777)" fill="#70c5e5" opacity="0.8" style="mix-blend-mode: multiply;isolation: isolate"/>
    <path id="Trazado_210820" data-name="Trazado 210820" d="M914.807,453.557l-.087,1.086s9.109,13.265,9.246,13.276,7.738-3.32,8.119-3.217a15.335,15.335,0,0,0,3.065.443c.29-.12,1.721-4.08,2.526-4.522s4-.356,4.76-.4,4.9-2.448,8.833-4.087,7.746-2.925,9.334-3.485,5.488-5.358,8.165-6.709,8.025-2.049,8.314-2.278a8.089,8.089,0,0,0,.919-1.233Z" transform="translate(-18.286 -23.139)" fill="#bddcf6"/>
    <path id="Trazado_210821" data-name="Trazado 210821" d="M914.937,437.195l9,12.537s8.9-1.823,9.9-2.239,2.588-3.783,3.949-4.212,4.262.25,4.536,0a13.034,13.034,0,0,1,4.229-2.572c2.816-1.174,12.024-3.663,14.326-5.432s6.341-5.672,9.321-6.614,7.927-2.6,7.927-2.6l-10.2-10.958Z" transform="translate(-18.416 -6.777)" fill="url(#linear-gradient-2)"/>
    <path id="Trazado_210822" data-name="Trazado 210822" d="M951.149,467.542c.809,1.94.25,4.019-1.249,4.644s-3.369-.442-4.177-2.382-.25-4.019,1.249-4.644S950.341,465.6,951.149,467.542Z" transform="translate(-36.633 -36.648)" fill="#bddcf6"/>
    <path id="Trazado_210823" data-name="Trazado 210823" d="M975.762,457.283c.809,1.94.25,4.02-1.249,4.644s-3.369-.442-4.177-2.382-.25-4.02,1.249-4.644S974.954,455.342,975.762,457.283Z" transform="translate(-51.374 -30.503)" fill="#bddcf6"/>
    <path id="Trazado_210824" data-name="Trazado 210824" d="M1000.376,447.023c.809,1.94.25,4.019-1.249,4.644s-3.369-.442-4.177-2.382-.25-4.019,1.249-4.644S999.567,445.082,1000.376,447.023Z" transform="translate(-66.115 -24.358)" fill="#bddcf6"/>
    <path id="Trazado_210825" data-name="Trazado 210825" d="M979.989,430.038s.628,3.535,3.131,3.246,4.181-13.111-2.565-17.566c-5.938-3.921-11.5,3.338-9.251,8.742l2.929-1.27s-.395-3.8,3.456-3.5C981.213,419.96,981.981,426.717,979.989,430.038Z" transform="translate(-51.869 -6.475)" fill="#0f2771"/>
    <path id="Trazado_210826" data-name="Trazado 210826" d="M1026.311,436.212c.809,1.94.25,4.019-1.249,4.644s-3.369-.442-4.178-2.382-.249-4.019,1.249-4.644S1025.5,434.271,1026.311,436.212Z" transform="translate(-81.649 -17.883)" fill="#bddcf6"/>
    <path id="Trazado_210827" data-name="Trazado 210827" d="M1005.924,419.227s.628,3.535,3.131,3.246,4.181-13.111-2.564-17.566c-5.938-3.921-11.5,3.338-9.251,8.743l2.929-1.271s-.395-3.8,3.456-3.5C1007.148,409.149,1007.916,415.906,1005.924,419.227Z" transform="translate(-67.403)" fill="#0f2771"/>
    <path id="Trazado_210828" data-name="Trazado 210828" d="M931.651,450.187s.628,3.535,3.131,3.247,4.181-13.112-2.564-17.566c-5.938-3.921-11.5,3.338-9.25,8.743l2.929-1.271s-.395-3.8,3.456-3.5C932.875,440.109,933.643,446.866,931.651,450.187Z" transform="translate(-22.919 -18.543)" fill="#0f2771"/>
    <path id="Trazado_210829" data-name="Trazado 210829" d="M955.82,440.112s.628,3.535,3.131,3.247,4.181-13.112-2.564-17.566c-5.938-3.921-11.5,3.338-9.251,8.743l2.929-1.27s-.4-3.8,3.457-3.5C957.044,430.035,957.812,436.791,955.82,440.112Z" transform="translate(-37.394 -12.509)" fill="#0f2771"/>
    <path id="Trazado_210830" data-name="Trazado 210830" d="M999.364,583.6c-2.752-.063-.819-4.11,3.382-6.465s31.615-11.057,34-11.645,1.986,2,1.986,2Z" transform="translate(-68.213 -96.792)" fill="#d46baa" opacity="0.8" style="mix-blend-mode: multiply;isolation: isolate"/>
    <path id="Trazado_210831" data-name="Trazado 210831" d="M992.439,614.161c-3.151.4-1.354-4.163,2.123-5.612s42.237-17.9,47.8-19.926,4.077,3.333,1.39,5S992.439,614.161,992.439,614.161Z" transform="translate(-63.857 -110.428)" fill="#912774" opacity="0.5" style="mix-blend-mode: multiply;isolation: isolate"/>
    <path id="Trazado_210832" data-name="Trazado 210832" d="M967.518,635.412c-3.793-1.407.522,5.851,3.915,6.8s3.076.911,4.432-2.332-.374-3.193-3.558-3.215A8.387,8.387,0,0,1,967.518,635.412Z" transform="translate(-49.023 -138.614)" fill="#fff" opacity="0.5" style="mix-blend-mode: soft-light;isolation: isolate"/>
    <path id="Trazado_210833" data-name="Trazado 210833" d="M887.712,481.057c-1.94-2.126.01,5.029,3.182,13.075s18.339,36.067,21.276,41.656,1.413-.452.649-2.63S887.712,481.057,887.712,481.057Z" transform="translate(-1.647 -46.049)" fill="#a439a5" opacity="0.5" style="mix-blend-mode: multiply;isolation: isolate"/>
    <path id="Trazado_210834" data-name="Trazado 210834" d="M969.755,591.335c-1.651-3.232-1.17-6.583-.186-6.271s4.984,4.027,8.615,4.807,1.654,4.686,1.73,5.283S973.789,596.643,969.755,591.335Z" transform="translate(-50.598 -108.555)" fill="#fff" opacity="0.5" style="mix-blend-mode: soft-light;isolation: isolate"/>
    <path id="Trazado_210835" data-name="Trazado 210835" d="M914.9,477.9c-.93-.909,6.087,13.944,10.385,24.914s9.807,20.207,10.471,20.223.6-4.843-.57-7.067S914.9,477.9,914.9,477.9Z" transform="translate(-18.344 -44.361)" fill="#d463b8" opacity="0.3" style="mix-blend-mode: multiply;isolation: isolate"/>
    <path id="Trazado_210836" data-name="Trazado 210836" d="M1020.052,587.338a13.475,13.475,0,0,1-1.865.951L973.1,607.083a14.2,14.2,0,0,1-18.25-6.941l-.569-1.171.051-.321s4.3,6.954,12.382,7.324C974.636,606.328,1018.227,588.134,1020.052,587.338Z" transform="translate(-41.979 -109.929)" fill="#0f2771"/>
    <path id="Trazado_210837" data-name="Trazado 210837" d="M992.661,635.014c-1.278-.33-.919-1.417.76-2.032a13.277,13.277,0,0,1,4.144-.443C999.09,632.7,994.684,635.052,992.661,635.014Z" transform="translate(-64.507 -136.989)" fill="#fff"/>
    <path id="Trazado_210838" data-name="Trazado 210838" d="M1026.285,437.8c-2.159.343-1.648-5.115.035-6.524s1.788,2.275,1.439,4.156A3.069,3.069,0,0,1,1026.285,437.8Z" transform="translate(-84.248 -16.275)" fill="#fff" opacity="0.3" style="mix-blend-mode: soft-light;isolation: isolate"/>
    <path id="Trazado_210839" data-name="Trazado 210839" d="M929.043,436.95c-1.468,2.276,4.469.161,6.625,4.726s4.9,2.159,3.233-1.954S930.917,434.044,929.043,436.95Z" transform="translate(-26.726 -18.966)" fill="#fff" opacity="0.5" style="mix-blend-mode: soft-light;isolation: isolate"/>
    <path id="Trazado_210840" data-name="Trazado 210840" d="M953.567,426.728c-1.468,2.276,4.469.161,6.625,4.726s4.9,2.158,3.233-1.954S955.441,423.822,953.567,426.728Z" transform="translate(-41.414 -12.844)" fill="#fff" opacity="0.5" style="mix-blend-mode: soft-light;isolation: isolate"/>
    <path id="Trazado_210841" data-name="Trazado 210841" d="M977.9,416.587c-1.468,2.276,4.469.161,6.625,4.726s4.9,2.158,3.233-1.955S979.771,413.681,977.9,416.587Z" transform="translate(-55.985 -6.77)" fill="#fff" opacity="0.5" style="mix-blend-mode: soft-light;isolation: isolate"/>
    <path id="Trazado_210842" data-name="Trazado 210842" d="M1002.615,406.283c-1.468,2.276,4.468.161,6.625,4.726s4.9,2.158,3.233-1.954S1004.489,403.377,1002.615,406.283Z" transform="translate(-70.79 -0.599)" fill="#fff" opacity="0.5" style="mix-blend-mode: soft-light;isolation: isolate"/>
    <path id="Trazado_210843" data-name="Trazado 210843" d="M941.46,436.072c-1.1.123.9,2.359,1.894,2.448S943.285,435.868,941.46,436.072Z" transform="translate(-34.108 -19.327)" fill="#fff"/>
    <path id="Trazado_210844" data-name="Trazado 210844" d="M968.266,428.3c-.521-.036.386,1.357,1.052,1.282S968.787,428.333,968.266,428.3Z" transform="translate(-50.263 -14.676)" fill="#fff"/>
    <path id="Trazado_210845" data-name="Trazado 210845" d="M1014.953,405.319c-.993.49.58,2.321,1.969,2.5S1015.946,404.829,1014.953,405.319Z" transform="translate(-78.131 -0.884)" fill="#fff"/>
    <path id="Trazado_210846" data-name="Trazado 210846" d="M997.99,414.237c-.224.831,1.984,3.3,2.289,3.388s.3-2.515,2.661-3.45-2.966-2.077-3.862-1.614A2.5,2.5,0,0,0,997.99,414.237Z" transform="translate(-68.149 -5.188)" fill="#912774" opacity="0.5" style="mix-blend-mode: multiply;isolation: isolate"/>
    <path id="Trazado_210847" data-name="Trazado 210847" d="M972.366,424.929a15.262,15.262,0,0,0,2.433,2.518c.305.086.159-1.646,2.517-2.581s-2.966-2.077-3.862-1.614A2.5,2.5,0,0,0,972.366,424.929Z" transform="translate(-52.812 -11.591)" fill="#912774" opacity="0.5" style="mix-blend-mode: multiply;isolation: isolate"/>
    <path id="Trazado_210848" data-name="Trazado 210848" d="M948.006,435.083a15.3,15.3,0,0,0,2.433,2.518c.306.086.16-1.646,2.517-2.581s-2.966-2.077-3.861-1.614A2.5,2.5,0,0,0,948.006,435.083Z" transform="translate(-38.222 -17.673)" fill="#912774" opacity="0.5" style="mix-blend-mode: multiply;isolation: isolate"/>
    <path id="Trazado_210849" data-name="Trazado 210849" d="M923.825,445.162c-.038,4.615,2.127,2.432,2.433,2.518s.159-1.646,2.517-2.581-2.966-2.077-3.861-1.614A2.5,2.5,0,0,0,923.825,445.162Z" transform="translate(-23.739 -23.709)" fill="#912774" opacity="0.5" style="mix-blend-mode: multiply;isolation: isolate"/>
    <path id="Trazado_210850" data-name="Trazado 210850" d="M951.391,469.022c-2.159.342-1.648-5.115.035-6.524s1.788,2.275,1.439,4.156A3.069,3.069,0,0,1,951.391,469.022Z" transform="translate(-39.393 -34.972)" fill="#fff" opacity="0.5" style="mix-blend-mode: soft-light;isolation: isolate"/>
    <path id="Trazado_210851" data-name="Trazado 210851" d="M976.351,458.618c-2.159.342-1.648-5.115.035-6.524s1.788,2.275,1.439,4.156A3.069,3.069,0,0,1,976.351,458.618Z" transform="translate(-54.342 -28.741)" fill="#fff" opacity="0.5" style="mix-blend-mode: soft-light;isolation: isolate"/>
    <path id="Trazado_210852" data-name="Trazado 210852" d="M999.949,448.782c-2.159.343-1.648-5.114.035-6.524s1.788,2.275,1.44,4.156A3.068,3.068,0,0,1,999.949,448.782Z" transform="translate(-68.475 -22.85)" fill="#fff" opacity="0.3" style="mix-blend-mode: soft-light;isolation: isolate"/>
    <path id="Trazado_210853" data-name="Trazado 210853" d="M971.306,486.064c-.556-.325-.552-.377.452-.821s3.881.026,4.074.124-4.4.744-4.4.744Z" transform="translate(-51.954 -48.67)" fill="#0f2771" opacity="0.8" style="mix-blend-mode: multiply;isolation: isolate"/>
    <path id="Trazado_210854" data-name="Trazado 210854" d="M1006.228,471.182c-2.2,1.127,3.32-.631,4.494-1.057s3.11-1.111,3.11-1.111A50.445,50.445,0,0,0,1006.228,471.182Z" transform="translate(-72.785 -39.063)" fill="#0f2771" opacity="0.8" style="mix-blend-mode: multiply;isolation: isolate"/>
    <path id="Trazado_210855" data-name="Trazado 210855" d="M957.855,496.893c-.5-.1.871-.56,1.43-.7s1.5,1,1.527,1.084S957.855,496.893,957.855,496.893Z" transform="translate(-44.057 -55.33)" fill="#0f2771" opacity="0.8" style="mix-blend-mode: multiply;isolation: isolate"/>
    <path id="Trazado_210856" data-name="Trazado 210856" d="M924.455,485.219c.416.113-1.315-3.439-2.723-5.4s-6.2-8.507-6.2-8.507.258.7.63,1.634S924.455,485.219,924.455,485.219Z" transform="translate(-18.776 -40.44)" fill="#0f2771" opacity="0.8" style="mix-blend-mode: multiply;isolation: isolate"/>
    <path id="Trazado_210857" data-name="Trazado 210857" d="M1049.733,445.693c-.5.628,3.739-1.221,5.883-1.341a3.333,3.333,0,0,0,2.869-1.632S1051.227,444.82,1049.733,445.693Z" transform="translate(-99.123 -23.316)" fill="#0f2771" opacity="0.8" style="mix-blend-mode: multiply;isolation: isolate"/>
    <g id="Grupo_179499" data-name="Grupo 179499" transform="translate(928.775 455.384)" opacity="0.3" style="mix-blend-mode: multiply;isolation: isolate">
      <path id="Trazado_210858" data-name="Trazado 210858" d="M1084.712,543.945c-4.9-1.243,1.968-6.615,4.658-5.142S1091.034,545.548,1084.712,543.945Z" transform="translate(-1047.843 -536.093)" fill="#0f2771"/>
      <path id="Trazado_210859" data-name="Trazado 210859" d="M1093.841,533.634c-.007,1.234,2.4.944,2.165-.254A1.09,1.09,0,0,0,1093.841,533.634Z" transform="translate(-1054.34 -532.425)" fill="#0f2771"/>
      <path id="Trazado_210860" data-name="Trazado 210860" d="M995.566,579.445c-1.154,1.662,2.773,2.891,3.506.765S997.495,576.668,995.566,579.445Z" transform="translate(-995.355 -559.662)" fill="#0f2771"/>
    </g>
    <path id="Trazado_210861" data-name="Trazado 210861" d="M1039.068,572.454c-3.242-.67,17.079-12.145,23.866-17.672s5.9-9.054,7.924-13.433,7.845,5.034,4.143,12.589C1072.24,559.57,1039.068,572.454,1039.068,572.454Z" transform="translate(-92.552 -81.718)" fill="#fff" opacity="0.8" style="mix-blend-mode: soft-light;isolation: isolate"/>
    <path id="Trazado_210869" data-name="Trazado 210869" d="M1086.115,605.88c-.473-.036.818-1.756.818-1.756S1087.52,604.477,1086.115,605.88Z" transform="translate(-120.876 -119.983)" fill="#fff" style="mix-blend-mode: soft-light;isolation: isolate"/>
  </g>
</svg>
