<svg xmlns="http://www.w3.org/2000/svg" width="130" height="130" viewBox="0 0 130 130">
  <g id="Grupo_210468" data-name="Grupo 210468" transform="translate(-1048 -2549)">
    <g id="Grupo_210467" data-name="Grupo 210467">
      <g id="Grupo_210372" data-name="Grupo 210372" transform="translate(0 -4)">
        <circle id="Elipse_16195" data-name="Elipse 16195" cx="65" cy="65" r="65" transform="translate(1048 2553)" fill="#feca2e"/>
        <g id="Grupo_210351" data-name="Grupo 210351" transform="translate(1083 2574)">
          <path id="Trazado_221351" data-name="Trazado 221351" d="M561.287,160.978h-34.75a5.334,5.334,0,1,1,0-10.667h34.75a5.334,5.334,0,1,1,0,10.667Zm-34.75-7.721a2.388,2.388,0,0,0,0,4.777h34.75a2.388,2.388,0,1,0,0-4.777Z" transform="translate(-513.91 -150.311)" fill="#12263f"/>
          <path id="Trazado_221352" data-name="Trazado 221352" d="M561.287,193.108h-34.75a5.334,5.334,0,1,1,0-10.667h34.75a5.334,5.334,0,1,1,0,10.667Zm-34.75-7.723a2.39,2.39,0,0,0,0,4.779h34.75a2.39,2.39,0,0,0,0-4.779Z" transform="translate(-513.91 -104.335)" fill="#12263f"/>
          <path id="Trazado_221353" data-name="Trazado 221353" d="M559.015,226.815h-34.75a1.474,1.474,0,0,1-1.473-1.473v-9.466a29.549,29.549,0,0,1,5.03-16.526l3.807-5.679a6.327,6.327,0,0,0,0-7.04l-3.807-5.679a29.555,29.555,0,0,1-5.03-16.526v-9.469a1.472,1.472,0,0,1,1.473-1.471h34.75a1.47,1.47,0,0,1,1.473,1.471v9.469a29.576,29.576,0,0,1-5.027,16.526l-3.807,5.679a6.327,6.327,0,0,0,0,7.04l3.807,5.679a29.571,29.571,0,0,1,5.027,16.526v9.466A1.472,1.472,0,0,1,559.015,226.815Zm-33.277-2.944h31.807v-8a26.644,26.644,0,0,0-4.529-14.887l-3.807-5.676a9.262,9.262,0,0,1,0-10.319l3.807-5.681a26.636,26.636,0,0,0,4.529-14.885v-8H525.737v8a26.63,26.63,0,0,0,4.529,14.885l3.807,5.681a9.262,9.262,0,0,1,0,10.319l-3.807,5.676a26.637,26.637,0,0,0-4.529,14.887Z" transform="translate(-511.638 -145.765)" fill="#12263f"/>
          <path id="Trazado_221354" data-name="Trazado 221354" d="M524.3,163.313a1.471,1.471,0,0,1-.994-2.557,17.43,17.43,0,0,1,16.805-3.1,29.2,29.2,0,0,0,18.422-.124,1.473,1.473,0,0,1,.883,2.81,32.331,32.331,0,0,1-20.247.1,14.468,14.468,0,0,0-13.881,2.5A1.477,1.477,0,0,1,524.3,163.313Z" transform="translate(-511.592 -141.177)" fill="#12263f"/>
          <path id="Trazado_221355" data-name="Trazado 221355" d="M548.867,181.188a28.771,28.771,0,0,1-7.8-1.121c-9.653-2.71-15.9.722-15.964.759a1.472,1.472,0,1,1-1.447-2.565c.294-.168,7.39-4.067,18.208-1.028,9.529,2.681,15.492-.892,15.551-.929a1.473,1.473,0,0,1,1.563,2.5A20.057,20.057,0,0,1,548.867,181.188Z" transform="translate(-511.466 -113.44)" fill="#12263f"/>
          <path id="Trazado_221356" data-name="Trazado 221356" d="M530.238,170.345a1.472,1.472,0,0,1-1.473-1.471v-2.946a1.473,1.473,0,1,1,2.946,0v2.946A1.472,1.472,0,0,1,530.238,170.345Z" transform="translate(-503.089 -130.072)" fill="#12263f"/>
          <path id="Trazado_221357" data-name="Trazado 221357" d="M530.238,173.688a1.472,1.472,0,0,1-1.473-1.473v-3.6a1.473,1.473,0,1,1,2.946,0v3.6A1.472,1.472,0,0,1,530.238,173.688Z" transform="translate(-503.089 -126.221)" fill="#12263f"/>
          <path id="Trazado_221358" data-name="Trazado 221358" d="M530.238,176a1.472,1.472,0,0,1-1.473-1.473v-2.946a1.473,1.473,0,0,1,2.946,0v2.946A1.472,1.472,0,0,1,530.238,176Z" transform="translate(-503.089 -121.99)" fill="#12263f"/>
          <path id="Trazado_221359" data-name="Trazado 221359" d="M532.632,170.345a1.472,1.472,0,0,1-1.473-1.471v-2.946a1.473,1.473,0,1,1,2.946,0v2.946A1.472,1.472,0,0,1,532.632,170.345Z" transform="translate(-499.664 -130.072)" fill="#12263f"/>
          <path id="Trazado_221360" data-name="Trazado 221360" d="M532.632,173.688a1.472,1.472,0,0,1-1.473-1.473v-3.6a1.473,1.473,0,1,1,2.946,0v3.6A1.472,1.472,0,0,1,532.632,173.688Z" transform="translate(-499.664 -126.221)" fill="#12263f"/>
          <path id="Trazado_221361" data-name="Trazado 221361" d="M532.632,176a1.472,1.472,0,0,1-1.473-1.473v-2.946a1.473,1.473,0,1,1,2.946,0v2.946A1.472,1.472,0,0,1,532.632,176Z" transform="translate(-499.664 -121.99)" fill="#12263f"/>
          <path id="Trazado_221362" data-name="Trazado 221362" d="M576.93,188.562H519.676a1.472,1.472,0,1,1,0-2.944H576.93a1.472,1.472,0,1,1,0,2.944Z" transform="translate(-518.203 -99.788)" fill="#12263f"/>
        </g>
        <circle id="Elipse_16200" data-name="Elipse 16200" cx="18" cy="18" r="18" transform="translate(1048 2553)" fill="#0f2771"/>
        <path id="Trazado_221378" data-name="Trazado 221378" d="M-2.3-10.184H-.434a1.937,1.937,0,0,0,2.215-2.168,1.875,1.875,0,0,0-.527-1.377,2,2,0,0,0-1.488-.533A2.141,2.141,0,0,0-1.6-13.8a1.394,1.394,0,0,0-.58,1.137H-6.129a4.043,4.043,0,0,1,.75-2.4A4.953,4.953,0,0,1-3.3-16.717a7.112,7.112,0,0,1,2.924-.592,6.988,6.988,0,0,1,4.477,1.3A4.324,4.324,0,0,1,5.73-12.434a3.6,3.6,0,0,1-.674,2.08A4.8,4.8,0,0,1,3.094-8.766,4.587,4.587,0,0,1,5.227-7.271,3.935,3.935,0,0,1,6-4.793,4.4,4.4,0,0,1,4.242-1.137,7.3,7.3,0,0,1-.375.234,7.567,7.567,0,0,1-3.486-.4,4.875,4.875,0,0,1-5.66-2.174,4.6,4.6,0,0,1-6.4-4.746h3.973a1.778,1.778,0,0,0,.633,1.359,2.234,2.234,0,0,0,1.559.574,2.34,2.34,0,0,0,1.664-.58,1.939,1.939,0,0,0,.621-1.482A2.267,2.267,0,0,0,1.406-6.7,2.694,2.694,0,0,0-.375-7.242H-2.3Z" transform="translate(1066 2580)" fill="#fff"/>
      </g>
    </g>
  </g>
</svg>
