<svg xmlns="http://www.w3.org/2000/svg" width="390" height="251.507" viewBox="0 0 390 251.507">
  <g id="Grupo_210431" data-name="Grupo 210431" transform="translate(6605.329 8291.007)">
    <g id="Grupo_210430" data-name="Grupo 210430">
      <g id="Grupo_210429" data-name="Grupo 210429">
        <g id="Grupo_210428" data-name="Grupo 210428">
          <g id="Grupo_210427" data-name="Grupo 210427">
            <g id="Grupo_210426" data-name="Grupo 210426">
              <path id="Trazado_221432" data-name="Trazado 221432" d="M45,0A45,45,0,1,1,0,45,45,45,0,0,1,45,0Z" transform="translate(-6305.329 -8129.5)" fill="#0f2771"/>
              <path id="Trazado_221433" data-name="Trazado 221433" d="M-26.426-4.008V0H-28.77V-11.375h4.438a5.134,5.134,0,0,1,2.254.469,3.454,3.454,0,0,1,1.5,1.332,3.714,3.714,0,0,1,.523,1.965A3.266,3.266,0,0,1-21.2-4.973a4.767,4.767,0,0,1-3.168.965Zm0-1.9h2.094a2.059,2.059,0,0,0,1.418-.437,1.591,1.591,0,0,0,.488-1.25,1.876,1.876,0,0,0-.492-1.352,1.839,1.839,0,0,0-1.359-.531h-2.148Zm12.578-.43A6.134,6.134,0,0,0-14.66-6.4a1.654,1.654,0,0,0-1.68.867V0H-18.6V-8.453h2.133l.063,1.008A2.092,2.092,0,0,1-14.52-8.609a2.366,2.366,0,0,1,.7.1ZM-7.7-.859A2.831,2.831,0,0,1-10.012.156a2.67,2.67,0,0,1-2.074-.781,3.335,3.335,0,0,1-.73-2.289V-8.453h2.258v5.467q0,1.322,1.2,1.322a1.63,1.63,0,0,0,1.578-.8V-8.453h2.266V0H-7.637ZM.082.156A4.15,4.15,0,0,1-2.945-.984,4.054,4.054,0,0,1-4.113-4.023v-.219A5.106,5.106,0,0,1-3.621-6.52,3.612,3.612,0,0,1-2.227-8.066,3.914,3.914,0,0,1-.168-8.609a3.508,3.508,0,0,1,2.73,1.094,4.444,4.444,0,0,1,1,3.1v.922H-1.824a2.1,2.1,0,0,0,.66,1.328,2,2,0,0,0,1.395.5A2.437,2.437,0,0,0,2.27-2.609L3.379-1.367A3.389,3.389,0,0,1,2-.246,4.511,4.511,0,0,1,.082.156ZM-.176-6.789a1.411,1.411,0,0,0-1.09.455,2.357,2.357,0,0,0-.535,1.3H1.34v-.181A1.681,1.681,0,0,0,.934-6.377,1.456,1.456,0,0,0-.176-6.789ZM12.457-4.148A5.119,5.119,0,0,1,11.59-.98,2.872,2.872,0,0,1,9.168.156,2.639,2.639,0,0,1,6.973-.9l-.1.9H4.84V-12H7.1v4.3a2.571,2.571,0,0,1,2.055-.914,2.9,2.9,0,0,1,2.426,1.137,5.126,5.126,0,0,1,.879,3.2ZM10.2-4.312a3.363,3.363,0,0,0-.406-1.871,1.374,1.374,0,0,0-1.211-.59A1.489,1.489,0,0,0,7.1-5.891v3.336a1.509,1.509,0,0,0,1.5.891,1.394,1.394,0,0,0,1.438-1.078A5.562,5.562,0,0,0,10.2-4.312ZM18.746,0a2.507,2.507,0,0,1-.227-.758,2.732,2.732,0,0,1-2.133.914,3,3,0,0,1-2.059-.719,2.312,2.312,0,0,1-.816-1.812,2.389,2.389,0,0,1,1-2.062,4.915,4.915,0,0,1,2.879-.727h1.039v-.484a1.393,1.393,0,0,0-.3-.937,1.183,1.183,0,0,0-.949-.352,1.345,1.345,0,0,0-.895.273.929.929,0,0,0-.324.75H13.7a2.268,2.268,0,0,1,.453-1.359,3,3,0,0,1,1.281-.98,4.669,4.669,0,0,1,1.859-.355,3.689,3.689,0,0,1,2.48.785,2.747,2.747,0,0,1,.918,2.207v3.664a4.041,4.041,0,0,0,.336,1.82V0ZM16.879-1.57a1.945,1.945,0,0,0,.922-.223,1.462,1.462,0,0,0,.625-.6V-3.844h-.844q-1.7,0-1.8,1.172l-.008.133a.9.9,0,0,0,.3.7A1.153,1.153,0,0,0,16.879-1.57ZM27-2.336a.727.727,0,0,0-.41-.652,4.659,4.659,0,0,0-1.316-.426q-3.016-.633-3.016-2.562A2.323,2.323,0,0,1,23.2-7.855a3.766,3.766,0,0,1,2.441-.754,4.053,4.053,0,0,1,2.574.758,2.388,2.388,0,0,1,.965,1.969H26.918a1.092,1.092,0,0,0-.312-.8A1.322,1.322,0,0,0,25.629-7a1.351,1.351,0,0,0-.883.258.814.814,0,0,0-.312.656.7.7,0,0,0,.355.605,3.657,3.657,0,0,0,1.2.4A9.8,9.8,0,0,1,27.41-4.7,2.336,2.336,0,0,1,29.2-2.43a2.2,2.2,0,0,1-.992,1.871,4.28,4.28,0,0,1-2.562.715,4.47,4.47,0,0,1-1.887-.379,3.166,3.166,0,0,1-1.293-1.039A2.414,2.414,0,0,1,22-2.687h2.141a1.179,1.179,0,0,0,.445.922,1.766,1.766,0,0,0,1.109.32,1.635,1.635,0,0,0,.98-.246A.766.766,0,0,0,27-2.336Z" transform="translate(-6260.329 -8078.5)" fill="#fff"/>
              <path id="Trazado_221434" data-name="Trazado 221434" d="M6,0l6,7H0Z" transform="translate(-6414.595 -8272.248) rotate(-103)" fill="#636363"/>
              <path id="Trazado_221435" data-name="Trazado 221435" d="M-60.758-4.164h-1.867V0h-2.344V-11.375h4.227a4.778,4.778,0,0,1,3.109.9,3.1,3.1,0,0,1,1.094,2.539A3.5,3.5,0,0,1-57.043-6,3.437,3.437,0,0,1-58.57-4.758l2.461,4.648V0h-2.516Zm-1.867-1.9h1.891a1.936,1.936,0,0,0,1.367-.449,1.606,1.606,0,0,0,.484-1.238,1.719,1.719,0,0,0-.457-1.266,1.9,1.9,0,0,0-1.4-.461h-1.883ZM-51.016.156A4.15,4.15,0,0,1-54.043-.984a4.054,4.054,0,0,1-1.168-3.039v-.219a5.106,5.106,0,0,1,.492-2.277,3.612,3.612,0,0,1,1.395-1.547,3.914,3.914,0,0,1,2.059-.543,3.508,3.508,0,0,1,2.73,1.094,4.444,4.444,0,0,1,1,3.1v.922h-5.383a2.1,2.1,0,0,0,.66,1.328,2,2,0,0,0,1.395.5,2.437,2.437,0,0,0,2.039-.945l1.109,1.242A3.389,3.389,0,0,1-49.094-.246,4.511,4.511,0,0,1-51.016.156Zm-.258-6.945a1.411,1.411,0,0,0-1.09.455,2.357,2.357,0,0,0-.535,1.3h3.141v-.181a1.681,1.681,0,0,0-.406-1.165A1.456,1.456,0,0,0-51.273-6.789Zm7.719-3.742v2.078h1.445V-6.8h-1.445v4.219a1.007,1.007,0,0,0,.18.672.9.9,0,0,0,.688.2,3.6,3.6,0,0,0,.664-.055V-.047a4.648,4.648,0,0,1-1.367.2,2.156,2.156,0,0,1-2.422-2.4V-6.8h-1.234V-8.453h1.234v-2.078Zm7.453,4.2a6.134,6.134,0,0,0-.812-.062,1.654,1.654,0,0,0-1.68.867V0h-2.258V-8.453h2.133l.063,1.008a2.092,2.092,0,0,1,1.883-1.164,2.366,2.366,0,0,1,.7.1Zm.453,2.031a5.013,5.013,0,0,1,.484-2.242A3.546,3.546,0,0,1-33.77-8.07a4.069,4.069,0,0,1,2.113-.539,3.849,3.849,0,0,1,2.793,1.047,4.2,4.2,0,0,1,1.207,2.844l.016.578A4.418,4.418,0,0,1-28.727-1.02,3.775,3.775,0,0,1-31.641.156a3.793,3.793,0,0,1-2.918-1.172A4.5,4.5,0,0,1-35.648-4.2Zm2.258.16A3.16,3.16,0,0,0-32.937-2.3a1.5,1.5,0,0,0,1.3.638,1.5,1.5,0,0,0,1.281-.63A3.457,3.457,0,0,0-29.9-4.309a3.128,3.128,0,0,0-.461-1.831,1.5,1.5,0,0,0-1.3-.649,1.474,1.474,0,0,0-1.281.646A3.516,3.516,0,0,0-33.391-4.144ZM-21.352,0a2.507,2.507,0,0,1-.227-.758,2.732,2.732,0,0,1-2.133.914A3,3,0,0,1-25.77-.562a2.312,2.312,0,0,1-.816-1.812,2.389,2.389,0,0,1,1-2.062,4.915,4.915,0,0,1,2.879-.727h1.039v-.484a1.393,1.393,0,0,0-.3-.937,1.183,1.183,0,0,0-.949-.352,1.345,1.345,0,0,0-.895.273.929.929,0,0,0-.324.75H-26.4a2.268,2.268,0,0,1,.453-1.359,3,3,0,0,1,1.281-.98A4.669,4.669,0,0,1-22.8-8.609a3.689,3.689,0,0,1,2.48.785,2.747,2.747,0,0,1,.918,2.207v3.664a4.041,4.041,0,0,0,.336,1.82V0Zm-1.867-1.57a1.945,1.945,0,0,0,.922-.223,1.462,1.462,0,0,0,.625-.6V-3.844h-.844q-1.7,0-1.8,1.172l-.008.133a.9.9,0,0,0,.3.7A1.153,1.153,0,0,0-23.219-1.57ZM-15.289,0h-2.266V-12h2.266Zm4.242,0h-2.266V-8.453h2.266Zm-2.4-10.641a1.112,1.112,0,0,1,.34-.836,1.277,1.277,0,0,1,.926-.328,1.28,1.28,0,0,1,.922.328,1.105,1.105,0,0,1,.344.836,1.108,1.108,0,0,1-.348.844,1.283,1.283,0,0,1-.918.328A1.283,1.283,0,0,1-13.1-9.8,1.108,1.108,0,0,1-13.445-10.641ZM-7.07-8.453l.07.945a2.971,2.971,0,0,1,2.43-1.1A2.255,2.255,0,0,1-2.328-7.32,2.9,2.9,0,0,1,.211-8.609a2.521,2.521,0,0,1,2.047.8A3.681,3.681,0,0,1,2.93-5.4V0H.664V-5.391A1.61,1.61,0,0,0,.383-6.441a1.246,1.246,0,0,0-.992-.332A1.409,1.409,0,0,0-2.016-5.8L-2.008,0H-4.266V-5.383a1.59,1.59,0,0,0-.289-1.062,1.259,1.259,0,0,0-.984-.328,1.463,1.463,0,0,0-1.391.8V0H-9.187V-8.453ZM8.555.156A4.15,4.15,0,0,1,5.527-.984,4.054,4.054,0,0,1,4.359-4.023v-.219A5.106,5.106,0,0,1,4.852-6.52,3.612,3.612,0,0,1,6.246-8.066,3.914,3.914,0,0,1,8.3-8.609a3.508,3.508,0,0,1,2.73,1.094,4.444,4.444,0,0,1,1,3.1v.922H6.648a2.1,2.1,0,0,0,.66,1.328,2,2,0,0,0,1.395.5,2.437,2.437,0,0,0,2.039-.945l1.109,1.242A3.389,3.389,0,0,1,10.477-.246,4.511,4.511,0,0,1,8.555.156ZM8.3-6.789a1.411,1.411,0,0,0-1.09.455,2.357,2.357,0,0,0-.535,1.3H9.813v-.181a1.681,1.681,0,0,0-.406-1.165A1.456,1.456,0,0,0,8.3-6.789Zm7.094-1.664.07.977a2.951,2.951,0,0,1,2.43-1.133,2.453,2.453,0,0,1,2,.789,3.682,3.682,0,0,1,.672,2.359V0H18.3V-5.406a1.465,1.465,0,0,0-.312-1.043,1.4,1.4,0,0,0-1.039-.324,1.553,1.553,0,0,0-1.43.813V0H13.266V-8.453Zm9.586-2.078v2.078h1.445V-6.8H24.977v4.219a1.007,1.007,0,0,0,.18.672.9.9,0,0,0,.688.2,3.6,3.6,0,0,0,.664-.055V-.047a4.648,4.648,0,0,1-1.367.2,2.156,2.156,0,0,1-2.422-2.4V-6.8H21.484V-8.453h1.234v-2.078ZM32.578,0a2.507,2.507,0,0,1-.227-.758,2.732,2.732,0,0,1-2.133.914A3,3,0,0,1,28.16-.562a2.312,2.312,0,0,1-.816-1.812,2.389,2.389,0,0,1,1-2.062,4.915,4.915,0,0,1,2.879-.727h1.039v-.484a1.393,1.393,0,0,0-.3-.937,1.183,1.183,0,0,0-.949-.352,1.345,1.345,0,0,0-.895.273.929.929,0,0,0-.324.75H27.531a2.268,2.268,0,0,1,.453-1.359,3,3,0,0,1,1.281-.98,4.669,4.669,0,0,1,1.859-.355,3.689,3.689,0,0,1,2.48.785,2.747,2.747,0,0,1,.918,2.207v3.664a4.041,4.041,0,0,0,.336,1.82V0ZM30.711-1.57a1.945,1.945,0,0,0,.922-.223,1.462,1.462,0,0,0,.625-.6V-3.844h-.844q-1.7,0-1.8,1.172l-.008.133a.9.9,0,0,0,.3.7A1.153,1.153,0,0,0,30.711-1.57Zm9.063-.094a1.481,1.481,0,0,0,1.016-.344,1.2,1.2,0,0,0,.406-.914h2.117a2.9,2.9,0,0,1-.469,1.574A3.093,3.093,0,0,1,41.582-.238a3.949,3.949,0,0,1-1.77.395A3.67,3.67,0,0,1,36.953-1,4.56,4.56,0,0,1,35.906-4.18v-.148a4.508,4.508,0,0,1,1.039-3.117A3.627,3.627,0,0,1,39.8-8.609a3.555,3.555,0,0,1,2.543.9,3.2,3.2,0,0,1,.973,2.4H41.2a1.551,1.551,0,0,0-.406-1.072,1.354,1.354,0,0,0-1.031-.412,1.36,1.36,0,0,0-1.191.575,3.333,3.333,0,0,0-.4,1.866v.235a3.375,3.375,0,0,0,.4,1.878A1.377,1.377,0,0,0,39.773-1.664ZM46.984,0H44.719V-8.453h2.266Zm-2.4-10.641a1.112,1.112,0,0,1,.34-.836,1.277,1.277,0,0,1,.926-.328,1.28,1.28,0,0,1,.922.328,1.105,1.105,0,0,1,.344.836,1.108,1.108,0,0,1-.348.844,1.283,1.283,0,0,1-.918.328,1.283,1.283,0,0,1-.918-.328A1.108,1.108,0,0,1,44.586-10.641ZM48.492-4.3a5.013,5.013,0,0,1,.484-2.242A3.546,3.546,0,0,1,50.371-8.07a4.069,4.069,0,0,1,2.113-.539,3.849,3.849,0,0,1,2.793,1.047,4.2,4.2,0,0,1,1.207,2.844l.016.578A4.418,4.418,0,0,1,55.414-1.02,3.775,3.775,0,0,1,52.5.156a3.793,3.793,0,0,1-2.918-1.172A4.5,4.5,0,0,1,48.492-4.2Zm2.258.16A3.16,3.16,0,0,0,51.2-2.3a1.5,1.5,0,0,0,1.3.638,1.5,1.5,0,0,0,1.281-.63,3.457,3.457,0,0,0,.461-2.015,3.128,3.128,0,0,0-.461-1.831,1.5,1.5,0,0,0-1.3-.649,1.474,1.474,0,0,0-1.281.646A3.516,3.516,0,0,0,50.75-4.144ZM52.93-12h2.461L53.227-9.578H51.391Zm7.039,3.547.07.977a2.951,2.951,0,0,1,2.43-1.133,2.453,2.453,0,0,1,2,.789,3.682,3.682,0,0,1,.672,2.359V0H62.883V-5.406a1.465,1.465,0,0,0-.312-1.043,1.4,1.4,0,0,0-1.039-.324,1.553,1.553,0,0,0-1.43.813V0H57.844V-8.453Z" transform="translate(-6314.278 -8207.994)" fill="#12263f"/>
              <path id="Trazado_212542" data-name="Trazado 212542" d="M-7834-6778.334S-7798-6970-8024-6920" transform="translate(1613.671 -1360.166)" fill="none" stroke="#636363" stroke-linecap="round" stroke-width="5"/>
              <path id="Trazado_212543" data-name="Trazado 212543" d="M864,4875.666v31h51" transform="translate(-7430.329 -13064.375)" fill="none" stroke="#afa7a7" stroke-width="5"/>
              <path id="Trazado_212544" data-name="Trazado 212544" d="M864,4875.666v31h57.8" transform="translate(-7334.329 -13010.375)" fill="none" stroke="#afa7a7" stroke-width="5"/>
              <path id="Trazado_212545" data-name="Trazado 212545" d="M864,4875.666v31h57.8" transform="translate(-7233.329 -12965.666)" fill="none" stroke="#afa7a7" stroke-width="5"/>
              <path id="Trazado_221436" data-name="Trazado 221436" d="M45,0A45,45,0,1,1,0,45,45,45,0,0,1,45,0Z" transform="translate(-6605.329 -8274.5)" fill="#feca2e"/>
              <path id="Trazado_221437" data-name="Trazado 221437" d="M-21.117-2.344h-4.109L-26.008,0H-28.5l4.234-11.375h2.172L-17.836,0h-2.492Zm-3.477-1.9h2.844L-23.18-8.5Zm9.375-4.211.07.977a2.951,2.951,0,0,1,2.43-1.133,2.453,2.453,0,0,1,2,.789,3.682,3.682,0,0,1,.672,2.359V0H-12.3V-5.406a1.465,1.465,0,0,0-.312-1.043,1.4,1.4,0,0,0-1.039-.324,1.553,1.553,0,0,0-1.43.813V0h-2.258V-8.453ZM-3.437,0a2.507,2.507,0,0,1-.227-.758A2.732,2.732,0,0,1-5.8.156,3,3,0,0,1-7.855-.562a2.312,2.312,0,0,1-.816-1.812,2.389,2.389,0,0,1,1-2.062A4.915,4.915,0,0,1-4.8-5.164h1.039v-.484a1.393,1.393,0,0,0-.3-.937,1.183,1.183,0,0,0-.949-.352,1.345,1.345,0,0,0-.895.273.929.929,0,0,0-.324.75H-8.484a2.268,2.268,0,0,1,.453-1.359,3,3,0,0,1,1.281-.98,4.669,4.669,0,0,1,1.859-.355,3.689,3.689,0,0,1,2.48.785,2.747,2.747,0,0,1,.918,2.207v3.664a4.041,4.041,0,0,0,.336,1.82V0ZM-5.3-1.57a1.945,1.945,0,0,0,.922-.223,1.462,1.462,0,0,0,.625-.6V-3.844H-4.6q-1.7,0-1.8,1.172l-.008.133a.9.9,0,0,0,.3.7A1.153,1.153,0,0,0-5.3-1.57ZM-4.445-12h2.461L-4.148-9.578H-5.984ZM2.625,0H.359V-12H2.625ZM6.867,0H4.6V-8.453H6.867Zm-2.4-10.641a1.112,1.112,0,0,1,.34-.836,1.277,1.277,0,0,1,.926-.328,1.28,1.28,0,0,1,.922.328A1.105,1.105,0,0,1,7-10.641a1.108,1.108,0,0,1-.348.844,1.283,1.283,0,0,1-.918.328A1.283,1.283,0,0,1,4.816-9.8,1.108,1.108,0,0,1,4.469-10.641Zm8.836,8.3a.727.727,0,0,0-.41-.652,4.659,4.659,0,0,0-1.316-.426Q8.562-4.047,8.563-5.977A2.323,2.323,0,0,1,9.5-7.855a3.766,3.766,0,0,1,2.441-.754,4.053,4.053,0,0,1,2.574.758,2.388,2.388,0,0,1,.965,1.969H13.219a1.092,1.092,0,0,0-.312-.8A1.322,1.322,0,0,0,11.93-7a1.351,1.351,0,0,0-.883.258.814.814,0,0,0-.312.656.7.7,0,0,0,.355.605,3.657,3.657,0,0,0,1.2.4,9.8,9.8,0,0,1,1.422.379A2.336,2.336,0,0,1,15.5-2.43a2.2,2.2,0,0,1-.992,1.871,4.28,4.28,0,0,1-2.562.715,4.47,4.47,0,0,1-1.887-.379A3.166,3.166,0,0,1,8.766-1.262,2.414,2.414,0,0,1,8.3-2.687h2.141a1.179,1.179,0,0,0,.445.922,1.766,1.766,0,0,0,1.109.32,1.635,1.635,0,0,0,.98-.246A.766.766,0,0,0,13.3-2.336ZM19.336,0H17.07V-8.453h2.266Zm-2.4-10.641a1.112,1.112,0,0,1,.34-.836A1.277,1.277,0,0,1,18.2-11.8a1.28,1.28,0,0,1,.922.328,1.105,1.105,0,0,1,.344.836,1.108,1.108,0,0,1-.348.844,1.283,1.283,0,0,1-.918.328,1.283,1.283,0,0,1-.918-.328A1.108,1.108,0,0,1,16.938-10.641Zm8.836,8.3a.727.727,0,0,0-.41-.652,4.659,4.659,0,0,0-1.316-.426q-3.016-.633-3.016-2.562a2.323,2.323,0,0,1,.934-1.879,3.766,3.766,0,0,1,2.441-.754,4.053,4.053,0,0,1,2.574.758,2.388,2.388,0,0,1,.965,1.969H25.688a1.092,1.092,0,0,0-.312-.8A1.322,1.322,0,0,0,24.4-7a1.351,1.351,0,0,0-.883.258.814.814,0,0,0-.312.656.7.7,0,0,0,.355.605,3.657,3.657,0,0,0,1.2.4A9.8,9.8,0,0,1,26.18-4.7,2.336,2.336,0,0,1,27.969-2.43a2.2,2.2,0,0,1-.992,1.871,4.28,4.28,0,0,1-2.562.715,4.47,4.47,0,0,1-1.887-.379,3.166,3.166,0,0,1-1.293-1.039,2.414,2.414,0,0,1-.469-1.426h2.141a1.179,1.179,0,0,0,.445.922,1.766,1.766,0,0,0,1.109.32,1.635,1.635,0,0,0,.98-.246A.766.766,0,0,0,25.773-2.336Z" transform="translate(-6560.329 -8223.5)" fill="#12263f"/>
              <path id="Trazado_221438" data-name="Trazado 221438" d="M45,0A45,45,0,1,1,0,45,45,45,0,0,1,45,0Z" transform="translate(-6515.329 -8219.5)" fill="#bddcf6"/>
              <path id="Trazado_221439" data-name="Trazado 221439" d="M-23.746,0V-11.375h3.5a5.315,5.315,0,0,1,2.684.676,4.712,4.712,0,0,1,1.848,1.922,5.928,5.928,0,0,1,.664,2.832v.523A5.945,5.945,0,0,1-15.7-2.6a4.672,4.672,0,0,1-1.84,1.914A5.355,5.355,0,0,1-20.223,0ZM-21.4-9.477v7.594h1.133a2.545,2.545,0,0,0,2.1-.9,4.06,4.06,0,0,0,.742-2.57v-.6a4.124,4.124,0,0,0-.719-2.629,2.537,2.537,0,0,0-2.1-.895ZM-11.113,0h-2.266V-8.453h2.266Zm-2.4-10.641a1.112,1.112,0,0,1,.34-.836,1.277,1.277,0,0,1,.926-.328,1.28,1.28,0,0,1,.922.328,1.105,1.105,0,0,1,.344.836,1.108,1.108,0,0,1-.348.844,1.283,1.283,0,0,1-.918.328,1.283,1.283,0,0,1-.918-.328A1.108,1.108,0,0,1-13.512-10.641Zm8.836,8.3a.727.727,0,0,0-.41-.652A4.659,4.659,0,0,0-6.4-3.414q-3.016-.633-3.016-2.562a2.323,2.323,0,0,1,.934-1.879,3.766,3.766,0,0,1,2.441-.754,4.053,4.053,0,0,1,2.574.758A2.388,2.388,0,0,1-2.5-5.883H-4.762a1.092,1.092,0,0,0-.312-.8A1.322,1.322,0,0,0-6.051-7a1.351,1.351,0,0,0-.883.258.814.814,0,0,0-.312.656.7.7,0,0,0,.355.605,3.657,3.657,0,0,0,1.2.4A9.8,9.8,0,0,1-4.27-4.7,2.336,2.336,0,0,1-2.48-2.43,2.2,2.2,0,0,1-3.473-.559,4.28,4.28,0,0,1-6.035.156,4.47,4.47,0,0,1-7.922-.223,3.166,3.166,0,0,1-9.215-1.262a2.414,2.414,0,0,1-.469-1.426h2.141a1.179,1.179,0,0,0,.445.922,1.766,1.766,0,0,0,1.109.32,1.635,1.635,0,0,0,.98-.246A.766.766,0,0,0-4.676-2.336ZM2.863.156A4.15,4.15,0,0,1-.164-.984,4.054,4.054,0,0,1-1.332-4.023v-.219A5.106,5.106,0,0,1-.84-6.52,3.612,3.612,0,0,1,.555-8.066a3.914,3.914,0,0,1,2.059-.543,3.508,3.508,0,0,1,2.73,1.094,4.444,4.444,0,0,1,1,3.1v.922H.957a2.1,2.1,0,0,0,.66,1.328,2,2,0,0,0,1.395.5,2.437,2.437,0,0,0,2.039-.945L6.16-1.367A3.389,3.389,0,0,1,4.785-.246,4.511,4.511,0,0,1,2.863.156ZM2.605-6.789a1.411,1.411,0,0,0-1.09.455,2.357,2.357,0,0,0-.535,1.3H4.121v-.181a1.681,1.681,0,0,0-.406-1.165A1.456,1.456,0,0,0,2.605-6.789ZM9.7-8.453l.07.977A2.951,2.951,0,0,1,12.2-8.609a2.453,2.453,0,0,1,2,.789,3.682,3.682,0,0,1,.672,2.359V0H12.613V-5.406A1.465,1.465,0,0,0,12.3-6.449a1.4,1.4,0,0,0-1.039-.324,1.553,1.553,0,0,0-1.43.813V0H7.574V-8.453ZM14.184-11.9a2.187,2.187,0,0,1-.516,1.48,1.6,1.6,0,0,1-1.258.6,1.908,1.908,0,0,1-.527-.066,3.539,3.539,0,0,1-.637-.285,3.435,3.435,0,0,0-.586-.27,1.432,1.432,0,0,0-.391-.051.627.627,0,0,0-.465.2.759.759,0,0,0-.191.555L8.3-9.82A2.22,2.22,0,0,1,8.813-11.3a1.578,1.578,0,0,1,1.254-.609,1.614,1.614,0,0,1,.441.059,4.861,4.861,0,0,1,.676.285,4.392,4.392,0,0,0,.648.273,1.48,1.48,0,0,0,.375.047.659.659,0,0,0,.473-.191.728.728,0,0,0,.2-.551ZM16.23-4.3a5.013,5.013,0,0,1,.484-2.242A3.546,3.546,0,0,1,18.109-8.07a4.069,4.069,0,0,1,2.113-.539,3.849,3.849,0,0,1,2.793,1.047,4.2,4.2,0,0,1,1.207,2.844l.016.578A4.418,4.418,0,0,1,23.152-1.02,3.775,3.775,0,0,1,20.238.156,3.793,3.793,0,0,1,17.32-1.016,4.5,4.5,0,0,1,16.23-4.2Zm2.258.16A3.16,3.16,0,0,0,18.941-2.3a1.5,1.5,0,0,0,1.3.638,1.5,1.5,0,0,0,1.281-.63,3.457,3.457,0,0,0,.461-2.015A3.128,3.128,0,0,0,21.52-6.14a1.5,1.5,0,0,0-1.3-.649,1.474,1.474,0,0,0-1.281.646A3.516,3.516,0,0,0,18.488-4.144Z" transform="translate(-6470.329 -8168.5)" fill="#12263f"/>
              <path id="Trazado_221440" data-name="Trazado 221440" d="M45,0A45,45,0,1,1,0,45,45,45,0,0,1,45,0Z" transform="translate(-6410.329 -8174.5)" fill="#4dd0e1" opacity="0.9"/>
              <path id="Trazado_221441" data-name="Trazado 221441" d="M-35.895,0V-11.375h3.5a5.315,5.315,0,0,1,2.684.676,4.712,4.712,0,0,1,1.848,1.922A5.928,5.928,0,0,1-27.2-5.945v.523a5.945,5.945,0,0,1-.652,2.82,4.672,4.672,0,0,1-1.84,1.914A5.355,5.355,0,0,1-32.371,0Zm2.344-9.477v7.594h1.133a2.545,2.545,0,0,0,2.1-.9,4.06,4.06,0,0,0,.742-2.57v-.6a4.124,4.124,0,0,0-.719-2.629,2.537,2.537,0,0,0-2.1-.895Zm11.8,9.633A4.15,4.15,0,0,1-24.781-.984a4.054,4.054,0,0,1-1.168-3.039v-.219a5.106,5.106,0,0,1,.492-2.277,3.612,3.612,0,0,1,1.395-1.547A3.914,3.914,0,0,1-22-8.609a3.508,3.508,0,0,1,2.73,1.094,4.444,4.444,0,0,1,1,3.1v.922H-23.66A2.1,2.1,0,0,0-23-2.164a2,2,0,0,0,1.395.5,2.437,2.437,0,0,0,2.039-.945l1.109,1.242A3.389,3.389,0,0,1-19.832-.246,4.511,4.511,0,0,1-21.754.156Zm-.258-6.945a1.411,1.411,0,0,0-1.09.455,2.357,2.357,0,0,0-.535,1.3H-20.5v-.181A1.681,1.681,0,0,0-20.9-6.377,1.456,1.456,0,0,0-22.012-6.789Zm9.594,4.453a.727.727,0,0,0-.41-.652,4.659,4.659,0,0,0-1.316-.426q-3.016-.633-3.016-2.562a2.323,2.323,0,0,1,.934-1.879,3.766,3.766,0,0,1,2.441-.754,4.053,4.053,0,0,1,2.574.758,2.388,2.388,0,0,1,.965,1.969H-12.5a1.092,1.092,0,0,0-.312-.8A1.322,1.322,0,0,0-13.793-7a1.351,1.351,0,0,0-.883.258.814.814,0,0,0-.312.656.7.7,0,0,0,.355.605,3.657,3.657,0,0,0,1.2.4,9.8,9.8,0,0,1,1.422.379A2.336,2.336,0,0,1-10.223-2.43a2.2,2.2,0,0,1-.992,1.871,4.28,4.28,0,0,1-2.562.715,4.47,4.47,0,0,1-1.887-.379,3.166,3.166,0,0,1-1.293-1.039,2.414,2.414,0,0,1-.469-1.426h2.141a1.179,1.179,0,0,0,.445.922,1.766,1.766,0,0,0,1.109.32,1.635,1.635,0,0,0,.98-.246A.766.766,0,0,0-12.418-2.336ZM-3.871,0A2.507,2.507,0,0,1-4.1-.758,2.732,2.732,0,0,1-6.23.156,3,3,0,0,1-8.289-.562a2.312,2.312,0,0,1-.816-1.812,2.389,2.389,0,0,1,1-2.062A4.915,4.915,0,0,1-5.23-5.164h1.039v-.484a1.393,1.393,0,0,0-.3-.937,1.183,1.183,0,0,0-.949-.352,1.345,1.345,0,0,0-.895.273.929.929,0,0,0-.324.75H-8.918a2.268,2.268,0,0,1,.453-1.359,3,3,0,0,1,1.281-.98,4.669,4.669,0,0,1,1.859-.355,3.689,3.689,0,0,1,2.48.785,2.747,2.747,0,0,1,.918,2.207v3.664A4.041,4.041,0,0,0-1.59-.133V0ZM-5.738-1.57a1.945,1.945,0,0,0,.922-.223,1.462,1.462,0,0,0,.625-.6V-3.844h-.844q-1.7,0-1.8,1.172l-.008.133a.9.9,0,0,0,.3.7A1.153,1.153,0,0,0-5.738-1.57Zm10.3-4.766A6.134,6.134,0,0,0,3.746-6.4a1.654,1.654,0,0,0-1.68.867V0H-.191V-8.453H1.941L2-7.445A2.092,2.092,0,0,1,3.887-8.609a2.366,2.366,0,0,1,.7.1Zm5.836,0A6.134,6.134,0,0,0,9.582-6.4a1.654,1.654,0,0,0-1.68.867V0H5.645V-8.453H7.777L7.84-7.445A2.092,2.092,0,0,1,9.723-8.609a2.366,2.366,0,0,1,.7.1ZM10.848-4.3a5.013,5.013,0,0,1,.484-2.242A3.546,3.546,0,0,1,12.727-8.07a4.069,4.069,0,0,1,2.113-.539,3.849,3.849,0,0,1,2.793,1.047A4.2,4.2,0,0,1,18.84-4.719l.016.578A4.418,4.418,0,0,1,17.77-1.02,3.775,3.775,0,0,1,14.855.156a3.793,3.793,0,0,1-2.918-1.172A4.5,4.5,0,0,1,10.848-4.2Zm2.258.16A3.16,3.16,0,0,0,13.559-2.3a1.5,1.5,0,0,0,1.3.638,1.5,1.5,0,0,0,1.281-.63A3.457,3.457,0,0,0,16.6-4.309a3.128,3.128,0,0,0-.461-1.831,1.5,1.5,0,0,0-1.3-.649,1.474,1.474,0,0,0-1.281.646A3.516,3.516,0,0,0,13.105-4.144ZM22.629,0H20.363V-12h2.266Zm4.242,0H24.605V-12h2.266Zm1.508-4.3a5.013,5.013,0,0,1,.484-2.242A3.546,3.546,0,0,1,30.258-8.07a4.069,4.069,0,0,1,2.113-.539,3.849,3.849,0,0,1,2.793,1.047,4.2,4.2,0,0,1,1.207,2.844l.016.578A4.418,4.418,0,0,1,35.3-1.02,3.775,3.775,0,0,1,32.387.156a3.793,3.793,0,0,1-2.918-1.172A4.5,4.5,0,0,1,28.379-4.2Zm2.258.16A3.16,3.16,0,0,0,31.09-2.3a1.5,1.5,0,0,0,1.3.638,1.5,1.5,0,0,0,1.281-.63,3.457,3.457,0,0,0,.461-2.015,3.128,3.128,0,0,0-.461-1.831,1.5,1.5,0,0,0-1.3-.649,1.474,1.474,0,0,0-1.281.646A3.516,3.516,0,0,0,30.637-4.144Z" transform="translate(-6365.329 -8123.5)" fill="#12263f"/>
              <path id="Trazado_221442" data-name="Trazado 221442" d="M6,0l6,7H0Z" transform="translate(-6511.725 -8163.647) rotate(91)" fill="#afa7a7"/>
              <path id="Trazado_221443" data-name="Trazado 221443" d="M6,0l6,7H0Z" transform="translate(-6406.725 -8109.647) rotate(91)" fill="#afa7a7"/>
              <path id="Trazado_221444" data-name="Trazado 221444" d="M6,0l6,7H0Z" transform="translate(-6305.329 -8064.938) rotate(91)" fill="#afa7a7"/>
            </g>
          </g>
        </g>
      </g>
    </g>
  </g>
</svg>
