<svg xmlns="http://www.w3.org/2000/svg" width="610" height="609" viewBox="0 0 610 609">
  <g id="Grupo_210412" data-name="Grupo 210412" transform="translate(-495 -922)">
    <g id="Grupo_210411" data-name="Grupo 210411">
      <g id="Grupo_210410" data-name="Grupo 210410">
        <g id="Grupo_210409" data-name="Grupo 210409">
          <g id="Grupo_210408" data-name="Grupo 210408">
            <g id="Grupo_210407" data-name="Grupo 210407">
              <g id="Grupo_210406" data-name="Grupo 210406">
                <path id="Trazado_221397" data-name="Trazado 221397" d="M0,0H610V609H0Z" transform="translate(495 922)" fill="none"/>
                <g id="Grupo_180276" data-name="Grupo 180276" transform="translate(513.304 997.812)" opacity="0.5" style="mix-blend-mode: multiply;isolation: isolate">
                  <path id="Trazado_211086" data-name="Trazado 211086" d="M120.736,428.51q-.3-.144-.591-.289c5.274-8.094,13.366-9.314,22.474-7.524,19.225,3.78,35.074,17.362,53.2,24.9a89.688,89.688,0,0,0,53.771,4.652c12.05-2.7,23.511-7.842,34.605-13.547a367.985,367.985,0,0,0,95.756-71.22c11.98-12.372,23.508-25.89,38.582-33.677s35.1-8.233,46.585,4.217c7.693,8.339,10.077,20.74,9.609,32.419-.489,12.227-3.709,24.236-8.029,35.681-16.09,42.622-48.482,78.748-88.651,97.2s-87.655,18.661-126.854-.568c-25.327-12.424-46.8-32.276-72.488-43.887A127.974,127.974,0,0,0,139.225,446.2c-5.265-.545-10.851-.863-15.187-3.968S117.046,432.552,120.736,428.51Z" transform="translate(1.033 17.615)" fill="#bddcf6" opacity="0.4"/>
                  <path id="Trazado_211092" data-name="Trazado 211092" d="M141.737,77.579a11.375,11.375,0,1,1-11.323-11.547A11.424,11.424,0,0,1,141.737,77.579Z" transform="translate(1.032 -50.348)" fill="#d8eae0"/>
                  <path id="Trazado_211093" data-name="Trazado 211093" d="M561.522,239a79.167,79.167,0,0,0-15.252-4.487A117.534,117.534,0,0,0,558,194.434C562.831,144.218,528.449,90.91,486.78,68.9S399,50.994,359.1,66.276c-25.156,9.633-59.555,24.837-79.984,47.553a212.4,212.4,0,0,0-53.562-7.1C114.612,106.164,24.3,190.56,23.823,295.228S112.9,485.2,223.843,485.764c108.512.55,197.278-80.186,201.552-181.668a96.691,96.691,0,0,0,14.392,2.233q-.428,3.857-.646,7.721c-.449,8.068-.267,16.4,2.686,23.913,4.156,10.577,13.223,18.2,22.3,24.76,35.011,25.293,106.45,47.761,129.1-5.989C610.328,316.14,606.051,257.294,561.522,239Z" transform="translate(-23.822 -53.595)" fill="#bddcf6" opacity="0.4"/>
                </g>
                <g id="Grupo_180369" data-name="Grupo 180369" transform="translate(514.529 1113.379)">
                  <path id="Trazado_211094" data-name="Trazado 211094" d="M480.709,335.879a191.419,191.419,0,1,1-382.839,0c0-105.723,85.709-191.419,191.419-191.419S480.709,230.156,480.709,335.879Z" transform="translate(-5.703 -144.46)" fill="#bddcf6" opacity="0.4"/>
                  <g id="Grupo_180341" data-name="Grupo 180341" transform="translate(0 37.739)">
                    <g id="Grupo_180277" data-name="Grupo 180277" transform="translate(255.159 163.336)">
                      <path id="Trazado_211095" data-name="Trazado 211095" d="M275.148,342.884a80.042,80.042,0,0,1-48.038,4.389l7.365-38.5a51.651,51.651,0,0,1,30.381-4.162l.416,1.539,4.4,16.4Z" transform="translate(-227.11 -303.896)" fill="#e2af81" fill-rule="evenodd"/>
                      <path id="Trazado_211096" data-name="Trazado 211096" d="M267.82,322.075,234.21,311c11.754,3.468,29.209-5.322,29.209-5.322Z" transform="translate(-225.256 -303.431)" fill="#d2d5d8" fill-rule="evenodd" style="mix-blend-mode: multiply;isolation: isolate"/>
                    </g>
                    <g id="Grupo_180284" data-name="Grupo 180284" transform="translate(222.891 49.466)">
                      <g id="Grupo_180278" data-name="Grupo 180278" transform="translate(71.558 0.377)">
                        <ellipse id="Elipse_5577" data-name="Elipse 5577" cx="29.735" cy="30.994" rx="29.735" ry="30.994" fill="#614027"/>
                      </g>
                      <path id="Trazado_211097" data-name="Trazado 211097" d="M207.861,250.148c-3.568,17.974-8.105,64.136,14.256,76.4,21.794,11.955,60.976,6.875,68.933-22.026,8.441-30.655,9.09-56.249-12.6-72.391C255.936,215.384,214.254,217.934,207.861,250.148Z" transform="translate(-200.643 -211.426)" fill="#e2af81" fill-rule="evenodd"/>
                      <path id="Trazado_211098" data-name="Trazado 211098" d="M276.641,232.383s-11.823,22.175-37.72,25.89c0,0,13.487-6.046,16.665-12.7,0,0-18.717,13.558-41.723,19.118,0,0,9.157-5,11.185-8.626,2.095-3.743-12.987,9.3-23.524,10.163,0,0,1.18-43.883,40.211-51.5C245.467,214,273.313,208.219,276.641,232.383Z" transform="translate(-201.524 -213.607)" fill="#614027" fill-rule="evenodd"/>
                      <path id="Trazado_211099" data-name="Trazado 211099" d="M261.176,226.962c-8.885,8.193,4.751,66.973,19.012,61.8C288.136,285.88,292.868,228.716,261.176,226.962Z" transform="translate(-186.683 -210.119)" fill="#614027" fill-rule="evenodd"/>
                      <path id="Trazado_211100" data-name="Trazado 211100" d="M205.908,254.514s-11.979,43.776,4.968,90.4c0,0-8.872-56.653-3.97-90.789Z" transform="translate(-201.452 -203.024)" fill="#614027" fill-rule="evenodd"/>
                      <path id="Trazado_211101" data-name="Trazado 211101" d="M259.376,245.2l6.148,101.385S272.22,271.887,259.376,245.2Z" transform="translate(-186.415 -205.355)" fill="#614027" fill-rule="evenodd"/>
                      <g id="Grupo_180279" data-name="Grupo 180279" transform="translate(84.661 66.717)">
                        <ellipse id="Elipse_5578" data-name="Elipse 5578" cx="12.235" cy="12.669" rx="12.235" ry="12.669" fill="#e2af81"/>
                      </g>
                      <path id="Trazado_211102" data-name="Trazado 211102" d="M283.13,271.238c.076-.068-.486.039-.515.049a6.049,6.049,0,0,0-.927.45,13.432,13.432,0,0,0-2.468,1.966,18.792,18.792,0,0,0-4.631,8.175" transform="translate(-182.442 -198.561)" fill="none" stroke="#e2af81" stroke-linecap="round" stroke-linejoin="round" stroke-width="1" fill-rule="evenodd" style="mix-blend-mode: multiply;isolation: isolate"/>
                      <path id="Trazado_211103" data-name="Trazado 211103" d="M277.538,274.4c-.154-.289.37.54.512.832a14.711,14.711,0,0,1,.789,1.967,16.417,16.417,0,0,1,.607,5.938" transform="translate(-181.679 -197.745)" fill="none" stroke="#e2af81" stroke-linecap="round" stroke-linejoin="round" stroke-width="1" fill-rule="evenodd" style="mix-blend-mode: multiply;isolation: isolate"/>
                      <path id="Trazado_211104" data-name="Trazado 211104" d="M234.71,249.493c.117.515.2,1.037.284,1.559a30.641,30.641,0,0,1,.33,4.623,80.422,80.422,0,0,1-.9,10.611,27.38,27.38,0,0,1-.614,4.425c-.214.686-.675-.313-.853-.564a9.534,9.534,0,0,0-2.93-2.933,5.71,5.71,0,0,0-7.17,1.477c-2.558,3.147-2.023,9.263,1.725,11.33a4.516,4.516,0,0,0,2.725.531c.19-.028,1.37-.547,1.444-.361.817,2.072-.025,5.929-.568,7.966-.106.4-1.348,2.58-1.218,2.812,1,1.807,4.048,2.759,5.872,3.123a15.471,15.471,0,0,0,16.191-6.6" transform="translate(-196.363 -204.234)" fill="none" stroke="#272525" stroke-linecap="round" stroke-linejoin="round" stroke-width="1" fill-rule="evenodd"/>
                      <path id="Trazado_211105" data-name="Trazado 211105" d="M240.006,251.432c-.151-.081.309-.15.467-.208.28-.1.561-.2.848-.274a10.752,10.752,0,0,1,2.814-.356,13.543,13.543,0,0,1,8.042,2.513" transform="translate(-191.482 -203.947)" fill="none" stroke="#272525" stroke-linecap="round" stroke-linejoin="round" stroke-width="1" fill-rule="evenodd"/>
                      <path id="Trazado_211106" data-name="Trazado 211106" d="M213.93,253.108a13.549,13.549,0,0,1,8.044-2.513,10.753,10.753,0,0,1,2.814.356c.286.077.568.173.848.274.158.058.618.127.465.208" transform="translate(-198.284 -203.947)" fill="none" stroke="#272525" stroke-linecap="round" stroke-linejoin="round" stroke-width="1" fill-rule="evenodd"/>
                      <g id="Grupo_180280" data-name="Grupo 180280" transform="translate(50.327 54.938)">
                        <path id="Trazado_211107" data-name="Trazado 211107" d="M244.166,257.168a3.346,3.346,0,1,1-2.737,3.289A3.052,3.052,0,0,1,244.166,257.168Z" transform="translate(-241.429 -257.168)" fill="#272525" fill-rule="evenodd"/>
                      </g>
                      <g id="Grupo_180281" data-name="Grupo 180281" transform="translate(19.687 54.003)">
                        <ellipse id="Elipse_5579" data-name="Elipse 5579" cx="2.737" cy="3.289" rx="2.737" ry="3.289" fill="#272525"/>
                      </g>
                      <g id="Grupo_180282" data-name="Grupo 180282" transform="translate(41.204 37.977)">
                        <path id="Trazado_211108" data-name="Trazado 211108" d="M264.464,247.321c-4.485-4.8-22.421-4.8-26.906,0s-4.483,24.006,0,28.807,22.421,4.8,26.906,0S268.949,252.122,264.464,247.321Z" transform="translate(-234.196 -243.719)" fill="none" stroke="#272525" stroke-linecap="round" stroke-linejoin="round" stroke-width="1" fill-rule="evenodd"/>
                      </g>
                      <g id="Grupo_180283" data-name="Grupo 180283" transform="translate(4.791 38.632)">
                        <path id="Trazado_211109" data-name="Trazado 211109" d="M233.259,247.329c-4.507-3.69-20.693-4.53-24.832,0s-4.138,22.648,0,27.178c2.734,2.993,18.7,9.464,17.3,3.047-1.714-7.822,5.279-12.594,9.754-8.08C238.161,272.181,237.768,251.02,233.259,247.329Z" transform="translate(-205.323 -244.238)" fill="none" stroke="#272525" stroke-linecap="round" stroke-linejoin="round" stroke-width="1" fill-rule="evenodd"/>
                      </g>
                      <path id="Trazado_211110" data-name="Trazado 211110" d="M230.024,255.281s3.189-2.468,5.487-.01" transform="translate(-194.081 -203.01)" fill="none" stroke="#272525" stroke-linecap="round" stroke-linejoin="round" stroke-width="1" fill-rule="evenodd"/>
                      <path id="Trazado_211111" data-name="Trazado 211111" d="M263.841,222.943s-26.568-16.466-50.178,11.841C213.663,234.784,239.746,217.129,263.841,222.943Z" transform="translate(-198.354 -212.412)" fill="#fff" fill-rule="evenodd" opacity="0.48"/>
                      <path id="Trazado_211112" data-name="Trazado 211112" d="M269.551,226.581s12.05-18.812,33.519-1.342C303.07,225.239,283.233,213.766,269.551,226.581Z" transform="translate(-183.758 -212.509)" fill="#fff" fill-rule="evenodd" opacity="0.48"/>
                    </g>
                    <g id="Grupo_180306" data-name="Grupo 180306" transform="translate(202.793 183.407)">
                      <path id="Trazado_211113" data-name="Trazado 211113" d="M366.517,452.366a191.727,191.727,0,0,1-179.325,11.149q-.624-5.032-1.009-9.976C181.24,388.425,208.72,335.33,208.72,335.33c57.244,7.63,107.4-12.17,107.4-12.17s.013.038.025.05c8.425,14.983,16.521,33.27,23.71,51.481,1.955,4.931,3.846,9.862,5.65,14.718C355.6,416.562,363.263,441.457,366.517,452.366Z" transform="translate(-185.588 -318.936)" fill="#0f2771" fill-rule="evenodd"/>
                      <path id="Trazado_211114" data-name="Trazado 211114" d="M222.061,338.6l2.735-14.063,53.722-4.731,2.633,12.073C262.558,337.486,243.788,338.422,222.061,338.6Z" transform="translate(-176.063 -319.811)" fill="#0f2771" fill-rule="evenodd"/>
                      <path id="Trazado_211115" data-name="Trazado 211115" d="M228.266,323.766l-1.059,13.276" transform="translate(-174.719 -318.778)" fill="#0f2771" stroke="#0f2771" stroke-linecap="round" stroke-linejoin="round" stroke-width="1" style="mix-blend-mode: multiply;isolation: isolate"/>
                      <g id="Grupo_180285" data-name="Grupo 180285" transform="translate(62.752 3.901)">
                        <path id="Trazado_211116" data-name="Trazado 211116" d="M235.345,322.9l.241,13.317" transform="translate(-235.345 -322.904)" fill="#0f2771" stroke="#0f2771" stroke-linecap="round" stroke-linejoin="round" stroke-width="1" style="mix-blend-mode: multiply;isolation: isolate"/>
                      </g>
                      <g id="Grupo_180286" data-name="Grupo 180286" transform="translate(72.444 3.178)">
                        <path id="Trazado_211117" data-name="Trazado 211117" d="M243.03,322.331l.7,13.3" transform="translate(-243.03 -322.331)" fill="#0f2771" stroke="#0f2771" stroke-linecap="round" stroke-linejoin="round" stroke-width="1" style="mix-blend-mode: multiply;isolation: isolate"/>
                      </g>
                      <g id="Grupo_180287" data-name="Grupo 180287" transform="translate(82.537 1.856)">
                        <path id="Trazado_211118" data-name="Trazado 211118" d="M251.033,321.283l.457,13.31" transform="translate(-251.033 -321.283)" fill="#0f2771" stroke="#0f2771" stroke-linecap="round" stroke-linejoin="round" stroke-width="1" style="mix-blend-mode: multiply;isolation: isolate"/>
                      </g>
                      <g id="Grupo_180288" data-name="Grupo 180288" transform="translate(91.269 1.249)">
                        <path id="Trazado_211119" data-name="Trazado 211119" d="M257.957,320.8l1.085,13.275" transform="translate(-257.957 -320.801)" fill="#0f2771" stroke="#0f2771" stroke-linecap="round" stroke-linejoin="round" stroke-width="1" style="mix-blend-mode: multiply;isolation: isolate"/>
                      </g>
                      <g id="Grupo_180289" data-name="Grupo 180289" transform="translate(100.382 0.324)">
                        <path id="Trazado_211120" data-name="Trazado 211120" d="M265.183,320.068l1.593,11.912" transform="translate(-265.183 -320.068)" fill="#0f2771" stroke="#0f2771" stroke-linecap="round" stroke-linejoin="round" stroke-width="1" style="mix-blend-mode: multiply;isolation: isolate"/>
                      </g>
                      <path id="Trazado_211121" data-name="Trazado 211121" d="M204.817,359.284l7.054-8.771" transform="translate(-180.566 -311.793)" fill="none" stroke="#eace88" stroke-linecap="round" stroke-linejoin="round" stroke-width="2"/>
                      <g id="Grupo_180290" data-name="Grupo 180290" transform="translate(58.03 45.268)">
                        <path id="Trazado_211122" data-name="Trazado 211122" d="M231.6,355.7l8.322,7.578" transform="translate(-231.601 -355.705)" fill="none" stroke="#eace88" stroke-linecap="round" stroke-linejoin="round" stroke-width="2"/>
                      </g>
                      <g id="Grupo_180291" data-name="Grupo 180291" transform="translate(50.097 79.12)">
                        <path id="Trazado_211123" data-name="Trazado 211123" d="M233.388,382.547l-8.077,7.841" transform="translate(-225.311 -382.547)" fill="none" stroke="#eace88" stroke-linecap="round" stroke-linejoin="round" stroke-width="2"/>
                      </g>
                      <g id="Grupo_180292" data-name="Grupo 180292" transform="translate(17.048 68.64)">
                        <path id="Trazado_211124" data-name="Trazado 211124" d="M206.435,382.78l-7.329-8.543" transform="translate(-199.106 -374.237)" fill="none" stroke="#eace88" stroke-linecap="round" stroke-linejoin="round" stroke-width="2"/>
                      </g>
                      <g id="Grupo_180293" data-name="Grupo 180293" transform="translate(94.134 32.107)">
                        <path id="Trazado_211125" data-name="Trazado 211125" d="M260.229,352.059l8.977-6.79" transform="translate(-260.229 -345.269)" fill="none" stroke="#eace88" stroke-linecap="round" stroke-linejoin="round" stroke-width="2"/>
                      </g>
                      <g id="Grupo_180294" data-name="Grupo 180294" transform="translate(107.669 108.094)">
                        <path id="Trazado_211126" data-name="Trazado 211126" d="M270.961,405.521l6.226,9.378" transform="translate(-270.961 -405.521)" fill="none" stroke="#eace88" stroke-linecap="round" stroke-linejoin="round" stroke-width="2"/>
                      </g>
                      <g id="Grupo_180295" data-name="Grupo 180295" transform="translate(35.407 115.833)">
                        <path id="Trazado_211127" data-name="Trazado 211127" d="M217.357,411.657l-3.694,10.632" transform="translate(-213.663 -411.657)" fill="none" stroke="#eace88" stroke-linecap="round" stroke-linejoin="round" stroke-width="2"/>
                      </g>
                      <g id="Grupo_180296" data-name="Grupo 180296" transform="translate(11.445 141.033)">
                        <path id="Trazado_211128" data-name="Trazado 211128" d="M204.4,431.639l-9.741,5.637" transform="translate(-194.663 -431.639)" fill="none" stroke="#eace88" stroke-linecap="round" stroke-linejoin="round" stroke-width="2"/>
                      </g>
                      <g id="Grupo_180297" data-name="Grupo 180297" transform="translate(15.396 104.335)">
                        <path id="Trazado_211129" data-name="Trazado 211129" d="M207.538,402.54l-9.742,5.637" transform="translate(-197.796 -402.54)" fill="none" stroke="#eace88" stroke-linecap="round" stroke-linejoin="round" stroke-width="2"/>
                      </g>
                      <g id="Grupo_180298" data-name="Grupo 180298" transform="translate(123.16 51.806)">
                        <path id="Trazado_211130" data-name="Trazado 211130" d="M288.272,370.959l-5.028-10.07" transform="translate(-283.244 -360.889)" fill="none" stroke="#eace88" stroke-linecap="round" stroke-linejoin="round" stroke-width="2"/>
                      </g>
                      <g id="Grupo_180299" data-name="Grupo 180299" transform="translate(122.233 21.777)">
                        <path id="Trazado_211131" data-name="Trazado 211131" d="M287.537,347.148l-5.028-10.07" transform="translate(-282.509 -337.078)" fill="none" stroke="#eace88" stroke-linecap="round" stroke-linejoin="round" stroke-width="2"/>
                      </g>
                      <g id="Grupo_180300" data-name="Grupo 180300" transform="translate(145.281 93.636)">
                        <path id="Trazado_211132" data-name="Trazado 211132" d="M300.784,398.457l10.36-4.4" transform="translate(-300.784 -394.057)" fill="none" stroke="#eace88" stroke-linecap="round" stroke-linejoin="round" stroke-width="2"/>
                      </g>
                      <g id="Grupo_180301" data-name="Grupo 180301" transform="translate(68.341 143.46)">
                        <path id="Trazado_211133" data-name="Trazado 211133" d="M239.777,433.563l3.756,10.611" transform="translate(-239.777 -433.563)" fill="none" stroke="#eace88" stroke-linecap="round" stroke-linejoin="round" stroke-width="2"/>
                      </g>
                      <g id="Grupo_180302" data-name="Grupo 180302" transform="translate(103.433 139.249)">
                        <path id="Trazado_211134" data-name="Trazado 211134" d="M273.378,430.224l-5.776,9.662" transform="translate(-267.602 -430.224)" fill="none" stroke="#eace88" stroke-linecap="round" stroke-linejoin="round" stroke-width="2"/>
                      </g>
                      <g id="Grupo_180303" data-name="Grupo 180303" transform="translate(146.618 117.45)">
                        <path id="Trazado_211135" data-name="Trazado 211135" d="M301.844,412.939l.023,11.255" transform="translate(-301.844 -412.939)" fill="none" stroke="#eace88" stroke-linecap="round" stroke-linejoin="round" stroke-width="2"/>
                      </g>
                      <g id="Grupo_180304" data-name="Grupo 180304" transform="translate(89.638 81.296)">
                        <path id="Trazado_211136" data-name="Trazado 211136" d="M267.486,384.272l-10.822,3.1" transform="translate(-256.664 -384.272)" fill="none" stroke="#eace88" stroke-linecap="round" stroke-linejoin="round" stroke-width="2"/>
                      </g>
                      <g id="Grupo_180305" data-name="Grupo 180305" transform="translate(70.247 110.337)">
                        <path id="Trazado_211137" data-name="Trazado 211137" d="M252.11,407.3l-10.822,3.1" transform="translate(-241.288 -407.299)" fill="none" stroke="#eace88" stroke-linecap="round" stroke-linejoin="round" stroke-width="2"/>
                      </g>
                    </g>
                    <g id="Grupo_180323" data-name="Grupo 180323" transform="translate(332.292)">
                      <g id="Grupo_180308" data-name="Grupo 180308" transform="translate(182.603)">
                        <path id="Trazado_211138" data-name="Trazado 211138" d="M437.536,226.949l4.371-26.826c-11.255-12.96-9.083-14.476-7.735-13.9,2.766,1.183,9.712,9.137,13.885,9.276,5.4.178,34.053-19.519,35.417-16.705,1.512,3.118-20.34,14.761-20.34,14.761s22.078-10.661,23.006-8.933c1.811,3.374-28.723,19.224-28.723,19.224l1.516,26.587Z" transform="translate(-433.06 -173.304)" fill="#e2af81" fill-rule="evenodd"/>
                        <g id="Grupo_180307" data-name="Grupo 180307" transform="translate(15.099)">
                          <path id="Trazado_211139" data-name="Trazado 211139" d="M445.032,197.391s18.579-17.434,23-20.449c7.805-5.325,6.592-1.042,4.555,1.216C459.423,192.742,450.466,199.809,445.032,197.391Z" transform="translate(-445.032 -174.384)" fill="#e2af81" fill-rule="evenodd"/>
                        </g>
                      </g>
                      <g id="Grupo_180314" data-name="Grupo 180314" transform="translate(0 144.704)">
                        <path id="Trazado_211140" data-name="Trazado 211140" d="M445.335,325.743a15.815,15.815,0,0,1-1.223,1.728c-15.828,19.485-113.366,65.215-125.423,70.827-.795.378-1.223.568-1.223.568s-3.165-6.016-7.453-14.705c-7.453-15.058-18.274-38.138-21.742-51.67,0,0,.366-.139,1.059-.391,9.534-3.519,81.017-29.789,118.184-40.193,1.4-.391,2.749-.757,4.036-1.1,18.148-4.818,34.682.984,38.226,13.6C451.4,310.206,450.292,317.432,445.335,325.743Z" transform="translate(-288.27 -289.123)" fill="#0f2771" fill-rule="evenodd"/>
                        <g id="Grupo_180309" data-name="Grupo 180309" transform="translate(51.809 40.447)">
                          <path id="Trazado_211141" data-name="Trazado 211141" d="M340.172,321.194l-10.822,3.095" transform="translate(-329.35 -321.194)" fill="none" stroke="#eace88" stroke-linecap="round" stroke-linejoin="round" stroke-width="2"/>
                        </g>
                        <g id="Grupo_180310" data-name="Grupo 180310" transform="translate(45.441 71.276)">
                          <path id="Trazado_211142" data-name="Trazado 211142" d="M330.023,345.639l-5.722,9.695" transform="translate(-324.301 -345.639)" fill="none" stroke="#eace88" stroke-linecap="round" stroke-linejoin="round" stroke-width="2"/>
                        </g>
                        <g id="Grupo_180311" data-name="Grupo 180311" transform="translate(23.171 52.992)">
                          <path id="Trazado_211143" data-name="Trazado 211143" d="M309.9,341.916l-3.255-10.775" transform="translate(-306.643 -331.141)" fill="none" stroke="#eace88" stroke-linecap="round" stroke-linejoin="round" stroke-width="2"/>
                        </g>
                        <g id="Grupo_180312" data-name="Grupo 180312" transform="translate(79.291 56.835)">
                          <path id="Trazado_211144" data-name="Trazado 211144" d="M351.141,334.188l1.569,11.146" transform="translate(-351.141 -334.188)" fill="none" stroke="#eace88" stroke-linecap="round" stroke-linejoin="round" stroke-width="2"/>
                        </g>
                        <g id="Grupo_180313" data-name="Grupo 180313" transform="translate(83.144 24.737)">
                          <path id="Trazado_211145" data-name="Trazado 211145" d="M354.2,308.748l11.256-.011" transform="translate(-354.196 -308.737)" fill="none" stroke="#eace88" stroke-linecap="round" stroke-linejoin="round" stroke-width="2"/>
                        </g>
                      </g>
                      <g id="Grupo_180322" data-name="Grupo 180322" transform="translate(117.924 49.42)">
                        <path id="Trazado_211146" data-name="Trazado 211146" d="M477.66,220.431c-7.554,46.512-29.335,86.566-57.988,126.861l-.1-.088-8.7-8.021L382.24,312.824c.24-.391.479-.794.731-1.186,13.557-21.919,38.856-50.119,60.385-98.068Z" transform="translate(-381.652 -213.57)" fill="#0f2771" fill-rule="evenodd"/>
                        <path id="Trazado_211147" data-name="Trazado 211147" d="M418.25,238.485s20.491,15.983,41.442,10.039" transform="translate(-372.248 -207.063)" fill="none" stroke="#0f2771" stroke-linecap="round" stroke-linejoin="round" stroke-width="1" fill-rule="evenodd" style="mix-blend-mode: multiply;isolation: isolate"/>
                        <path id="Trazado_211148" data-name="Trazado 211148" d="M438.055,214.994l-14.429,33.978" transform="translate(-370.844 -213.198)" fill="none" stroke="#0f2771" stroke-linecap="round" stroke-linejoin="round" stroke-width="1" style="mix-blend-mode: multiply;isolation: isolate"/>
                        <path id="Trazado_211149" data-name="Trazado 211149" d="M445.469,216.456l-13.7,36.831" transform="translate(-368.718 -212.816)" fill="none" stroke="#0f2771" stroke-linecap="round" stroke-linejoin="round" stroke-width="1" style="mix-blend-mode: multiply;isolation: isolate"/>
                        <g id="Grupo_180315" data-name="Grupo 180315" transform="translate(73.359 5.093)">
                          <path id="Trazado_211150" data-name="Trazado 211150" d="M451.243,217.608l-11.3,37.767" transform="translate(-439.942 -217.608)" fill="none" stroke="#0f2771" stroke-linecap="round" stroke-linejoin="round" stroke-width="1" style="mix-blend-mode: multiply;isolation: isolate"/>
                        </g>
                        <path id="Trazado_211151" data-name="Trazado 211151" d="M457.128,218.574s-6.455,28.2-10.021,36.222" transform="translate(-364.711 -212.263)" fill="none" stroke="#0f2771" stroke-linecap="round" stroke-linejoin="round" stroke-width="1" fill-rule="evenodd" style="mix-blend-mode: multiply;isolation: isolate"/>
                        <g id="Grupo_180316" data-name="Grupo 180316" transform="translate(18.979 120.014)">
                          <path id="Trazado_211152" data-name="Trazado 211152" d="M396.823,308.744l11.256-.013" transform="translate(-396.823 -308.731)" fill="none" stroke="#eace88" stroke-linecap="round" stroke-linejoin="round" stroke-width="2"/>
                        </g>
                        <g id="Grupo_180317" data-name="Grupo 180317" transform="translate(41.379 51.139)">
                          <path id="Trazado_211153" data-name="Trazado 211153" d="M414.584,254.13l11.256-.011" transform="translate(-414.584 -254.119)" fill="none" stroke="#eace88" stroke-linecap="round" stroke-linejoin="round" stroke-width="2"/>
                        </g>
                        <g id="Grupo_180318" data-name="Grupo 180318" transform="translate(45.784 89.032)">
                          <path id="Trazado_211154" data-name="Trazado 211154" d="M418.077,284.176l11.256-.011" transform="translate(-418.077 -284.165)" fill="none" stroke="#eace88" stroke-linecap="round" stroke-linejoin="round" stroke-width="2"/>
                        </g>
                        <g id="Grupo_180319" data-name="Grupo 180319" transform="translate(60.492 60.39)">
                          <path id="Trazado_211155" data-name="Trazado 211155" d="M429.739,272.379l2.706-10.925" transform="translate(-429.739 -261.454)" fill="none" stroke="#eace88" stroke-linecap="round" stroke-linejoin="round" stroke-width="2"/>
                        </g>
                        <g id="Grupo_180320" data-name="Grupo 180320" transform="translate(25.747 74.313)">
                          <path id="Trazado_211156" data-name="Trazado 211156" d="M402.189,279.235l9.014-6.741" transform="translate(-402.189 -272.494)" fill="none" stroke="#eace88" stroke-linecap="round" stroke-linejoin="round" stroke-width="2"/>
                        </g>
                        <g id="Grupo_180321" data-name="Grupo 180321" transform="translate(0 125.229)">
                          <path id="Trazado_211157" data-name="Trazado 211157" d="M381.774,312.866l.329,11.251" transform="translate(-381.774 -312.866)" fill="none" stroke="#eace88" stroke-linecap="round" stroke-linejoin="round" stroke-width="2"/>
                        </g>
                      </g>
                      <path id="Trazado_211158" data-name="Trazado 211158" d="M321.917,321.37s62.346-26.8,75.489-26.5C397.406,294.867,348.632,314.141,321.917,321.37Z" transform="translate(-279.483 -142.919)" fill="#fff" fill-rule="evenodd"/>
                    </g>
                    <g id="Grupo_180340" data-name="Grupo 180340" transform="translate(0 12.782)">
                      <g id="Grupo_180325" data-name="Grupo 180325">
                        <path id="Trazado_211159" data-name="Trazado 211159" d="M52.073,240.568l1.517-26.587s-30.535-15.849-28.723-19.224c.928-1.728,23.006,8.933,23.006,8.933s-21.852-11.643-20.34-14.761c1.365-2.814,30.013,16.884,35.417,16.705,4.172-.137,11.12-8.093,13.885-9.276,1.348-.576,3.52.938-7.735,13.9l4.371,26.827Z" transform="translate(-24.789 -183.439)" fill="#e2af81" fill-rule="evenodd"/>
                        <g id="Grupo_180324" data-name="Grupo 180324" transform="translate(8.984)">
                          <path id="Trazado_211160" data-name="Trazado 211160" d="M33.438,188.295c-2.037-2.259-3.25-6.542,4.555-1.217,4.417,3.014,23,20.449,23,20.449C55.555,209.945,46.6,202.878,33.438,188.295Z" transform="translate(-31.913 -184.519)" fill="#e2af81" fill-rule="evenodd"/>
                        </g>
                      </g>
                      <g id="Grupo_180331" data-name="Grupo 180331" transform="translate(73.551 144.706)">
                        <path id="Trazado_211161" data-name="Trazado 211161" d="M245.321,342.619c-5.473,21.326-29.2,66.375-29.2,66.375a1.267,1.267,0,0,1-.189-.088c-.126-.05-.315-.139-.555-.252-.29-.126-.605-.29-.946-.454-13.885-6.457-109.356-51.355-124.969-70.6a15.517,15.517,0,0,1-1.211-1.715c-5.574-9.333-6.293-17.3-3.72-23.407,4.692-11.174,20.38-16.08,37.507-11.527,1.286.34,2.636.706,4.036,1.1C165.956,313.209,245.321,342.619,245.321,342.619Z" transform="translate(-83.109 -299.259)" fill="#0f2771" fill-rule="evenodd"/>
                        <g id="Grupo_180326" data-name="Grupo 180326" transform="translate(99.581 40.445)">
                          <path id="Trazado_211162" data-name="Trazado 211162" d="M172.891,334.425l-10.822-3.1" transform="translate(-162.069 -331.329)" fill="none" stroke="#eace88" stroke-linecap="round" stroke-linejoin="round" stroke-width="2"/>
                        </g>
                        <g id="Grupo_180327" data-name="Grupo 180327" transform="translate(111.049 71.276)">
                          <path id="Trazado_211163" data-name="Trazado 211163" d="M176.884,365.468l-5.722-9.693" transform="translate(-171.162 -355.775)" fill="none" stroke="#eace88" stroke-linecap="round" stroke-linejoin="round" stroke-width="2"/>
                        </g>
                        <g id="Grupo_180328" data-name="Grupo 180328" transform="translate(135.785 52.99)">
                          <path id="Trazado_211164" data-name="Trazado 211164" d="M194.031,341.276l-3.255,10.775" transform="translate(-190.776 -341.276)" fill="none" stroke="#eace88" stroke-linecap="round" stroke-linejoin="round" stroke-width="2"/>
                        </g>
                        <g id="Grupo_180329" data-name="Grupo 180329" transform="translate(81.352 56.833)">
                          <path id="Trazado_211165" data-name="Trazado 211165" d="M147.615,355.469l1.569-11.146" transform="translate(-147.615 -344.323)" fill="none" stroke="#eace88" stroke-linecap="round" stroke-linejoin="round" stroke-width="2"/>
                        </g>
                        <g id="Grupo_180330" data-name="Grupo 180330" transform="translate(67.812 24.735)">
                          <path id="Trazado_211166" data-name="Trazado 211166" d="M136.879,318.872l11.256.011" transform="translate(-136.879 -318.872)" fill="none" stroke="#eace88" stroke-linecap="round" stroke-linejoin="round" stroke-width="2"/>
                        </g>
                      </g>
                      <g id="Grupo_180339" data-name="Grupo 180339" transform="translate(21.831 49.414)">
                        <path id="Trazado_211167" data-name="Trazado 211167" d="M137.507,322.954,113.141,345.39l-12.965,11.943-.088.088c-19.51-27.43-35.83-54.747-46.638-84.057v-.013A228.382,228.382,0,0,1,42.1,230.573L76.4,223.7c21.528,47.962,46.84,76.174,60.385,98.081Z" transform="translate(-42.1 -223.7)" fill="#0f2771" fill-rule="evenodd"/>
                        <path id="Trazado_211168" data-name="Trazado 211168" d="M48.89,258.659C69.84,264.6,90.332,248.62,90.332,248.62" transform="translate(-40.327 -217.192)" fill="none" stroke="#0f2771" stroke-linecap="round" stroke-linejoin="round" stroke-width="1" fill-rule="evenodd" style="mix-blend-mode: multiply;isolation: isolate"/>
                        <path id="Trazado_211169" data-name="Trazado 211169" d="M79.362,259.107,64.933,225.129" transform="translate(-36.137 -223.327)" fill="none" stroke="#0f2771" stroke-linecap="round" stroke-linejoin="round" stroke-width="1" style="mix-blend-mode: multiply;isolation: isolate"/>
                        <path id="Trazado_211170" data-name="Trazado 211170" d="M71.073,263.423l-13.7-36.831" transform="translate(-38.112 -222.945)" fill="none" stroke="#0f2771" stroke-linecap="round" stroke-linejoin="round" stroke-width="1" style="mix-blend-mode: multiply;isolation: isolate"/>
                        <g id="Grupo_180332" data-name="Grupo 180332" transform="translate(11.347 5.099)">
                          <path id="Trazado_211171" data-name="Trazado 211171" d="M62.4,265.51,51.1,227.743" transform="translate(-51.097 -227.743)" fill="none" stroke="#0f2771" stroke-linecap="round" stroke-linejoin="round" stroke-width="1" style="mix-blend-mode: multiply;isolation: isolate"/>
                        </g>
                        <path id="Trazado_211172" data-name="Trazado 211172" d="M54.968,264.931c-3.567-8.017-10.021-36.222-10.021-36.222" transform="translate(-41.356 -222.392)" fill="none" stroke="#0f2771" stroke-linecap="round" stroke-linejoin="round" stroke-width="1" fill-rule="evenodd" style="mix-blend-mode: multiply;isolation: isolate"/>
                        <g id="Grupo_180333" data-name="Grupo 180333" transform="translate(65.772 120.021)">
                          <path id="Trazado_211173" data-name="Trazado 211173" d="M94.252,318.867l11.256.011" transform="translate(-94.252 -318.867)" fill="none" stroke="#eace88" stroke-linecap="round" stroke-linejoin="round" stroke-width="2"/>
                        </g>
                        <g id="Grupo_180334" data-name="Grupo 180334" transform="translate(43.373 51.145)">
                          <path id="Trazado_211174" data-name="Trazado 211174" d="M76.491,264.254l11.256.013" transform="translate(-76.491 -264.254)" fill="none" stroke="#eace88" stroke-linecap="round" stroke-linejoin="round" stroke-width="2"/>
                        </g>
                        <g id="Grupo_180335" data-name="Grupo 180335" transform="translate(38.967 89.038)">
                          <path id="Trazado_211175" data-name="Trazado 211175" d="M73,294.3l11.256.011" transform="translate(-72.998 -294.3)" fill="none" stroke="#eace88" stroke-linecap="round" stroke-linejoin="round" stroke-width="2"/>
                        </g>
                        <g id="Grupo_180336" data-name="Grupo 180336" transform="translate(32.809 60.396)">
                          <path id="Trazado_211176" data-name="Trazado 211176" d="M68.115,271.589l2.706,10.926" transform="translate(-68.115 -271.589)" fill="none" stroke="#eace88" stroke-linecap="round" stroke-linejoin="round" stroke-width="2"/>
                        </g>
                        <g id="Grupo_180337" data-name="Grupo 180337" transform="translate(61.246 74.32)">
                          <path id="Trazado_211177" data-name="Trazado 211177" d="M90.663,282.63l9.015,6.741" transform="translate(-90.663 -282.63)" fill="none" stroke="#eace88" stroke-linecap="round" stroke-linejoin="round" stroke-width="2"/>
                        </g>
                        <g id="Grupo_180338" data-name="Grupo 180338" transform="translate(95.678 125.235)">
                          <path id="Trazado_211178" data-name="Trazado 211178" d="M117.965,334.252,118.294,323" transform="translate(-117.965 -323.001)" fill="none" stroke="#eace88" stroke-linecap="round" stroke-linejoin="round" stroke-width="2"/>
                        </g>
                      </g>
                    </g>
                    <line id="Línea_450" data-name="Línea 450" x1="4.401" y1="16.395" transform="translate(293.323 165.586)" fill="#e2af81"/>
                    <path id="Trazado_211179" data-name="Trazado 211179" d="M528.895,219.01c-7.554,46.512-29.335,86.566-57.988,126.861l-.1-.088C454.978,365.267,357.44,411,345.383,416.609c10.089,27.153,17.757,52.048,21.011,62.957a191.727,191.727,0,0,1-179.325,11.149q-.624-5.032-1.009-9.976c97.11,2.182,147.329-77.763,147.329-77.763,1.072-.126,2.182-.29,3.317-.5.984-.164,1.993-.366,3.027-.58,38.73-8.525,105.761-52.855,122.371-64.13,2.459-1.665,3.809-2.611,3.809-2.611,2.762-1.69,6.407-6.167,10.556-12.435C496.722,292.145,528.895,219.01,528.895,219.01Z" transform="translate(17.329 -162.729)" fill="#d2d5d8" fill-rule="evenodd" style="mix-blend-mode: multiply;isolation: isolate"/>
                    <path id="Trazado_211180" data-name="Trazado 211180" d="M222.795,417.648c-13.885-6.457-109.356-51.355-124.969-70.6l-.088.088c-19.51-27.43-35.83-54.747-46.638-84.057,0,0,21.213,37.671,41.795,58.846,6.23,6.407,12.4,11.3,17.9,13.179a15.442,15.442,0,0,0,3.355.769S203.108,407.357,222.795,417.648Z" transform="translate(-17.918 -151.22)" fill="#d2d5d8" fill-rule="evenodd" style="mix-blend-mode: multiply;isolation: isolate"/>
                  </g>
                </g>
                <g id="Grupo_180356" data-name="Grupo 180356" transform="translate(509 922)">
                  <g id="Grupo_180351" data-name="Grupo 180351" transform="translate(0 100.221)">
                    <circle id="Elipse_5583" data-name="Elipse 5583" cx="45.88" cy="45.88" r="45.88" transform="translate(0 64.884) rotate(-45)" fill="#feca2e"/>
                    <path id="Trazado_211192" data-name="Trazado 211192" d="M111.326,181.519a16.766,16.766,0,0,0,4.13-10.957c0-9.437-8.282-17.366-19.066-18.54a16.014,16.014,0,0,0,.347-3.3C96.737,138.4,86.941,130,74.9,130s-21.84,8.4-21.84,18.719a16.691,16.691,0,0,0,3.551,10.218l-3.483,9.171a1.038,1.038,0,0,0,1.389,1.322l9.823-4.319a23.841,23.841,0,0,0,7.784,2.146,16.044,16.044,0,0,0-.344,3.3c0,10.321,9.8,18.719,21.838,18.719a24.872,24.872,0,0,0,9.71-1.949l10.649,4.97a1.04,1.04,0,0,0,1.4-1.352Zm-47.381-18.5-7.992,3.514,2.807-7.4a1.042,1.042,0,0,0-.168-1.028,14.718,14.718,0,0,1-3.453-9.377c0-9.174,8.862-16.639,19.759-16.639s19.759,7.465,19.759,16.639a13.97,13.97,0,0,1-.564,3.925c-2.14,7.486-10.039,12.714-19.195,12.714-.469,0-.929-.009-1.418-.049a21.962,21.962,0,0,1-8.65-2.273A1.041,1.041,0,0,0,63.945,163.017Zm39.835,22.233a1.04,1.04,0,0,0-.869-.005,22.729,22.729,0,0,1-9.295,1.956c-10.9,0-19.759-7.465-19.759-16.64a14.036,14.036,0,0,1,.356-3.128c.227.009.455.009.685.009.619,0,1.235-.023,1.843-.067.208-.015.406-.045.612-.064.4-.039.8-.074,1.193-.13.242-.037.478-.086.718-.127.348-.061.7-.116,1.039-.192.255-.054.5-.125.753-.188.319-.081.641-.155.955-.247.256-.076.5-.164.757-.247.3-.1.6-.194.892-.3.252-.095.5-.2.747-.305.28-.115.561-.23.832-.353.247-.115.487-.241.728-.362.262-.131.525-.261.779-.4s.472-.275.7-.415.489-.293.728-.448.45-.311.672-.468.453-.322.672-.491.425-.343.633-.52.416-.349.618-.531.395-.373.589-.564.382-.377.564-.571.362-.4.537-.607.344-.4.508-.61.324-.428.482-.646.312-.43.451-.651.285-.448.416-.677.267-.458.392-.694.241-.465.354-.7.227-.489.332-.738.2-.479.286-.728c.045-.125.1-.243.145-.37,9.906.936,17.545,8.065,17.545,16.535a14.806,14.806,0,0,1-4.034,10.064,1.042,1.042,0,0,0-.187,1.11l3.231,7.529Z" transform="translate(-21.704 -98.058)" fill="#0f2771"/>
                  </g>
                  <circle id="Elipse_5584" data-name="Elipse 5584" cx="22.647" cy="22.647" r="22.647" transform="translate(59.662 47.154)" fill="#e8e8e8"/>
                  <circle id="Elipse_5585" data-name="Elipse 5585" cx="9.329" cy="9.329" r="9.329" transform="translate(167.181 128.54)" fill="#f5f5f5"/>
                  <circle id="Elipse_5588" data-name="Elipse 5588" cx="36.913" cy="36.913" r="36.913" transform="translate(106.534 268.174) rotate(-80.697)" fill="#afafaf"/>
                  <path id="Trazado_211194" data-name="Trazado 211194" d="M53.354,47.247a6.119,6.119,0,1,1-6.119-6.119A6.119,6.119,0,0,1,53.354,47.247Z" transform="translate(-24.823 -21.048)" fill="#f5f5f5"/>
                  <line id="Línea_451" data-name="Línea 451" x2="37.406" y2="25.937" transform="translate(26.357 30.872)" fill="none" stroke="#567562" stroke-linecap="round" stroke-linejoin="round" stroke-width="1" stroke-dasharray="7"/>
                  <line id="Línea_452" data-name="Línea 452" y1="92.098" x2="43.28" transform="translate(105.901 52.454)" fill="none" stroke="#567562" stroke-linecap="round" stroke-linejoin="round" stroke-width="1" stroke-dasharray="7"/>
                  <line id="Línea_453" data-name="Línea 453" x2="24.699" transform="translate(167.181 36.426)" fill="none" stroke="#567562" stroke-linecap="round" stroke-linejoin="round" stroke-width="1" stroke-dasharray="7"/>
                  <line id="Línea_454" data-name="Línea 454" x1="45.215" y2="73.364" transform="translate(181.1 56.389)" fill="none" stroke="#567562" stroke-linecap="round" stroke-linejoin="round" stroke-width="1" stroke-dasharray="7"/>
                  <line id="Línea_455" data-name="Línea 455" x1="14.142" y2="55.782" transform="translate(158.145 146.179)" fill="none" stroke="#567562" stroke-linecap="round" stroke-linejoin="round" stroke-width="1" stroke-dasharray="7"/>
                  <line id="Línea_456" data-name="Línea 456" y1="60.771" x2="44.831" transform="translate(185.842 172.848)" fill="none" stroke="#567562" stroke-linecap="round" stroke-linejoin="round" stroke-width="1" stroke-dasharray="7"/>
                  <line id="Línea_458" data-name="Línea 458" y1="60.243" x2="30.122" transform="translate(301.133 64.162)" fill="none" stroke="#567562" stroke-linecap="round" stroke-linejoin="round" stroke-width="1" stroke-dasharray="7"/>
                  <path id="Trazado_211196" data-name="Trazado 211196" d="M29.7-1.089-62.282,25.47" transform="translate(374.266 106.547)" fill="none" stroke="#567562" stroke-linecap="round" stroke-width="1" stroke-dasharray="7"/>
                  <path id="Trazado_211200" data-name="Trazado 211200" d="M5.087,26.244H-62.282" transform="translate(348.354 139.133)" fill="none" stroke="#567562" stroke-linecap="round" stroke-width="1" stroke-dasharray="7"/>
                  <line id="Línea_462" data-name="Línea 462" y1="26.235" x2="78.705" transform="translate(207.853 52.502)" fill="none" stroke="#567562" stroke-linecap="round" stroke-linejoin="round" stroke-width="1" stroke-dasharray="7"/>
                  <path id="Trazado_211198" data-name="Trazado 211198" d="M26.541-13.087,45.326,32.9" transform="translate(457.104 128.91)" fill="none" stroke="#567562" stroke-linecap="round" stroke-width="1" stroke-dasharray="7"/>
                  <path id="Trazado_211199" data-name="Trazado 211199" d="M13.208-45.087,54.665-24.358" transform="translate(416.024 129.816)" fill="none" stroke="#567562" stroke-linecap="round" stroke-width="1" stroke-dasharray="7"/>
                  <path id="Trazado_211197" data-name="Trazado 211197" d="M71.533,20.079-28.873-11.661" transform="translate(389.439 181.897)" fill="none" stroke="#567562" stroke-linecap="round" stroke-width="1" stroke-dasharray="7"/>
                  <line id="Línea_466" data-name="Línea 466" x2="22.021" y2="92.653" transform="translate(20.95 32.134)" fill="none" stroke="#567562" stroke-linecap="round" stroke-linejoin="round" stroke-width="1" stroke-dasharray="7"/>
                  <line id="Línea_467" data-name="Línea 467" y1="12.581" x2="48.255" transform="translate(98.433 41.321)" fill="none" stroke="#567562" stroke-linecap="round" stroke-linejoin="round" stroke-width="1" stroke-dasharray="7"/>
                  <g id="Grupo_180346" data-name="Grupo 180346" transform="translate(139.959 3.688)">
                    <circle id="Elipse_5580" data-name="Elipse 5580" cx="45.88" cy="45.88" r="45.88" fill="#feca2e"/>
                    <g id="Grupo_180345" data-name="Grupo 180345" transform="translate(10.111 21.242)">
                      <g id="Grupo_180344" data-name="Grupo 180344">
                        <g id="Grupo_180343" data-name="Grupo 180343">
                          <path id="Trazado_211181" data-name="Trazado 211181" d="M203.784,59.661a9.417,9.417,0,0,0-1.6,1.4,11.14,11.14,0,0,0-3.063-.43,11.293,11.293,0,0,0-11.2,9.788,11.32,11.32,0,0,0-6,17.425,11.15,11.15,0,0,0-.771,4.085,11.237,11.237,0,0,0,12.806,11.21c.092-.011.184-.028.276-.042a11.309,11.309,0,0,0,1.449-.32,11.293,11.293,0,0,0,12.808-.388,11.3,11.3,0,0,0,18.132.585,11.167,11.167,0,0,0,5.8,1.607,11.332,11.332,0,0,0,11.32-11.32,11.189,11.189,0,0,0-.707-3.923,11.268,11.268,0,0,0,3.188-10.06l-.834-2.664a11.348,11.348,0,0,0-7.07-6.186,13.909,13.909,0,0,0-9.227-11.657l-2.664-.646a14.075,14.075,0,0,0-2-.156,13.828,13.828,0,0,0-8.52,2.94,9.244,9.244,0,0,0-9.459-2.537m29.277,13.164.038,1.051,1.03.207a8.625,8.625,0,0,1,5.612,3.922l1.067,2.563a8.407,8.407,0,0,1,.266,2,8.609,8.609,0,0,1-2.143,5.682,11.153,11.153,0,0,0-8.425-4.481L233,84.97a8.42,8.42,0,0,1,8.064,8.595,8.659,8.659,0,0,1-8.642,8.355,8.573,8.573,0,0,1-5.317-1.836l-.532-.416a8.633,8.633,0,0,1-2.8-5.828l-2.657.178a11.268,11.268,0,0,0,3.385,7.339,8.635,8.635,0,0,1-14.481-1.6L209.2,98.1l-1.312,1.3a8.544,8.544,0,0,1-9.141,1.936,11.314,11.314,0,0,0,5.04-9.411c0-.284-.037-.56-.057-.839.431-3.4-3.322-7.776-6-9.186l-1.242,2.357a8.652,8.652,0,0,1-1.078,15.8,9.04,9.04,0,0,1-1.423.385c-.032.005-.064.009-.1.015a8.537,8.537,0,0,1-1.429.127,8.64,8.64,0,0,1-7.814-12.362l.366-.767-.544-.656a8.654,8.654,0,0,1,4.948-14.013l1.022-.2.048-1.039a8.635,8.635,0,0,1,3.973-6.886l2.664-1.122a8.444,8.444,0,0,1,5.045.323l.952.359.6-.822c.02-.029.044-.053.066-.081l2.664-2.11a6.566,6.566,0,0,1,7.486,1.51,14.359,14.359,0,0,0-3.824,9.236c0,7.712,6.992,13.984,13.651,13.984V83.274c-5.327,0-10.987-5.077-10.987-11.32a11.521,11.521,0,0,1,3.032-7.524l.763-.648a11.323,11.323,0,0,1,7.818-3.148,11.789,11.789,0,0,1,2.038.184V65.96a6.666,6.666,0,0,1-6.659,6.659h-1.332v2.665h1.332a9.335,9.335,0,0,0,9.323-9.324V61.641A11.267,11.267,0,0,1,235.724,71.537Z" transform="translate(-179.812 -57.971)" fill="#0f2771"/>
                        </g>
                      </g>
                    </g>
                  </g>
                  <circle id="Elipse_5582" data-name="Elipse 5582" cx="45.88" cy="45.88" r="45.88" transform="translate(217.085 181.818) rotate(-76.504)" fill="#feca2e"/>
                  <circle id="Elipse_5587" data-name="Elipse 5587" cx="30.76" cy="30.76" r="30.76" transform="translate(286.072 14.015)" fill="#afafaf"/>
                  <circle id="Elipse_5589" data-name="Elipse 5589" cx="11.068" cy="11.068" r="11.068" transform="translate(346.528 159.43)" fill="#e8e8e8"/>
                  <circle id="Elipse_5590" data-name="Elipse 5590" cx="25.943" cy="25.943" r="25.943" transform="translate(457.856 127.56) rotate(-80)" fill="#afafaf"/>
                  <g id="Grupo_180354" data-name="Grupo 180354" transform="translate(444.176 137.691)">
                    <path id="Trazado_211195" data-name="Trazado 211195" d="M54.724,0A54.724,54.724,0,1,1,0,54.724,54.724,54.724,0,0,1,54.724,0Z" transform="matrix(0.193, -0.981, 0.981, 0.193, 0, 107.384)" fill="#feca2e"/>
                    <g id="Grupo_180359" data-name="Grupo 180359" transform="translate(30.322 33.86)">
                      <path id="Trazado_211223" data-name="Trazado 211223" d="M5375.988,1355.888l8.621-8.4a1.009,1.009,0,0,0-.559-1.72l-11.913-1.731-5.327-10.795a1.008,1.008,0,0,0-1.809,0l-5.328,10.795-11.913,1.731a1.009,1.009,0,0,0-.559,1.72l8.62,8.4-2.035,11.865a1.009,1.009,0,0,0,1.463,1.063l10.655-5.6,10.655,5.6a1.009,1.009,0,0,0,1.463-1.063Zm-9.613,5.294a1.012,1.012,0,0,0-.939,0l-9.315,4.9,1.779-10.373a1.009,1.009,0,0,0-.29-.893l-7.537-7.346,10.415-1.513a1.008,1.008,0,0,0,.759-.552l4.658-9.438,4.657,9.438a1.011,1.011,0,0,0,.76.552l10.415,1.513-7.536,7.346a1.009,1.009,0,0,0-.291.893l1.779,10.373Z" transform="translate(-5331.923 -1309.866)" fill="#0f2771"/>
                      <path id="Trazado_211224" data-name="Trazado 211224" d="M5321.553,1386.009h-17l3.387-3.517a1.009,1.009,0,0,0,0-1.4l-3.387-3.517h8.674a1.009,1.009,0,1,0,0-2.017h-11.046a1.009,1.009,0,0,0-.726,1.708l4.359,4.525-4.359,4.525a1.008,1.008,0,0,0,.726,1.708h19.368a1.008,1.008,0,0,0,0-2.017Z" transform="translate(-5301.177 -1338.703)" fill="#0f2771"/>
                      <path id="Trazado_211225" data-name="Trazado 211225" d="M5459.79,1381.792l4.358-4.525a1.009,1.009,0,0,0-.726-1.708h-11.046a1.009,1.009,0,0,0,0,2.017h8.674l-3.387,3.517a1.008,1.008,0,0,0,0,1.4l3.387,3.517h-17a1.008,1.008,0,1,0,0,2.017h19.367a1.008,1.008,0,0,0,.726-1.708Z" transform="translate(-5396.581 -1338.703)" fill="#0f2771"/>
                      <path id="Trazado_211226" data-name="Trazado 211226" d="M5391.6,1276.5a6.736,6.736,0,1,0-6.735-6.736A6.744,6.744,0,0,0,5391.6,1276.5Zm0-11.454a4.719,4.719,0,1,1-4.719,4.719A4.724,4.724,0,0,1,5391.6,1265.047Z" transform="translate(-5357.455 -1263.03)" fill="#0f2771"/>
                      <path id="Trazado_211227" data-name="Trazado 211227" d="M5369.94,1326.364a1.007,1.007,0,0,0,1.2-.774l2.322-10.8a6.447,6.447,0,0,1,6.271-5.065h2.756a6.431,6.431,0,0,1,6.289,5.156l2.139,10.693a1.008,1.008,0,0,0,1.978-.4l-2.139-10.693a8.453,8.453,0,0,0-8.267-6.777h-2.756a8.475,8.475,0,0,0-8.242,6.658l-2.323,10.8A1.01,1.01,0,0,0,5369.94,1326.364Z" transform="translate(-5346.883 -1293.076)" fill="#0f2771"/>
                      <path id="Trazado_211228" data-name="Trazado 211228" d="M5329.6,1296.522a5.93,5.93,0,1,0-5.93-5.93A5.937,5.937,0,0,0,5329.6,1296.522Zm0-9.843a3.913,3.913,0,1,1-3.913,3.913A3.917,3.917,0,0,1,5329.6,1286.679Z" transform="translate(-5316.3 -1277.577)" fill="#0f2771"/>
                      <path id="Trazado_211229" data-name="Trazado 211229" d="M5312.06,1338.7a1.008,1.008,0,0,0,1.18-.8l1.639-8.594a5.4,5.4,0,0,1,5.247-4.229h2.368a5.384,5.384,0,0,1,5.265,4.316,1.008,1.008,0,0,0,1.978-.4,7.405,7.405,0,0,0-7.242-5.938h-2.368a7.427,7.427,0,0,0-7.222,5.833c0,.008,0,.015,0,.023l-1.642,8.606A1.008,1.008,0,0,0,5312.06,1338.7Z" transform="translate(-5307.944 -1303.396)" fill="#0f2771"/>
                      <path id="Trazado_211230" data-name="Trazado 211230" d="M5456.012,1296.522a5.93,5.93,0,1,0-5.93-5.93A5.937,5.937,0,0,0,5456.012,1296.522Zm0-9.843a3.913,3.913,0,1,1-3.913,3.913A3.917,3.917,0,0,1,5456.012,1286.679Z" transform="translate(-5401.312 -1277.577)" fill="#0f2771"/>
                      <path id="Trazado_211231" data-name="Trazado 211231" d="M5443,1330.181a1.008,1.008,0,0,0,1.187-.791,5.384,5.384,0,0,1,5.266-4.316h2.368a5.4,5.4,0,0,1,5.248,4.229l1.639,8.594a1.009,1.009,0,1,0,1.981-.378l-1.642-8.606c0-.008,0-.015,0-.023a7.425,7.425,0,0,0-7.222-5.833h-2.368a7.407,7.407,0,0,0-7.244,5.938A1.009,1.009,0,0,0,5443,1330.181Z" transform="translate(-5396.001 -1303.396)" fill="#0f2771"/>
                    </g>
                  </g>
                  <g id="Grupo_180355" data-name="Grupo 180355" transform="translate(342.15)">
                    <g id="Grupo_180348" data-name="Grupo 180348" transform="translate(0 0)">
                      <path id="Trazado_211195-2" data-name="Trazado 211195" d="M54.724,0A54.724,54.724,0,1,1,0,54.724,54.724,54.724,0,0,1,54.724,0Z" transform="matrix(0.193, -0.981, 0.981, 0.193, 0, 107.384)" fill="#feca2e"/>
                    </g>
                    <g id="Grupo_180360" data-name="Grupo 180360" transform="translate(29.998 26.862)">
                      <path id="Trazado_211232" data-name="Trazado 211232" d="M4471.728,1379.061a5.693,5.693,0,1,0-5.692-5.693A5.7,5.7,0,0,0,4471.728,1379.061Zm0-9.195a3.5,3.5,0,1,1-3.5,3.5A3.506,3.506,0,0,1,4471.728,1369.867Z" transform="translate(-4463.395 -1329.293)" fill="#0f2771"/>
                      <path id="Trazado_211233" data-name="Trazado 211233" d="M4466.509,1403.7a8.342,8.342,0,0,0-8.333,8.332v3.806a1.095,1.095,0,1,0,2.19,0v-3.806a6.142,6.142,0,0,1,12.285,0v3.806a1.095,1.095,0,1,0,2.19,0v-3.806A8.342,8.342,0,0,0,4466.509,1403.7Z" transform="translate(-4458.176 -1353.218)" fill="#0f2771"/>
                      <path id="Trazado_211234" data-name="Trazado 211234" d="M4481.057,1412.19a1.1,1.1,0,0,0-1.1,1.1v.292a1.1,1.1,0,1,0,2.19,0v-.292A1.1,1.1,0,0,0,4481.057,1412.19Z" transform="translate(-4472.643 -1358.854)" fill="#0f2771"/>
                      <path id="Trazado_211235" data-name="Trazado 211235" d="M4481.057,1420.884a1.1,1.1,0,0,0-1.1,1.1v5.111a1.1,1.1,0,1,0,2.19,0v-5.111A1.1,1.1,0,0,0,4481.057,1420.884Z" transform="translate(-4472.643 -1364.627)" fill="#0f2771"/>
                      <path id="Trazado_211236" data-name="Trazado 211236" d="M4612.569,1373.369a5.692,5.692,0,1,0,5.693-5.693A5.7,5.7,0,0,0,4612.569,1373.369Zm9.195,0a3.5,3.5,0,1,1-3.5-3.5A3.506,3.506,0,0,1,4621.764,1373.369Z" transform="translate(-4560.705 -1329.293)" fill="#0f2771"/>
                      <path id="Trazado_211237" data-name="Trazado 211237" d="M4613.043,1403.7a8.342,8.342,0,0,0-8.333,8.332v3.806a1.1,1.1,0,0,0,2.19,0v-3.806a6.142,6.142,0,1,1,12.284,0v3.806a1.1,1.1,0,0,0,2.19,0v-3.806A8.342,8.342,0,0,0,4613.043,1403.7Z" transform="translate(-4555.486 -1353.218)" fill="#0f2771"/>
                      <path id="Trazado_211238" data-name="Trazado 211238" d="M4626.682,1412.19a1.1,1.1,0,0,0-1.1,1.1v.292a1.1,1.1,0,1,0,2.19,0v-.292A1.1,1.1,0,0,0,4626.682,1412.19Z" transform="translate(-4569.35 -1358.854)" fill="#0f2771"/>
                      <path id="Trazado_211239" data-name="Trazado 211239" d="M4626.682,1420.884a1.1,1.1,0,0,0-1.1,1.1v5.111a1.1,1.1,0,1,0,2.19,0v-5.111A1.1,1.1,0,0,0,4626.682,1420.884Z" transform="translate(-4569.35 -1364.627)" fill="#0f2771"/>
                      <path id="Trazado_211240" data-name="Trazado 211240" d="M4545.624,1264.8a5.692,5.692,0,1,0-5.692-5.692A5.7,5.7,0,0,0,4545.624,1264.8Zm0-9.194a3.5,3.5,0,1,1-3.5,3.5A3.506,3.506,0,0,1,4545.624,1255.6Z" transform="translate(-4512.468 -1253.413)" fill="#0f2771"/>
                      <path id="Trazado_211241" data-name="Trazado 211241" d="M4533.168,1302.672a1.1,1.1,0,0,0,1.095-1.1v-3.806a6.142,6.142,0,0,1,12.284,0v3.806a1.1,1.1,0,1,0,2.19,0v-3.806a8.332,8.332,0,0,0-16.665,0v3.806A1.1,1.1,0,0,0,4533.168,1302.672Z" transform="translate(-4507.25 -1277.337)" fill="#0f2771"/>
                      <path id="Trazado_211242" data-name="Trazado 211242" d="M4555.616,1298.524a1.1,1.1,0,1,0-2.19,0v.73a1.1,1.1,0,1,0,2.19,0Z" transform="translate(-4521.43 -1282.643)" fill="#0f2771"/>
                      <path id="Trazado_211243" data-name="Trazado 211243" d="M4554.521,1306.557a1.1,1.1,0,0,0-1.1,1.1v5.257a1.1,1.1,0,1,0,2.19,0v-5.257A1.1,1.1,0,0,0,4554.521,1306.557Z" transform="translate(-4521.43 -1288.705)" fill="#0f2771"/>
                      <path id="Trazado_211244" data-name="Trazado 211244" d="M4585.791,1292.105a26.292,26.292,0,0,1,15.736,20.2,1.1,1.1,0,0,0,1.081.93,1.129,1.129,0,0,0,.167-.013,1.1,1.1,0,0,0,.917-1.248,28.483,28.483,0,0,0-17.048-21.882,1.1,1.1,0,0,0-.854,2.018Z" transform="translate(-4542.479 -1277.71)" fill="#0f2771"/>
                      <path id="Trazado_211245" data-name="Trazado 211245" d="M4473.8,1313.873a1.093,1.093,0,0,0,1.244-.924,26.291,26.291,0,0,1,15.188-20.084,1.1,1.1,0,0,0-.9-2,28.486,28.486,0,0,0-16.454,21.761A1.1,1.1,0,0,0,4473.8,1313.873Z" transform="translate(-4467.933 -1278.222)" fill="#0f2771"/>
                      <path id="Trazado_211246" data-name="Trazado 211246" d="M4542.438,1438.894a26.331,26.331,0,0,1-22.217-.1,1.1,1.1,0,0,0-.936,1.98,28.52,28.52,0,0,0,24.073.1,1.1,1.1,0,0,0-.92-1.988Z" transform="translate(-4498.341 -1376.454)" fill="#0f2771"/>
                      <path id="Trazado_211247" data-name="Trazado 211247" d="M4598.708,1328.287a1.118,1.118,0,0,0,.147-.01,1.1,1.1,0,0,0,.94-1.231,22.654,22.654,0,0,0-10.56-16.281,1.1,1.1,0,0,0-1.155,1.861,20.469,20.469,0,0,1,9.543,14.711A1.1,1.1,0,0,0,4598.708,1328.287Z" transform="translate(-4544.1 -1291.39)" fill="#0f2771"/>
                      <path id="Trazado_211248" data-name="Trazado 211248" d="M4500.68,1310.332a22.645,22.645,0,0,0-10.771,16.194,1.095,1.095,0,1,0,2.167.314,20.47,20.47,0,0,1,9.735-14.632,1.095,1.095,0,1,0-1.131-1.875Z" transform="translate(-4479.241 -1291.107)" fill="#0f2771"/>
                      <path id="Trazado_211249" data-name="Trazado 211249" d="M4540.6,1415.331a20.546,20.546,0,0,1-26.134,0,1.1,1.1,0,0,0-1.394,1.689,22.737,22.737,0,0,0,28.923,0,1.1,1.1,0,0,0-1.395-1.689Z" transform="translate(-4494.364 -1360.773)" fill="#0f2771"/>
                    </g>
                  </g>
                  <g id="Grupo_180358" data-name="Grupo 180358" transform="translate(236.597 112.305)">
                    <path id="Trazado_211201" data-name="Trazado 211201" d="M319.872,3442.927a14.276,14.276,0,1,0,17.311,10.389A14.292,14.292,0,0,0,319.872,3442.927Zm13.987,20.167a12.277,12.277,0,1,1,1.384-9.292A12.2,12.2,0,0,1,333.858,3463.093Z" transform="translate(-275.455 -3401.796)" fill="#0f2771"/>
                    <path id="Trazado_211202" data-name="Trazado 211202" d="M341.5,3466.208c-1.942-.289-2.337-.608-2.488-1.214-.141-.563.114-1.267,1.251-1.551a4.231,4.231,0,0,1,2.3.044.471.471,0,0,0,.6-.4l.16-1.363a.473.473,0,0,0-.34-.506,5.724,5.724,0,0,0-2.4-.137l-.35-1.4a.448.448,0,0,0-.557-.329l-1.17.292a.422.422,0,0,0-.307.544l.383,1.532a3.536,3.536,0,0,0-2.016,4.126c.517,2.069,2.374,2.589,4.308,2.84,1.787.252,2.157.8,2.3,1.361.208.833-.373,1.572-1.442,1.84a4.7,4.7,0,0,1-2.648-.119.471.471,0,0,0-.628.4l-.137,1.377a.46.46,0,0,0,.269.491,5.831,5.831,0,0,0,2.89.224l.368,1.473a.521.521,0,0,0,.625.329l1.188-.3a.463.463,0,0,0,.334-.568l-.4-1.59a3.8,3.8,0,0,0,2.09-4.324C345.37,3468.087,344.63,3466.656,341.5,3466.208Z" transform="translate(-293.156 -3412.682)" fill="#0f2771"/>
                    <path id="Trazado_211203" data-name="Trazado 211203" d="M261.791,3392.8H239.4v-4.917h18.386a1,1,0,1,0,0-2H239.4v-4.808h17.771a1,1,0,1,0,0-2H236.02v-4.808h23.925a1,1,0,1,0,0-2h-10.44v-2.548a.714.714,0,0,0-1.429,0v2.548H239.4v-4.756h1.449v2.208a.714.714,0,0,0,1.429,0v-2.208h2.322v2.208a.714.714,0,0,0,1.429,0v-2.208h20.772a1,1,0,1,0,0-2h-5.874V3350.76a18.273,18.273,0,0,1,.494-4.211,12.687,12.687,0,0,0,1.572.1c.337,0,.7-.014,1.068-.048a8.308,8.308,0,0,0,6.293-3.418c4.052-5.753,1.808-14.687,1.711-15.065a1,1,0,0,0-1.191-.725,29.279,29.279,0,0,0-7.4,2.972c-4.909,2.875-7.076,6.673-6.265,10.985a1,1,0,1,0,1.966-.37c-.647-3.444,1.127-6.428,5.275-8.868a27.363,27.363,0,0,1,5.888-2.5,26.173,26.173,0,0,1,.418,3.91c.072,2.461-.223,5.936-2.036,8.51a6.275,6.275,0,0,1-4.781,2.572,10.329,10.329,0,0,1-1.944,0,20.166,20.166,0,0,1,5.058-7.849,1,1,0,0,0-1.3-1.52,21.679,21.679,0,0,0-6,9.754.752.752,0,0,0-.081.291,20.549,20.549,0,0,0-.744,5.486v4.867a28.779,28.779,0,0,0-2.086-2.679c.277-1.056,1.118-5.249-2.115-7.854-4.3-3.461-13.364-2.5-13.748-2.455a1,1,0,0,0-.846,1.288c.166.539,4.007,12.742,11.564,12.741a7.174,7.174,0,0,0,.871-.054,1,1,0,1,0-.242-1.985c-2.636.32-5.147-1.415-7.461-5.158a29.844,29.844,0,0,1-2.4-4.937,33.533,33.533,0,0,1,3.564,0c3.388.191,5.961.922,7.441,2.115a5.052,5.052,0,0,1,1.653,4.517,17.781,17.781,0,0,0-3.64-2.745,1,1,0,1,0-.916,1.778c.047.024,4.689,2.477,8.359,9.258v6.048H238.4a1,1,0,0,0-1,1v5.756h-2.385a1,1,0,0,0-1,1v6.808a1,1,0,0,0,1,1H237.4V3393.8a1,1,0,0,0,1,1h23.387a1,1,0,0,0,0-2Z" transform="translate(-226.946 -3327.366)" fill="#0f2771"/>
                    <path id="Trazado_211204" data-name="Trazado 211204" d="M382.9,3359.413a1,1,0,0,0,1-1v-.893a1,1,0,1,0-2,0v.893A1,1,0,0,0,382.9,3359.413Z" transform="translate(-322.545 -3346.213)" fill="#0f2771"/>
                    <path id="Trazado_211205" data-name="Trazado 211205" d="M382.9,3376.734a1,1,0,0,0,1-1v-.893a1,1,0,1,0-2,0v.893A1,1,0,0,0,382.9,3376.734Z" transform="translate(-322.545 -3357.41)" fill="#0f2771"/>
                    <path id="Trazado_211206" data-name="Trazado 211206" d="M372.973,3368.444h.893a1,1,0,0,0,0-2h-.893a1,1,0,0,0,0,2Z" transform="translate(-316.13 -3352.628)" fill="#0f2771"/>
                    <path id="Trazado_211207" data-name="Trazado 211207" d="M390.3,3368.444h.893a1,1,0,1,0,0-2H390.3a1,1,0,0,0,0,2Z" transform="translate(-327.328 -3352.628)" fill="#0f2771"/>
                    <path id="Trazado_211208" data-name="Trazado 211208" d="M353.951,3406.552a1,1,0,0,0,1-1v-.893a1,1,0,1,0-2,0v.893A1,1,0,0,0,353.951,3406.552Z" transform="translate(-303.833 -3376.687)" fill="#0f2771"/>
                    <path id="Trazado_211209" data-name="Trazado 211209" d="M353.951,3423.874a1,1,0,0,0,1-1v-.893a1,1,0,0,0-2,0v.893A1,1,0,0,0,353.951,3423.874Z" transform="translate(-303.833 -3387.885)" fill="#0f2771"/>
                    <path id="Trazado_211210" data-name="Trazado 211210" d="M344.027,3415.583h.893a1,1,0,0,0,0-2h-.893a1,1,0,1,0,0,2Z" transform="translate(-297.417 -3383.103)" fill="#0f2771"/>
                    <path id="Trazado_211211" data-name="Trazado 211211" d="M361.35,3415.583h.893a1,1,0,0,0,0-2h-.893a1,1,0,1,0,0,2Z" transform="translate(-308.615 -3383.103)" fill="#0f2771"/>
                    <path id="Trazado_211212" data-name="Trazado 211212" d="M224.937,3400.764a1,1,0,0,0-1,1v.893a1,1,0,0,0,2,0v-.893A1,1,0,0,0,224.937,3400.764Z" transform="translate(-220.429 -3374.816)" fill="#0f2771"/>
                    <path id="Trazado_211213" data-name="Trazado 211213" d="M224.937,3418.086a1,1,0,0,0-1,1v.893a1,1,0,0,0,2,0v-.893A1,1,0,0,0,224.937,3418.086Z" transform="translate(-220.429 -3386.014)" fill="#0f2771"/>
                    <path id="Trazado_211214" data-name="Trazado 211214" d="M215.906,3410.688h-.893a1,1,0,1,0,0,2h.893a1,1,0,0,0,0-2Z" transform="translate(-214.013 -3381.231)" fill="#0f2771"/>
                    <path id="Trazado_211215" data-name="Trazado 211215" d="M233.229,3412.689a1,1,0,0,0,0-2h-.893a1,1,0,1,0,0,2Z" transform="translate(-225.211 -3381.231)" fill="#0f2771"/>
                    <path id="Trazado_211216" data-name="Trazado 211216" d="M390.347,3411.527a1.279,1.279,0,1,0-1.279-1.279A1.279,1.279,0,0,0,390.347,3411.527Z" transform="translate(-327.181 -3380.12)" fill="#0f2771"/>
                    <path id="Trazado_211217" data-name="Trazado 211217" d="M391.174,3442.876a1.279,1.279,0,1,0,1.279,1.28A1.279,1.279,0,0,0,391.174,3442.876Z" transform="translate(-327.716 -3402.04)" fill="#0f2771"/>
                    <path id="Trazado_211218" data-name="Trazado 211218" d="M224.531,3369.272a1.279,1.279,0,1,0,1.279,1.279A1.279,1.279,0,0,0,224.531,3369.272Z" transform="translate(-219.986 -3354.457)" fill="#0f2771"/>
                    <path id="Trazado_211219" data-name="Trazado 211219" d="M284.181,3443.736v.747a.714.714,0,0,0,1.429,0v-.747a.714.714,0,1,0-1.429,0Z" transform="translate(-259.375 -3402.134)" fill="#0f2771"/>
                    <path id="Trazado_211220" data-name="Trazado 211220" d="M257.138,3464.156v1.054a.714.714,0,0,0,1.429,0v-1.054a.714.714,0,1,0-1.429,0Z" transform="translate(-241.892 -3415.335)" fill="#0f2771"/>
                    <path id="Trazado_211221" data-name="Trazado 211221" d="M247.346,3464.156v1.054a.714.714,0,0,0,1.429,0v-1.054a.714.714,0,1,0-1.429,0Z" transform="translate(-235.562 -3415.335)" fill="#0f2771"/>
                    <path id="Trazado_211222" data-name="Trazado 211222" d="M267.749,3464.156v.334a.714.714,0,1,0,1.429,0v-.334a.714.714,0,1,0-1.429,0Z" transform="translate(-248.752 -3415.335)" fill="#0f2771"/>
                  </g>
                </g>
              </g>
            </g>
          </g>
        </g>
      </g>
    </g>
  </g>
</svg>
