<svg xmlns="http://www.w3.org/2000/svg" width="130" height="130" viewBox="0 0 130 130">
  <g id="Grupo_210466" data-name="Grupo 210466" transform="translate(-733 -2549)">
    <g id="Grupo_210465" data-name="Grupo 210465">
      <g id="Grupo_210371" data-name="Grupo 210371" transform="translate(0 -4)">
        <circle id="Elipse_16196" data-name="Elipse 16196" cx="65" cy="65" r="65" transform="translate(733 2553)" fill="#feca2e"/>
        <g id="Grupo_210350" data-name="Grupo 210350" transform="translate(758 2578)">
          <path id="Trazado_221339" data-name="Trazado 221339" d="M546.752,121.307a1.338,1.338,0,0,1-1.2-.749,26.675,26.675,0,0,0-2.289-3.822,1.338,1.338,0,1,1,2.172-1.564,29.342,29.342,0,0,1,2.521,4.209,1.335,1.335,0,0,1-1.2,1.927Z" transform="translate(-491.954 -102.874)" fill="#12263f"/>
          <path id="Trazado_221340" data-name="Trazado 221340" d="M547.187,126.986a1.34,1.34,0,0,1-1.337-1.259,26.811,26.811,0,0,0-.831-5.249,1.338,1.338,0,0,1,2.589-.678,29.6,29.6,0,0,1,.915,5.771,1.339,1.339,0,0,1-1.257,1.416Z" transform="translate(-489.573 -97.812)" fill="#12263f"/>
          <path id="Trazado_221341" data-name="Trazado 221341" d="M546.142,131.064a1.339,1.339,0,0,1-1.277-1.741,27.135,27.135,0,0,0,.981-4.35,1.338,1.338,0,0,1,2.651.371,29.487,29.487,0,0,1-1.08,4.783A1.339,1.339,0,0,1,546.142,131.064Z" transform="translate(-489.782 -91.74)" fill="#12263f"/>
          <path id="Trazado_221342" data-name="Trazado 221342" d="M549.394,168.288a29.489,29.489,0,1,1,23.982-46.69l-2.174,1.562a26.814,26.814,0,1,0,3.78,23.724l2.552.8a29.49,29.49,0,0,1-28.141,20.6Z" transform="translate(-519.899 -109.3)" fill="#12263f"/>
          <path id="Trazado_221343" data-name="Trazado 221343" d="M545.435,157.1a22.259,22.259,0,1,1,15.748-6.511A22.2,22.2,0,0,1,545.435,157.1Zm0-41.845a19.585,19.585,0,1,0,13.855,5.729A19.531,19.531,0,0,0,545.435,115.25Z" transform="translate(-515.94 -105.341)" fill="#12263f"/>
          <path id="Trazado_221344" data-name="Trazado 221344" d="M568.217,165.673a8.034,8.034,0,0,1-5.7-2.357l-22.889-22.889a1.337,1.337,0,0,1,.254-2.09,25.959,25.959,0,0,0,9.052-9.052,1.337,1.337,0,0,1,2.09-.254l22.889,22.889a8.055,8.055,0,0,1-5.7,13.753ZM542.7,139.708l21.716,21.714a5.38,5.38,0,1,0,7.609-7.609L550.308,132.1a28.1,28.1,0,0,1-7.611,7.611Z" transform="translate(-496.511 -85.911)" fill="#12263f"/>
          <path id="Trazado_221345" data-name="Trazado 221345" d="M543.369,143.611a1.338,1.338,0,0,1-.945-2.284l9.5-9.5a1.339,1.339,0,0,1,1.893,1.893l-9.5,9.5A1.342,1.342,0,0,1,543.369,143.611Z" transform="translate(-493.134 -82.535)" fill="#12263f"/>
          <path id="Trazado_221346" data-name="Trazado 221346" d="M545.6,145.843a1.338,1.338,0,0,1-.948-2.284l9.5-9.5a1.339,1.339,0,1,1,1.893,1.893l-9.5,9.5A1.333,1.333,0,0,1,545.6,145.843Z" transform="translate(-490.433 -79.834)" fill="#12263f"/>
          <path id="Trazado_221347" data-name="Trazado 221347" d="M536.843,128.158a6.565,6.565,0,1,1,6.566-6.566A6.573,6.573,0,0,1,536.843,128.158Zm0-10.455a3.888,3.888,0,1,0,3.888,3.888A3.893,3.893,0,0,0,536.843,117.7Z" transform="translate(-507.348 -102.373)" fill="#12263f"/>
          <path id="Trazado_221348" data-name="Trazado 221348" d="M551.291,137.33a1.339,1.339,0,0,1-1.339-1.339v-7.583a4.327,4.327,0,0,0-4.322-4.322H534.577a4.328,4.328,0,0,0-4.321,4.322v7.583a1.338,1.338,0,1,1-2.676,0v-7.583a7.006,7.006,0,0,1,7-7H545.63a7.006,7.006,0,0,1,7,7v7.583A1.341,1.341,0,0,1,551.291,137.33Z" transform="translate(-510.61 -94.652)" fill="#12263f"/>
          <path id="Trazado_221349" data-name="Trazado 221349" d="M531.8,132.111a1.339,1.339,0,0,1-1.339-1.339v-3.705a1.339,1.339,0,0,1,2.678,0v3.705A1.341,1.341,0,0,1,531.8,132.111Z" transform="translate(-507.125 -89.433)" fill="#12263f"/>
          <path id="Trazado_221350" data-name="Trazado 221350" d="M536.163,132.111a1.339,1.339,0,0,1-1.339-1.339v-3.705a1.339,1.339,0,0,1,2.678,0v3.705A1.341,1.341,0,0,1,536.163,132.111Z" transform="translate(-501.85 -89.433)" fill="#12263f"/>
        </g>
        <circle id="Elipse_16199" data-name="Elipse 16199" cx="18" cy="18" r="18" transform="translate(733 2553)" fill="#0f2771"/>
        <path id="Trazado_221379" data-name="Trazado 221379" d="M6,0H-5.906V-2.578L-.422-8.344q2.027-2.309,2.027-3.668a2.551,2.551,0,0,0-.48-1.676A1.715,1.715,0,0,0-.27-14.262a1.737,1.737,0,0,0-1.465.768A3.155,3.155,0,0,0-2.3-11.578H-6.258a5.6,5.6,0,0,1,.785-2.9,5.506,5.506,0,0,1,2.18-2.08,6.475,6.475,0,0,1,3.117-.75,6.369,6.369,0,0,1,4.26,1.277,4.56,4.56,0,0,1,1.494,3.668A5.326,5.326,0,0,1,5.2-10.4a8.608,8.608,0,0,1-1.166,2A29.372,29.372,0,0,1,1.488-5.59l-2.2,2.543H6Z" transform="translate(751 2580)" fill="#fff"/>
      </g>
    </g>
  </g>
</svg>
